<svg width="13" height="13" viewBox="0 0 13 13" fill="none" xmlns="http://www.w3.org/2000/svg">
<path d="M-8.01423e-05 6.16634C-8.01221e-05 5.70384 0.308253 5.39551 0.770753 5.39551L11.5624 5.39551C12.0249 5.39551 12.3333 5.70384 12.3333 6.16634C12.3333 6.62884 12.0249 6.93717 11.5624 6.93717L0.770753 6.93717C0.308253 6.93717 -8.01626e-05 6.62884 -8.01423e-05 6.16634Z" fill="black"/>
<path d="M5.39575 11.5625C5.39575 11.3312 5.47284 11.1771 5.627 11.0229L10.4833 6.16667L5.627 1.31042C5.31867 1.00208 5.31867 0.539583 5.627 0.23125C5.93534 -0.0770836 6.39784 -0.0770836 6.70617 0.23125L12.102 5.62708C12.4103 5.93542 12.4103 6.39792 12.102 6.70625L6.70617 12.1021C6.39783 12.4104 5.93534 12.4104 5.627 12.1021C5.47284 11.9479 5.39575 11.7937 5.39575 11.5625Z" fill="black"/>
</svg>
