<svg width="21" height="20" viewBox="0 0 21 20" fill="none" xmlns="http://www.w3.org/2000/svg">
<path d="M1.00405 20C0.704052 20 0.504052 19.9 0.304052 19.7C0.00405186 19.4 -0.0959482 19 0.104052 18.7L1.90405 13.4C1.30405 12.2 1.00405 10.8 1.00405 9.5C1.00405 5.9 3.00405 2.6 6.30405 1C7.60405 0.3 9.10405 0 10.5041 0H11.0041C15.9041 0.3 19.7041 4.1 20.0041 8.9V9.5C20.0041 11 19.7041 12.4 19.0041 13.8C17.4041 17 14.1041 19 10.5041 19C9.20405 19 7.80405 18.7 6.60405 18.2L1.30405 20C1.20405 20 1.10405 20 1.00405 20ZM10.5041 2C9.30405 2 8.20405 2.3 7.20405 2.8C4.60405 4.1 3.00405 6.6 3.00405 9.5C3.00405 10.7 3.30405 11.8 3.80405 12.8C3.90405 13 3.90405 13.3 3.90405 13.6L2.60405 17.4L6.40405 16.1C6.70405 16 6.90405 16 7.20405 16.2C8.20405 16.7 9.40405 17 10.5041 17C13.4041 17 15.9041 15.4 17.2041 12.9C17.7041 11.9 18.0041 10.7 18.0041 9.6V9C17.8041 5.2 14.8041 2.2 10.9041 2H10.5041Z" fill="#00D4A4"/>
</svg>
