<svg width="16" height="16" viewBox="0 0 16 16" fill="none" xmlns="http://www.w3.org/2000/svg">
<path d="M0.803079 16C0.563127 16 0.40316 15.92 0.243192 15.76C0.00324083 15.52 -0.076743 15.2 0.0832246 14.96L1.52293 10.72C1.04303 9.76 0.803079 8.64 0.803079 7.6C0.803079 4.72 2.40275 2.08 5.04222 0.8C6.08201 0.24 7.28177 0 8.40154 0H8.80146C12.7207 0.24 15.76 3.28 16 7.12V7.6C16 8.8 15.76 9.92 15.2002 11.04C13.9204 13.6 11.281 15.2 8.40154 15.2C7.36175 15.2 6.24198 14.96 5.28217 14.56L1.04303 16C0.963046 16 0.883063 16 0.803079 16ZM8.40154 1.6C7.44173 1.6 6.56191 1.84 5.76207 2.24C3.6825 3.28 2.40275 5.28 2.40275 7.6C2.40275 8.56 2.64271 9.44 3.04263 10.24C3.12261 10.4 3.12261 10.64 3.12261 10.88L2.08282 13.92L5.1222 12.88C5.36216 12.8 5.52212 12.8 5.76207 12.96C6.56191 13.36 7.52172 13.6 8.40154 13.6C10.7211 13.6 12.7207 12.32 13.7605 10.32C14.1604 9.52 14.4003 8.56 14.4003 7.68V7.2C14.2404 4.16 11.8408 1.76 8.72148 1.6H8.40154Z" fill="#00D4A4"/>
</svg>
