<svg width="29" height="17" viewBox="0 0 29 17" fill="none" xmlns="http://www.w3.org/2000/svg">
<path d="M5 15.7143C4.78571 15.7143 4.64286 15.6429 4.5 15.5L0.214286 11.2143C-0.0714286 10.9286 -0.0714286 10.5 0.214286 10.2143C0.5 9.92857 0.928571 9.92857 1.21429 10.2143L5 14L8.78571 10.2143C9.07143 9.92857 9.5 9.92857 9.78571 10.2143C10.0714 10.5 10.0714 10.9286 9.78571 11.2143L5.5 15.5C5.35714 15.6429 5.21429 15.7143 5 15.7143Z" fill="black"/>
<path d="M5 6.96579e-05C5.21429 6.96767e-05 5.35714 0.0714984 5.5 0.214356L9.78571 4.50007C10.0714 4.78578 10.0714 5.21436 9.78571 5.50007C9.5 5.78578 9.07143 5.78578 8.78571 5.50007L5 1.71435L1.21429 5.50007C0.928573 5.78578 0.5 5.78578 0.214286 5.50007C-0.0714285 5.21435 -0.0714284 4.78578 0.214286 4.50007L4.5 0.214355C4.64286 0.0714983 4.78572 6.96392e-05 5 6.96579e-05Z" fill="black"/>
</svg>
