<svg width="122" height="122" viewBox="0 0 122 122" fill="none" xmlns="http://www.w3.org/2000/svg">
<path d="M61.1 112.7C86.008 112.7 106.2 92.508 106.2 67.6C106.2 42.692 86.008 22.5 61.1 22.5C36.192 22.5 16 42.692 16 67.6C16 92.508 36.192 112.7 61.1 112.7Z" stroke="black" stroke-width="2"/>
<path d="M58.3999 93.8C58.1999 93 57.4999 92.3 56.8999 91.7L42.5999 77.4C41.6999 76.5 40.3999 75.9 39.0999 75.9C37.7999 75.9 36.4999 76.4 35.5999 77.4C34.8999 78.1 34.4999 78.9 34.2999 79.9L31.3999 77V60.7C31.3999 60 31.2999 59.4 30.9999 58.8C30.7999 58.2 30.3999 57.6 29.8999 57.1C29.3999 56.6 28.8999 56.2 28.2999 56C27.6999 55.7 26.9999 55.6 26.3999 55.6C25.6999 55.6 25.0999 55.7 24.4999 56C23.8999 56.3 23.2999 56.6 22.8999 57.1C22.3999 57.6 22.0999 58.1 21.7999 58.8C21.5999 59.4 21.3999 60.1 21.3999 60.7V79.3C21.3999 80.2 21.5999 81 22.0999 81.8C22.4999 82.6 23.1999 83.2 23.8999 83.6L44.1999 104.1C44.3999 104.3 44.5999 104.4 44.7999 104.6V115.9C49.0999 117.6 53.5999 114.2 58.3999 114.8V93.8V93.8Z" fill="#00D4A4"/>
<path d="M47.5 117C49.1 117 50.7 116.6 52.3 116.2H52.4C54.4 115.7 56.4 115.2 58.4 115.4L59 115.5H59.1V115.4V93.6999V93.5999C58.8 92.6999 58.1 91.7999 57.5 91.1999L43.1 76.8999C42 75.7999 40.6 75.1999 39.1 75.1999C37.6 75.1999 36.2 75.7999 35.1 76.8999C34.6 77.3999 34.2 77.9999 33.9 78.5999L31.9 76.5999V60.5999C31.9 59.7999 31.8 59.0999 31.5 58.3999C31.2 57.6999 30.8 57.0999 30.3 56.4999C29.8 55.8999 29.1 55.4999 28.4 55.1999C27.7 54.8999 27 54.7999 26.2 54.7999C25.4 54.7999 24.7 54.8999 24 55.1999C23.3 55.4999 22.7 55.8999 22.1 56.4999C21.6 56.9999 21.2 57.6999 20.9 58.3999C20.6 59.0999 20.5 59.7999 20.5 60.5999V79.1999C20.5 80.1999 20.8 81.0999 21.3 81.9999C21.8 82.7999 22.5 83.5999 23.3 84.0999L43.7 104.5C43.8 104.6 44 104.7 44.1 104.9V116.2V116.3H44.2L44.6 116.4C45.5 116.8 46.5 117 47.5 117ZM42.1 77.8999L56.4 92.1999C56.9 92.6999 57.4 93.2999 57.7 93.8999V114C55.7 113.9 53.8 114.4 52 114.9C49.7 115.5 47.5 116.1 45.5 115.4V104.3V104.2L45.3 104C45.1 103.9 44.9 103.7 44.8 103.6L24.2 83.1999V83.0999H24.1C23.4 82.6999 22.9 82.1999 22.5 81.4999C22.1 80.7999 21.9 80.0999 21.9 79.2999V60.6999C21.9 60.0999 22 59.4999 22.2 58.9999C22.4 58.4999 22.7 57.9999 23.1 57.5999C23.5 57.1999 24 56.8999 24.5 56.5999C25 56.3999 25.6 56.2999 26.2 56.2999C26.8 56.2999 27.4 56.3999 27.9 56.5999C28.4 56.7999 28.9 57.1999 29.3 57.5999C29.7 57.9999 30 58.4999 30.2 58.9999C30.4 59.4999 30.5 60.0999 30.5 60.6999V77.1999L34.3 80.9999L34.4 81.0999V80.8999L34.6 79.8999C34.8 79.0999 35.1 78.3999 35.7 77.8999C36.2 77.2999 36.9 76.8999 37.7 76.6999C38.4 76.4999 39.2 76.4999 40 76.6999C40.9 76.8999 41.6 77.2999 42.1 77.8999Z" fill="black" stroke="black" stroke-width="0.2"/>
<path d="M64.3003 93.8V114.7C69.0003 114.1 73.6003 117.5 77.9003 115.8V104.5C78.1003 104.4 78.3003 104.2 78.5003 104L99.0003 83.5C99.8003 83.1 100.4 82.4 100.8 81.7C101.2 80.9 101.5 80.1 101.5 79.2V60.7C101.5 60 101.4 59.4 101.1 58.8C100.9 58.2 100.5 57.6 100 57.1C99.5003 56.6 99.0003 56.2 98.4003 56C97.8003 55.7 97.1003 55.6 96.5003 55.6C95.8003 55.6 95.2003 55.7 94.6003 56C94.0003 56.3 93.4003 56.6 93.0003 57.1C92.5003 57.6 92.2003 58.1 91.9003 58.8C91.7003 59.4 91.5003 60.1 91.5003 60.7V76.9L88.6003 79.8C88.4003 78.9 87.9003 78 87.3003 77.3C86.4003 76.4 85.1003 75.8 83.8003 75.8C82.5003 75.8 81.2003 76.3 80.3003 77.3L65.8003 91.7C65.2003 92.3 64.5003 93 64.3003 93.8Z" fill="#00D4A4"/>
<path d="M78.1002 116.5L78.5002 116.4H78.6002V116.3V105C78.7002 104.9 78.9002 104.8 79.0002 104.6L99.4002 84.2C100.2 83.7 100.9 83 101.4 82.1C101.9 81.2 102.1 80.3 102.2 79.3V60.7C102.2 59.9 102.1 59.2 101.8 58.5C101.5 57.8 101.1 57.2 100.6 56.6C100.1 56.1 99.4002 55.6 98.7002 55.3C98.0002 55 97.3002 54.9 96.5002 54.9C95.7002 54.9 95.0002 55 94.3002 55.3C93.6002 55.6 93.0002 56 92.4002 56.6C91.8002 57.2 91.5002 57.8 91.2002 58.5C90.9002 59.2 90.8002 59.9 90.8002 60.7V76.7L88.8002 78.7C88.5002 78.1 88.1002 77.5 87.6002 77C86.5002 75.9 85.1002 75.3 83.6002 75.3C82.1002 75.3 80.7002 75.9 79.6002 77L65.3002 91.3C64.7002 91.9 64.0002 92.7 63.7002 93.7V93.8V115.5V115.6H63.8002L64.4002 115.5C66.4002 115.2 68.4002 115.8 70.4002 116.3H70.5002C72.1002 116.7 73.7002 117.1 75.3002 117.1C76.2002 117 77.2002 116.8 78.1002 116.5ZM82.5002 76.7C83.3002 76.5 84.0002 76.5 84.8002 76.7C85.5002 76.9 86.2002 77.3 86.8002 77.9C87.3002 78.5 87.7002 79.2 87.9002 79.9L88.1002 80.9V81.1L88.2002 81L92.0002 77.2V60.7C92.0002 60.1 92.1002 59.5 92.3002 59C92.5002 58.5 92.8002 58 93.2002 57.6C93.6002 57.2 94.1002 56.9 94.6002 56.6C95.1002 56.4 95.7002 56.3 96.3002 56.3C96.9002 56.3 97.5002 56.4 98.0002 56.6C98.5002 56.8 99.0002 57.2 99.4002 57.6C99.8002 58 100.1 58.5 100.3 59C100.5 59.5 100.6 60.1 100.6 60.7V79.3C100.6 80.1 100.4 80.8 100 81.5C99.6002 82.2 99.1002 82.7 98.4002 83.1H98.3002L98.2002 83.2L78.0002 103.6C77.8002 103.8 77.7002 103.9 77.5002 104L77.3002 104.2V104.3V115.4C75.3002 116 73.1002 115.5 70.8002 114.9C69.0002 114.4 67.0002 113.9 65.1002 114V93.9C65.3002 93.3 65.9002 92.6 66.4002 92.2L80.7002 77.9C81.1002 77.3 81.8002 76.9 82.5002 76.7Z" fill="black" stroke="black" stroke-width="0.2"/>
<path d="M59.3 78.5C53 76.4 46.9 72.5 42 67.6C36.2 61.8 32.1 54.7 30.3 47C28.4 39 27.3 31.6 27.1 24.9C26.9 19.8 27.4 17 27.4 16.6L27.9 13.4L31 12.5C31.1 12.5 34.7 11.4 44.5 8.89998C54.9 6.29998 59.8 5.29998 60 5.29998L61 5.09998L62 5.29998C62.2 5.29998 67.1 6.29998 77.5 8.99998C87.3 11.5 90.8 12.6 91 12.6L94.1 13.5L94.6 16.7C94.7 17 95.1 19.8 94.9 25C94.7 31.7 93.6 39.1 91.7 47.1C89.8 54.8 85.8 61.9 80 67.7C75.1 72.6 68.9 76.5 62.7 78.6L61 79.1L59.3 78.5Z" fill="white"/>
<path d="M61.5001 80.2L63.4001 79.6C69.7001 77.4 76.0001 73.5 80.9001 68.6C86.8001 62.8 90.9001 55.5 92.8001 47.8C94.7001 39.8 95.8001 32.4 96.1001 25.6C96.3001 20.4 95.8001 17.6 95.8001 17.2H95.7001H95.8001L95.2001 13.7V13.6H95.1001L91.7001 12.6C91.5001 12.5 88.0001 11.5 78.2001 9V9.1V9C67.9001 6.3 63.0001 5.3 62.7001 5.2L61.6001 5L60.5001 5.2C60.1001 5.3 55.2001 6.3 45.0001 8.9C35.3001 11.4 31.7001 12.4 31.5001 12.5L28.1001 13.5H28.0001V13.6L27.3001 17.1C27.2001 17.4 26.8001 20.3 27.0001 25.5C27.2001 32.2 28.3001 39.7 30.3001 47.7C32.2001 55.5 36.3001 62.7 42.2001 68.5C47.2001 73.5 53.4001 77.4 59.7001 79.5V79.4V79.5L61.5001 80.2ZM28.6001 17.4L29.0001 14.6L31.7001 13.8C31.8001 13.8 35.4001 12.7 45.1001 10.2C55.5001 7.5 60.4001 6.5 60.6001 6.5L61.5001 6.3L62.4001 6.5C62.4001 6.5 62.4001 6.5 62.5001 6.5C63.2001 6.7 68.1001 7.7 77.9001 10.2C87.6001 12.7 91.2001 13.7 91.3001 13.8L94.0001 14.6L94.4001 17.3C94.4001 17.6 94.9001 20.4 94.7001 25.4C94.5001 32 93.4001 39.4 91.5001 47.3C89.7001 54.9 85.7001 61.8 80.0001 67.5C75.2001 72.3 69.1001 76.1 63.0001 78.2L61.6001 78.7L60.2001 78.2C54.1001 76.1 48.0001 72.3 43.2001 67.5L43.0001 67.6L43.1001 67.5C37.4001 61.8 33.4001 54.8 31.6001 47.3C29.7001 39.4 28.6001 32 28.4001 25.4C28.1001 20.4 28.5001 17.6 28.6001 17.4Z" fill="black" stroke="black" stroke-width="0.2"/>
<path d="M61.2002 10.6C61.2002 10.6 66.0002 11.6 76.4002 14.3C86.2002 16.8 89.7002 17.9 89.7002 17.9C89.7002 17.9 91.3002 27.9 86.9002 46.2C83.3002 61 71.5002 70.6 61.2002 74.1C51.0002 70.6 39.2002 61 35.6002 46.2C31.1002 27.8 32.8002 17.9 32.8002 17.9C32.8002 17.9 36.2002 16.9 46.1002 14.3C56.5002 11.6 61.2002 10.6 61.2002 10.6Z" fill="#00D4A4"/>
<path d="M61.2 74.9L61 74.8C51.3 71.5 38.7 62 34.9 46.4C30.4 28 32 18.1 32 17.7L32.1 17.2L32.6 17.1C32.6 17.1 36.2 16.1 45.9 13.5C56.2 10.9 61 9.90002 61.1 9.90002H61.2H61.3C61.3 9.90002 66.2 10.9 76.5 13.6C86.4 16.1 89.9 17.1 89.9 17.1L90.4 17.2L90.5 17.7C90.6 18.1 92.1 28 87.7 46.3C83.9 62 71.3 71.4 61.6 74.7L61.2 74.9ZM33.5 18.4C33.3 20.6 32.5 30.2 36.4 46C40 60.9 52 70 61.2 73.3C70.5 70 82.5 60.9 86.1 46C90 30.2 89.3 20.6 89 18.4C87.8 18 84 17 76.2 15C66.9 12.6 62.1 11.6 61.2 11.4C60.3 11.6 55.5 12.6 46.2 15C38.5 17 34.7 18.1 33.5 18.4Z" fill="black"/>
<path d="M75.3999 41.5L62.9999 54.5C62.7999 54.7 62.5999 54.9 62.2999 55C61.9999 55 61.7999 55.1 61.4999 55.1C61.1999 55.1 60.9999 55 60.6999 54.9C60.3999 54.8 60.1999 54.6 59.9999 54.4L47.5999 41.5C43.9999 37.7 44.1999 31.5 48.1999 28C51.6999 25 56.9999 25.5 60.1999 28.9L61.4999 30.2L62.7999 28.9C65.9999 25.5 71.2999 25 74.7999 28C78.7999 31.6 79.0999 37.8 75.3999 41.5Z" fill="white"/>
</svg>
