<svg width="122" height="122" viewBox="0 0 122 122" fill="none" xmlns="http://www.w3.org/2000/svg">
<circle cx="61.1251" cy="68.5001" r="45.1251" stroke="black" stroke-width="2"/>
<path d="M56.0882 111.21V111.16H56.0382H44.2056H44.1556V111.21V112.525V112.575H44.2056H56.0382H56.0882V112.525V111.21Z" fill="#1E272E" stroke="black" stroke-width="0.1"/>
<path d="M48.4981 116.393H48.4982H72.8209C73.9319 116.392 75.0038 115.983 75.8327 115.243C76.6616 114.504 77.1896 113.485 77.316 112.381L81.2142 78.4329C81.2868 77.799 81.2246 77.1568 81.0316 76.5486C80.8387 75.9404 80.5194 75.3798 80.0947 74.9036C79.6699 74.4274 79.1494 74.0463 78.5671 73.7854C77.9848 73.5245 77.3539 73.3895 76.7158 73.3895H44.6033C43.9652 73.3895 43.3343 73.5245 42.752 73.7854C42.1697 74.0463 41.6491 74.4274 41.2244 74.9036C40.7997 75.3798 40.4804 75.9404 40.2874 76.5486C40.0945 77.1568 40.0323 77.799 40.1049 78.4329L40.1049 78.433L44.0113 112.381C44.1376 113.483 44.6643 114.501 45.4914 115.241C46.3186 115.98 47.3886 116.39 48.4981 116.393Z" fill="#00D4A4" stroke="black" stroke-width="0.1"/>
<path d="M72.8211 117.05H72.8211C74.0935 117.048 75.3208 116.579 76.2694 115.731C77.218 114.883 77.8216 113.716 77.9654 112.452L81.8603 78.4987C81.9437 77.7732 81.873 77.0382 81.6526 76.342C81.4322 75.6458 81.0673 75.0039 80.5816 74.4586C80.0959 73.9132 79.5005 73.4766 78.8344 73.1774C78.1682 72.8782 77.4463 72.723 76.7161 72.7222L44.6019 72.7222L44.6018 72.7222C43.8715 72.723 43.1497 72.8782 42.4835 73.1774C41.8174 73.4766 41.2219 73.9132 40.7363 74.4586C40.2506 75.0039 39.8856 75.6458 39.6653 76.342C39.4449 77.0382 39.3741 77.7732 39.4576 78.4987L43.3541 112.452C43.4979 113.716 44.1016 114.883 45.0502 115.731C45.9987 116.579 47.226 117.048 48.4984 117.05H48.4984H72.8211ZM44.6035 74.1402H44.6035H76.7193C77.2508 74.1399 77.7764 74.2521 78.2615 74.4693C78.7466 74.6865 79.1802 75.004 79.5339 75.4007C79.8876 75.7974 80.1534 76.2645 80.3137 76.7713C80.4741 77.278 80.5254 77.813 80.4643 78.341L80.4643 78.341L76.5677 112.294C76.4622 113.214 76.0221 114.063 75.3312 114.679C74.6402 115.295 73.7468 115.635 72.8211 115.635H48.5017C47.576 115.635 46.6826 115.295 45.9916 114.679C45.3007 114.063 44.8606 113.214 44.7551 112.294L40.8585 78.341L40.8585 78.341C40.7974 77.813 40.8487 77.278 41.0091 76.7713C41.1694 76.2645 41.4352 75.7974 41.7889 75.4007C42.1426 75.004 42.5762 74.6865 43.0613 74.4693C43.5464 74.2521 44.072 74.1399 44.6035 74.1402Z" fill="black" stroke="black" stroke-width="0.1"/>
<path d="M82.7076 73.3992H38.6113C36.3999 73.3992 34.6072 75.1919 34.6072 77.4033C34.6072 79.6147 36.3999 81.4074 38.6113 81.4074H82.7076C84.919 81.4074 86.7117 79.6147 86.7117 77.4033C86.7117 75.1919 84.919 73.3992 82.7076 73.3992Z" fill="white" stroke="black" stroke-width="0.1"/>
<path d="M38.6114 82.0646H82.7077C83.944 82.0646 85.1297 81.5735 86.0039 80.6993C86.8781 79.8251 87.3692 78.6395 87.3692 77.4032C87.3692 76.1669 86.8781 74.9812 86.0039 74.1071C85.1297 73.2329 83.944 72.7417 82.7077 72.7417H38.6114C37.3752 72.7417 36.1895 73.2329 35.3153 74.1071C34.4411 74.9812 33.95 76.1669 33.95 77.4032C33.95 78.6395 34.4411 79.8251 35.3153 80.6993C36.1895 81.5735 37.3752 82.0646 38.6114 82.0646ZM36.3157 75.1074C36.9246 74.4986 37.7504 74.1565 38.6114 74.1565H82.7077C83.5688 74.1565 84.3946 74.4986 85.0035 75.1074C85.6124 75.7163 85.9544 76.5421 85.9544 77.4032C85.9544 78.2643 85.6124 79.0901 85.0035 79.699C84.3946 80.3078 83.5688 80.6499 82.7077 80.6499H38.6114C37.7504 80.6499 36.9246 80.3078 36.3157 79.699C35.7068 79.0901 35.3647 78.2643 35.3647 77.4032C35.3647 76.5421 35.7068 75.7163 36.3157 75.1074Z" fill="black" stroke="black" stroke-width="0.1"/>
<path d="M61.3667 6V5.95H61.3167H60.002H59.952V6V74.1412V74.1912H60.002H61.3167H61.3667V74.1412V6Z" fill="#1E272E" stroke="black" stroke-width="0.1"/>
<path d="M60.6593 63.5468H60.7093V63.4968C60.7093 60.742 59.6149 58.0999 57.6669 56.152C55.719 54.204 53.077 53.1097 50.3221 53.1097H41.1575H41.1075H41.1025V53.1597H41.0575C41.0575 55.9145 42.1518 58.5565 44.0998 60.5045C46.0478 62.4524 48.6898 63.5468 51.4446 63.5468H60.6593Z" fill="#00D4A4" stroke="black" stroke-width="0.1"/>
<path d="M61.3167 64.2041H61.3667V64.1541V63.4967V63.4966C61.3624 60.5688 60.1974 57.7621 58.1271 55.6919C56.0568 53.6216 53.2501 52.4566 50.3223 52.4522H50.3222H40.4502H40.4002V52.5022L40.4002 53.1596L40.4002 53.1596C40.4046 56.0875 41.5696 58.8941 43.6399 60.9644C45.7101 63.0347 48.5168 64.1997 51.4446 64.2041H51.4447H61.3167ZM44.8752 60.1916C43.1057 58.5383 42.0233 56.2805 41.8417 53.8669H50.3222C52.762 53.8705 55.1098 54.7986 56.8927 56.4641C58.6626 58.1174 59.7453 60.3755 59.9269 62.7893H51.4448C49.0052 62.7853 46.6578 61.8571 44.8752 60.1916Z" fill="black" stroke="black" stroke-width="0.1"/>
<path d="M60.6042 58.5649V58.6149H60.6542H69.8738C72.6286 58.6149 75.2707 57.5206 77.2186 55.5726C79.1666 53.6247 80.2609 50.9826 80.2609 48.2278V48.1778H80.2109H70.9913C68.2365 48.1778 65.5945 49.2722 63.6465 51.2201C61.6986 53.1681 60.6042 55.8101 60.6042 58.5649Z" fill="#00D4A4" stroke="black" stroke-width="0.1"/>
<path d="M69.874 59.2722H69.874C72.8027 59.2691 75.6106 58.1047 77.682 56.0343C79.7534 53.9638 80.919 51.1564 80.9234 48.2278V48.2277V47.5703V47.5203H80.8734L70.9964 47.5203L70.9964 47.5203C68.0686 47.5247 65.2619 48.6897 63.1916 50.76C61.1213 52.8303 59.9563 55.6369 59.952 58.5647V58.5648V59.2222V59.2722H60.002H69.874ZM69.8739 57.8574H61.3918C61.5734 55.4436 62.6561 53.1855 64.426 51.5322C66.2089 49.8667 68.5567 48.9387 70.9965 48.9351H79.477C79.2954 51.3486 78.2129 53.6065 76.4434 55.2597C74.6609 56.9252 72.3134 57.8534 69.8739 57.8574Z" fill="black" stroke="black" stroke-width="0.1"/>
<path d="M60.6593 43.8471H60.7093V43.7971C60.7093 41.0422 59.6149 38.4002 57.6669 36.4523C55.719 34.5043 53.077 33.41 50.3221 33.41H41.1575H41.1075H41.1025V33.46H41.0575C41.0575 36.2148 42.1518 38.8568 44.0998 40.8048C46.0478 42.7527 48.6898 43.8471 51.4446 43.8471H60.6593Z" fill="#00D4A4" stroke="black" stroke-width="0.1"/>
<path d="M61.3167 44.5046H61.3667V44.4546V43.7972V43.7972C61.3624 40.8693 60.1974 38.0627 58.1271 35.9924C56.0568 33.9221 53.2501 32.7571 50.3223 32.7527H50.3222H40.4502H40.4002V32.8027L40.4002 33.4601L40.4002 33.4602C40.4046 36.388 41.5696 39.1947 43.6399 41.2649C45.7101 43.3352 48.5168 44.5002 51.4446 44.5046H51.4447H61.3167ZM44.8752 40.4921C43.1057 38.8389 42.0233 36.581 41.8417 34.1675H50.3222C52.762 34.1711 55.1098 35.0991 56.8927 36.7646C58.6626 38.4179 59.7453 40.676 59.9269 43.0899H51.4448C49.0052 43.0858 46.6578 42.1576 44.8752 40.4921Z" fill="black" stroke="black" stroke-width="0.1"/>
<path d="M60.6042 38.8667V38.9167H60.6542H69.8738C72.6286 38.9167 75.2707 37.8223 77.2186 35.8744C79.1666 33.9264 80.2609 31.2844 80.2609 28.5296V28.4796H80.2109H70.9913C68.2365 28.4796 65.5945 29.5739 63.6465 31.5219C61.6986 33.4699 60.6042 36.1119 60.6042 38.8667Z" fill="#00D4A4" stroke="black" stroke-width="0.1"/>
<path d="M69.874 39.5744H69.874C72.803 39.5713 75.6112 38.4066 77.6826 36.3359C79.754 34.2651 80.9195 31.4573 80.9234 28.5283V28.5282V27.8708V27.8208H80.8734L70.9964 27.8208L70.9964 27.8208C68.0683 27.8252 65.2614 28.9905 63.191 31.0611C61.1207 33.1317 59.9559 35.9388 59.952 38.8669V38.867V39.5244V39.5744H60.002H69.874ZM69.8739 38.1596H61.3918C61.573 35.7455 62.6555 33.487 64.4254 31.8333C66.2084 30.1675 68.5564 29.2392 70.9965 29.2356H79.477C79.2958 31.6494 78.2135 33.9077 76.444 35.5613C74.6613 37.2271 72.3137 38.1556 69.8739 38.1596Z" fill="black" stroke="black" stroke-width="0.1"/>
<path d="M41.1025 13.7103H41.0525L41.0525 13.7603C41.0525 15.1247 41.3214 16.4758 41.8437 17.7364C42.366 18.9969 43.1316 20.1422 44.0966 21.1068C45.0617 22.0714 46.2073 22.8364 47.4681 23.3581C48.7289 23.8798 50.0801 24.148 51.4446 24.1474C51.4446 24.1474 51.4446 24.1474 51.4446 24.1474H60.6593H60.7093V24.0974C60.7093 21.3425 59.6149 18.7005 57.6669 16.7526C55.719 14.8046 53.077 13.7103 50.3221 13.7103H41.1025Z" fill="#00D4A4" stroke="black" stroke-width="0.1"/>
<path d="M61.3168 24.8046H61.3668V24.7546V24.0973V24.0972C61.3624 21.1694 60.1974 18.3627 58.1271 16.2924C56.0568 14.2222 53.2502 13.0571 50.3224 13.0528H50.3223H40.4453H40.3953V13.1028L40.3953 13.7602L40.3953 13.7602C40.3997 16.6889 41.5654 19.4963 43.6367 21.5667C45.7081 23.6372 48.516 24.8016 51.4447 24.8046H51.4447H61.3168ZM44.8753 20.7922C43.1058 19.1389 42.0233 16.8811 41.8417 14.4675H50.3222C52.762 14.4711 55.1098 15.3992 56.8928 17.0647C58.6626 18.718 59.7453 20.9761 59.9269 23.3899H51.4448C49.0053 23.3859 46.6579 22.4577 44.8753 20.7922Z" fill="black" stroke="black" stroke-width="0.1"/>
<path d="M60.6042 19.1672V19.2172H60.6542L69.8738 19.2172C72.6286 19.2172 75.2707 18.1229 77.2186 16.1749C79.1666 14.227 80.2609 11.5849 80.2609 8.83011V8.78011H80.2109L70.9913 8.78011C68.2365 8.78011 65.5945 9.87446 63.6465 11.8224C62.682 12.787 61.9169 13.932 61.3949 15.1923C60.8729 16.4525 60.6042 17.8032 60.6042 19.1672Z" fill="#00D4A4" stroke="black" stroke-width="0.1"/>
<path d="M69.874 19.8744H69.874C72.803 19.8713 75.6112 18.7067 77.6826 16.6359C79.754 14.5651 80.9195 11.7573 80.9234 8.82833V8.82827V8.1709V8.1209H80.8734L70.9964 8.1209L70.9964 8.1209C68.0683 8.12527 65.2614 9.2905 63.191 11.3611C61.1207 13.4318 59.9559 16.2389 59.952 19.167V19.167V19.8244V19.8744H60.002H69.874ZM69.8739 18.4597H61.3918C61.573 16.0456 62.6555 13.787 64.4254 12.1334C66.2084 10.4675 68.5564 9.53928 70.9965 9.53564H79.477C79.2958 11.9495 78.2135 14.2077 76.444 15.8614C74.6613 17.5272 72.3137 18.4556 69.8739 18.4597Z" fill="black" stroke="black" stroke-width="0.1"/>
<path d="M52.8888 89.7066C52.464 89.7094 52.0479 89.5854 51.6938 89.3506C51.3397 89.1157 51.0637 88.7806 50.901 88.3881C50.7384 87.9955 50.6964 87.5634 50.7806 87.1469C50.8648 86.7304 51.0713 86.3485 51.3736 86.05L59.0517 78.3719C59.2502 78.1724 59.4862 78.0141 59.7461 77.9061C60.006 77.798 60.2846 77.7424 60.5661 77.7424C60.8475 77.7424 61.1262 77.798 61.3861 77.9061C61.646 78.0141 61.882 78.1724 62.0805 78.3719L69.7586 86.05C70.0609 86.3485 70.2674 86.7304 70.3516 87.1469C70.4357 87.5634 70.3938 87.9955 70.2312 88.3881C70.0685 88.7806 69.7925 89.1157 69.4384 89.3506C69.0843 89.5854 68.6682 89.7094 68.2433 89.7066H64.1348V105.942C64.1354 106.083 64.1082 106.223 64.0546 106.353C64.001 106.484 63.9222 106.603 63.8226 106.702C63.723 106.802 63.6047 106.882 63.4743 106.936C63.344 106.99 63.2043 107.017 63.0633 107.017H58.0673C57.7835 107.017 57.5114 106.904 57.3108 106.704C57.1101 106.503 56.9974 106.231 56.9974 105.947V89.7066H52.8888Z" fill="white"/>
<path d="M63.0633 107.76H58.0673C57.5853 107.76 57.1233 107.568 56.7825 107.227C56.4417 106.886 56.2501 106.424 56.2496 105.942V90.4545H52.8888C52.3177 90.4545 51.7593 90.2851 51.2844 89.9678C50.8094 89.6506 50.4391 89.1997 50.2204 88.672C50.0016 88.1444 49.9441 87.5638 50.0552 87.0035C50.1662 86.4433 50.4409 85.9285 50.8444 85.5243L58.5225 77.8462C59.0646 77.3044 59.7996 77 60.5661 77C61.3325 77 62.0676 77.3044 62.6097 77.8462L70.2943 85.5226C70.6978 85.9269 70.9725 86.4416 71.0836 87.0019C71.1946 87.5622 71.1372 88.1428 70.9184 88.6704C70.6996 89.198 70.3293 89.6489 69.8544 89.9662C69.3794 90.2835 68.8211 90.4528 68.2499 90.4529H64.8825V105.942C64.8821 106.425 64.6902 106.887 64.3491 107.228C64.008 107.569 63.5455 107.76 63.0633 107.76ZM60.5653 78.4937C60.3821 78.493 60.2006 78.5287 60.0314 78.5986C59.8621 78.6686 59.7084 78.7715 59.5792 78.9013L51.9028 86.5793C51.7076 86.7742 51.5747 87.0227 51.5208 87.2932C51.467 87.5637 51.4946 87.8441 51.6001 88.0989C51.7057 88.3537 51.8845 88.5714 52.1139 88.7245C52.3433 88.8777 52.613 88.9593 52.8888 88.959H57.7451V105.942C57.7451 106.03 57.7798 106.113 57.8414 106.175C57.9031 106.236 57.9867 106.271 58.0738 106.271H63.0633C63.1504 106.271 63.234 106.236 63.2957 106.175C63.3573 106.113 63.3919 106.03 63.3919 105.942V88.9607H68.2483C68.5241 88.9609 68.7937 88.8793 69.0232 88.7262C69.2526 88.5731 69.4314 88.3553 69.537 88.1005C69.6425 87.8457 69.6701 87.5653 69.6163 87.2948C69.5624 87.0243 69.4295 86.7759 69.2343 86.581L61.5513 78.9013C61.422 78.7715 61.2683 78.6687 61.0991 78.5988C60.9298 78.5288 60.7484 78.4931 60.5653 78.4937Z" fill="black"/>
</svg>
