<svg width="42" height="42" viewBox="0 0 42 42" fill="none" xmlns="http://www.w3.org/2000/svg">
<path d="M14.1339 32V17.2841H9.35938V32H14.1339ZM11.721 15.3154C13.2612 15.3154 14.4933 14.085 14.4933 12.6085C14.4933 11.1812 13.2612 10 11.721 10C10.2321 10 9 11.1812 9 12.6085C9 14.085 10.2321 15.3154 11.721 15.3154ZM31.9487 32H32V23.9284C32 19.9911 31.0759 16.9396 26.25 16.9396C23.9397 16.9396 22.3996 18.17 21.7321 19.302H21.6808V17.2841H17.1116V32H21.8862V24.7159C21.8862 22.7964 22.2455 20.9754 24.7098 20.9754C27.1741 20.9754 27.2254 23.1409 27.2254 24.8635V32H31.9487Z" fill="white"/>
</svg>
