<svg width="93" height="123" viewBox="0 0 93 123" fill="none" xmlns="http://www.w3.org/2000/svg">
<circle cx="46.1248" cy="61.4998" r="45.1248" stroke="black" stroke-width="2"/>
<path d="M32.5323 93.062L25.7383 122.265H31.1808L37.9749 93.062H32.5323Z" fill="white"/>
<path d="M31.7607 123H24.8206L31.9616 92.3354H38.9018L31.7607 123ZM26.6469 121.539H30.5919L37.0572 93.7965H33.1122L26.6469 121.539Z" fill="black"/>
<path d="M54.957 93.0615L61.7511 122.265H67.1936L60.3996 93.0615H54.957Z" fill="white"/>
<path d="M68.1266 122.999H61.1865L54.0454 92.334H60.9856L68.1266 122.999ZM62.3371 121.537H66.282L59.8167 93.7951H55.8718L62.3371 121.537Z" fill="black"/>
<path d="M71.592 85.0796H21.3306V94.0835H28.8917L27.0471 98.2659H65.8755L64.0308 94.0835H71.592V85.0796Z" fill="#00513A"/>
<path d="M66.9957 98.9985H25.9392L27.7838 94.8161H20.6062V84.3511H72.3104V94.8161H65.1328L66.9957 98.9985ZM28.1856 97.5374H64.7676L62.9047 93.355H70.8493V85.8122H22.0673V93.355H30.0302L28.1856 97.5374Z" fill="black"/>
<path d="M71.5981 89.053H21.3367L18.4146 62.8813V35.559C18.4146 33.55 20.04 31.9062 22.0673 31.9062H70.8858C72.8948 31.9062 74.5386 33.5317 74.5386 35.559V62.6621L71.5981 89.053Z" fill="white"/>
<path d="M72.2347 89.7875H20.6949L17.6814 62.8853V35.5629C17.6814 33.1522 19.6539 31.1797 22.0647 31.1797H70.8832C73.294 31.1797 75.2665 33.1522 75.2665 35.5629V62.7026L72.2347 89.7875ZM21.9916 88.3265H70.938L73.7871 62.6296V35.5629C73.7871 33.9558 72.4722 32.6408 70.865 32.6408H22.0647C20.4575 32.6408 19.1425 33.9558 19.1425 35.5629V62.8305L21.9916 88.3265Z" fill="black"/>
<path d="M68.652 31.8462L64.5609 23.9563C63.9582 22.8057 62.7711 22.0752 61.4744 22.0752H31.4491C30.1524 22.0752 28.9652 22.8057 28.3625 23.9563L24.2715 31.8462H68.652Z" fill="#00D4A4"/>
<path d="M69.8611 32.5737H23.0698L27.7088 23.6245C28.4393 22.2183 29.8639 21.3599 31.4528 21.3599H61.4781C63.0488 21.3599 64.4916 22.2365 65.2222 23.6245L69.8611 32.5737ZM25.4806 31.1126H67.4686L63.9255 24.3003C63.4506 23.3871 62.5192 22.8209 61.4781 22.8209H31.4528C30.43 22.8209 29.4803 23.3871 29.0055 24.3003L25.4806 31.1126Z" fill="black"/>
<path d="M18.7073 65.3926L21.3555 89.0622H71.5986L74.2286 65.3926H18.7073Z" fill="#00D4A4"/>
<path d="M72.2506 89.7931H20.6925L17.8799 64.6807H75.0449L72.2506 89.7931ZM22.0075 88.332H70.9538L73.4194 66.1418H19.5236L22.0075 88.332Z" fill="black"/>
<path d="M32.9646 36.1035H21.6594V61.015H32.9646V36.1035Z" fill="black"/>
<path d="M71.2673 36.0986H59.9622V61.0102H71.2673V36.0986Z" fill="black"/>
<path d="M56.6188 36.0986H36.7297V61.0102H56.6188V36.0986Z" fill="black"/>
<path d="M31.8524 80.1715C34.0916 80.1715 35.9069 78.3563 35.9069 76.117C35.9069 73.8778 34.0916 72.0625 31.8524 72.0625C29.6131 72.0625 27.7979 73.8778 27.7979 76.117C27.7979 78.3563 29.6131 80.1715 31.8524 80.1715Z" fill="white"/>
<path d="M31.8512 80.9022C29.2213 80.9022 27.0662 78.7653 27.0662 76.1171C27.0662 73.4689 29.203 71.332 31.8512 71.332C34.4812 71.332 36.6363 73.4689 36.6363 76.1171C36.6363 78.7653 34.4812 80.9022 31.8512 80.9022ZM31.8512 72.8114C30.0249 72.8114 28.5272 74.309 28.5272 76.1354C28.5272 77.9617 30.0249 79.4593 31.8512 79.4593C33.6776 79.4593 35.1752 77.9617 35.1752 76.1354C35.1752 74.2907 33.6776 72.8114 31.8512 72.8114Z" fill="black"/>
<path d="M61.0755 80.173C63.3148 80.173 65.13 78.3577 65.13 76.1185C65.13 73.8792 63.3148 72.064 61.0755 72.064C58.8363 72.064 57.021 73.8792 57.021 76.1185C57.021 78.3577 58.8363 80.173 61.0755 80.173Z" fill="white"/>
<path d="M61.0763 80.9017C58.4464 80.9017 56.2913 78.7648 56.2913 76.1166C56.2913 73.4684 58.4281 71.3315 61.0763 71.3315C63.7245 71.3315 65.8614 73.4684 65.8614 76.1166C65.8614 78.7648 63.7063 80.9017 61.0763 80.9017ZM61.0763 72.8109C59.25 72.8109 57.7523 74.3085 57.7523 76.1349C57.7523 77.9612 59.25 79.4588 61.0763 79.4588C62.9027 79.4588 64.4003 77.9612 64.4003 76.1349C64.4003 74.2902 62.9027 72.8109 61.0763 72.8109Z" fill="black"/>
<path d="M52.6002 0.736328H49.678V21.8308H52.6002V0.736328Z" fill="#00D4A4"/>
<path d="M53.3313 22.5555H48.948V0H53.3313V22.5555ZM50.4091 21.0944H51.8702V1.46109H50.4091V21.0944Z" fill="black"/>
<path d="M40.7458 21.8262H43.668V0.731722H40.7458V21.8262Z" fill="#00D4A4"/>
<path d="M44.4006 22.5555H40.0173V0H44.4006V22.5555ZM41.4784 21.0944H42.9395V1.46109H41.4784V21.0944Z" fill="black"/>
</svg>
