<svg width="540" height="540" viewBox="0 0 540 540" fill="none" xmlns="http://www.w3.org/2000/svg">
<g opacity="0.9">
<path opacity="0.05" d="M238.496 147.652C220.754 83.1985 140.73 62.4375 94.8671 110.565C94.2066 111.226 93.546 111.981 92.8854 112.641C27.1108 184.172 58.1579 360.358 195.369 404.994C332.581 449.63 475.36 368.096 483.381 295.244C491.402 222.392 428.081 199.46 329.844 219.844C274.355 231.357 249.537 187.758 238.496 147.652Z" fill="#440099"/>
<path d="M330.256 476.086H377.232C377.125 472.876 376.911 469.666 376.804 466.776C375.948 450.726 375.306 388 375.306 388L337.105 389.712L333.894 389.819L328.223 390.033C328.223 390.033 328.758 451.582 329.614 465.92C329.828 469.131 330.042 472.448 330.256 476.086Z" fill="#7CAAFF"/>
<path d="M316.453 476.087C316.667 472.021 316.881 468.275 317.095 464.744C317.951 400.203 318.379 391 318.379 391L312.279 390.679L309.069 390.572L271.296 388.86C271.296 388.86 270.868 395.387 270.333 456.612C270.012 462.176 269.691 468.81 269.37 476.087H316.453Z" fill="#7CAAFF"/>
<path d="M382.154 388C372.631 390.675 363 392.601 353.476 393.992C350.159 394.42 346.842 394.848 343.525 395.169C339.031 395.597 334.536 395.811 330.042 396.025C322.659 396.239 315.168 396.132 307.785 395.49C293.446 394.42 279.107 391.959 264.768 388C264.661 374.624 264.875 385.666 265.839 339.439C265.839 337.406 265.946 335.266 265.946 333.233C265.946 332.805 265.946 332.377 265.946 331.949C265.946 331.521 265.946 330.986 265.946 330.558C265.946 329.06 266.053 327.669 266.053 326.17C266.16 323.174 266.16 320.285 266.267 317.289C266.267 315.577 266.374 313.758 266.374 312.046C266.374 311.725 266.374 311.297 266.374 310.976C266.374 309.799 266.481 308.728 266.481 307.551C266.481 307.23 266.481 306.909 266.481 306.481C266.481 305.411 266.588 304.448 266.588 303.378C266.588 302.522 266.695 301.666 266.695 300.81C267.765 269.564 269.477 244.953 271.724 241.529C275.683 235.643 289.059 227.832 299.866 221.519C303.719 219.271 308.32 216.917 310.995 215.205C314.847 218.308 317.629 221.091 323.301 220.877C329.614 220.662 331.219 216.81 333.68 213.6C335.178 214.563 338.924 217.666 340.85 218.843C342.562 219.806 344.381 220.877 346.2 221.947C349.089 223.659 352.192 225.371 355.296 227.19C359.897 229.865 364.391 232.647 368.136 235.322C371.882 237.997 374.771 240.459 376.269 242.706C378.409 245.916 379.8 266.354 380.656 293.427C380.656 294.39 380.763 295.353 380.763 296.316C380.763 296.423 380.763 296.53 380.763 296.637C380.763 297.6 380.87 298.67 380.87 299.633C380.977 302.629 381.084 305.732 381.084 308.942C381.084 309.585 381.084 310.334 381.084 310.976C381.084 311.511 381.084 311.939 381.084 312.474C381.084 313.758 381.191 315.042 381.191 316.433C381.191 316.647 381.191 316.968 381.191 317.182C381.298 320.606 381.298 324.137 381.405 327.669C381.405 328.739 381.405 329.702 381.405 330.772C382.475 379.352 382.261 373.661 382.154 388Z" fill="#3C3B40"/>
<path d="M355.51 409.956C335.179 409.849 317.844 400.647 306.929 392.942C295.051 384.596 287.882 376.142 287.775 376.035C287.454 375.607 287.454 374.965 287.882 374.644C288.31 374.323 288.952 374.323 289.273 374.751C289.38 374.858 296.442 383.098 308.106 391.337C318.807 398.935 335.714 407.923 355.51 408.03C356.045 408.03 356.473 408.458 356.473 408.993C356.473 409.528 356.045 409.956 355.51 409.956Z" fill="#2F006A"/>
<path d="M342.883 397.971C325.548 394.547 310.353 381.386 309.604 380.744C309.176 380.423 309.176 379.78 309.497 379.352C309.818 378.924 310.46 378.924 310.888 379.245C311.102 379.352 329.079 394.975 347.377 396.687C347.912 396.687 348.34 397.222 348.233 397.757C348.233 398.293 347.698 398.721 347.163 398.614C345.772 398.507 344.274 398.185 342.883 397.971Z" fill="#2F006A"/>
<path d="M308.213 247.735C307.785 247.735 307.357 247.414 307.25 246.986C307.143 246.451 307.464 245.916 307.999 245.809C332.717 241.101 340.208 225.157 340.315 225.05C340.529 224.515 341.064 224.301 341.599 224.515C342.134 224.729 342.348 225.264 342.134 225.799C341.813 226.441 334.215 242.813 308.427 247.735C308.427 247.735 308.32 247.735 308.213 247.735Z" fill="#444444"/>
<path d="M278.037 290.644C278.037 290.751 277.93 290.858 277.93 290.965C277.609 291.607 277.181 292.143 276.753 292.785C276.753 292.785 276.753 292.892 276.646 292.892C275.362 294.925 274.078 297.065 272.794 299.419C270.761 303.057 268.621 307.016 266.481 310.976C266.481 309.799 266.588 308.728 266.588 307.551C266.588 307.23 266.588 306.909 266.588 306.481C270.012 300.168 273.329 294.283 276.218 289.788C276.539 289.36 277.074 289.253 277.609 289.467C277.93 289.788 278.144 290.216 278.037 290.644Z" fill="#444444"/>
<path d="M396.313 250.37C396.313 250.37 427.987 240.204 437.296 219.445C439.972 213.452 417.714 152.352 417.714 152.352L406.907 152.887C406.907 152.887 410.01 174.074 411.829 186.059C413.327 195.904 415.788 207.674 416.644 211.633C416.858 212.489 416.965 212.917 416.965 212.917C416.43 213.024 415.895 213.131 415.36 213.238C400.593 216.235 381.653 225.865 381.653 225.865L396.313 250.37Z" fill="#FFAFA6"/>
<path d="M424.884 218.803C425.312 219.124 425.954 219.017 426.275 218.589C426.596 218.161 426.489 217.519 426.061 217.198C423.707 215.486 420.283 213.559 416.644 211.633C416.858 212.489 416.965 212.917 416.965 212.917C416.43 213.024 415.895 213.131 415.36 213.238C419.106 215.164 422.637 217.091 424.884 218.803Z" fill="#241352"/>
<path d="M347.84 222.441C347.84 222.441 338.316 244.912 362.606 257.432C379.513 266.099 417.929 243.521 417.929 243.521L404.232 214.416C404.232 214.416 369.027 228.968 347.84 222.441Z" fill="#3C3B40"/>
<path d="M412.15 118.11C411.187 118.752 411.401 122.925 411.829 126.778C411.722 126.778 411.508 126.778 411.401 126.885C410.224 121.748 407.977 112.867 406.051 114.579C404.767 115.649 406.479 123.247 407.656 127.848C407.442 127.955 407.228 127.955 406.907 128.062C405.409 122.711 402.306 112.225 400.273 114.258C398.881 115.649 401.557 124.745 403.055 129.453C402.841 129.56 402.627 129.56 402.413 129.667C401.022 125.173 397.918 116.612 395.885 118.538C393.959 120.357 399.416 133.305 399.416 133.305L400.808 138.441C400.808 138.441 399.095 139.19 396.527 136.194C393.959 133.198 390.749 132.663 392.996 136.943C395.457 141.759 399.095 145.29 400.701 148.714C402.306 152.138 407.335 153.315 407.335 153.315L417.501 152.78C417.501 152.78 419.427 135.659 415.681 127.527C414.932 122.711 413.862 116.933 412.15 118.11Z" fill="#FFAFA6"/>
<path d="M293.553 161.488C293.553 178.716 304.147 190.594 321.375 190.594C338.603 190.594 350.587 177.86 350.587 160.632C350.587 155.924 349.838 151.43 348.34 147.471C348.233 147.257 348.126 147.043 348.019 146.829C347.805 146.401 347.698 145.973 347.484 145.545C347.163 144.902 346.842 144.26 346.521 143.618C342.027 135.593 334.002 130.457 323.194 130.457C302.542 130.35 293.553 144.26 293.553 161.488Z" fill="#241352"/>
<path d="M297.405 168.872C297.405 168.872 292.59 162.452 289.059 167.802C285.528 173.045 290.557 188.668 299.225 184.816L297.405 168.872Z" fill="#FFAFA6"/>
<path d="M297.298 180.001C296.977 180.001 296.656 179.787 296.549 179.465C295.158 174.65 290.236 172.724 290.129 172.724C289.701 172.617 289.594 172.189 289.701 171.761C289.808 171.333 290.236 171.226 290.664 171.333C290.878 171.44 296.442 173.58 297.94 179.144C298.047 179.572 297.833 179.894 297.405 180.001C297.512 180.001 297.405 180.001 297.298 180.001Z" fill="#241352"/>
<path d="M292.269 177.647C292.162 177.647 291.948 177.647 291.841 177.54C291.52 177.326 291.413 176.898 291.627 176.47C291.627 176.363 292.59 175.078 294.409 174.222C294.73 174.008 295.265 174.222 295.372 174.543C295.586 174.864 295.372 175.399 295.051 175.506C293.66 176.148 292.911 177.219 292.911 177.219C292.804 177.54 292.59 177.647 292.269 177.647Z" fill="#241352"/>
<path d="M346.735 168.872C346.735 168.872 351.55 162.452 355.082 167.802C358.613 173.045 353.584 188.668 344.916 184.816L346.735 168.872Z" fill="#FFAFA6"/>
<path d="M346.735 180.001C347.056 180.001 347.377 179.787 347.484 179.465C348.875 174.65 353.797 172.724 353.904 172.724C354.332 172.617 354.439 172.189 354.332 171.761C354.225 171.333 353.797 171.226 353.369 171.333C353.155 171.44 347.591 173.58 346.093 179.144C345.986 179.572 346.2 179.894 346.628 180.001H346.735Z" fill="#241352"/>
<path d="M351.764 177.647C351.871 177.647 352.085 177.647 352.192 177.54C352.513 177.326 352.62 176.898 352.406 176.47C352.406 176.363 351.443 175.078 349.624 174.222C349.303 174.008 348.768 174.222 348.661 174.543C348.447 174.864 348.661 175.399 348.982 175.506C350.373 176.148 351.122 177.219 351.122 177.219C351.336 177.54 351.55 177.647 351.764 177.647Z" fill="#241352"/>
<path d="M333.787 198.084V213.6C333.787 213.6 329.186 221.519 322.873 222.054C316.666 222.589 311.102 215.205 311.102 215.205V199.155L333.787 198.084Z" fill="#FFAFA6"/>
<path d="M333.787 198.084V204.933C329.614 209.534 322.124 210.711 311.102 209.106V199.155L333.787 198.084Z" fill="#D89795"/>
<path d="M350.159 158.278C349.838 164.271 349.303 171.868 348.126 177.86C347.805 179.358 347.484 180.749 347.163 182.034C343.953 193.483 335.714 213.065 312.921 204.826C302.863 201.188 298.155 189.952 296.121 178.609C294.73 170.798 294.516 162.986 294.623 157.422C294.73 151.751 297.834 146.508 302.863 143.618C316.346 136.021 330.577 138.803 339.887 142.441C346.307 144.902 350.48 151.323 350.159 158.278Z" fill="#FFAFA6"/>
<path d="M312.386 187.277C313.564 191.557 317.095 195.73 321.91 195.837C326.725 195.73 330.149 191.557 331.434 187.277H312.386Z" fill="white"/>
<path d="M349.803 168.777H346.425C346.752 165.379 347.297 159.349 344.573 158.472C335.748 155.732 347.188 149.483 343.157 146.304C339.126 143.125 329.211 144.55 322.347 144.331C315.374 144.112 304.152 144.221 301.537 144.879C298.814 145.537 300.339 150.031 301.32 153.539C302.3 157.047 297.942 160.994 297.288 164.611C297.07 165.708 297.07 167.242 297.288 168.887H294.456C294.129 164.502 294.02 160.336 294.129 156.938C294.238 151.127 297.397 145.756 302.518 142.796C316.246 135.013 330.736 137.863 340.215 141.59C346.861 144.112 351.11 150.689 350.783 157.815C350.457 161.103 350.13 164.94 349.803 168.777Z" fill="#241352"/>
<path d="M275.362 289.361C275.362 289.361 266.588 306.375 256.208 319.858C253.105 323.817 250.002 327.455 246.792 330.345C241.655 334.946 236.733 337.3 232.667 335.267C217.686 327.67 184.3 267.639 184.3 267.639L192.54 257.902C192.54 257.902 207.413 275.023 218.221 285.295C228.28 294.712 235.984 301.881 235.984 301.881C237.375 299.741 238.873 297.494 240.371 295.033C241.976 292.465 243.688 289.682 245.401 286.9C257.92 266.355 271.831 241.744 271.831 241.744L275.362 289.361Z" fill="#FFAFA6"/>
<path d="M271.938 241.636L241.976 288.826L252.035 330.344L276.86 289.896C276.86 289.896 279.856 262.181 271.938 241.636Z" fill="#3C3B40"/>
<path d="M338.474 275.899C338.075 275.905 337.682 275.799 337.338 275.594C336.995 275.389 336.715 275.092 336.529 274.737C336.343 274.382 336.258 273.982 336.284 273.582C336.31 273.181 336.446 272.796 336.677 272.468L341.893 265.04L336.464 257.764C336.119 257.303 335.971 256.722 336.053 256.151C336.134 255.579 336.438 255.064 336.897 254.718C337.357 254.371 337.934 254.223 338.503 254.304C339.072 254.386 339.585 254.691 339.929 255.153L345.544 262.681C346.041 263.344 346.315 264.149 346.327 264.979C346.339 265.809 346.088 266.621 345.61 267.298L340.212 274.98C340.015 275.26 339.755 275.49 339.453 275.65C339.151 275.809 338.815 275.895 338.474 275.899Z" fill="#00D4A4"/>
<path d="M356.142 275.648C355.799 275.653 355.461 275.577 355.153 275.425C354.846 275.274 354.579 275.051 354.375 274.775L348.775 267.253C348.278 266.59 348.004 265.785 347.992 264.955C347.98 264.125 348.231 263.313 348.71 262.636L354.107 254.951C354.438 254.48 354.943 254.16 355.509 254.062C356.075 253.964 356.656 254.096 357.126 254.429C357.595 254.762 357.913 255.269 358.011 255.838C358.108 256.407 357.977 256.991 357.645 257.463L352.411 264.891L357.84 272.167C358.08 272.488 358.227 272.869 358.264 273.269C358.302 273.668 358.228 274.07 358.053 274.43C357.877 274.791 357.605 275.095 357.268 275.31C356.931 275.525 356.541 275.642 356.142 275.648Z" fill="#00D4A4"/>
<ellipse cx="172.5" cy="399" rx="20.5" ry="10" fill="#7CAAFF"/>
<path d="M175.825 475H218C217.904 471.319 217.712 467.638 217.616 464.326C216.847 445.922 216.271 374 216.271 374L181.974 375.963L179.092 376.086L174 376.331C174 376.331 174.48 446.903 175.249 463.344C175.441 467.025 175.633 470.828 175.825 475Z" fill="#7CAAFF"/>
<path d="M170.271 475C170.463 470.338 170.655 466.045 170.847 461.996C171.616 388.004 172 377.454 172 377.454L166.524 377.085L163.642 376.963L129.729 375C129.729 375 129.345 382.483 128.865 452.673C128.576 459.052 128.288 466.658 128 475H170.271Z" fill="#7CAAFF"/>
<path d="M222.822 378.496C197.783 394.868 151.877 393.584 123.093 378.496C125.875 361.375 129.513 344.147 128.657 321.355C128.55 318.894 128.443 316.326 128.336 313.865C128.229 311.725 128.122 309.584 128.015 307.444C125.554 269.457 119.026 238.425 122.237 234.359C123.628 232.647 125.982 230.721 128.764 228.795C129.941 228.046 131.118 227.297 132.402 226.441C135.398 224.622 138.716 222.802 142.033 220.983C149.951 216.703 157.977 212.851 162.043 210.176C166.002 211.888 169.212 212.851 172.636 212.851C172.743 212.851 172.85 212.851 172.957 212.851C173.064 212.851 173.172 212.851 173.279 212.851C176.703 212.851 179.913 211.888 183.872 210.176C187.617 212.637 194.68 216.168 201.849 219.913C207.092 222.695 212.443 225.692 216.616 228.474C219.398 230.4 221.538 232.219 222.929 233.931C224.534 235.964 223.892 244.632 222.501 257.579C221.217 270.313 219.184 287.113 218.007 305.518C217.686 310.654 217.365 315.898 217.258 321.248C216.402 344.147 220.04 361.375 222.822 378.496Z" fill="#00D4A4"/>
<path d="M207.52 359.556C187.403 359.449 170.175 350.353 159.368 342.649C147.597 334.302 140.535 325.956 140.428 325.849C140.107 325.421 140.107 324.779 140.535 324.458C140.963 324.137 141.605 324.137 141.926 324.565C142.033 324.672 148.988 332.911 160.545 341.044C171.138 348.534 187.938 357.523 207.52 357.523C208.055 357.523 208.483 357.951 208.483 358.486C208.483 359.128 208.055 359.556 207.52 359.556Z" fill="#10AB88"/>
<path d="M194.145 347.786C177.024 344.469 161.829 331.307 161.187 330.665C160.759 330.344 160.759 329.702 161.08 329.274C161.401 328.846 162.043 328.846 162.471 329.167C162.685 329.274 180.555 344.79 198.746 346.395C199.281 346.395 199.709 346.93 199.602 347.465C199.602 348 199.067 348.428 198.532 348.321C197.034 348.321 195.643 348.107 194.145 347.786Z" fill="#10AB88"/>
<path d="M201.849 219.913C196.927 231.042 185.049 242.492 169.426 239.816C154.338 237.248 147.169 229.223 142.033 220.983C149.951 216.703 157.977 212.851 162.043 210.176C166.002 211.888 169.212 212.851 172.636 212.851C172.743 212.851 172.85 212.851 172.957 212.851C173.064 212.851 173.171 212.851 173.278 212.851C176.703 212.851 179.913 211.888 183.872 210.176C187.617 212.637 194.573 216.168 201.849 219.913Z" fill="#FFAFA6"/>
<path d="M198.104 132.918C198.104 132.918 209.875 151.216 208.591 170.156C207.306 189.203 210.303 211.139 193.289 210.176C176.275 209.213 145.885 217.025 136.254 202.151C126.731 187.384 198.104 132.918 198.104 132.918Z" fill="#5A2D03"/>
<path d="M202.491 166.517C202.491 166.517 205.594 194.125 192.433 201.615C179.378 209.213 169.854 200.759 169.854 200.759C169.854 200.759 197.462 162.344 202.491 166.517Z" fill="#532800"/>
<path d="M148.132 166.411C148.132 166.411 143.424 160.204 139.893 165.341C136.361 170.477 141.391 185.779 149.844 182.034L148.132 166.411Z" fill="#F97853"/>
<path d="M148.132 177.325C147.811 177.325 147.49 177.111 147.49 176.79C146.206 172.082 141.284 170.156 141.177 170.156C140.856 170.049 140.642 169.621 140.749 169.193C140.856 168.872 141.284 168.658 141.712 168.765C141.926 168.872 147.276 170.905 148.881 176.362C148.988 176.79 148.774 177.111 148.346 177.218C148.239 177.325 148.132 177.325 148.132 177.325Z" fill="#EA5143"/>
<path d="M143.21 174.864C143.103 174.864 142.889 174.864 142.782 174.757C142.461 174.543 142.354 174.115 142.568 173.794C142.568 173.687 143.424 172.403 145.243 171.654C145.564 171.44 145.992 171.654 146.206 171.975C146.42 172.296 146.206 172.724 145.885 172.938C144.494 173.58 143.852 174.543 143.852 174.543C143.638 174.757 143.424 174.864 143.21 174.864Z" fill="#EA5143"/>
<path d="M196.606 166.411C196.606 166.411 201.314 160.204 204.845 165.341C208.376 170.477 203.347 185.779 194.894 182.034L196.606 166.411Z" fill="#FFAFA6"/>
<path d="M196.606 177.325C196.927 177.325 197.248 177.111 197.248 176.79C198.532 172.082 203.454 170.156 203.561 170.156C203.882 170.049 204.096 169.621 203.989 169.193C203.882 168.872 203.454 168.658 203.026 168.765C202.812 168.872 197.462 170.905 195.857 176.362C195.75 176.79 195.964 177.111 196.392 177.218C196.499 177.325 196.499 177.325 196.606 177.325Z" fill="#241352"/>
<path d="M201.528 174.864C201.635 174.864 201.849 174.864 201.956 174.757C202.277 174.543 202.384 174.115 202.17 173.794C202.17 173.687 201.314 172.403 199.495 171.654C199.174 171.44 198.746 171.654 198.532 171.975C198.318 172.296 198.532 172.724 198.853 172.938C200.244 173.58 200.886 174.543 200.886 174.543C201.1 174.757 201.314 174.864 201.528 174.864Z" fill="#241352"/>
<path d="M183.872 194.981V210.176C183.872 210.176 179.377 217.88 173.171 218.415C167.072 218.95 161.615 211.781 161.615 211.781V196.051L183.872 194.981Z" fill="#FFAFA6"/>
<path d="M183.872 194.981V201.722C179.806 206.324 172.422 207.929 161.615 206.324V196.051L183.872 194.981Z" fill="#D89795"/>
<path d="M199.923 155.924C199.602 161.809 199.067 169.193 197.997 175.078C197.676 176.576 197.355 177.967 197.034 179.144C193.824 190.38 185.798 209.534 163.434 201.508C153.589 197.977 148.988 186.956 146.955 175.72C145.564 168.122 145.35 160.418 145.457 154.961C145.564 149.396 148.667 144.26 153.482 141.478C166.751 133.988 180.662 136.77 189.864 140.301C196.178 142.869 200.244 149.075 199.923 155.924Z" fill="#FFAFA6"/>
<path d="M163.434 185.244C163.969 188.026 165.788 193.055 171.887 193.055C177.987 193.055 179.699 188.454 180.341 185.244H163.434Z" fill="white"/>
<path d="M202.812 154.747C202.598 155.389 201.956 155.817 201.1 156.031C201.207 157.636 200.993 159.562 200.886 161.381C200.03 171.868 197.355 173.687 196.713 171.119C196.285 169.407 196.392 159.562 196.499 156.352C194.466 156.245 192.647 155.924 192.647 155.924L190.185 145.758L189.329 155.817C185.691 157.101 177.238 155.068 177.238 155.068L174.349 145.116L172.636 154.747C167.179 157.422 160.331 155.603 160.331 155.603L158.726 145.223L155.087 155.603C155.087 155.603 143.424 159.776 143.317 155.603C143.21 153.142 145.029 146.293 146.527 141.05C148.132 135.272 151.984 130.35 157.121 127.674C171.566 119.97 186.761 124.036 192.005 127.139C203.347 133.667 202.812 154.747 202.812 154.747Z" fill="#5A2D03"/>
<path d="M149.951 133.667C149.951 133.667 140.428 145.01 137.217 165.341C134.114 185.672 129.727 200.653 141.926 207.394C155.194 214.671 154.017 199.797 153.803 195.73C153.589 191.664 142.354 180.643 149.844 149.397C152.412 139.445 149.951 133.667 149.951 133.667Z" fill="#5A2D03"/>
<path d="M147.704 175.72C147.704 175.934 147.704 176.683 147.811 177.967C147.811 178.716 147.918 179.679 147.918 180.749C148.346 187.598 149.737 199.476 153.589 203.542C155.088 205.147 158.084 206.003 161.615 206.324V200.974C157.87 199.262 155.088 196.372 152.84 192.841C151.449 189.845 149.095 185.137 147.918 177.86L147.704 175.72Z" fill="#532800"/>
<path d="M234.593 309.799C229.777 323.496 208.376 322.533 183.872 315.042H183.765C183.658 315.042 183.658 315.042 183.551 314.935L180.234 313.865C179.806 313.758 179.271 313.544 178.843 313.437C176.167 312.581 173.599 311.618 170.924 310.548C162.15 307.231 153.375 303.272 145.136 299.098L145.243 298.991L147.704 292.464L148.56 290.217C148.56 290.217 193.931 295.139 216.723 290.431C217.151 290.324 217.472 290.217 217.9 290.217C217.793 289.682 217.793 289.147 217.686 288.719C205.594 247.629 218.863 239.71 223.25 234.039C222.929 233.932 243.688 283.904 234.593 309.799Z" fill="#00D4A4"/>
<path d="M227.21 297.065C227.103 297.172 226.889 297.172 226.782 297.172C226.461 297.172 226.033 296.958 225.926 296.637C224.213 293.106 218.328 290.966 216.509 290.431C216.937 290.324 217.258 290.217 217.686 290.217C217.579 289.682 217.472 289.254 217.472 288.719C219.719 289.468 225.712 291.822 227.745 295.888C227.852 296.316 227.745 296.851 227.21 297.065Z" fill="#10AB88"/>
<path d="M163.755 295.353C154.552 295.353 146.955 294.818 146.313 294.818C145.778 294.818 145.35 294.283 145.457 293.748C145.457 293.213 145.992 292.785 146.527 292.892C146.848 292.892 180.876 295.353 194.252 289.896C194.787 289.682 195.322 289.896 195.536 290.431C195.75 290.966 195.536 291.501 195.001 291.715C187.51 294.711 174.456 295.353 163.755 295.353Z" fill="#10AB88"/>
<path d="M180.234 313.866C188.045 311.725 195.001 309.692 199.067 308.301C204.738 306.482 209.447 300.811 211.48 295.889C211.694 295.353 212.229 295.139 212.764 295.353C213.299 295.568 213.513 296.103 213.299 296.638C211.052 301.881 205.915 308.087 199.709 310.12C196.713 311.083 192.219 312.367 186.975 313.866C184.728 314.615 182.374 314.615 180.234 313.866Z" fill="#10AB88"/>
<path d="M201.1 307.231C131.011 330.772 109.503 315.363 109.503 315.363C104.795 272.668 122.13 234.36 122.13 234.36C127.266 242.813 133.044 257.58 133.044 257.58L134.542 290.217L134.435 291.073L134.328 291.501L134.007 293.748C134.114 293.748 134.328 293.855 134.435 293.855C155.623 298.349 194.359 293.32 194.359 293.32L201.1 307.231Z" fill="#00D4A4"/>
<path d="M134.649 294.069C130.904 297.28 127.266 300.918 124.056 305.091C123.735 305.519 123.093 305.626 122.665 305.305C122.237 304.984 122.13 304.342 122.451 303.914C126.089 299.206 130.155 295.14 134.435 291.715L134.114 293.962C134.328 293.962 134.435 293.962 134.649 294.069Z" fill="#10AB88"/>
<path d="M194.573 293.534C194.573 293.534 202.277 275.878 214.155 277.484L217.686 290.217C211.265 292.999 210.302 304.021 201.1 307.231L194.573 293.534Z" fill="#FFAFA6"/>
<path d="M148.453 290.324C148.453 290.324 143.531 278.874 130.69 275.45C117.849 272.133 109.61 278.232 108.754 280.479C107.898 282.727 113.569 280.586 113.569 280.586C113.569 280.586 109.824 281.656 107.684 285.188C105.544 288.719 112.927 284.867 112.927 284.867C112.927 284.867 107.684 287.221 107.042 289.361C106.4 291.501 113.355 287.863 114.639 287.97C114.639 287.97 108.433 290.431 108.433 292.678C108.433 294.925 115.602 291.287 120.846 291.608C126.089 291.929 134.221 294.069 134.221 294.069C138.502 294.925 142.675 295.46 146.42 295.674L148.453 290.324Z" fill="#FFAFA6"/>
<path d="M185.474 275.899C185.075 275.905 184.682 275.799 184.338 275.594C183.995 275.389 183.715 275.092 183.529 274.737C183.343 274.382 183.258 273.982 183.284 273.582C183.31 273.181 183.446 272.796 183.677 272.468L188.893 265.04L183.464 257.764C183.119 257.303 182.971 256.722 183.053 256.151C183.134 255.579 183.438 255.064 183.897 254.718C184.357 254.371 184.934 254.223 185.503 254.304C186.072 254.386 186.585 254.691 186.929 255.153L192.544 262.681C193.041 263.344 193.315 264.149 193.327 264.979C193.339 265.809 193.088 266.621 192.61 267.298L187.212 274.98C187.015 275.26 186.755 275.49 186.453 275.65C186.151 275.809 185.815 275.895 185.474 275.899Z" fill="white"/>
<path d="M203.142 275.647C202.799 275.653 202.461 275.577 202.153 275.425C201.846 275.273 201.579 275.05 201.375 274.775L195.775 267.253C195.278 266.59 195.004 265.785 194.992 264.955C194.98 264.125 195.231 263.313 195.71 262.636L201.107 254.951C201.438 254.479 201.943 254.16 202.509 254.062C203.075 253.964 203.656 254.096 204.126 254.429C204.595 254.762 204.913 255.269 205.011 255.837C205.108 256.406 204.977 256.991 204.645 257.462L199.411 264.89L204.84 272.166C205.08 272.487 205.227 272.869 205.264 273.268C205.302 273.668 205.228 274.07 205.053 274.43C204.877 274.79 204.605 275.095 204.268 275.309C203.931 275.524 203.541 275.641 203.142 275.647Z" fill="white"/>
<path d="M350.3 447.186H200.5C196.9 447.186 194 444.286 194 440.686V362.286C194 358.686 196.9 355.786 200.5 355.786H350.3C353.9 355.786 356.8 358.686 356.8 362.286V440.686C356.8 444.286 353.9 447.186 350.3 447.186Z" fill="#C5C4C6"/>
<path d="M288 447.086H262.8V475.786H288V447.086Z" fill="#676767"/>
<path d="M275.1 415.086C282.004 415.086 287.6 409.489 287.6 402.586C287.6 395.682 282.004 390.086 275.1 390.086C268.197 390.086 262.6 395.682 262.6 402.586C262.6 409.489 268.197 415.086 275.1 415.086Z" fill="white"/>
<path d="M307.5 475.786H242.5V473.586C242.5 469.186 246.1 465.586 250.5 465.586H299.5C303.9 465.586 307.5 469.186 307.5 473.586V475.786Z" fill="#C5C4C6"/>
<path d="M20.2213 316.754C15.9022 312.62 14.2481 306.19 18.3834 301.229C22.243 296.544 29.7783 295.533 34.5568 299.3C46.2275 308.303 34.0974 324.93 21.5078 321.439C19.2104 320.796 19.7618 317.489 22.0592 317.305C25.735 317.122 29.6864 316.938 32.6271 314.366C35.7515 311.61 35.8434 306.925 33.2703 303.709C26.3782 295.258 14.5238 307.66 21.6916 315.192C22.5186 316.295 21.1402 317.673 20.2213 316.754Z" fill="#7CAAFF"/>
<path d="M481.666 141.643C484.699 144.583 485.894 149.176 482.953 152.759C480.196 156.066 474.866 156.801 471.374 154.137C463.012 147.706 471.742 135.856 480.747 138.336C482.402 138.795 482.034 141.184 480.38 141.276C477.715 141.459 474.958 141.551 472.844 143.389C470.547 145.41 470.547 148.717 472.385 151.013C477.255 157.076 485.802 148.166 480.656 142.746C480.012 142.011 481.023 141 481.666 141.643Z" fill="#7CAAFF"/>
<path d="M100.856 405.619C100.58 403.966 100.672 402.312 99.7531 400.842C97.9152 397.903 95.2503 398.637 92.6772 399.924C90.0123 401.21 87.623 402.036 84.7743 400.842C80.3633 398.913 78.2497 392.207 82.4769 388.992C83.8553 387.981 85.2337 389.635 85.0499 390.921C84.7743 392.758 83.8553 394.687 85.4175 396.249C87.5311 398.362 89.9204 396.616 91.942 395.606C94.1475 394.595 96.5368 394.412 98.8342 395.33C102.786 396.892 105.634 402.312 102.51 405.895C101.959 406.63 100.948 406.354 100.856 405.619Z" fill="#7E2E83"/>
<path d="M32.1219 146.113C31.0192 150.339 29.7326 154.473 28.4461 158.606C28.1704 159.617 27.1596 159.893 26.3325 159.341C22.9324 157.045 19.6242 154.84 16.4079 152.268C15.7647 151.808 15.9484 150.798 16.4998 150.339C20.2675 147.766 25.3217 144 30.0083 144C31.203 144 32.03 145.654 30.8354 146.388C28.9056 147.491 26.6082 147.858 24.5866 148.777C22.1973 149.787 19.8999 150.89 17.7863 152.36C17.6944 151.717 17.6945 150.982 17.6026 150.339C21.1864 152.543 24.4946 155.024 27.8947 157.412C27.2515 157.504 26.5163 157.688 25.8731 157.78C27.3434 153.646 28.8137 149.604 30.3759 145.562C30.8354 144.827 32.3057 145.286 32.1219 146.113Z" fill="#EFE6F5"/>
<path d="M466.587 433.316C459.419 430.009 452.435 426.518 445.451 422.935C443.797 422.108 443.521 420.271 444.808 418.985C449.954 413.657 455.008 408.329 460.522 403.46C461.625 402.541 463.279 403.092 463.83 404.287C467.23 411.728 472.468 421.925 470.998 430.376C470.63 432.489 467.322 433.5 466.495 431.111C465.117 427.345 465.117 423.119 464.29 419.261C463.279 414.759 461.9 410.258 459.971 406.032C461.257 406.124 462.452 406.308 463.738 406.4C458.684 412.095 453.262 417.331 447.84 422.568C447.84 421.373 447.749 420.087 447.749 418.893C454.641 422.751 461.349 426.61 468.057 430.744C469.344 431.57 468.057 433.959 466.587 433.316Z" fill="#FF7180"/>
<path d="M72.1194 71.9838C79.7414 67.9745 88.0465 64.1962 96.1533 61.6098C98.7354 60.8144 100.428 64.8127 97.9493 65.9945C90.1531 69.7399 81.5892 72.5522 73.2115 74.9005C71.5953 75.4371 70.4842 72.8361 72.1194 71.9838Z" fill="#FF947E"/>
<path d="M280.116 80.809C284.916 85.409 286.716 92.509 282.116 98.009C277.816 103.209 269.516 104.309 264.216 100.109C251.316 90.109 264.716 71.709 278.716 75.509C281.316 76.209 280.616 79.909 278.116 80.009C274.016 80.209 269.716 80.4089 266.416 83.2089C262.916 86.3089 262.816 91.509 265.716 95.009C273.316 104.309 286.516 90.6089 278.516 82.2089C277.516 81.4089 279.016 79.809 280.116 80.809Z" fill="#FF7180"/>
<path d="M523 475H28V479H523V475Z" fill="#676767"/>
</g>
</svg>
