<svg width="540" height="540" viewBox="0 0 540 540" fill="none" xmlns="http://www.w3.org/2000/svg">
<g opacity="0.9">
<path opacity="0.6" d="M89.1328 184.36C204.003 132.11 230.673 40.4201 322.633 54.4401C404.633 66.9401 495.843 125.26 495.253 192.51C494.823 241.67 422.013 243.67 412.843 324.05C406.843 376.33 444.913 417.6 414.843 455.61C373.143 508.37 228.483 492.61 125.843 436.85C40.1228 390.27 -34.0572 240.4 89.1328 184.36Z" fill="#F4F0EB"/>
<g opacity="0.2">
<path opacity="0.2" d="M428.7 515.6C468.63 515.6 501 510.541 501 504.3C501 498.059 468.63 493 428.7 493C388.77 493 356.4 498.059 356.4 504.3C356.4 510.541 388.77 515.6 428.7 515.6Z" fill="url(#paint0_radial)"/>
</g>
<g opacity="0.2">
<path opacity="0.2" d="M259.6 512.6C310.189 512.6 351.2 508.884 351.2 504.3C351.2 499.716 310.189 496 259.6 496C209.011 496 168 499.716 168 504.3C168 508.884 209.011 512.6 259.6 512.6Z" fill="url(#paint1_radial)"/>
</g>
<g opacity="0.2">
<path opacity="0.2" d="M74.0001 512.6C113.433 512.6 145.4 508.884 145.4 504.3C145.4 499.716 113.433 496 74.0001 496C34.567 496 2.6001 499.716 2.6001 504.3C2.6001 508.884 34.567 512.6 74.0001 512.6Z" fill="url(#paint2_radial)"/>
</g>
<path d="M418.4 495.7V503.8H391.2C391.2 503.8 389.3 498.1 398.8 496.5C408.2 494.9 412.6 494.1 412.6 494.1L418.4 495.7Z" fill="#002245"/>
<path d="M457.7 495.7V503.8H430.5C430.5 503.8 428.6 498.1 438.1 496.5C447.6 494.9 451.9 494.1 451.9 494.1L457.7 495.7Z" fill="#002245"/>
<path d="M387.9 422.7L405 495.5L418.6 497.4L410.7 423.3L387.9 422.7Z" fill="#FFAFA6"/>
<path d="M427 422.7L445.1 495.2L457.8 497.4L448.7 414.3L427 422.7Z" fill="#FFAFA6"/>
<path d="M480.8 367C480.8 367 475.3 376 482 378.9C488.7 381.8 492.6 369.7 492.6 369.7L480.8 367Z" fill="#FFAFA6"/>
<path d="M476.1 259.7C463 267.2 450.3 265.3 459.3 285.4C466.9 302.3 480.9 317.8 481.9 322.5C482.9 327.2 479.5 366.2 479.5 366.2L492.6 369.7L500.8 325.7C501.1 322.4 500.9 320.6 500.3 318.5L486.5 285.8L476.1 259.7Z" fill="#00D4A4"/>
<path d="M493.7 373.5L476.5 369L478.4 361.6L495.6 366.1L493.7 373.5Z" fill="#241352"/>
<path d="M320.5 302C320.5 302 310.1 299 309 306.5C307.9 314 321 314.5 321 314.5L320.5 302Z" fill="#FFAFA6"/>
<path d="M426 268.3C415 257.3 417.4 240.2 399.8 254.6C385 266.7 369.5 288.8 365 291C360.5 293.2 320.9 300.4 320.9 300.4V314.4L366.9 310.7C370.2 310.2 372 309.4 373.9 308.3L402.7 285.7L426 268.3Z" fill="#00D4A4"/>
<path d="M317.4 316.6V298.2H325.2L325.3 316.5L317.4 316.6Z" fill="#241352"/>
<path d="M419 246.7L457.2 250.4C466.3 251.3 479.2 257.4 477.5 266.4L453.4 306.5L458.7 331.9L401 326.3L411 301.4L399 260.7C399.1 251.7 410 245.9 419 246.7Z" fill="#00D4A4"/>
<path d="M433.533 256.557L425.48 346.595L427.672 346.791L435.724 256.753L433.533 256.557Z" fill="#241352"/>
<path fill-rule="evenodd" clip-rule="evenodd" d="M435.7 268.6C445.4 268.6 453.2 260.8 453.2 251.1C453.2 250.734 453.189 250.37 453.167 250.009L419 246.7C418.919 246.693 418.839 246.686 418.758 246.68C418.394 248.091 418.2 249.572 418.2 251.1C418.2 260.8 426 268.6 435.7 268.6Z" fill="#FFBEB7"/>
<path d="M428.115 235.406L426.235 254.613L444.646 256.416L446.526 237.208L428.115 235.406Z" fill="#FFB7AF"/>
<path fill-rule="evenodd" clip-rule="evenodd" d="M446.163 240.918C443.208 243.283 439.871 244.702 436.475 244.393C433.118 244.084 430.148 242.137 427.731 239.323L428.115 235.406L446.526 237.208L446.163 240.918Z" fill="#DCA1A0"/>
<path d="M420.8 216.1C419.8 225.8 426.4 240.5 436.1 241.5C445.8 242.5 455.1 229.3 456.1 219.6C457.1 209.9 449.9 201.2 440.2 200.2C430.4 199.2 421.8 206.3 420.8 216.1Z" fill="#FFAFA6"/>
<path d="M456.1 219.5C455.6 224.8 452.6 231.2 448.3 235.7C444.8 239.4 440.5 241.9 436.1 241.5C427.4 240.7 421.3 228.9 420.7 219.5C420.6 218.3 420.6 217.2 420.7 216.1C421.6 206.4 430.3 199.2 440.1 200.2C449.9 201.1 457 209.8 456.1 219.5Z" fill="#FFAFA6"/>
<path d="M431 234C431.556 236 433.225 237.95 435.5 238C437.775 237.95 439.393 236 440 234H431Z" fill="white"/>
<path d="M458.8 332L401.1 326.4L370 422.7L474.5 431.6L458.8 332Z" fill="#241352"/>
<path d="M323.306 460.479C338.165 424.608 321.131 383.484 285.26 368.625C249.389 353.766 208.264 370.8 193.406 406.671C178.547 442.542 195.581 483.667 231.452 498.525C267.323 513.384 308.448 496.35 323.306 460.479Z" fill="#FAC480"/>
<path d="M258.319 129.971L140.87 247.42L258.319 364.869L375.769 247.42L258.319 129.971Z" fill="#FF7180"/>
<path d="M383.5 80.8999H133.1V132.1H383.5V80.8999Z" fill="#00D4A4"/>
<path d="M90.2697 194.553L83.9653 213.428L101.987 219.447L108.291 200.572L90.2697 194.553Z" fill="#FFB7AF"/>
<path fill-rule="evenodd" clip-rule="evenodd" d="M87.8726 201.73L90.2697 194.553L108.291 200.572L107.908 201.719C102.778 205.331 95.0885 206.288 87.8726 201.73Z" fill="#D89795"/>
<path d="M37.1001 431.5L37.2001 441.5L3.80007 442C3.80007 442 1.40007 435 13.0001 432.8C24.6001 430.6 29.9001 429.5 29.9001 429.5L37.1001 431.5Z" fill="#241352"/>
<path d="M96.6001 430.4L96.7001 440.4L129.6 440.2C129.6 440.2 131.8 433.2 120.1 431.3C108.4 429.5 103 428.5 103 428.5L96.6001 430.4Z" fill="#241352"/>
<path d="M128.5 119C128.5 119 140.3 117.2 137.9 109.2C135.5 101.2 122.3 106.7 122.3 106.7L128.5 119Z" fill="#FFAFA6"/>
<path d="M94.8 296L36.9 286.5L18 359.2L19 431.8L37.1 431.5C37.1 431.5 43.3 409 43.8 383.5C43.9 377.6 42.6 361.5 42.6 361.5L61.6 320.8C62.3 319.4 63.7 318.5 65.2 318.4H65.3C66.9 318.4 68.3 319.3 69 320.7L110.5 357.5C110.5 357.5 101.4 366.5 98.7 387.5C96.1 408.1 96.6 430.8 96.6 430.8L114.7 430.5L135.6 349.2L94.8 296Z" fill="#7CAAFF"/>
<path d="M111.6 216.1L74.1 203.6C65.2 200.6 55.7 206 53.5 215.1L38.5 279.5L95.1 298.4L121.2 237.5C124.8 228.9 120.4 219 111.6 216.1Z" fill="#00D4A4"/>
<path d="M48.5 235.3C64.5 241.2 65 225.6 69.3 217.4C79.1 198.9 85.8 154.8 89.2 150.5C92.6 146.2 128.7 120.7 128.7 120.7L122.2 106.8L78.2 131.8C75.1 133.9 73.7 135.5 72.3 137.4C72.3 137.4 56.9 163.5 54.1 173.2C49.8 188.1 48.5 235.3 48.5 235.3Z" fill="#00D4A4"/>
<path d="M124.765 103.176L116.988 106.847L126.038 126.018L133.815 122.347L124.765 103.176Z" fill="black"/>
<path d="M160.9 143.8C160.9 143.8 155.6 133.1 163.4 130.5C171.3 127.8 174.4 141.9 174.4 141.9L160.9 143.8Z" fill="#FFAFA6"/>
<path d="M107.8 254.8C99.8001 239.8 86.5001 233.9 107.2 220.1C124.6 208.5 144.5 200.3 148.2 196.3C152 192.3 162.2 146.6 162.2 146.6L178 144.5L170.9 201.7C169.3 205 167.9 206.7 166.1 208.3L133.5 236L107.8 254.8Z" fill="#00D4A4"/>
<path d="M177.745 138.716L157.034 143.249L158.873 151.65L179.583 147.118L177.745 138.716Z" fill="black"/>
<path d="M111.6 216.1L74.1 203.6C65.2 200.6 55.7 206 53.5 215.1L36 287.8L96.6 298.2L121.2 237.5C124.8 228.9 120.4 219 111.6 216.1Z" fill="#00D4A4"/>
<path d="M94.2001 209.6C94.2001 209.6 80.6001 220.4 77.9001 220.1C75.3001 219.8 76.9001 204 76.9001 204L94.2001 209.6Z" fill="black"/>
<path d="M94.2 209.6C94.2 209.6 98.6 226.4 100.9 227.8C103.2 229.2 111.4 215.5 111.4 215.5L94.2 209.6Z" fill="black"/>
<path d="M102.7 178.6C111.1 181.4 119.1 184.1 122.5 185.2C125.9 186.3 138.6 181.3 133.6 171.1C128.5 160.9 106 161.2 100.9 163.8C95.8001 166.4 97.3001 176.9 102.7 178.6Z" fill="#241352"/>
<path d="M121.6 186C118.5 195.2 106.7 205.8 97.4999 202.7C94.4999 201.7 92.1999 199.4 90.4999 196.4C86.9999 190.2 86.2999 181.1 88.2999 174.9C91.3999 165.7 101.3 160.8 110.5 163.8C113 164.6 115.2 166 117 167.6C121.8 172.3 123.9 179.4 121.6 186Z" fill="#FFAFA6"/>
<path d="M129.8 440.1H3.5V446.7H129.8V440.1Z" fill="#393E5D"/>
<path d="M6.5001 442H3.6001V504.3H6.5001V442Z" fill="#393E5D"/>
<path d="M129.8 442H126.9V504.3H129.8V442Z" fill="#393E5D"/>
<path d="M441.9 199.3C439.2 191.4 442.6 175.3 459.6 174.1C479.9 172.7 478.7 186.2 488.6 193C494.2 196.8 517.1 188.4 532.1 207.8C544.9 224.3 528 254 500.6 243.6C474.5 233.7 489 216.5 474.5 212.4C465.7 209.8 449.1 220.6 441.9 199.3Z" fill="#241352"/>
<path d="M409 52.5C411.2 50.6 414.6 50.9 416.4 53.2C418.3 55.4 418 58.8 415.7 60.6C413.5 62.5 389 76 389 76C389 76 406.8 54.4 409 52.5Z" fill="#00D4A4"/>
<path d="M259.6 40.5999C259.8 37.6999 262.3 35.4999 265.2 35.6999C268.1 35.8999 270.3 38.3999 270.1 41.2999C269.9 44.1999 262.8 71.2999 262.8 71.2999C262.8 71.2999 259.4 43.4999 259.6 40.5999Z" fill="#00D4A4"/>
<path d="M416.4 153.6C418.7 155.4 419 158.8 417.1 161C415.3 163.3 411.9 163.6 409.7 161.7C407.4 159.9 389.5 138.4 389.5 138.4C389.5 138.4 414.1 151.7 416.4 153.6Z" fill="#00D4A4"/>
<path d="M105.5 53.0998C103.3 51.1998 99.9001 51.4998 98.1001 53.7998C96.2001 55.9998 96.5001 59.3998 98.8001 61.1998C101 63.0998 125.5 76.5998 125.5 76.5998C125.5 76.5998 107.7 54.9998 105.5 53.0998Z" fill="#00D4A4"/>
<path d="M96.6001 150.9C94.3001 152.7 94.0001 156.1 95.9001 158.3C97.7001 160.6 101.1 160.9 103.3 159C105.6 157.2 123.5 135.7 123.5 135.7C123.5 135.7 98.9001 149.1 96.6001 150.9Z" fill="#00D4A4"/>
<path d="M456.1 219.5C455.6 224.8 452.6 231.2 448.3 235.7L447.9 229.7C447.9 229.7 454.5 223.5 451.5 218.9C448.7 214.7 445.2 220 445.2 220C445.2 220 432.6 220.2 420.8 219.5C420.7 218.3 420.7 217.2 420.8 216.1C421.7 206.4 430.4 199.2 440.2 200.2C449.9 201.1 457 209.8 456.1 219.5Z" fill="#241352"/>
<path d="M117 167.7C116.9 168.2 116.7 168.6 116.4 169C113.9 173 106.7 172.7 106.7 172.7L100.6 177.3C100.6 177.3 96.6999 170.8 92.8999 174.7C89.1999 178.6 93.4999 187.4 93.4999 187.4L90.4999 196.4C86.9999 190.2 86.2999 181.1 88.2999 174.9C91.3999 165.7 101.3 160.8 110.5 163.8C113 164.7 115.2 166 117 167.7Z" fill="#241352"/>
<path d="M403.9 176.1V215.1H377.8L377 229.9L361.7 214.2H304.3L309.4 173.2L403.9 176.1Z" fill="#7E2E83"/>
<path d="M395 187.2C382.2 186.8 369.3 187 356.5 187C343.7 187 330.7 186.3 318 187C317.5 187 317.5 187.7 318 187.8C330.8 188.5 343.7 187.9 356.5 187.8C369.3 187.8 382.2 188 395 187.6C395.3 187.7 395.3 187.2 395 187.2Z" fill="white"/>
<path d="M395 194.7C382.2 194.3 369.3 194.5 356.5 194.5C343.7 194.5 330.7 193.8 318 194.5C317.5 194.5 317.5 195.2 318 195.3C330.8 196 343.7 195.4 356.5 195.3C369.3 195.3 382.2 195.5 395 195.1C395.3 195.2 395.3 194.7 395 194.7Z" fill="white"/>
<path d="M395 202.6C387.1 202.3 379.2 202.4 371.3 202.4C363.4 202.4 355.5 202 347.6 202.4C347.1 202.4 347.1 203.1 347.6 203.2C355.4 203.7 363.4 203.3 371.3 203.2C379.2 203.2 387.1 203.3 395 203C395.3 203.1 395.3 202.6 395 202.6Z" fill="white"/>
<path d="M325.9 88.9001C321.2 84.4001 319.4 77.4001 323.9 72.0001C328.1 66.9001 336.3 65.8001 341.5 69.9001C354.2 79.7001 341 97.8001 327.3 94.0001C324.8 93.3001 325.4 89.7001 327.9 89.5001C331.9 89.3001 336.2 89.1001 339.4 86.3001C342.8 83.3001 342.9 78.2001 340.1 74.7001C332.6 65.5001 319.7 79.0001 327.5 87.2001C328.5 88.3001 327 89.9001 325.9 88.9001Z" fill="#7CAAFF"/>
<path d="M46.7 46.4C44.9 48.3 43 49.7 42.1 52.2C40.3 57.2 43.7 59.7 47.7 61.6C51.8 63.5 55 65.7 56.2 70.3C58.1 77.5 52 86.3 44.2 84.2C41.7 83.5 42.4 80.3 44.2 79.3C46.6 77.9 49.8 77.1 50.2 73.8C50.7 69.4 46.4 68.1 43.3 66.5C40 64.8 37.5 62.1 36.4 58.5C34.6 52.2 38.3 43.7 45.6 44.1C46.7 44.1 47.4 45.6 46.7 46.4Z" fill="#7E2E83"/>
<path d="M469.8 128.7C470.4 124.6 474.7 115.8 479.3 114.6C481.7 114 483.5 115.5 485.4 116.8C488.8 119.1 492.2 121.6 495.5 124C496.7 124.9 497.5 126.6 496.5 128C493.5 132.6 490.5 137.2 487.6 141.8C486.8 143 485 143.8 483.6 142.8C479.9 140.2 475.9 137.7 472.5 134.7C470.2 132.6 473.1 129.1 475.8 130.5C479.6 132.5 483.1 135.4 486.6 137.9C485.3 138.2 484 138.6 482.6 138.9C485.6 134.3 488.6 129.7 491.5 125.1C491.8 126.4 492.2 127.7 492.5 129.1C490.5 127.7 488.4 126.2 486.4 124.8C485.3 124 481.4 120.4 480.2 120.5C479.1 120.6 476.7 124.7 476 125.5C474.6 127.2 473.2 128.8 471.4 130.1C470.5 130.5 469.6 129.5 469.8 128.7Z" fill="#FAC480"/>
<path d="M499.6 472.5C505.2 478.8 510.9 485.7 515.3 492.9C516.7 495.2 513.3 497.8 511.5 495.7C506 489.3 501.2 481.7 497 474.4C496.1 472.9 498.4 471.2 499.6 472.5Z" fill="#FF7180"/>
<path d="M189.2 91.9999C181.4 88.3999 173.8 84.5999 166.2 80.6999C164.4 79.7999 164.1 77.7999 165.5 76.3999C171.1 70.5999 176.6 64.7999 182.6 59.4999C183.8 58.4999 185.6 59.0999 186.2 60.3999C189.9 68.4999 195.6 79.5999 194 88.7999C193.6 91.0999 190 92.1999 189.1 89.5999C187.6 85.4999 187.6 80.8999 186.7 76.6999C185.6 71.7999 184.1 66.8999 182 62.2999C183.4 62.3999 184.7 62.5999 186.1 62.6999C180.6 68.8999 174.7 74.5999 168.8 80.2999C168.8 78.9999 168.7 77.5999 168.7 76.2999C176.2 80.4999 183.5 84.6999 190.8 89.1999C192.2 90.0999 190.8 92.7999 189.2 91.9999Z" fill="#FF7180"/>
<path d="M184.2 374.2C183.9 372.4 184 370.6 183 369C181 365.8 178.1 366.6 175.3 368C172.4 369.4 169.8 370.3 166.7 369C161.9 366.9 159.6 359.6 164.2 356.1C165.7 355 167.2 356.8 167 358.2C166.7 360.2 165.7 362.3 167.4 364C169.7 366.3 172.3 364.4 174.5 363.3C176.9 362.2 179.5 362 182 363C186.3 364.7 189.4 370.6 186 374.5C185.4 375.2 184.3 375 184.2 374.2Z" fill="#7E2E83"/>
</g>
<defs>
<radialGradient id="paint0_radial" cx="0" cy="0" r="1" gradientUnits="userSpaceOnUse" gradientTransform="translate(428.723 504.3) scale(51.1488 173.857)">
<stop stop-opacity="0.6"/>
<stop offset="0.9996" stop-opacity="0"/>
</radialGradient>
<radialGradient id="paint1_radial" cx="0" cy="0" r="1" gradientUnits="userSpaceOnUse" gradientTransform="translate(259.576 504.301) scale(64.8488 127.385)">
<stop stop-opacity="0.6"/>
<stop offset="0.9996" stop-opacity="0"/>
</radialGradient>
<radialGradient id="paint2_radial" cx="0" cy="0" r="1" gradientUnits="userSpaceOnUse" gradientTransform="translate(73.989 504.301) scale(50.5751 127.385)">
<stop stop-opacity="0.6"/>
<stop offset="0.9996" stop-opacity="0"/>
</radialGradient>
</defs>
</svg>
