<svg width="380" height="380" viewBox="0 0 380 380" fill="none" xmlns="http://www.w3.org/2000/svg">
<g opacity="0.2">
<path d="M32.7498 311.62C32.7498 311.62 -55.325 239.976 57.396 112.748C178.036 -23.4344 255.527 84.1797 327.838 123.554C423.832 175.807 369.062 267.731 309.186 260.847C262.188 255.444 216.227 252.706 189.064 286.16C150.652 333.38 83.7444 352.993 32.7498 311.62Z" fill="#440099"/>
<path d="M32.7498 311.62C32.7498 311.62 -55.325 239.976 57.396 112.748C178.036 -23.4344 255.527 84.1797 327.838 123.554C423.832 175.807 369.062 267.731 309.186 260.847C262.188 255.444 216.227 252.706 189.064 286.16C150.652 333.38 83.7444 352.993 32.7498 311.62Z" fill="url(#paint0_linear)"/>
</g>
<path d="M194.023 46.6553H285.28C298.75 46.6553 309.63 57.5351 309.63 71.0054V294.893C309.63 308.363 298.75 319.243 285.28 319.243H194.023C180.552 319.243 169.673 308.363 169.673 294.893V71.0054C169.673 57.5351 180.552 46.6553 194.023 46.6553Z" fill="#343435"/>
<path d="M199.722 46.6553H290.979C304.449 46.6553 315.329 57.5351 315.329 71.0054V294.893C315.329 308.363 304.449 319.243 290.979 319.243H199.722C186.251 319.243 175.372 308.363 175.372 294.893V71.0054C175.372 57.5351 186.251 46.6553 199.722 46.6553Z" fill="#474749"/>
<path d="M307.78 295.559V70.5613C307.78 61.3098 300.231 53.7605 290.979 53.7605H198.612C189.36 53.7605 181.811 61.3098 181.811 70.5613V295.559C181.811 304.811 189.36 312.36 198.612 312.36H290.979C300.231 312.36 307.78 304.811 307.78 295.559Z" fill="url(#paint1_linear)"/>
<path d="M202.978 52.2803H287.723L282.542 61.9019C281.358 64.1223 279.063 65.4545 276.621 65.4545H214.154C211.638 65.4545 209.343 64.0482 208.233 61.9019L202.978 52.2803Z" fill="#474749"/>
<path opacity="0.8" d="M301.119 88.9905H243.907V159.746H301.119V88.9905Z" fill="#F67477"/>
<path d="M301.119 258.627H243.907V296.447H301.119V258.627Z" fill="#A7A7F0"/>
<g opacity="0.8">
<path opacity="0.8" d="M236.358 271.653C236.358 273.43 234.952 274.836 233.175 274.836H191.58C189.804 274.836 188.398 273.43 188.398 271.653V243.677C188.398 241.9 189.804 240.494 191.58 240.494H233.175C234.952 240.494 236.358 241.9 236.358 243.677V271.653Z" fill="#F67477"/>
</g>
<path d="M301.119 165.889H188.472V236.645H301.119V165.889Z" fill="#63ABE0"/>
<path d="M200.388 286.752H75.3072C74.4931 286.752 73.7529 286.086 73.7529 285.197V280.313C73.7529 279.498 74.419 278.758 75.3072 278.758H200.388C201.202 278.758 201.943 279.424 201.943 280.313V285.197C201.943 286.086 201.202 286.752 200.388 286.752Z" fill="white"/>
<path d="M226.811 286.752H206.309C205.495 286.752 204.755 286.086 204.755 285.197V280.313C204.755 279.498 205.421 278.758 206.309 278.758H226.811C227.625 278.758 228.365 279.424 228.365 280.313V285.197C228.365 286.086 227.699 286.752 226.811 286.752Z" fill="white"/>
<path d="M68.4979 286.752H59.7645C58.9503 286.752 58.2102 286.086 58.2102 285.197V280.313C58.2102 279.498 58.8763 278.758 59.7645 278.758H68.4239C69.2381 278.758 69.9782 279.424 69.9782 280.313V285.197C69.9782 286.086 69.3121 286.752 68.4979 286.752Z" fill="white"/>
<path d="M211.934 165.741C214.524 164.039 217.041 162.337 219.631 160.635C233.027 180.692 216.153 205.412 195.059 203.34C191.655 203.044 189.656 200.749 190.026 197.715C190.618 195.568 192.173 193.94 195.651 194.088C209.566 195.124 220.815 179.064 211.934 165.741Z" fill="#22193B"/>
<path d="M202.831 202.525C202.164 199.639 201.498 196.753 200.832 193.792" stroke="#5D4273" stroke-width="2.1799" stroke-miterlimit="10" stroke-linecap="round" stroke-linejoin="round"/>
<path d="M210.824 199.269C209.27 196.753 207.789 194.162 206.235 191.646" stroke="#5D4273" stroke-width="2.1799" stroke-miterlimit="10" stroke-linecap="round" stroke-linejoin="round"/>
<path d="M217.337 193.718C215.117 191.794 212.896 189.795 210.676 187.871" stroke="#5D4273" stroke-width="2.1799" stroke-miterlimit="10" stroke-linecap="round" stroke-linejoin="round"/>
<path d="M221.926 186.539C219.187 185.354 216.449 184.244 213.71 183.06" stroke="#5D4273" stroke-width="2.1799" stroke-miterlimit="10" stroke-linecap="round" stroke-linejoin="round"/>
<path d="M224.072 178.249C221.112 177.953 218.151 177.731 215.191 177.435" stroke="#5D4273" stroke-width="2.1799" stroke-miterlimit="10" stroke-linecap="round" stroke-linejoin="round"/>
<path d="M223.332 169.368C220.446 170.108 217.559 170.774 214.673 171.514" stroke="#5D4273" stroke-width="2.1799" stroke-miterlimit="10" stroke-linecap="round" stroke-linejoin="round"/>
<path d="M211.49 161.967C209.936 166.407 205.125 168.776 200.684 167.222C199.426 166.778 198.094 167.444 197.65 168.702C197.206 169.96 197.872 171.292 199.13 171.736C206.087 174.105 213.636 170.404 216.005 163.521C217.263 159.968 216.819 156.194 215.191 153.085C213.71 153.677 212.304 154.417 210.898 155.158C212.008 157.23 212.304 159.672 211.49 161.967Z" fill="#22193B"/>
<path d="M215.043 143.908C211.342 137.543 203.201 135.396 196.836 139.097C195.725 139.763 195.281 141.243 195.947 142.353C196.614 143.464 198.094 143.908 199.204 143.242C203.275 140.873 208.456 142.279 210.824 146.276C211.934 148.2 212.23 150.421 211.786 152.419C213.34 152.789 214.895 153.159 216.449 153.603C217.263 150.495 216.819 147.016 215.043 143.908Z" fill="#22193B"/>
<path d="M207.42 147.904C201.203 143.982 192.987 145.832 189.064 152.049C188.324 153.159 188.694 154.639 189.805 155.38C190.915 156.12 192.395 155.75 193.135 154.639C195.652 150.643 200.906 149.459 204.829 151.975C206.679 153.159 207.938 155.01 208.53 157.008C210.084 156.564 211.638 156.194 213.193 155.972C212.452 152.641 210.454 149.755 207.42 147.904Z" fill="#22193B"/>
<path d="M223.554 151.013C226.737 144.426 223.924 136.432 217.337 133.25C216.153 132.658 214.673 133.176 214.154 134.36C213.562 135.544 214.08 137.025 215.265 137.543C219.483 139.541 221.26 144.648 219.261 148.867C218.299 150.865 216.671 152.345 214.673 153.085C215.265 154.566 215.857 156.046 216.301 157.6C219.335 156.49 222 154.195 223.554 151.013Z" fill="#22193B"/>
<path d="M203.201 163.817L203.867 151.753C204.015 149.607 205.791 148.052 207.937 148.126L220.002 148.792C222.148 148.94 223.702 150.717 223.628 152.863L222.962 164.927C222.814 167.073 221.038 168.628 218.891 168.554L206.827 167.888C204.755 167.74 203.127 165.889 203.201 163.817Z" fill="#FFD300"/>
<path d="M208.678 158.044C208.826 155.454 211.046 153.455 213.71 153.529C216.301 153.677 218.299 155.898 218.225 158.562C218.077 161.153 215.857 163.151 213.192 163.077C210.528 162.929 208.53 160.635 208.678 158.044Z" fill="#22193B"/>
<path d="M192.691 192.386C196.762 196.753 196.466 203.636 192.099 207.633C187.732 211.703 180.849 211.407 176.852 207.04C172.782 202.674 173.078 195.791 177.444 191.794C181.811 187.723 188.62 187.945 192.691 192.386Z" fill="#5D4273"/>
<path d="M135.479 95.5776H116.532C114.978 95.5776 113.646 97.576 113.646 100.092V130.363C113.646 132.88 114.904 134.878 116.532 134.878C118.086 134.878 119.419 136.877 119.419 139.393V148.423C119.419 150.939 120.677 152.937 122.305 152.937H139.624" stroke="#1D0944" stroke-width="2.4773" stroke-miterlimit="10" stroke-linecap="round" stroke-linejoin="round"/>
<path d="M130.372 157.896H142.88L158.571 117.411H146.063L130.372 157.896Z" fill="#22193B"/>
<path d="M122.897 157.896H131.038L146.655 117.411H138.514L122.897 157.896Z" fill="#5D4273"/>
<path d="M164.64 126.663H127.93C126.672 126.663 125.635 125.627 125.635 124.368V117.041C125.635 115.783 126.672 114.747 127.93 114.747H164.64C165.898 114.747 166.934 115.783 166.934 117.041V124.368C166.934 125.627 165.898 126.663 164.64 126.663Z" fill="#22193B"/>
<path d="M134.813 126.663H127.856C126.598 126.663 125.635 125.701 125.635 124.442V116.893C125.635 115.635 126.598 114.673 127.856 114.673H134.813C136.071 114.673 137.033 115.635 137.033 116.893V124.442C137.033 125.627 135.997 126.663 134.813 126.663Z" fill="#5D4273"/>
<path d="M194.689 120.964H112.165C108.464 120.964 105.43 117.929 105.43 114.229V92.9131C105.43 89.2125 108.464 86.178 112.165 86.178H194.689C198.39 86.178 201.424 89.2125 201.424 92.9131V114.229C201.498 117.929 198.464 120.964 194.689 120.964Z" fill="#F45054"/>
<path d="M128.596 120.964H110.981C107.872 120.964 105.43 118.447 105.43 115.413V91.8029C105.43 88.6944 107.946 86.252 110.981 86.252H128.596C131.704 86.252 134.147 88.7684 134.147 91.8029V115.413C134.221 118.521 131.704 120.964 128.596 120.964Z" fill="#D04548"/>
<path d="M111.499 112.378V94.8374C111.499 93.0611 112.979 91.5808 114.756 91.5808H124.895C126.672 91.5808 128.152 93.0611 128.152 94.8374V112.378C128.152 114.155 126.672 115.635 124.895 115.635H114.682C112.979 115.561 111.499 114.155 111.499 112.378Z" fill="#DF494C"/>
<path d="M143.842 104.829V102.683C143.842 96.9838 148.505 92.321 154.204 92.321H193.949C199.648 92.321 204.31 96.9838 204.31 102.683V104.829C204.31 110.528 199.648 115.191 193.949 115.191H154.204C148.431 115.191 143.842 110.602 143.842 104.829Z" fill="#5D4273"/>
<path d="M195.282 111.046H152.798C150.134 111.046 147.988 108.9 147.988 106.235V101.351C147.988 98.6862 150.134 96.5398 152.798 96.5398H195.282C197.946 96.5398 200.092 98.6862 200.092 101.351V106.235C200.092 108.9 197.946 111.046 195.282 111.046Z" fill="#22193B"/>
<path d="M162.79 103.497C162.79 105.865 160.866 107.716 158.571 107.716C156.203 107.716 154.353 105.791 154.353 103.497C154.353 101.128 156.277 99.2781 158.571 99.2781C160.866 99.2781 162.79 101.202 162.79 103.497Z" fill="white"/>
<path d="M195.281 103.497C195.281 105.865 193.357 107.716 191.063 107.716C188.694 107.716 186.844 105.791 186.844 103.497C186.844 101.128 188.768 99.2781 191.063 99.2781C193.357 99.2781 195.281 101.202 195.281 103.497Z" fill="white"/>
<path d="M156.721 226.284H119.863C116.088 226.284 113.053 223.249 113.053 219.474V159.894C113.053 156.12 116.088 153.085 119.863 153.085H156.721C160.495 153.085 163.53 156.12 163.53 159.894V219.474C163.53 223.249 160.495 226.284 156.721 226.284Z" fill="#22193B"/>
<path d="M136.219 226.284H118.604C115.496 226.284 113.053 223.767 113.053 220.733V158.71C113.053 155.602 115.57 153.159 118.604 153.159H136.219C139.328 153.159 141.77 155.676 141.77 158.71V220.733C141.844 223.767 139.328 226.284 136.219 226.284Z" fill="#5D4273"/>
<path d="M119.123 217.698V161.819C119.123 160.042 120.603 158.562 122.379 158.562H132.593C134.369 158.562 135.849 160.042 135.849 161.819V217.698C135.849 219.474 134.369 220.954 132.593 220.954H122.379C120.529 220.88 119.123 219.474 119.123 217.698Z" fill="#22193B"/>
<path d="M106.245 244.639C106.171 244.565 106.097 244.491 106.023 244.491C105.43 244.121 104.616 244.269 104.246 244.861L94.2545 259.663C93.8845 260.181 93.9585 260.847 94.4025 261.291L104.542 272.023C104.986 272.541 105.874 272.541 106.393 272.097C106.911 271.579 106.911 270.765 106.467 270.247L96.993 260.255L106.393 246.267C106.763 245.749 106.615 245.083 106.245 244.639Z" fill="#FBBA00"/>
<path d="M108.169 273.43C109.353 272.245 109.353 270.247 108.169 269.063C106.984 267.879 104.986 267.879 103.802 269.063C102.618 270.247 102.618 272.245 103.802 273.43C104.986 274.688 106.984 274.688 108.169 273.43Z" fill="#4466C5"/>
<path d="M105.948 272.689C105.578 272.689 105.208 272.541 104.986 272.319C104.69 272.023 104.616 271.727 104.616 271.357C104.616 270.987 104.764 270.617 104.986 270.395C105.282 270.099 105.578 270.025 105.948 270.025C106.318 270.025 106.688 270.173 106.91 270.395C107.206 270.691 107.28 270.987 107.28 271.357C107.28 271.727 107.132 272.097 106.91 272.319C106.688 272.541 106.318 272.689 105.948 272.689Z" fill="#22193B"/>
<path d="M98.325 261.069C98.9911 259.515 98.325 257.665 96.7708 256.999C95.2165 256.333 93.3662 256.999 92.7001 258.553C92.034 260.107 92.7001 261.958 94.2543 262.624C95.8086 263.29 97.6589 262.624 98.325 261.069Z" fill="#FFD300"/>
<path d="M95.5125 261.217C95.2905 261.217 95.1424 261.143 94.9204 261.069C94.2543 260.773 93.8842 259.959 94.2543 259.219C94.4763 258.701 94.9944 258.405 95.5125 258.405C95.7345 258.405 95.8826 258.479 96.1046 258.553C96.7707 258.849 97.1408 259.663 96.7707 260.403C96.5487 260.847 96.1046 261.217 95.5125 261.217Z" fill="#22193B"/>
<path d="M107.133 281.201H90.4058C88.2594 281.201 86.5571 279.498 86.5571 277.352V265.14C86.5571 262.994 88.2594 261.291 90.4058 261.291H107.133C109.279 261.291 110.981 262.994 110.981 265.14V277.352C110.981 279.498 109.279 281.201 107.133 281.201Z" fill="#22193B"/>
<path d="M102.618 281.201H90.4058C88.2594 281.201 86.5571 279.498 86.5571 277.352V265.14C86.5571 262.994 88.2594 261.291 90.4058 261.291H102.618C104.764 261.291 106.466 262.994 106.466 265.14V277.352C106.466 279.498 104.764 281.201 102.618 281.201Z" fill="#5D4273"/>
<path d="M99.4392 278.169C103.25 276.581 105.052 272.205 103.465 268.394C101.877 264.583 97.5002 262.781 93.6892 264.368C89.8782 265.956 88.076 270.333 89.6638 274.144C91.2516 277.955 95.6282 279.757 99.4392 278.169Z" fill="#22193B"/>
<path d="M96.5487 244.639C96.4747 244.565 96.4007 244.491 96.3267 244.491C95.7346 244.121 94.9205 244.269 94.5504 244.861L84.5587 259.663C84.1887 260.181 84.2627 260.847 84.7067 261.291L94.8465 272.023C95.2905 272.541 96.1787 272.541 96.6968 272.097C97.2149 271.579 97.2149 270.765 96.7708 270.247L87.2972 260.255L96.6968 246.341C97.0668 245.749 96.9928 245.083 96.5487 244.639Z" fill="#FFD300"/>
<path d="M98.4729 273.43C99.6571 272.245 99.6571 270.247 98.4729 269.063C97.2887 267.879 95.2904 267.879 94.1062 269.063C92.922 270.247 92.922 272.245 94.1062 273.43C95.2904 274.688 97.2887 274.688 98.4729 273.43Z" fill="#FFD300"/>
<path d="M96.3266 272.689C95.9565 272.689 95.5865 272.541 95.3644 272.319C95.0684 272.023 94.9944 271.727 94.9944 271.357C94.9944 270.987 95.1424 270.617 95.3644 270.395C95.6605 270.099 95.9565 270.025 96.3266 270.025C96.6967 270.025 97.0667 270.173 97.2888 270.395C97.5848 270.691 97.6588 270.987 97.6588 271.357C97.6588 271.727 97.5108 272.097 97.2888 272.319C96.9927 272.541 96.6967 272.689 96.3266 272.689Z" fill="#22193B"/>
<path d="M88.6295 261.069C89.2956 259.515 88.6295 257.665 87.0752 256.999C85.5209 256.333 83.6706 256.999 83.0045 258.553C82.3384 260.107 83.0045 261.958 84.5588 262.624C86.113 263.29 87.9634 262.624 88.6295 261.069Z" fill="#FFD300"/>
<path d="M85.8167 261.217C85.5947 261.217 85.4467 261.143 85.2246 261.069C84.5585 260.773 84.1884 259.959 84.5585 259.219C84.7805 258.701 85.2986 258.405 85.8167 258.405C86.0388 258.405 86.1868 258.479 86.4088 258.553C87.0749 258.849 87.445 259.663 87.0749 260.403C86.8529 260.847 86.4088 261.217 85.8167 261.217Z" fill="#22193B"/>
<path d="M133.777 244.639C133.703 244.565 133.629 244.491 133.555 244.491C132.963 244.121 132.149 244.269 131.778 244.861L121.787 259.663C121.417 260.181 121.491 260.847 121.935 261.291L132.074 272.023C132.519 272.541 133.407 272.541 133.925 272.097C134.443 271.579 134.443 270.765 133.999 270.247L124.525 260.255L133.925 246.341C134.295 245.749 134.221 245.083 133.777 244.639Z" fill="#FBBA00"/>
<path d="M135.775 273.43C136.96 272.245 136.96 270.247 135.775 269.063C134.591 267.879 132.593 267.879 131.409 269.063C130.224 270.247 130.224 272.245 131.409 273.43C132.593 274.688 134.517 274.688 135.775 273.43Z" fill="#4466C5"/>
<path d="M133.555 272.689C133.185 272.689 132.815 272.541 132.593 272.319C132.297 272.023 132.223 271.727 132.223 271.357C132.223 270.987 132.371 270.617 132.593 270.395C132.889 270.099 133.185 270.025 133.555 270.025C133.925 270.025 134.295 270.173 134.517 270.395C134.813 270.691 134.887 270.987 134.887 271.357C134.887 271.727 134.739 272.097 134.517 272.319C134.295 272.541 133.925 272.689 133.555 272.689Z" fill="#22193B"/>
<path d="M125.932 261.069C126.598 259.515 125.932 257.665 124.377 256.999C122.823 256.333 120.973 256.999 120.307 258.553C119.641 260.107 120.307 261.958 121.861 262.624C123.415 263.29 125.192 262.624 125.932 261.069Z" fill="#FFD300"/>
<path d="M123.119 261.217C122.897 261.217 122.749 261.143 122.527 261.069C121.861 260.773 121.491 259.959 121.861 259.219C122.083 258.701 122.601 258.405 123.119 258.405C123.341 258.405 123.489 258.479 123.711 258.553C124.377 258.849 124.747 259.663 124.377 260.403C124.155 260.847 123.637 261.217 123.119 261.217Z" fill="#22193B"/>
<path d="M134.739 281.201H118.012C115.866 281.201 114.164 279.498 114.164 277.352V265.14C114.164 262.994 115.866 261.291 118.012 261.291H134.739C136.885 261.291 138.588 262.994 138.588 265.14V277.352C138.588 279.498 136.885 281.201 134.739 281.201Z" fill="#22193B"/>
<path d="M130.224 281.201H118.012C115.866 281.201 114.164 279.498 114.164 277.352V265.14C114.164 262.994 115.866 261.291 118.012 261.291H130.224C132.371 261.291 134.073 262.994 134.073 265.14V277.352C134.073 279.498 132.297 281.201 130.224 281.201Z" fill="#5D4273"/>
<path d="M124.081 278.758C128.21 278.758 131.556 275.411 131.556 271.283C131.556 267.155 128.21 263.808 124.081 263.808C119.953 263.808 116.606 267.155 116.606 271.283C116.606 275.411 119.953 278.758 124.081 278.758Z" fill="#22193B"/>
<path d="M124.081 244.639C124.007 244.565 123.933 244.491 123.859 244.491C123.267 244.121 122.453 244.269 122.083 244.861L112.091 259.663C111.721 260.181 111.795 260.847 112.239 261.291L122.379 272.023C122.823 272.541 123.711 272.541 124.229 272.097C124.747 271.579 124.747 270.765 124.303 270.247L114.83 260.255L124.229 246.341C124.599 245.749 124.525 245.083 124.081 244.639Z" fill="#FFD300"/>
<path d="M126.08 273.43C127.264 272.245 127.264 270.247 126.08 269.063C124.895 267.879 122.897 267.879 121.713 269.063C120.529 270.247 120.529 272.245 121.713 273.43C122.897 274.688 124.821 274.688 126.08 273.43Z" fill="#FFD300"/>
<path d="M123.859 272.689C123.489 272.689 123.119 272.541 122.897 272.319C122.601 272.023 122.527 271.727 122.527 271.357C122.527 270.987 122.675 270.617 122.897 270.395C123.193 270.099 123.489 270.025 123.859 270.025C124.229 270.025 124.599 270.173 124.821 270.395C125.118 270.691 125.192 270.987 125.192 271.357C125.192 271.727 125.044 272.097 124.821 272.319C124.599 272.541 124.229 272.689 123.859 272.689Z" fill="#22193B"/>
<path d="M116.236 261.069C116.902 259.515 116.236 257.665 114.682 256.999C113.128 256.333 111.277 256.999 110.611 258.553C109.945 260.107 110.611 261.958 112.165 262.624C113.72 263.29 115.57 262.624 116.236 261.069Z" fill="#FFD300"/>
<path d="M113.424 261.217C113.202 261.217 113.054 261.143 112.832 261.069C112.165 260.773 111.795 259.959 112.165 259.219C112.387 258.701 112.906 258.405 113.424 258.405C113.646 258.405 113.794 258.479 114.016 258.553C114.682 258.849 115.052 259.663 114.682 260.403C114.46 260.847 113.942 261.217 113.424 261.217Z" fill="#22193B"/>
<path d="M161.68 244.639C161.606 244.565 161.532 244.491 161.458 244.491C160.865 244.121 160.051 244.269 159.681 244.861L149.69 259.663C149.32 260.181 149.394 260.847 149.838 261.291L159.977 272.023C160.421 272.541 161.31 272.541 161.828 272.097C162.346 271.579 162.346 270.765 161.902 270.247L152.428 260.255L161.828 246.341C162.198 245.749 162.124 245.083 161.68 244.639Z" fill="#FBBA00"/>
<path d="M163.604 273.43C164.788 272.245 164.788 270.247 163.604 269.063C162.42 267.879 160.421 267.879 159.237 269.063C158.053 270.247 158.053 272.245 159.237 273.43C160.495 274.688 162.42 274.688 163.604 273.43Z" fill="#4466C5"/>
<path d="M161.458 272.689C161.088 272.689 160.718 272.541 160.496 272.319C160.2 272.023 160.126 271.727 160.126 271.357C160.126 270.987 160.274 270.617 160.496 270.395C160.792 270.099 161.088 270.025 161.458 270.025C161.828 270.025 162.198 270.173 162.42 270.395C162.716 270.691 162.79 270.987 162.79 271.357C162.79 271.727 162.642 272.097 162.42 272.319C162.198 272.541 161.828 272.689 161.458 272.689Z" fill="#22193B"/>
<path d="M153.834 261.069C154.5 259.515 153.834 257.665 152.28 256.999C150.726 256.333 148.875 256.999 148.209 258.553C147.543 260.107 148.209 261.958 149.764 262.624C151.318 263.29 153.094 262.624 153.834 261.069Z" fill="#FFD300"/>
<path d="M151.022 261.217C150.8 261.217 150.652 261.143 150.43 261.069C149.764 260.773 149.394 259.959 149.764 259.219C149.986 258.701 150.504 258.405 151.022 258.405C151.244 258.405 151.392 258.479 151.614 258.553C152.28 258.849 152.65 259.663 152.28 260.403C152.058 260.847 151.54 261.217 151.022 261.217Z" fill="#22193B"/>
<path d="M162.642 281.201H145.915C143.769 281.201 142.066 279.498 142.066 277.352V265.14C142.066 262.994 143.769 261.291 145.915 261.291H162.642C164.788 261.291 166.491 262.994 166.491 265.14V277.352C166.491 279.498 164.788 281.201 162.642 281.201Z" fill="#22193B"/>
<path d="M158.127 281.201H145.915C143.769 281.201 142.066 279.498 142.066 277.352V265.14C142.066 262.994 143.769 261.291 145.915 261.291H158.127C160.273 261.291 161.976 262.994 161.976 265.14V277.352C161.976 279.498 160.199 281.201 158.127 281.201Z" fill="#5D4273"/>
<path d="M151.984 278.758C156.113 278.758 159.459 275.411 159.459 271.283C159.459 267.155 156.113 263.808 151.984 263.808C147.856 263.808 144.509 267.155 144.509 271.283C144.509 275.411 147.856 278.758 151.984 278.758Z" fill="#22193B"/>
<path d="M151.984 244.639C151.91 244.565 151.836 244.491 151.762 244.491C151.17 244.121 150.356 244.269 149.986 244.861L139.994 259.663C139.624 260.181 139.698 260.847 140.142 261.291L150.282 272.023C150.726 272.541 151.614 272.541 152.132 272.097C152.65 271.579 152.65 270.765 152.206 270.247L142.732 260.255L152.132 246.341C152.502 245.749 152.428 245.083 151.984 244.639Z" fill="#FFD300"/>
<path d="M153.908 273.43C155.093 272.245 155.093 270.247 153.908 269.063C152.724 267.879 150.726 267.879 149.542 269.063C148.358 270.247 148.358 272.245 149.542 273.43C150.8 274.688 152.724 274.688 153.908 273.43Z" fill="#FFD300"/>
<path d="M151.762 272.689C151.392 272.689 151.022 272.541 150.8 272.319C150.504 272.023 150.43 271.727 150.43 271.357C150.43 270.987 150.578 270.617 150.8 270.395C151.096 270.099 151.392 270.025 151.762 270.025C152.132 270.025 152.502 270.173 152.724 270.395C153.02 270.691 153.094 270.987 153.094 271.357C153.094 271.727 152.946 272.097 152.724 272.319C152.502 272.541 152.132 272.689 151.762 272.689Z" fill="#22193B"/>
<path d="M144.139 261.069C144.805 259.515 144.139 257.665 142.584 256.999C141.03 256.333 139.18 256.999 138.514 258.553C137.848 260.107 138.514 261.958 140.068 262.624C141.622 263.29 143.399 262.624 144.139 261.069Z" fill="#FFD300"/>
<path d="M141.326 261.217C141.104 261.217 140.956 261.143 140.734 261.069C140.068 260.773 139.698 259.959 140.068 259.219C140.29 258.701 140.808 258.405 141.326 258.405C141.548 258.405 141.696 258.479 141.918 258.553C142.584 258.849 142.954 259.663 142.584 260.403C142.362 260.847 141.844 261.217 141.326 261.217Z" fill="#22193B"/>
<path d="M189.286 244.639C189.212 244.565 189.138 244.491 189.064 244.491C188.472 244.121 187.658 244.269 187.288 244.861L177.296 259.663C176.926 260.181 177 260.847 177.444 261.291L187.584 272.023C188.028 272.541 188.916 272.541 189.434 272.097C189.952 271.579 189.952 270.765 189.508 270.247L180.035 260.255L189.434 246.341C189.804 245.749 189.73 245.083 189.286 244.639Z" fill="#FBBA00"/>
<path d="M191.211 273.43C192.395 272.245 192.395 270.247 191.211 269.063C190.026 267.879 188.028 267.879 186.844 269.063C185.66 270.247 185.66 272.245 186.844 273.43C188.028 274.688 190.026 274.688 191.211 273.43Z" fill="#4466C5"/>
<path d="M189.064 272.689C188.694 272.689 188.324 272.541 188.102 272.319C187.806 272.023 187.732 271.727 187.732 271.357C187.732 270.987 187.88 270.617 188.102 270.395C188.398 270.099 188.694 270.025 189.064 270.025C189.434 270.025 189.805 270.173 190.027 270.395C190.323 270.691 190.397 270.987 190.397 271.357C190.397 271.727 190.249 272.097 190.027 272.319C189.731 272.541 189.434 272.689 189.064 272.689Z" fill="#22193B"/>
<path d="M181.367 261.069C182.033 259.515 181.367 257.665 179.813 256.999C178.259 256.333 176.408 256.999 175.742 258.553C175.076 260.107 175.742 261.958 177.296 262.624C178.851 263.29 180.701 262.624 181.367 261.069Z" fill="#FFD300"/>
<path d="M178.554 261.217C178.332 261.217 178.184 261.143 177.962 261.069C177.296 260.773 176.926 259.959 177.296 259.219C177.518 258.701 178.036 258.405 178.554 258.405C178.776 258.405 178.924 258.479 179.146 258.553C179.812 258.849 180.183 259.663 179.812 260.403C179.59 260.847 179.146 261.217 178.554 261.217Z" fill="#22193B"/>
<path d="M190.249 281.201H173.522C171.375 281.201 169.673 279.498 169.673 277.352V265.14C169.673 262.994 171.375 261.291 173.522 261.291H190.249C192.395 261.291 194.097 262.994 194.097 265.14V277.352C194.097 279.498 192.321 281.201 190.249 281.201Z" fill="#22193B"/>
<path d="M185.66 281.201H173.448C171.301 281.201 169.599 279.498 169.599 277.352V265.14C169.599 262.994 171.301 261.291 173.448 261.291H185.66C187.806 261.291 189.508 262.994 189.508 265.14V277.352C189.508 279.498 187.806 281.201 185.66 281.201Z" fill="#5D4273"/>
<path d="M183.056 277.905C186.715 275.993 188.131 271.477 186.219 267.818C184.307 264.159 179.791 262.743 176.132 264.654C172.473 266.566 171.057 271.082 172.969 274.742C174.881 278.401 179.397 279.817 183.056 277.905Z" fill="#22193B"/>
<path d="M179.591 244.639C179.517 244.565 179.443 244.491 179.369 244.491C178.777 244.121 177.962 244.269 177.592 244.861L167.601 259.663C167.231 260.181 167.305 260.847 167.749 261.291L177.888 272.023C178.333 272.541 179.221 272.541 179.739 272.097C180.257 271.579 180.257 270.765 179.813 270.247L170.339 260.255L179.739 246.341C180.109 245.749 180.035 245.083 179.591 244.639Z" fill="#FFD300"/>
<path d="M181.515 273.43C182.699 272.245 182.699 270.247 181.515 269.063C180.331 267.879 178.333 267.879 177.148 269.063C175.964 270.247 175.964 272.245 177.148 273.43C178.407 274.688 180.331 274.688 181.515 273.43Z" fill="#FFD300"/>
<path d="M179.369 272.689C178.999 272.689 178.628 272.541 178.406 272.319C178.11 272.023 178.036 271.727 178.036 271.357C178.036 270.987 178.184 270.617 178.406 270.395C178.702 270.099 178.999 270.025 179.369 270.025C179.739 270.025 180.109 270.173 180.331 270.395C180.627 270.691 180.701 270.987 180.701 271.357C180.701 271.727 180.553 272.097 180.331 272.319C180.035 272.541 179.739 272.689 179.369 272.689Z" fill="#22193B"/>
<path d="M171.745 261.069C172.411 259.515 171.745 257.665 170.191 256.999C168.637 256.333 166.787 256.999 166.12 258.553C165.454 260.107 166.12 261.958 167.675 262.624C169.155 263.29 171.005 262.624 171.745 261.069Z" fill="#FFD300"/>
<path d="M168.933 261.217C168.711 261.217 168.563 261.143 168.341 261.069C167.674 260.773 167.304 259.959 167.674 259.219C167.897 258.701 168.415 258.405 168.933 258.405C169.155 258.405 169.303 258.479 169.525 258.553C170.191 258.849 170.561 259.663 170.191 260.403C169.969 260.847 169.451 261.217 168.933 261.217Z" fill="#22193B"/>
<path d="M204.755 258.257H73.3828C71.8285 258.257 70.5703 256.999 70.5703 255.444V246.489C70.5703 244.935 71.8285 243.677 73.3828 243.677H204.755C206.309 243.677 207.567 244.935 207.567 246.489V255.444C207.567 256.999 206.309 258.257 204.755 258.257Z" fill="#22193B"/>
<path d="M96.1786 258.257H73.3828C71.8285 258.257 70.5703 256.999 70.5703 255.444V246.489C70.5703 244.935 71.8285 243.677 73.3828 243.677H96.1786C97.7329 243.677 98.9911 244.935 98.9911 246.489V255.444C98.9911 256.999 97.7329 258.257 96.1786 258.257Z" fill="#5D4273"/>
<path d="M212.156 241.308C208.604 214.664 190.915 192.534 166.935 182.616H109.945C85.9651 192.608 68.2761 214.738 64.7235 241.308C64.1314 245.749 67.61 249.746 72.1248 249.746H204.829C209.27 249.82 212.748 245.823 212.156 241.308Z" fill="#F45054"/>
<path d="M133.185 182.616H109.945C85.9651 192.608 68.2761 214.738 64.7235 241.308C64.1314 245.749 67.61 249.746 72.1248 249.746H95.2907C90.7759 249.746 87.2973 245.749 87.8894 241.308C91.516 214.664 109.205 192.534 133.185 182.616Z" fill="#DF494C"/>
<path d="M175.668 186.169H101.063C100.323 186.169 99.7312 185.577 99.7312 184.837V180.544C99.7312 179.804 100.323 179.212 101.063 179.212H175.742C176.482 179.212 177.074 179.804 177.074 180.544V184.837C177.074 185.577 176.482 186.169 175.668 186.169Z" fill="#22193B"/>
<path d="M104.922 209.402C110.15 209.193 114.218 204.785 114.009 199.557C113.8 194.329 109.392 190.261 104.164 190.47C98.9363 190.679 94.8679 195.087 95.0771 200.315C95.2864 205.543 99.6941 209.612 104.922 209.402Z" fill="#5D4273"/>
<path d="M82.0423 166.704C79.4518 165.001 76.9354 163.299 74.345 161.597C60.9487 181.654 77.8236 206.374 98.9171 204.302C102.322 204.006 104.32 201.711 103.95 198.677C103.358 196.531 101.804 194.902 98.325 195.05C84.3367 196.086 73.0868 180.026 82.0423 166.704Z" fill="#22193B"/>
<path d="M91.0718 203.488C91.7379 200.601 92.404 197.715 93.0701 194.754" stroke="#5D4273" stroke-width="2.1799" stroke-miterlimit="10" stroke-linecap="round" stroke-linejoin="round"/>
<path d="M83.0781 200.231C84.6324 197.715 86.1126 195.124 87.6669 192.608" stroke="#5D4273" stroke-width="2.1799" stroke-miterlimit="10" stroke-linecap="round" stroke-linejoin="round"/>
<path d="M76.5652 194.68C78.7856 192.756 81.0059 190.758 83.2263 188.833" stroke="#5D4273" stroke-width="2.1799" stroke-miterlimit="10" stroke-linecap="round" stroke-linejoin="round"/>
<path d="M71.9766 187.501C74.715 186.317 77.4535 185.207 80.192 184.022" stroke="#5D4273" stroke-width="2.1799" stroke-miterlimit="10" stroke-linecap="round" stroke-linejoin="round"/>
<path d="M69.8301 179.212C72.7906 178.916 75.7511 178.694 78.7116 178.397" stroke="#5D4273" stroke-width="2.1799" stroke-miterlimit="10" stroke-linecap="round" stroke-linejoin="round"/>
<path d="M70.5703 170.33C73.4568 171.07 76.3433 171.736 79.2298 172.476" stroke="#5D4273" stroke-width="2.1799" stroke-miterlimit="10" stroke-linecap="round" stroke-linejoin="round"/>
<path d="M82.4123 162.929C83.9665 167.37 88.7773 169.738 93.2181 168.184C94.4763 167.74 95.8085 168.406 96.2526 169.664C96.6967 170.922 96.0306 172.254 94.7723 172.699C87.8152 175.067 80.2659 171.366 77.8975 164.483C76.6393 160.931 77.0834 157.156 78.7117 154.047C80.1919 154.639 81.5981 155.38 83.0044 156.12C81.8942 158.192 81.5981 160.634 82.4123 162.929Z" fill="#22193B"/>
<path d="M78.86 144.87C82.5606 138.505 90.702 136.358 97.0671 140.059C98.1773 140.725 98.6213 142.205 97.9552 143.316C97.2891 144.426 95.8089 144.87 94.6987 144.204C90.628 141.835 85.4471 143.242 83.0787 147.238C81.9685 149.163 81.6725 151.383 82.1165 153.381C80.5623 153.751 79.008 154.121 77.4538 154.566C76.7136 151.457 77.0837 147.978 78.86 144.87Z" fill="#22193B"/>
<path d="M86.4829 148.866C92.7 144.944 100.915 146.794 104.838 153.011C105.578 154.121 105.208 155.601 104.098 156.342C102.988 157.082 101.507 156.712 100.767 155.601C98.2509 151.605 92.996 150.421 89.0734 152.937C87.2231 154.121 85.9648 155.971 85.3727 157.97C83.8185 157.526 82.2642 157.156 80.71 156.934C81.4501 153.603 83.4484 150.717 86.4829 148.866Z" fill="#22193B"/>
<path d="M70.3484 151.975C67.1659 145.388 69.9784 137.395 76.5655 134.212C77.7497 133.62 79.2299 134.138 79.748 135.322C80.3401 136.506 79.822 137.987 78.6378 138.505C74.4191 140.503 72.6428 145.61 74.6411 149.829C75.6033 151.827 77.2316 153.307 79.2299 154.047C78.6378 155.528 78.0457 157.008 77.6016 158.562C74.5671 157.452 71.9027 155.158 70.3484 151.975Z" fill="#22193B"/>
<path d="M90.7017 164.779L90.0356 152.715C89.8876 150.569 88.1113 149.014 85.9649 149.088L73.9009 149.755C71.7545 149.903 70.2003 151.679 70.2743 153.825L70.9404 165.889C71.0884 168.036 72.8647 169.59 75.0111 169.516L87.0751 168.85C89.2215 168.702 90.7757 166.852 90.7017 164.779Z" fill="#FFD300"/>
<path d="M85.2246 159.006C85.0766 156.416 82.8562 154.417 80.1918 154.491C77.6014 154.639 75.603 156.86 75.677 159.524C75.8251 162.115 78.0454 164.113 80.7099 164.039C83.3743 163.891 85.3726 161.596 85.2246 159.006Z" fill="#22193B"/>
<path d="M128.374 219.918V240.494" stroke="#D04548" stroke-width="1.0695" stroke-miterlimit="10" stroke-linecap="round" stroke-linejoin="round"/>
<path d="M133.111 219.918V240.494" stroke="#D04548" stroke-width="1.0695" stroke-miterlimit="10" stroke-linecap="round" stroke-linejoin="round"/>
<path d="M137.774 219.918V240.494" stroke="#D04548" stroke-width="1.0695" stroke-miterlimit="10" stroke-linecap="round" stroke-linejoin="round"/>
<path d="M142.51 219.918V240.494" stroke="#D04548" stroke-width="1.0695" stroke-miterlimit="10" stroke-linecap="round" stroke-linejoin="round"/>
<path d="M147.173 219.918V240.494" stroke="#D04548" stroke-width="1.0695" stroke-miterlimit="10" stroke-linecap="round" stroke-linejoin="round"/>
<path d="M151.91 219.918V240.494" stroke="#D04548" stroke-width="1.0695" stroke-miterlimit="10" stroke-linecap="round" stroke-linejoin="round"/>
<path d="M156.573 219.918V240.494" stroke="#D04548" stroke-width="1.0695" stroke-miterlimit="10" stroke-linecap="round" stroke-linejoin="round"/>
<path d="M156.721 219.918V240.494" stroke="#D04548" stroke-width="1.0695" stroke-miterlimit="10" stroke-linecap="round" stroke-linejoin="round"/>
<path d="M161.458 219.918V240.494" stroke="#D04548" stroke-width="1.0695" stroke-miterlimit="10" stroke-linecap="round" stroke-linejoin="round"/>
<path d="M166.12 219.918V240.494" stroke="#D04548" stroke-width="1.0695" stroke-miterlimit="10" stroke-linecap="round" stroke-linejoin="round"/>
<path d="M170.857 219.918V240.494" stroke="#D04548" stroke-width="1.0695" stroke-miterlimit="10" stroke-linecap="round" stroke-linejoin="round"/>
<path d="M175.52 219.918V240.494" stroke="#D04548" stroke-width="1.0695" stroke-miterlimit="10" stroke-linecap="round" stroke-linejoin="round"/>
<path d="M180.257 219.918V240.494" stroke="#D04548" stroke-width="1.0695" stroke-miterlimit="10" stroke-linecap="round" stroke-linejoin="round"/>
<path d="M184.92 219.918V240.494" stroke="#D04548" stroke-width="1.0695" stroke-miterlimit="10" stroke-linecap="round" stroke-linejoin="round"/>
<path d="M168.119 201.341C169.59 201.341 170.783 200.148 170.783 198.677C170.783 197.205 169.59 196.012 168.119 196.012C166.647 196.012 165.454 197.205 165.454 198.677C165.454 200.148 166.647 201.341 168.119 201.341Z" fill="#22193B"/>
<path d="M158.349 201.341C159.821 201.341 161.014 200.148 161.014 198.677C161.014 197.205 159.821 196.012 158.349 196.012C156.877 196.012 155.685 197.205 155.685 198.677C155.685 200.148 156.877 201.341 158.349 201.341Z" fill="#22193B"/>
<path d="M148.653 201.341C150.125 201.341 151.318 200.148 151.318 198.677C151.318 197.205 150.125 196.012 148.653 196.012C147.182 196.012 145.989 197.205 145.989 198.677C145.989 200.148 147.182 201.341 148.653 201.341Z" fill="#22193B"/>
<path d="M232.657 191.868H237.542L244.722 210.297H240.503L239.171 206.744H230.807L229.475 210.297H225.478L232.657 191.868ZM237.986 203.562L236.21 198.899C235.988 198.307 235.618 197.123 235.026 195.272H234.878C234.286 197.123 233.916 198.307 233.694 198.899L231.917 203.562H237.986Z" fill="white"/>
<path d="M246.646 191.868H254.269C257.082 191.868 259.228 192.608 260.782 194.162C262.336 195.716 263.077 198.011 263.077 201.119C263.077 204.228 262.336 206.522 260.782 208.076C259.228 209.631 257.082 210.371 254.269 210.371H246.646V191.868ZM254.269 207.04C255.823 207.04 257.008 206.596 257.822 205.634C258.636 204.672 259.08 203.34 259.08 201.563V200.749C259.08 198.973 258.636 197.641 257.822 196.678C257.008 195.716 255.823 195.272 254.269 195.272H250.568V207.114H254.269V207.04Z" fill="white"/>
<path d="M263.52 115.487H267.147L272.476 129.105H269.367L268.405 126.515H262.188L261.226 129.105H258.266L263.52 115.487ZM267.443 124.147L266.185 120.668C266.037 120.224 265.741 119.336 265.297 118.003H265.223C264.779 119.336 264.557 120.298 264.335 120.668L263.076 124.147H267.443Z" fill="white"/>
<path d="M273.808 115.487H279.433C281.505 115.487 283.134 116.079 284.244 117.189C285.354 118.3 285.946 120.002 285.946 122.296C285.946 124.591 285.354 126.293 284.244 127.403C283.134 128.513 281.505 129.105 279.433 129.105H273.808V115.487ZM279.507 126.737C280.691 126.737 281.579 126.367 282.171 125.701C282.764 125.035 283.06 123.998 283.06 122.666V122.074C283.06 120.742 282.764 119.78 282.171 119.04C281.579 118.3 280.691 118.003 279.507 118.003H276.769V126.737H279.507Z" fill="white"/>
<path d="M265.297 272.393H268.184L272.476 283.347H269.96L269.146 281.275H264.187L263.373 283.347H261.004L265.297 272.393ZM268.406 279.351L267.37 276.538C267.221 276.168 266.999 275.502 266.703 274.392H266.629C266.333 275.502 266.037 276.242 265.963 276.538L264.927 279.351H268.406Z" fill="white"/>
<path d="M273.586 272.393H278.101C279.803 272.393 281.062 272.837 281.95 273.726C282.838 274.614 283.282 276.02 283.282 277.87C283.282 279.721 282.838 281.053 281.95 282.015C281.062 282.903 279.729 283.347 278.101 283.347H273.586V272.393ZM278.101 281.423C279.063 281.423 279.729 281.127 280.248 280.535C280.766 279.943 280.988 279.128 280.988 278.092V277.648C280.988 276.612 280.766 275.798 280.248 275.206C279.729 274.614 279.063 274.318 278.101 274.318H275.881V281.349H278.101V281.423Z" fill="white"/>
<g opacity="0.1">
<path opacity="0.1" d="M252.049 228.356H342.122C348.635 228.356 352.558 221.176 349.079 215.7L304.006 144.5C300.749 139.393 293.274 139.393 290.091 144.5L245.018 215.626C241.613 221.176 245.536 228.356 252.049 228.356Z" fill="black"/>
<path opacity="0.1" d="M255.676 215.848L295.346 153.233C296.16 151.901 298.085 151.901 298.899 153.233L338.495 215.774C339.384 217.18 338.347 219.03 336.719 219.03H257.452C255.75 219.104 254.713 217.254 255.676 215.848Z" fill="black"/>
<path opacity="0.1" d="M291.201 171.81H302.895L301.489 197.492H292.533L291.201 171.81ZM301.341 210.815C300.305 211.703 298.898 212.147 297.122 212.147C295.346 212.147 293.94 211.703 292.977 210.815C292.015 209.926 291.497 208.668 291.497 207.04C291.497 205.412 291.941 204.154 292.903 203.191C293.792 202.303 295.272 201.859 297.048 201.859C298.898 201.859 300.305 202.303 301.267 203.191C302.229 204.079 302.747 205.412 302.747 207.04C302.747 208.668 302.303 209.926 301.341 210.815Z" fill="black"/>
</g>
<path d="M253.603 226.728H343.676C350.189 226.728 354.112 219.548 350.633 214.071L305.56 142.945C302.303 137.839 294.828 137.839 291.645 142.945L246.572 214.071C243.167 219.548 247.09 226.728 253.603 226.728Z" fill="#D04548"/>
<path d="M257.229 214.293L296.9 151.679C297.714 150.347 299.639 150.347 300.453 151.679L340.049 214.219C340.938 215.626 339.901 217.476 338.273 217.476H259.006C257.378 217.55 256.341 215.7 257.229 214.293Z" fill="#FCFCFC"/>
<path d="M292.83 170.256H304.524L303.117 195.938H294.162L292.83 170.256ZM302.969 209.186C301.933 210.075 300.527 210.519 298.751 210.519C296.974 210.519 295.568 210.075 294.606 209.186C293.644 208.298 293.126 207.04 293.126 205.412C293.126 203.784 293.57 202.525 294.532 201.563C295.42 200.675 296.9 200.231 298.677 200.231C300.453 200.231 301.933 200.675 302.895 201.563C303.857 202.451 304.376 203.784 304.376 205.412C304.45 207.04 303.931 208.372 302.969 209.186Z" fill="#D04548"/>
<path d="M206.457 264.178L218.743 258.331C219.113 258.183 219.113 257.665 218.743 257.443L206.457 251.226C206.161 251.078 205.717 251.3 205.717 251.67V263.734C205.791 264.104 206.161 264.326 206.457 264.178Z" fill="white"/>
<defs>
<linearGradient id="paint0_linear" x1="190" y1="45.894" x2="190" y2="334.198" gradientUnits="userSpaceOnUse">
<stop stop-color="white"/>
<stop offset="1" stop-color="white" stop-opacity="0"/>
</linearGradient>
<linearGradient id="paint1_linear" x1="336.002" y1="91.8388" x2="153.558" y2="274.283" gradientUnits="userSpaceOnUse">
<stop stop-color="white"/>
<stop offset="1" stop-color="#F4F4FC"/>
</linearGradient>
</defs>
</svg>
