<svg width="255" height="33" viewBox="0 0 255 33" fill="none" xmlns="http://www.w3.org/2000/svg">
<g clip-path="url(#clip0)">
<path d="M3.27653 32.9953C2.67126 32.9948 2.07793 32.8248 1.56215 32.5043C1.04638 32.1838 0.628253 31.7252 0.354021 31.1792C0.0797892 30.6332 -0.0398647 30.0211 0.00828545 29.4106C0.0564356 28.8001 0.270519 28.215 0.626857 27.7199L8.69325 16.4976L0.622339 5.27532C0.109951 4.56303 -0.101812 3.67396 0.0336322 2.80369C0.169077 1.93341 0.640635 1.15323 1.34457 0.634763C2.04851 0.116297 2.92716 -0.0979776 3.78723 0.0390732C4.6473 0.176124 5.41834 0.653276 5.93073 1.36556L14.277 12.9761C15.0161 13.9988 15.4145 15.2329 15.4145 16.4999C15.4145 17.7669 15.0161 19.001 14.277 20.0237L5.93073 31.6296C5.62658 32.0535 5.22742 32.3982 4.76602 32.6356C4.30463 32.873 3.79416 32.9963 3.27653 32.9953Z" fill="#00D4A4"/>
<path d="M30.0584 32.9954C29.5396 32.9966 29.028 32.873 28.5657 32.6348C28.1034 32.3965 27.7038 32.0505 27.3997 31.6252L19.076 20.0238C18.3369 19.0011 17.9385 17.767 17.9385 16.5C17.9385 15.233 18.3369 13.9989 19.076 12.9762L27.4222 1.36568C27.9346 0.653391 28.7056 0.176238 29.5657 0.0391876C30.4258 -0.0978632 31.3044 0.116411 32.0084 0.634877C32.7123 1.15334 33.1839 1.93353 33.3193 2.8038C33.4548 3.67407 33.243 4.56315 32.7306 5.27543L24.6371 16.4977L32.708 27.72C33.0644 28.2151 33.2785 28.8002 33.3266 29.4107C33.3748 30.0212 33.2551 30.6333 32.9809 31.1793C32.7066 31.7253 32.2885 32.1839 31.7727 32.5044C31.257 32.8249 30.6636 32.9949 30.0584 32.9954Z" fill="#00D4A4"/>
<path d="M50.4838 27.0851C49.1933 26.6297 48.0496 25.8276 47.1751 24.7648C46.3411 23.7126 45.9028 22.3953 45.9383 21.0469L45.9699 20.3435H50.6237L50.5921 20.8551C50.5855 21.3059 50.6963 21.7505 50.9134 22.1442C51.1306 22.5379 51.4463 22.8667 51.8289 23.0977C52.6505 23.655 53.8015 23.929 55.2776 23.929C56.8394 23.929 57.9859 23.7235 58.6676 23.3033C58.9785 23.1488 59.2408 22.9097 59.425 22.6128C59.6092 22.3159 59.708 21.973 59.7103 21.6224C59.716 21.3289 59.6579 21.0376 59.5401 20.7693C59.4223 20.5009 59.2477 20.262 59.0287 20.0695C58.532 19.6257 57.9516 19.2885 57.3224 19.0783C56.6363 18.8317 55.6884 18.5394 54.4877 18.1968C53.0793 17.8072 51.6942 17.336 50.3394 16.7855C49.295 16.3411 48.3675 15.656 47.631 14.7849C46.8365 13.7978 46.4299 12.5488 46.489 11.2771C46.4519 10.3675 46.6558 9.46436 47.0796 8.6613C47.5034 7.85823 48.1317 7.18441 48.8994 6.70962C50.5004 5.66215 52.6309 5.13841 55.2911 5.13841C57.8039 5.13841 59.8562 5.67738 61.4481 6.7553C63.0401 7.83323 63.8375 9.45162 63.8405 11.6105V11.9942H59.2499V11.7064C59.2546 11.3163 59.1557 10.9321 58.9636 10.5938C58.7714 10.2555 58.493 9.97571 58.1575 9.78352C57.2563 9.26985 56.2293 9.02592 55.1963 9.08014C54.1503 9.02667 53.1058 9.21245 52.1404 9.62367C51.8366 9.74132 51.5738 9.94712 51.3851 10.2153C51.1964 10.4834 51.0901 10.8019 51.0796 11.1309C51.0819 11.3772 51.1406 11.6197 51.251 11.8392C51.3614 12.0587 51.5206 12.2493 51.7161 12.3961C52.1881 12.7762 52.723 13.0685 53.296 13.2594C53.9324 13.4832 54.8262 13.7572 56.0043 14.077C57.4495 14.4546 58.8709 14.9198 60.261 15.47C61.3549 15.9216 62.3345 16.6162 63.1273 17.5026C63.9554 18.4811 64.3846 19.7417 64.328 21.0287C64.328 23.3763 63.5005 25.1059 61.8454 26.2173C60.1903 27.3287 57.9258 27.8844 55.0519 27.8844C53.494 27.8991 51.9464 27.6283 50.4838 27.0851Z" fill="#3C3B40"/>
<path d="M240.972 27.0851C239.681 26.6297 238.538 25.8276 237.663 24.7648C236.829 23.7126 236.391 22.3953 236.426 21.0469L236.458 20.3435H241.112L241.08 20.8551C241.074 21.3059 241.184 21.7505 241.401 22.1442C241.619 22.5379 241.934 22.8667 242.317 23.0977C243.139 23.655 244.29 23.929 245.766 23.929C247.327 23.929 248.474 23.7235 249.156 23.3033C249.467 23.1488 249.729 22.9097 249.913 22.6128C250.097 22.3159 250.196 21.973 250.198 21.6224C250.204 21.3289 250.146 21.0376 250.028 20.7693C249.91 20.5009 249.736 20.2621 249.517 20.0695C249.02 19.6257 248.44 19.2885 247.81 19.0783C247.124 18.8317 246.176 18.5394 244.976 18.1968C243.567 17.8072 242.182 17.336 240.827 16.7855C239.783 16.3411 238.856 15.656 238.119 14.7849C237.325 13.7978 236.918 12.5488 236.977 11.2771C236.94 10.3675 237.144 9.46437 237.568 8.6613C237.991 7.85823 238.62 7.18441 239.387 6.70962C240.991 5.66215 243.122 5.13841 245.779 5.13841C248.292 5.13841 250.344 5.67738 251.936 6.7553C253.528 7.83323 254.325 9.45162 254.329 11.6105V11.9942H249.738V11.7064C249.743 11.3163 249.644 10.9321 249.452 10.5938C249.259 10.2556 248.981 9.97571 248.645 9.78353C247.744 9.26985 246.717 9.02592 245.684 9.08014C244.638 9.02667 243.594 9.21245 242.628 9.62368C242.325 9.74132 242.062 9.94712 241.873 10.2153C241.684 10.4834 241.578 10.8019 241.568 11.1309C241.57 11.3772 241.629 11.6197 241.739 11.8392C241.849 12.0587 242.009 12.2493 242.204 12.3961C242.676 12.7762 243.211 13.0685 243.784 13.2594C244.42 13.4832 245.314 13.7572 246.492 14.077C247.938 14.4546 249.359 14.9198 250.749 15.47C251.843 15.9216 252.823 16.6162 253.615 17.5026C254.443 18.4811 254.873 19.7417 254.816 21.0287C254.816 23.3763 253.988 25.1059 252.333 26.2173C250.678 27.3287 248.421 27.8844 245.562 27.8844C243.997 27.9018 242.441 27.631 240.972 27.0851Z" fill="#3C3B40"/>
<path d="M67.8489 5.50838H78.2084C80.6368 5.50838 82.4635 6.13411 83.6883 7.3856C84.913 8.63709 85.5239 10.4032 85.5209 12.6839C85.5209 14.9737 84.8829 16.752 83.607 18.0187C82.3311 19.2854 80.4262 19.9203 77.8924 19.9233H72.4395V27.4871H67.8489V5.50838ZM77.7795 15.9862C78.1987 16.0145 78.619 15.9517 79.0122 15.802C79.4054 15.6524 79.7623 15.4192 80.0591 15.1183C80.6224 14.4401 80.9054 13.568 80.849 12.6839C80.9028 11.8153 80.6194 10.9599 80.0591 10.2997C79.7592 10.0042 79.4013 9.77588 79.0086 9.62952C78.6159 9.48315 78.1971 9.42203 77.7795 9.45011H72.4395V15.9862H77.7795Z" fill="#3C3B40"/>
<path d="M88.9651 5.50838H93.5558V27.4871H88.9651V5.50838Z" fill="#3C3B40"/>
<path d="M97.7671 5.50838H106.759C110.069 5.50838 112.627 6.42187 114.433 8.24886C116.238 10.0759 117.141 12.8255 117.141 16.4977C117.141 20.17 116.238 22.9196 114.433 24.7466C112.627 26.5736 110.069 27.4871 106.759 27.4871H97.7671V5.50838ZM106.759 23.5453C108.616 23.5453 110.024 22.9744 110.984 21.8325C111.944 20.6907 112.424 19.0722 112.424 16.9773V16.041C112.424 13.9491 111.944 12.3307 110.984 11.1857C110.024 10.0408 108.616 9.4699 106.759 9.47294H102.358V23.5682L106.759 23.5453Z" fill="#3C3B40"/>
<path d="M120.639 5.50838H137.702V9.45011H125.212V14.2871H136.294V18.2288H125.212V23.5453H137.878V27.4871H120.639V5.50838Z" fill="#3C3B40"/>
<path d="M141.742 5.50838H153.266C155.692 5.50838 157.517 6.11737 158.741 7.33537C159.966 8.55336 160.579 10.2372 160.579 12.387C160.579 15.4655 159.312 17.5163 156.778 18.5394L161.211 27.4779H156.245L152.413 19.2565H146.333V27.4779H141.742V5.50838ZM152.851 15.4107C153.261 15.4356 153.672 15.3774 154.059 15.2393C154.447 15.1013 154.803 14.8862 155.108 14.6068C155.381 14.3119 155.592 13.9639 155.729 13.5839C155.866 13.2039 155.924 12.7998 155.902 12.3961C155.926 11.9971 155.868 11.5974 155.731 11.2224C155.594 10.8473 155.382 10.5051 155.108 10.2174C154.483 9.67367 153.673 9.39832 152.851 9.45011H146.333V15.4107H152.851Z" fill="#3C3B40"/>
<path d="M173.398 5.50838H177.989V23.4494H189.725V27.4871H173.398V5.50838Z" fill="#3C3B40"/>
<path d="M199.182 5.50838H204.946L213.432 27.4871H208.413L206.855 23.2896H196.983L195.435 27.4871H190.687L199.182 5.50838ZM205.42 19.4118L203.362 13.8394C203.193 13.3918 202.951 12.6443 202.635 11.5968L202.003 9.51405H201.845C201.737 9.85813 201.524 10.5524 201.208 11.5968C200.893 12.6412 200.65 13.3888 200.482 13.8394L198.423 19.4118H205.42Z" fill="#3C3B40"/>
<path d="M215.599 5.50838H228.044C229.116 5.49526 230.177 5.73121 231.145 6.19807C232.034 6.6234 232.79 7.28879 233.33 8.12097C233.882 9.0293 234.158 10.0823 234.121 11.1482C234.085 12.2141 233.739 13.2456 233.127 14.1135C232.484 14.9746 231.593 15.6129 230.576 15.9405V16.0684C231.763 16.2821 232.829 16.933 233.569 17.8954C234.34 18.8717 234.748 20.09 234.725 21.3392C234.725 23.3276 234.096 24.8501 232.838 25.9067C231.479 26.9985 229.778 27.5609 228.044 27.4916H215.599V5.50838ZM226.744 14.2871C227.458 14.3324 228.161 14.0968 228.708 13.6293C228.943 13.4165 229.129 13.154 229.253 12.8604C229.377 12.5668 229.436 12.2493 229.425 11.9302C229.463 11.5956 229.427 11.2565 229.318 10.938C229.21 10.6195 229.032 10.3297 228.798 10.0899C228.564 9.85016 228.28 9.66658 227.967 9.55268C227.654 9.43879 227.319 9.39749 226.988 9.43183H220.221V14.2688L226.744 14.2871ZM227.286 23.5453C228.004 23.576 228.706 23.3239 229.245 22.8419C229.508 22.5809 229.713 22.2653 229.844 21.9169C229.976 21.5685 230.032 21.1954 230.008 20.8231C230.021 20.4663 229.961 20.1106 229.829 19.7792C229.698 19.4478 229.499 19.1483 229.245 18.9002C228.629 18.3717 227.834 18.1078 227.028 18.1648H220.221V23.5453H227.286Z" fill="#3C3B40"/>
</g>
<defs>
<clipPath id="clip0">
<rect width="255" height="33" fill="white"/>
</clipPath>
</defs>
</svg>
