<svg width="540" height="540" viewBox="0 0 540 540" fill="none" xmlns="http://www.w3.org/2000/svg">
<g opacity="0.9">
<path d="M232.495 110.652C214.754 46.1985 134.73 25.4375 88.8671 73.5653C88.2066 74.2259 87.546 74.9808 86.8854 75.6414C21.1108 147.172 52.1579 323.358 189.369 367.994C326.581 412.63 469.36 331.096 477.381 258.244C485.402 185.392 422.081 162.46 323.844 182.844C268.355 194.357 243.537 150.758 232.495 110.652Z" fill="#F4F0EB"/>
<path d="M324.256 439.086H371.232C371.125 435.876 370.911 432.666 370.804 429.776C369.948 413.726 369.306 351 369.306 351L331.105 352.712L327.894 352.819L322.223 353.033C322.223 353.033 322.758 414.582 323.614 428.92C323.828 432.131 324.042 435.448 324.256 439.086Z" fill="#7CAAFF"/>
<path d="M310.453 439.087C310.667 435.021 310.881 431.275 311.095 427.744C311.951 363.203 312.379 354 312.379 354L306.279 353.679L303.069 353.572L265.296 351.86C265.296 351.86 264.868 358.387 264.333 419.612C264.012 425.176 263.691 431.81 263.37 439.087H310.453Z" fill="#7CAAFF"/>
<path d="M376.154 351C366.631 353.675 357 355.601 347.476 356.992C344.159 357.42 340.842 357.848 337.525 358.169C333.031 358.597 328.536 358.811 324.042 359.025C316.659 359.239 309.168 359.132 301.785 358.49C287.446 357.42 273.107 354.959 258.768 351C258.661 337.624 258.875 348.666 259.839 302.439C259.839 300.406 259.946 298.266 259.946 296.233C259.946 295.805 259.946 295.377 259.946 294.949C259.946 294.521 259.946 293.986 259.946 293.558C259.946 292.06 260.053 290.669 260.053 289.17C260.16 286.174 260.16 283.285 260.267 280.289C260.267 278.577 260.374 276.758 260.374 275.046C260.374 274.725 260.374 274.297 260.374 273.976C260.374 272.799 260.481 271.728 260.481 270.551C260.481 270.23 260.481 269.909 260.481 269.481C260.481 268.411 260.588 267.448 260.588 266.378C260.588 265.522 260.695 264.666 260.695 263.81C261.765 232.564 263.477 207.953 265.724 204.529C269.683 198.643 283.059 190.832 293.866 184.519C297.719 182.271 302.32 179.917 304.995 178.205C308.847 181.308 311.629 184.091 317.301 183.877C323.614 183.662 325.219 179.81 327.68 176.6C329.178 177.563 332.924 180.666 334.85 181.843C336.562 182.806 338.381 183.877 340.2 184.947C343.089 186.659 346.192 188.371 349.296 190.19C353.897 192.865 358.391 195.647 362.136 198.322C365.882 200.997 368.771 203.459 370.269 205.706C372.409 208.916 373.8 229.354 374.656 256.427C374.656 257.39 374.763 258.353 374.763 259.316C374.763 259.423 374.763 259.53 374.763 259.637C374.763 260.6 374.87 261.67 374.87 262.633C374.977 265.629 375.084 268.732 375.084 271.942C375.084 272.585 375.084 273.334 375.084 273.976C375.084 274.511 375.084 274.939 375.084 275.474C375.084 276.758 375.191 278.042 375.191 279.433C375.191 279.647 375.191 279.968 375.191 280.182C375.298 283.606 375.298 287.137 375.405 290.669C375.405 291.739 375.405 292.702 375.405 293.772C376.475 342.352 376.261 336.661 376.154 351Z" fill="black"/>
<path d="M349.51 372.956C329.179 372.849 311.844 363.647 300.929 355.942C289.051 347.596 281.882 339.142 281.775 339.035C281.454 338.607 281.454 337.965 281.882 337.644C282.31 337.323 282.952 337.323 283.273 337.751C283.38 337.858 290.442 346.098 302.106 354.337C312.807 361.935 329.714 370.923 349.51 371.03C350.045 371.03 350.473 371.458 350.473 371.993C350.473 372.528 350.045 372.956 349.51 372.956Z" fill="#2F006A"/>
<path d="M336.883 360.971C319.548 357.547 304.353 344.386 303.604 343.744C303.176 343.423 303.176 342.78 303.497 342.352C303.818 341.924 304.46 341.924 304.888 342.245C305.102 342.352 323.079 357.975 341.377 359.687C341.912 359.687 342.34 360.222 342.233 360.757C342.233 361.293 341.698 361.721 341.163 361.614C339.772 361.507 338.274 361.185 336.883 360.971Z" fill="#2F006A"/>
<path d="M302.213 210.735C301.785 210.735 301.357 210.414 301.25 209.986C301.143 209.451 301.464 208.916 301.999 208.809C326.717 204.101 334.208 188.157 334.315 188.05C334.529 187.515 335.064 187.301 335.599 187.515C336.134 187.729 336.348 188.264 336.134 188.799C335.813 189.441 328.215 205.813 302.427 210.735C302.427 210.735 302.32 210.735 302.213 210.735Z" fill="#444444"/>
<path d="M272.037 253.644C272.037 253.751 271.93 253.858 271.93 253.965C271.609 254.607 271.181 255.143 270.753 255.785C270.753 255.785 270.753 255.892 270.646 255.892C269.362 257.925 268.078 260.065 266.794 262.419C264.761 266.057 262.621 270.016 260.481 273.976C260.481 272.799 260.588 271.728 260.588 270.551C260.588 270.23 260.588 269.909 260.588 269.481C264.012 263.168 267.329 257.283 270.218 252.788C270.539 252.36 271.074 252.253 271.609 252.467C271.93 252.788 272.144 253.216 272.037 253.644Z" fill="#444444"/>
<path d="M390.313 213.37C390.313 213.37 421.987 203.204 431.296 182.445C433.972 176.452 411.714 115.352 411.714 115.352L400.907 115.887C400.907 115.887 404.01 137.074 405.829 149.059C407.327 158.904 409.788 170.674 410.644 174.633C410.858 175.489 410.965 175.917 410.965 175.917C410.43 176.024 409.895 176.131 409.36 176.238C394.593 179.235 375.653 188.865 375.653 188.865L390.313 213.37Z" fill="#FFAFA6"/>
<path d="M418.884 181.803C419.312 182.124 419.954 182.017 420.275 181.589C420.596 181.161 420.489 180.519 420.061 180.198C417.707 178.486 414.283 176.559 410.644 174.633C410.858 175.489 410.965 175.917 410.965 175.917C410.43 176.024 409.895 176.131 409.36 176.238C413.106 178.164 416.637 180.091 418.884 181.803Z" fill="#241352"/>
<path d="M341.84 185.441C341.84 185.441 332.316 207.912 356.606 220.432C373.513 229.099 411.929 206.521 411.929 206.521L398.232 177.416C398.232 177.416 363.027 191.968 341.84 185.441Z" fill="black"/>
<path d="M406.15 81.1102C405.187 81.7523 405.401 85.9255 405.829 89.7777C405.722 89.7777 405.508 89.7777 405.401 89.8847C404.224 84.7484 401.977 75.8669 400.051 77.579C398.767 78.6491 400.479 86.2465 401.656 90.8478C401.442 90.9548 401.228 90.9548 400.907 91.0618C399.409 85.7115 396.306 75.2249 394.273 77.258C392.881 78.6491 395.557 87.7446 397.055 92.4529C396.841 92.5599 396.627 92.5599 396.413 92.6669C395.022 88.1726 391.918 79.6121 389.885 81.5382C387.959 83.3573 393.416 96.3051 393.416 96.3051L394.808 101.441C394.808 101.441 393.095 102.19 390.527 99.1942C387.959 96.1981 384.749 95.663 386.996 99.9433C389.457 104.759 393.095 108.29 394.701 111.714C396.306 115.138 401.335 116.315 401.335 116.315L411.501 115.78C411.501 115.78 413.427 98.6592 409.681 90.5268C408.932 85.7115 407.862 79.9332 406.15 81.1102Z" fill="#FFAFA6"/>
<path d="M287.553 124.488C287.553 141.716 298.147 153.594 315.375 153.594C332.603 153.594 344.587 140.86 344.587 123.632C344.587 118.924 343.838 114.43 342.34 110.471C342.233 110.257 342.126 110.043 342.019 109.829C341.805 109.401 341.698 108.973 341.484 108.545C341.163 107.902 340.842 107.26 340.521 106.618C336.027 98.593 328.002 93.4567 317.194 93.4567C296.542 93.3497 287.553 107.26 287.553 124.488Z" fill="#241352"/>
<path d="M291.405 131.872C291.405 131.872 286.59 125.452 283.059 130.802C279.528 136.045 284.557 151.668 293.225 147.816L291.405 131.872Z" fill="#FFAFA6"/>
<path d="M291.298 143.001C290.977 143.001 290.656 142.787 290.549 142.465C289.158 137.65 284.236 135.724 284.129 135.724C283.701 135.617 283.594 135.189 283.701 134.761C283.808 134.333 284.236 134.226 284.664 134.333C284.878 134.44 290.442 136.58 291.94 142.144C292.047 142.572 291.833 142.894 291.405 143.001C291.512 143.001 291.405 143.001 291.298 143.001Z" fill="#241352"/>
<path d="M286.269 140.647C286.162 140.647 285.948 140.647 285.841 140.54C285.52 140.326 285.413 139.898 285.627 139.47C285.627 139.363 286.59 138.078 288.409 137.222C288.73 137.008 289.265 137.222 289.372 137.543C289.586 137.864 289.372 138.399 289.051 138.506C287.66 139.148 286.911 140.219 286.911 140.219C286.804 140.54 286.59 140.647 286.269 140.647Z" fill="#241352"/>
<path d="M340.735 131.872C340.735 131.872 345.55 125.452 349.082 130.802C352.613 136.045 347.584 151.668 338.916 147.816L340.735 131.872Z" fill="#FFAFA6"/>
<path d="M340.735 143.001C341.056 143.001 341.377 142.787 341.484 142.465C342.875 137.65 347.797 135.724 347.904 135.724C348.332 135.617 348.439 135.189 348.332 134.761C348.225 134.333 347.797 134.226 347.369 134.333C347.155 134.44 341.591 136.58 340.093 142.144C339.986 142.572 340.2 142.894 340.628 143.001H340.735Z" fill="#241352"/>
<path d="M345.764 140.647C345.871 140.647 346.085 140.647 346.192 140.54C346.513 140.326 346.62 139.898 346.406 139.47C346.406 139.363 345.443 138.078 343.624 137.222C343.303 137.008 342.768 137.222 342.661 137.543C342.447 137.864 342.661 138.399 342.982 138.506C344.373 139.148 345.122 140.219 345.122 140.219C345.336 140.54 345.55 140.647 345.764 140.647Z" fill="#241352"/>
<path d="M327.787 161.084V176.6C327.787 176.6 323.186 184.519 316.873 185.054C310.666 185.589 305.102 178.205 305.102 178.205V162.155L327.787 161.084Z" fill="#FFAFA6"/>
<path d="M327.787 161.084V167.933C323.614 172.534 316.124 173.711 305.102 172.106V162.155L327.787 161.084Z" fill="#D89795"/>
<path d="M344.159 121.278C343.838 127.271 343.303 134.868 342.126 140.86C341.805 142.358 341.484 143.749 341.163 145.034C337.953 156.483 329.714 176.065 306.921 167.826C296.863 164.188 292.155 152.952 290.121 141.609C288.73 133.798 288.516 125.986 288.623 120.422C288.73 114.751 291.834 109.508 296.863 106.618C310.346 99.021 324.577 101.803 333.887 105.441C340.307 107.902 344.48 114.323 344.159 121.278Z" fill="#FFAFA6"/>
<path d="M306.386 150.277C307.564 154.557 311.095 158.73 315.91 158.837C320.725 158.73 324.149 154.557 325.434 150.277H306.386Z" fill="white"/>
<path d="M343.803 131.777H340.425C340.752 128.379 341.297 122.349 338.573 121.472C329.748 118.732 341.188 112.483 337.157 109.304C333.126 106.125 323.211 107.55 316.347 107.331C309.374 107.112 298.152 107.221 295.537 107.879C292.814 108.537 294.339 113.031 295.32 116.539C296.3 120.047 291.942 123.994 291.288 127.611C291.07 128.708 291.07 130.242 291.288 131.887H288.456C288.129 127.502 288.02 123.336 288.129 119.938C288.238 114.127 291.397 108.756 296.518 105.796C310.246 98.0126 324.736 100.863 334.215 104.59C340.861 107.112 345.11 113.689 344.783 120.815C344.457 124.103 344.13 127.94 343.803 131.777Z" fill="#241352"/>
<path d="M269.362 252.361C269.362 252.361 260.588 269.375 250.208 282.858C247.105 286.817 244.002 290.455 240.792 293.345C235.655 297.946 230.733 300.3 226.667 298.267C211.686 290.67 178.3 230.639 178.3 230.639L186.54 220.902C186.54 220.902 201.413 238.023 212.221 248.295C222.28 257.712 229.984 264.881 229.984 264.881C231.375 262.741 232.873 260.494 234.371 258.033C235.976 255.465 237.688 252.682 239.401 249.9C251.92 229.355 265.831 204.744 265.831 204.744L269.362 252.361Z" fill="#FFAFA6"/>
<path d="M265.938 204.636L235.976 251.826L246.035 293.344L270.86 252.896C270.86 252.896 273.856 225.181 265.938 204.636Z" fill="black"/>
<path d="M332.474 238.899C332.075 238.905 331.682 238.799 331.338 238.594C330.995 238.389 330.715 238.092 330.529 237.737C330.343 237.382 330.258 236.982 330.284 236.582C330.31 236.181 330.446 235.796 330.677 235.468L335.893 228.04L330.464 220.764C330.119 220.303 329.971 219.722 330.053 219.151C330.134 218.579 330.438 218.064 330.897 217.718C331.357 217.371 331.934 217.223 332.503 217.304C333.072 217.386 333.585 217.691 333.929 218.153L339.544 225.681C340.041 226.344 340.315 227.149 340.327 227.979C340.339 228.809 340.088 229.621 339.61 230.298L334.212 237.98C334.015 238.26 333.755 238.49 333.453 238.65C333.151 238.809 332.815 238.895 332.474 238.899Z" fill="#00D4A4"/>
<path d="M350.142 238.648C349.799 238.653 349.461 238.577 349.153 238.425C348.846 238.274 348.579 238.051 348.375 237.775L342.775 230.253C342.278 229.59 342.004 228.785 341.992 227.955C341.98 227.125 342.231 226.313 342.71 225.636L348.107 217.951C348.438 217.48 348.943 217.16 349.509 217.062C350.075 216.964 350.656 217.096 351.126 217.429C351.595 217.762 351.913 218.269 352.011 218.838C352.108 219.407 351.977 219.991 351.645 220.463L346.411 227.891L351.84 235.167C352.08 235.488 352.227 235.869 352.264 236.269C352.302 236.668 352.228 237.07 352.053 237.43C351.877 237.791 351.605 238.095 351.268 238.31C350.931 238.525 350.541 238.642 350.142 238.648Z" fill="#00D4A4"/>
<ellipse cx="166.5" cy="362" rx="20.5" ry="10" fill="#7CAAFF"/>
<path d="M169.825 438H212C211.904 434.319 211.712 430.638 211.616 427.326C210.847 408.922 210.271 337 210.271 337L175.974 338.963L173.092 339.086L168 339.331C168 339.331 168.48 409.903 169.249 426.344C169.441 430.025 169.633 433.828 169.825 438Z" fill="#7CAAFF"/>
<path d="M164.271 438C164.463 433.338 164.655 429.045 164.847 424.996C165.616 351.004 166 340.454 166 340.454L160.524 340.085L157.642 339.963L123.729 338C123.729 338 123.345 345.483 122.865 415.673C122.576 422.052 122.288 429.658 122 438H164.271Z" fill="#7CAAFF"/>
<path d="M216.822 341.496C191.783 357.868 145.877 356.584 117.093 341.496C119.875 324.375 123.513 307.147 122.657 284.355C122.55 281.894 122.443 279.326 122.336 276.865C122.229 274.725 122.122 272.584 122.015 270.444C119.554 232.457 113.026 201.425 116.237 197.359C117.628 195.647 119.982 193.721 122.764 191.795C123.941 191.046 125.118 190.297 126.402 189.441C129.398 187.622 132.716 185.802 136.033 183.983C143.951 179.703 151.977 175.851 156.043 173.176C160.002 174.888 163.212 175.851 166.636 175.851C166.743 175.851 166.85 175.851 166.957 175.851C167.064 175.851 167.172 175.851 167.279 175.851C170.703 175.851 173.913 174.888 177.872 173.176C181.617 175.637 188.68 179.168 195.849 182.913C201.092 185.695 206.443 188.692 210.616 191.474C213.398 193.4 215.538 195.219 216.929 196.931C218.534 198.964 217.892 207.632 216.501 220.579C215.217 233.313 213.184 250.113 212.007 268.518C211.686 273.654 211.365 278.898 211.258 284.248C210.402 307.147 214.04 324.375 216.822 341.496Z" fill="#00D4A4"/>
<path d="M201.52 322.556C181.403 322.449 164.175 313.353 153.368 305.649C141.597 297.302 134.535 288.956 134.428 288.849C134.107 288.421 134.107 287.779 134.535 287.458C134.963 287.137 135.605 287.137 135.926 287.565C136.033 287.672 142.988 295.911 154.545 304.044C165.138 311.534 181.938 320.523 201.52 320.523C202.055 320.523 202.483 320.951 202.483 321.486C202.483 322.128 202.055 322.556 201.52 322.556Z" fill="#10AB88"/>
<path d="M188.145 310.786C171.024 307.469 155.829 294.307 155.187 293.665C154.759 293.344 154.759 292.702 155.08 292.274C155.401 291.846 156.043 291.846 156.471 292.167C156.685 292.274 174.555 307.79 192.746 309.395C193.281 309.395 193.709 309.93 193.602 310.465C193.602 311 193.067 311.428 192.532 311.321C191.034 311.321 189.643 311.107 188.145 310.786Z" fill="#10AB88"/>
<path d="M195.849 182.913C190.927 194.042 179.049 205.492 163.426 202.816C148.338 200.248 141.169 192.223 136.033 183.983C143.951 179.703 151.977 175.851 156.043 173.176C160.002 174.888 163.212 175.851 166.636 175.851C166.743 175.851 166.85 175.851 166.957 175.851C167.064 175.851 167.171 175.851 167.278 175.851C170.703 175.851 173.913 174.888 177.872 173.176C181.617 175.637 188.573 179.168 195.849 182.913Z" fill="#FFAFA6"/>
<path d="M192.104 95.918C192.104 95.918 203.875 114.216 202.591 133.156C201.306 152.203 204.303 174.139 187.289 173.176C170.275 172.213 139.885 180.025 130.254 165.151C120.731 150.384 192.104 95.918 192.104 95.918Z" fill="#5A2D03"/>
<path d="M196.491 129.517C196.491 129.517 199.594 157.125 186.433 164.615C173.378 172.213 163.854 163.759 163.854 163.759C163.854 163.759 191.462 125.344 196.491 129.517Z" fill="#532800"/>
<path d="M142.132 129.411C142.132 129.411 137.424 123.204 133.893 128.341C130.361 133.477 135.391 148.779 143.844 145.034L142.132 129.411Z" fill="#F97853"/>
<path d="M142.132 140.325C141.811 140.325 141.49 140.111 141.49 139.79C140.206 135.082 135.284 133.156 135.177 133.156C134.856 133.049 134.642 132.621 134.749 132.193C134.856 131.872 135.284 131.658 135.712 131.765C135.926 131.872 141.276 133.905 142.881 139.362C142.988 139.79 142.774 140.111 142.346 140.218C142.239 140.325 142.132 140.325 142.132 140.325Z" fill="#EA5143"/>
<path d="M137.21 137.864C137.103 137.864 136.889 137.864 136.782 137.757C136.461 137.543 136.354 137.115 136.568 136.794C136.568 136.687 137.424 135.403 139.243 134.654C139.564 134.44 139.992 134.654 140.206 134.975C140.42 135.296 140.206 135.724 139.885 135.938C138.494 136.58 137.852 137.543 137.852 137.543C137.638 137.757 137.424 137.864 137.21 137.864Z" fill="#EA5143"/>
<path d="M190.606 129.411C190.606 129.411 195.314 123.204 198.845 128.341C202.376 133.477 197.347 148.779 188.894 145.034L190.606 129.411Z" fill="#FFAFA6"/>
<path d="M190.606 140.325C190.927 140.325 191.248 140.111 191.248 139.79C192.532 135.082 197.454 133.156 197.561 133.156C197.882 133.049 198.096 132.621 197.989 132.193C197.882 131.872 197.454 131.658 197.026 131.765C196.812 131.872 191.462 133.905 189.857 139.362C189.75 139.79 189.964 140.111 190.392 140.218C190.499 140.325 190.499 140.325 190.606 140.325Z" fill="#241352"/>
<path d="M195.528 137.864C195.635 137.864 195.849 137.864 195.956 137.757C196.277 137.543 196.384 137.115 196.17 136.794C196.17 136.687 195.314 135.403 193.495 134.654C193.174 134.44 192.746 134.654 192.532 134.975C192.318 135.296 192.532 135.724 192.853 135.938C194.244 136.58 194.886 137.543 194.886 137.543C195.1 137.757 195.314 137.864 195.528 137.864Z" fill="#241352"/>
<path d="M177.872 157.981V173.176C177.872 173.176 173.377 180.88 167.171 181.415C161.072 181.95 155.615 174.781 155.615 174.781V159.051L177.872 157.981Z" fill="#FFAFA6"/>
<path d="M177.872 157.981V164.722C173.806 169.324 166.422 170.929 155.615 169.324V159.051L177.872 157.981Z" fill="#D89795"/>
<path d="M193.923 118.924C193.602 124.809 193.067 132.193 191.997 138.078C191.676 139.576 191.355 140.967 191.034 142.144C187.824 153.38 179.798 172.534 157.434 164.508C147.589 160.977 142.988 149.956 140.955 138.72C139.564 131.122 139.35 123.418 139.457 117.961C139.564 112.396 142.667 107.26 147.482 104.478C160.751 96.9876 174.662 99.7697 183.864 103.301C190.178 105.869 194.244 112.075 193.923 118.924Z" fill="#FFAFA6"/>
<path d="M157.434 148.244C157.969 151.026 159.788 156.055 165.887 156.055C171.987 156.055 173.699 151.454 174.341 148.244H157.434Z" fill="white"/>
<path d="M196.812 117.747C196.598 118.389 195.956 118.817 195.1 119.031C195.207 120.636 194.993 122.562 194.886 124.381C194.03 134.868 191.355 136.687 190.713 134.119C190.285 132.407 190.392 122.562 190.499 119.352C188.466 119.245 186.647 118.924 186.647 118.924L184.185 108.758L183.329 118.817C179.691 120.101 171.238 118.068 171.238 118.068L168.349 108.116L166.636 117.747C161.179 120.422 154.331 118.603 154.331 118.603L152.726 108.223L149.087 118.603C149.087 118.603 137.424 122.776 137.317 118.603C137.21 116.142 139.029 109.293 140.527 104.05C142.132 98.2718 145.984 93.3495 151.121 90.6744C165.566 82.97 180.761 87.0362 186.005 90.1394C197.347 96.6667 196.812 117.747 196.812 117.747Z" fill="#5A2D03"/>
<path d="M143.951 96.667C143.951 96.667 134.428 108.01 131.217 128.341C128.114 148.672 123.727 163.653 135.926 170.394C149.194 177.671 148.017 162.797 147.803 158.73C147.589 154.664 136.354 143.643 143.844 112.397C146.412 102.445 143.951 96.667 143.951 96.667Z" fill="#5A2D03"/>
<path d="M141.704 138.72C141.704 138.934 141.704 139.683 141.811 140.967C141.811 141.716 141.918 142.679 141.918 143.749C142.346 150.598 143.737 162.476 147.589 166.542C149.088 168.147 152.084 169.003 155.615 169.324V163.974C151.87 162.262 149.088 159.372 146.84 155.841C145.449 152.845 143.095 148.137 141.918 140.86L141.704 138.72Z" fill="#532800"/>
<path d="M228.593 272.799C223.777 286.496 202.376 285.533 177.872 278.042H177.765C177.658 278.042 177.658 278.042 177.551 277.935L174.234 276.865C173.806 276.758 173.271 276.544 172.843 276.437C170.167 275.581 167.599 274.618 164.924 273.548C156.15 270.231 147.375 266.272 139.136 262.098L139.243 261.991L141.704 255.464L142.56 253.217C142.56 253.217 187.931 258.139 210.723 253.431C211.151 253.324 211.472 253.217 211.9 253.217C211.793 252.682 211.793 252.147 211.686 251.719C199.594 210.629 212.863 202.71 217.25 197.039C216.929 196.932 237.688 246.904 228.593 272.799Z" fill="#00D4A4"/>
<path d="M221.21 260.065C221.103 260.172 220.889 260.172 220.782 260.172C220.461 260.172 220.033 259.958 219.926 259.637C218.213 256.106 212.328 253.966 210.509 253.431C210.937 253.324 211.258 253.217 211.686 253.217C211.579 252.682 211.472 252.254 211.472 251.719C213.719 252.468 219.712 254.822 221.745 258.888C221.852 259.316 221.745 259.851 221.21 260.065Z" fill="#10AB88"/>
<path d="M157.755 258.353C148.552 258.353 140.955 257.818 140.313 257.818C139.778 257.818 139.35 257.283 139.457 256.748C139.457 256.213 139.992 255.785 140.527 255.892C140.848 255.892 174.876 258.353 188.252 252.896C188.787 252.682 189.322 252.896 189.536 253.431C189.75 253.966 189.536 254.501 189.001 254.715C181.51 257.711 168.456 258.353 157.755 258.353Z" fill="#10AB88"/>
<path d="M174.234 276.866C182.045 274.725 189.001 272.692 193.067 271.301C198.738 269.482 203.447 263.811 205.48 258.889C205.694 258.353 206.229 258.139 206.764 258.353C207.299 258.568 207.513 259.103 207.299 259.638C205.052 264.881 199.915 271.087 193.709 273.12C190.713 274.083 186.219 275.367 180.975 276.866C178.728 277.615 176.374 277.615 174.234 276.866Z" fill="#10AB88"/>
<path d="M195.1 270.231C125.011 293.772 103.503 278.363 103.503 278.363C98.7946 235.668 116.13 197.36 116.13 197.36C121.266 205.813 127.044 220.58 127.044 220.58L128.542 253.217L128.435 254.073L128.328 254.501L128.007 256.748C128.114 256.748 128.328 256.855 128.435 256.855C149.623 261.349 188.359 256.32 188.359 256.32L195.1 270.231Z" fill="#00D4A4"/>
<path d="M128.649 257.069C124.904 260.28 121.266 263.918 118.056 268.091C117.735 268.519 117.093 268.626 116.665 268.305C116.237 267.984 116.13 267.342 116.451 266.914C120.089 262.206 124.155 258.14 128.435 254.715L128.114 256.962C128.328 256.962 128.435 256.962 128.649 257.069Z" fill="#10AB88"/>
<path d="M188.573 256.534C188.573 256.534 196.277 238.878 208.155 240.484L211.686 253.217C205.265 255.999 204.302 267.021 195.1 270.231L188.573 256.534Z" fill="#FFAFA6"/>
<path d="M142.453 253.324C142.453 253.324 137.531 241.874 124.69 238.45C111.849 235.133 103.61 241.232 102.754 243.479C101.898 245.727 107.569 243.586 107.569 243.586C107.569 243.586 103.824 244.656 101.684 248.188C99.5437 251.719 106.927 247.867 106.927 247.867C106.927 247.867 101.684 250.221 101.042 252.361C100.4 254.501 107.355 250.863 108.639 250.97C108.639 250.97 102.433 253.431 102.433 255.678C102.433 257.925 109.602 254.287 114.846 254.608C120.089 254.929 128.221 257.069 128.221 257.069C132.502 257.925 136.675 258.46 140.42 258.674L142.453 253.324Z" fill="#FFAFA6"/>
<path d="M179.474 238.899C179.075 238.905 178.682 238.799 178.338 238.594C177.995 238.389 177.715 238.092 177.529 237.737C177.343 237.382 177.258 236.982 177.284 236.582C177.31 236.181 177.446 235.796 177.677 235.468L182.893 228.04L177.464 220.764C177.119 220.303 176.971 219.722 177.053 219.151C177.134 218.579 177.438 218.064 177.897 217.718C178.357 217.371 178.934 217.223 179.503 217.304C180.072 217.386 180.585 217.691 180.929 218.153L186.544 225.681C187.041 226.344 187.315 227.149 187.327 227.979C187.339 228.809 187.088 229.621 186.61 230.298L181.212 237.98C181.015 238.26 180.755 238.49 180.453 238.65C180.151 238.809 179.815 238.895 179.474 238.899Z" fill="white"/>
<path d="M197.142 238.647C196.799 238.653 196.461 238.577 196.153 238.425C195.846 238.273 195.579 238.05 195.375 237.775L189.775 230.253C189.278 229.59 189.004 228.785 188.992 227.955C188.98 227.125 189.231 226.313 189.71 225.636L195.107 217.951C195.438 217.479 195.943 217.16 196.509 217.062C197.075 216.964 197.656 217.096 198.126 217.429C198.595 217.762 198.913 218.269 199.011 218.837C199.108 219.406 198.977 219.991 198.645 220.462L193.411 227.89L198.84 235.166C199.08 235.487 199.227 235.869 199.264 236.268C199.302 236.668 199.228 237.07 199.053 237.43C198.877 237.79 198.605 238.095 198.268 238.309C197.931 238.524 197.541 238.641 197.142 238.647Z" fill="white"/>
<path d="M344.3 410.186H194.5C190.9 410.186 188 407.286 188 403.686V325.286C188 321.686 190.9 318.786 194.5 318.786H344.3C347.9 318.786 350.8 321.686 350.8 325.286V403.686C350.8 407.286 347.9 410.186 344.3 410.186Z" fill="#C5C4C6"/>
<path d="M282 410.086H256.8V438.786H282V410.086Z" fill="#676767"/>
<path d="M269.1 378.086C276.004 378.086 281.6 372.489 281.6 365.586C281.6 358.682 276.004 353.086 269.1 353.086C262.197 353.086 256.6 358.682 256.6 365.586C256.6 372.489 262.197 378.086 269.1 378.086Z" fill="white"/>
<path d="M301.5 438.786H236.5V436.586C236.5 432.186 240.1 428.586 244.5 428.586H293.5C297.9 428.586 301.5 432.186 301.5 436.586V438.786Z" fill="#C5C4C6"/>
<path d="M14.2213 279.754C9.90223 275.62 8.24812 269.19 12.3834 264.229C16.243 259.544 23.7783 258.533 28.5568 262.3C40.2275 271.303 28.0974 287.93 15.5078 284.439C13.2104 283.796 13.7618 280.489 16.0592 280.305C19.735 280.122 23.6864 279.938 26.6271 277.366C29.7515 274.61 29.8434 269.925 27.2703 266.709C20.3782 258.258 8.5238 270.66 15.6916 278.192C16.5186 279.295 15.1402 280.673 14.2213 279.754Z" fill="#7CAAFF"/>
<path d="M475.666 104.643C478.699 107.583 479.894 112.176 476.953 115.759C474.196 119.066 468.866 119.801 465.374 117.137C457.012 110.706 465.742 98.8557 474.747 101.336C476.402 101.795 476.034 104.184 474.38 104.276C471.715 104.459 468.958 104.551 466.844 106.389C464.547 108.41 464.547 111.717 466.385 114.013C471.255 120.076 479.802 111.166 474.656 105.746C474.012 105.011 475.023 104 475.666 104.643Z" fill="#7CAAFF"/>
<path d="M94.8558 368.619C94.5802 366.966 94.6721 365.312 93.7531 363.842C91.9152 360.903 89.2503 361.637 86.6772 362.924C84.0123 364.21 81.623 365.036 78.7743 363.842C74.3633 361.913 72.2497 355.207 76.4769 351.992C77.8553 350.981 79.2337 352.635 79.0499 353.921C78.7743 355.758 77.8553 357.687 79.4175 359.249C81.5311 361.362 83.9204 359.616 85.942 358.606C88.1475 357.595 90.5368 357.412 92.8342 358.33C96.7856 359.892 99.6344 365.312 96.5099 368.895C95.9586 369.63 94.9477 369.354 94.8558 368.619Z" fill="#7E2E83"/>
<path d="M26.1219 109.113C25.0192 113.339 23.7326 117.473 22.4461 121.606C22.1704 122.617 21.1596 122.893 20.3325 122.341C16.9324 120.045 13.6242 117.84 10.4079 115.268C9.76465 114.808 9.94845 113.798 10.4998 113.339C14.2675 110.766 19.3217 107 24.0083 107C25.203 107 26.03 108.654 24.8354 109.388C22.9056 110.491 20.6082 110.858 18.5866 111.777C16.1973 112.787 13.8999 113.89 11.7863 115.36C11.6944 114.717 11.6945 113.982 11.6026 113.339C15.1864 115.543 18.4946 118.024 21.8947 120.412C21.2515 120.504 20.5163 120.688 19.8731 120.78C21.3434 116.646 22.8137 112.604 24.3759 108.562C24.8354 107.827 26.3057 108.286 26.1219 109.113Z" fill="#EFE6F5"/>
<path d="M460.587 396.316C453.419 393.009 446.435 389.518 439.451 385.935C437.797 385.108 437.521 383.271 438.808 381.985C443.954 376.657 449.008 371.329 454.522 366.46C455.625 365.541 457.279 366.092 457.83 367.287C461.23 374.728 466.468 384.925 464.998 393.376C464.63 395.489 461.322 396.5 460.495 394.111C459.117 390.345 459.117 386.119 458.29 382.261C457.279 377.759 455.9 373.258 453.971 369.032C455.257 369.124 456.452 369.308 457.738 369.4C452.684 375.095 447.262 380.331 441.84 385.568C441.84 384.373 441.749 383.087 441.749 381.893C448.641 385.751 455.349 389.61 462.057 393.744C463.344 394.57 462.057 396.959 460.587 396.316Z" fill="#FF7180"/>
<path d="M66.1194 34.9838C73.7414 30.9745 82.0465 27.1962 90.1533 24.6098C92.7354 23.8144 94.4279 27.8127 91.9493 28.9945C84.1531 32.7399 75.5892 35.5522 67.2115 37.9005C65.5953 38.4371 64.4842 35.8361 66.1194 34.9838Z" fill="#FF947E"/>
<path d="M274.116 43.809C278.916 48.409 280.716 55.509 276.116 61.009C271.816 66.209 263.516 67.309 258.216 63.109C245.316 53.109 258.716 34.709 272.716 38.509C275.316 39.209 274.616 42.909 272.116 43.009C268.016 43.209 263.716 43.4089 260.416 46.2089C256.916 49.3089 256.816 54.509 259.716 58.009C267.316 67.309 280.516 53.6089 272.516 45.2089C271.516 44.4089 273.016 42.809 274.116 43.809Z" fill="#FF7180"/>
<path d="M517 438H22V442H517V438Z" fill="#676767"/>
</g>
</svg>
