<svg width="540" height="540" viewBox="0 0 540 540" fill="none" xmlns="http://www.w3.org/2000/svg">
<path opacity="0.05" d="M100.545 185.17C214.377 133.393 240.806 42.5341 331.936 56.427C413.196 68.8138 503.582 126.605 502.997 193.246C502.571 241.961 430.419 243.943 421.331 323.594C415.386 375.401 453.112 416.297 423.313 453.962C381.99 506.244 238.636 490.627 136.923 435.372C51.9772 389.214 -21.5329 240.702 100.545 185.17Z" fill="#440099"/>
<path d="M447.88 94.1899H88.1199C83.6023 94.1899 79.9399 97.8523 79.9399 102.37V238.51C79.9399 243.028 83.6023 246.69 88.1199 246.69H447.88C452.398 246.69 456.06 243.028 456.06 238.51V102.37C456.06 97.8523 452.398 94.1899 447.88 94.1899Z" fill="#C9BEB1"/>
<path d="M449.88 92.1899H90.1199C85.6023 92.1899 81.9399 95.8523 81.9399 100.37V236.51C81.9399 241.028 85.6023 244.69 90.1199 244.69H449.88C454.398 244.69 458.06 241.028 458.06 236.51V100.37C458.06 95.8523 454.398 92.1899 449.88 92.1899Z" fill="#F4F0EB"/>
<path d="M448.06 102.19H91.9399V234.69H448.06V102.19Z" fill="white"/>
<path d="M132.02 114.59H107.86V138.75H132.02V114.59Z" fill="#FFD300"/>
<path d="M146.117 127.735L122.881 121.116L116.262 144.351L139.498 150.97L146.117 127.735Z" fill="#FF7F8D"/>
<path d="M134.826 173.67L110.753 171.624L108.706 195.697L132.779 197.744L134.826 173.67Z" fill="#FF7F8D"/>
<path d="M147.757 187.959L125.166 179.396L116.602 201.987L139.194 210.55L147.757 187.959Z" fill="#FFD300"/>
<path d="M376.19 125.09H170.4V126.91H376.19V125.09Z" fill="#C9BEB1"/>
<path d="M347.9 131.09H170.4V132.91H347.9V131.09Z" fill="#C9BEB1"/>
<path d="M376.19 137.09H170.4V138.91H376.19V137.09Z" fill="#C9BEB1"/>
<path d="M347.9 143.09H170.4V144.91H347.9V143.09Z" fill="#C9BEB1"/>
<path d="M376.19 179.25H170.4V181.07H376.19V179.25Z" fill="#C9BEB1"/>
<path d="M347.9 185.25H170.4V187.07H347.9V185.25Z" fill="#C9BEB1"/>
<path d="M376.19 191.25H170.4V193.07H376.19V191.25Z" fill="#C9BEB1"/>
<path d="M347.9 197.25H170.4V199.07H347.9V197.25Z" fill="#C9BEB1"/>
<path d="M530.64 440.1H9.35986V440.36H530.64V440.1Z" fill="#C9BEB1"/>
<path d="M442.9 362.25C448.34 360.4 452.28 355.15 448.84 349.74C443.11 340.83 457.44 338.93 453.42 324.04C447.74 303.04 430.14 321.23 425.76 301.04C422.63 286.35 397.9 276.73 396.94 296.04C395.94 317.23 385.27 303.39 382.94 326.94C381.3 343.22 404.48 345.59 397.54 350.68C392.48 354.4 389.54 360.87 396.54 365.27C406.14 371.27 397.08 376.02 403.6 380.27C410.12 384.52 411.19 377.77 421.33 381.04C430.39 383.96 438.07 375.04 436.27 369.41C434.59 364.23 437.43 364.1 442.9 362.25Z" fill="#C9BEB1"/>
<path d="M390.52 371.91C390.52 371.91 391.26 440.07 419.83 440.07C448.4 440.07 449.14 371.91 449.14 371.91H390.52Z" fill="#F4F0EB"/>
<path d="M406.79 318.96H360.09V440.1H406.79V318.96Z" fill="#C9BEB1"/>
<path d="M394.32 440.1H406.79V419.19H381.24L394.32 440.1Z" fill="#F4F0EB"/>
<path d="M286.76 318.96H240.06V440.1H286.76V318.96Z" fill="#C9BEB1"/>
<path d="M406.79 318.96H275.86V432.9H406.79V318.96Z" fill="#F4F0EB"/>
<path d="M397.11 329.53H285.53V353.4H397.11V329.53Z" fill="white"/>
<path d="M288.33 440.1H275.87V419.19H301.4L288.33 440.1Z" fill="#F4F0EB"/>
<path d="M397.11 363.99H285.53V387.86H397.11V363.99Z" fill="white"/>
<path d="M397.11 398.44H285.53V422.31H397.11V398.44Z" fill="white"/>
<path d="M270.5 318.96H223.8V440.1H270.5V318.96Z" fill="#C9BEB1"/>
<path d="M258.03 440.1H270.5V419.19H244.96L258.03 440.1Z" fill="#F4F0EB"/>
<path d="M150.46 318.96H103.76V440.1H150.46V318.96Z" fill="#C9BEB1"/>
<path d="M270.5 318.96H139.57V432.9H270.5V318.96Z" fill="#F4F0EB"/>
<path d="M260.83 329.53H149.25V353.4H260.83V329.53Z" fill="white"/>
<path d="M152.04 440.1H139.57V419.19H165.12L152.04 440.1Z" fill="#F4F0EB"/>
<path d="M260.83 363.99H149.25V387.86H260.83V363.99Z" fill="white"/>
<path d="M260.83 398.44H149.25V422.31H260.83V398.44Z" fill="white"/>
<path d="M323 298.38C322.709 298.392 322.419 298.418 322.13 298.46V296.76C322.127 296.1 321.864 295.469 321.398 295.002C320.931 294.536 320.3 294.273 319.64 294.27H306.3C305.64 294.273 305.009 294.536 304.542 295.002C304.076 295.469 303.813 296.1 303.81 296.76V319H322.13V314.5C322.418 314.55 322.708 314.58 323 314.59C324.936 314.59 326.793 313.821 328.162 312.452C329.531 311.083 330.3 309.226 330.3 307.29V305.71C330.305 304.752 330.122 303.802 329.76 302.915C329.397 302.028 328.864 301.221 328.19 300.54C327.515 299.859 326.713 299.318 325.83 298.947C324.946 298.577 323.998 298.384 323.04 298.38H323ZM327.17 307.25C327.17 308.356 326.731 309.417 325.949 310.199C325.167 310.981 324.106 311.42 323 311.42C322.708 311.42 322.416 311.39 322.13 311.33V301.59C322.416 301.53 322.708 301.5 323 301.5C323.548 301.499 324.091 301.606 324.597 301.815C325.104 302.024 325.564 302.331 325.952 302.718C326.339 303.106 326.646 303.566 326.855 304.073C327.064 304.579 327.171 305.122 327.17 305.67V307.25Z" fill="#C9BEB1"/>
<g opacity="0.2">
<path opacity="0.2" d="M270 487.18C381.639 487.18 472.14 481.897 472.14 475.38C472.14 468.863 381.639 463.58 270 463.58C158.361 463.58 67.8599 468.863 67.8599 475.38C67.8599 481.897 158.361 487.18 270 487.18Z" fill="url(#paint0_radial)"/>
</g>
<path d="M196.68 177.18C192.68 175.73 186.14 178.84 187.43 185.03C188.72 191.22 173.64 183.48 170.43 196.03C172.755 196.54 174.946 197.538 176.856 198.958C178.766 200.379 180.353 202.19 181.51 204.27C187 214.1 230.15 215.1 224 203C217.85 190.9 230.88 187.76 226.93 179.19C222.98 170.62 215.58 168.29 210.25 170.37C204.92 172.45 193.59 169.23 196.68 177.18Z" fill="#263238"/>
<path d="M224.29 217.72C226.69 216.97 229.29 216.13 231.72 215.24C234.15 214.35 236.67 213.46 239.11 212.48C243.953 210.568 248.669 208.351 253.23 205.84C253.78 205.55 254.46 205.16 254.61 205.05L255.07 204.69L255.56 204.22C256.305 203.425 256.959 202.55 257.51 201.61C258.783 199.46 259.877 197.209 260.78 194.88C261.78 192.49 262.64 190 263.43 187.48C264.22 184.96 265 182.38 265.68 179.86L269.96 180.55C269.508 186.111 268.54 191.618 267.07 197C266.289 199.817 265.241 202.552 263.94 205.17C263.232 206.625 262.363 207.997 261.35 209.26L260.44 210.26C260.135 210.62 259.8 210.954 259.44 211.26C258.802 211.763 258.134 212.227 257.44 212.65C252.692 215.669 247.698 218.281 242.51 220.46C237.388 222.682 232.127 224.569 226.76 226.11L224.29 217.72Z" fill="#FFAFA6"/>
<path d="M218.51 217.92C219.85 214.56 239.1 212.05 239.1 212.05L241.85 229.05C241.85 229.05 225.62 235.36 222.14 232.18C218.66 229 216.54 222.82 218.51 217.92Z" fill="#263238"/>
<path d="M265.11 178.79L263.62 171.88L271.46 175.62C271.46 175.62 271.78 181.09 268.76 182.91L268.01 182.53C267.282 182.158 266.644 181.63 266.143 180.983C265.642 180.337 265.289 179.588 265.11 178.79Z" fill="#FFAFA6"/>
<path d="M265.42 165.79L272.39 167.89L271.46 175.61L263.62 171.88L265.42 165.79Z" fill="#FFAFA6"/>
<path d="M178.25 411.58L185.56 416.1L196.96 401.85L190.7 396.17L178.25 411.58Z" fill="#FFAFA6"/>
<path d="M187.31 415.7L180.86 408.6C180.75 408.475 180.598 408.393 180.433 408.371C180.267 408.349 180.099 408.388 179.96 408.48L173.63 412.79C173.483 412.894 173.357 413.026 173.261 413.178C173.165 413.331 173.1 413.501 173.071 413.678C173.041 413.856 173.047 414.038 173.088 414.213C173.129 414.389 173.205 414.554 173.31 414.7L173.42 414.82C175.71 417.25 176.94 418.32 179.78 421.43C181.53 423.35 186.33 429.04 188.78 431.69C191.23 434.34 194 432.11 193.17 430.79C189.73 424.87 188.03 420.05 187.91 417.11C187.882 416.584 187.67 416.085 187.31 415.7Z" fill="#263238"/>
<g opacity="0.2">
<path opacity="0.2" d="M196.96 401.85L191.4 408.8L184.28 404.12L190.7 396.17L196.96 401.85Z" fill="black"/>
</g>
<path d="M232.31 218.41C232.31 218.41 236.36 219.91 227.41 269.85L192.75 269.3C193.55 255.2 193.75 246.49 187.53 217.43C192.349 216.509 197.229 215.941 202.13 215.73C207.376 215.445 212.636 215.535 217.87 216C224.67 216.71 232.31 218.41 232.31 218.41Z" fill="#263238"/>
<path opacity="0.2" d="M191.12 235.84C191.51 238.17 191.82 240.33 192.12 242.34C193.568 238.93 194.482 235.318 194.83 231.63L191.12 235.84Z" fill="black"/>
<path d="M204 198C204.91 203.08 205.75 212.38 202.15 215.73C202.15 215.73 203.45 220.94 212.87 221.04C223.21 221.21 217.87 215.99 217.87 215.99C212.24 214.55 212.46 210.36 213.51 206.44L204 198Z" fill="#FFAFA6"/>
<path d="M202.23 215.75C207.486 215.447 212.756 215.53 218 216L219 216.11C220.22 218.52 220.54 224.34 217.44 229.66C217.44 229.66 203.66 221.73 200.17 215.85C200.79 215.8 201.49 215.77 202.23 215.75Z" fill="#FFAFA6"/>
<path opacity="0.2" d="M207.92 201.47L213.56 206.47C213.3 207.38 213.12 208.31 213.02 209.25C210.88 208.91 207.95 206.49 207.75 204.25C207.63 203.321 207.688 202.378 207.92 201.47Z" fill="black"/>
<path d="M198.71 189.18C200.5 197.46 201.09 201 206.01 204.64C213.31 210.12 223.13 206.1 223.84 197.45C224.48 189.66 221.44 177.45 212.74 175.37C210.825 174.899 208.821 174.926 206.92 175.45C205.018 175.973 203.282 176.975 201.878 178.36C200.474 179.745 199.449 181.467 198.899 183.361C198.35 185.255 198.295 187.259 198.74 189.18H198.71Z" fill="#FFAFA6"/>
<path d="M198.92 178.61C202.4 178.84 206.49 180.61 205.5 185.36C204.51 190.11 200.69 186.98 202.08 193.91C203.47 200.84 190.67 196.83 192.6 190.47C194.53 184.11 193.58 178.27 198.92 178.61Z" fill="#263238"/>
<path d="M196.69 184C201.77 188.73 208.87 175.54 215.82 180.49C222.77 185.44 222.65 176.97 214.82 174.89C206.99 172.81 190.55 178.24 196.69 184Z" fill="#263238"/>
<path d="M227.41 269.85C227.41 269.85 231.08 319.51 230.1 345.53C229.1 372.64 194.53 407.24 194.53 407.24L185.6 400C185.37 400.11 210.6 355.22 209.23 341.61C206.1 312.71 202 269.4 202 269.4L227.41 269.85Z" fill="#407BFF"/>
<path d="M227.41 269.85C227.41 269.85 231.08 319.51 230.1 345.53C229.1 372.64 194.53 407.24 194.53 407.24L185.6 400C185.37 400.11 210.6 355.22 209.23 341.61C206.1 312.71 202 269.4 202 269.4L227.41 269.85Z" fill="#7CAAFF"/>
<path d="M183.29 401.67L194.81 408.79L197.93 405.64L185.3 397.2L183.29 401.67Z" fill="#241352"/>
<path opacity="0.2" d="M210.65 287.32C207.52 281.92 205.26 282.1 203.57 285.47C205 300.21 207.19 322.39 209.03 339.85C213.14 327.08 220.17 303.94 210.65 287.32Z" fill="black"/>
<path d="M125.55 357.64L128.29 365.72L148.02 362.32L145.28 354.24L125.55 357.64Z" fill="#FFAFA6"/>
<path d="M131.34 366.09L130 356.61C129.979 356.438 129.9 356.278 129.776 356.157C129.653 356.035 129.492 355.959 129.32 355.94L121.52 354.94C121.366 354.914 121.208 354.92 121.057 354.957C120.905 354.994 120.762 355.061 120.637 355.155C120.512 355.248 120.407 355.366 120.329 355.501C120.25 355.636 120.199 355.785 120.18 355.94C120.16 356.066 120.16 356.194 120.18 356.32C120.7 359.63 121.18 361.22 121.73 365.41C122.1 367.97 122.88 375.35 123.38 378.9C123.88 382.45 127.49 382.59 127.55 381.11C128.05 374.47 129.39 369.77 130.98 367.55C131.285 367.128 131.415 366.605 131.34 366.09Z" fill="#263238"/>
<g opacity="0.2">
<path opacity="0.2" d="M148.02 362.32L137.85 364.07L135.1 355.99L145.27 354.24L148.02 362.32Z" fill="black"/>
</g>
<path d="M217.87 269.74C217.87 269.74 213.13 316.24 202.06 340.12C197.27 350.47 141.27 364.47 141.27 364.47L136.37 354C135.61 354 168.15 335.46 178.97 331.45C180.153 331.009 181.202 330.271 182.018 329.308C182.834 328.345 183.389 327.189 183.63 325.95C189.08 298.5 192.49 269.32 192.49 269.32L217.87 269.74Z" fill="#407BFF"/>
<path d="M217.87 269.74C217.87 269.74 213.13 316.24 202.06 340.12C197.27 350.47 141.27 364.47 141.27 364.47L136.37 354C135.61 354 168.15 335.46 178.97 331.45C180.153 331.009 181.202 330.271 182.018 329.308C182.834 328.345 183.389 327.189 183.63 325.95C189.08 298.5 192.49 269.32 192.49 269.32L217.87 269.74Z" fill="#7CAAFF"/>
<path d="M135.75 353L139.99 365.85L144.59 365.98L140.17 350.83L135.75 353Z" fill="#241352"/>
<path d="M215.32 197.8C215.655 197.797 215.989 197.77 216.32 197.72C216.372 197.71 216.419 197.681 216.45 197.639C216.482 197.596 216.496 197.543 216.49 197.49C216.48 197.438 216.451 197.392 216.409 197.36C216.366 197.328 216.313 197.314 216.26 197.32C215.415 197.468 214.547 197.416 213.725 197.167C212.904 196.919 212.152 196.482 211.53 195.89C211.493 195.854 211.442 195.833 211.39 195.833C211.338 195.833 211.287 195.854 211.25 195.89C211.215 195.93 211.196 195.982 211.196 196.035C211.196 196.089 211.215 196.14 211.25 196.18C211.786 196.709 212.422 197.125 213.121 197.403C213.82 197.681 214.568 197.816 215.32 197.8Z" fill="#263238"/>
<path d="M197.63 197.19C198.429 198.62 199.764 199.674 201.34 200.12C203.42 200.69 204.46 198.81 203.87 196.84C203.34 195.07 201.61 192.67 199.51 192.93C198.784 193.048 198.134 193.449 197.703 194.045C197.272 194.641 197.095 195.384 197.21 196.11C197.27 196.496 197.414 196.865 197.63 197.19Z" fill="#FFAFA6"/>
<path d="M191.25 229C189.72 230.65 188.13 232.45 186.56 234.22C184.99 235.99 183.44 237.78 182.02 239.63C179.111 243.212 176.484 247.014 174.16 251L173.75 251.73C173.697 251.834 173.637 251.935 173.57 252.03C173.462 252.321 173.388 252.623 173.35 252.93C173.24 253.91 173.22 254.897 173.29 255.88C173.448 258.156 173.742 260.42 174.17 262.66C174.55 264.97 175.03 267.31 175.59 269.66C176.15 272.01 176.59 274.36 177.23 276.66L173.23 278.14C171.073 273.638 169.245 268.986 167.76 264.22C166.989 261.743 166.397 259.213 165.99 256.65C165.77 255.218 165.68 253.769 165.72 252.32C165.761 251.416 165.908 250.52 166.16 249.65C166.238 249.378 166.332 249.111 166.44 248.85C166.58 248.52 166.63 248.41 166.7 248.26L167.13 247.37C168.241 245.035 169.5 242.774 170.9 240.6C172.25 238.42 173.74 236.43 175.24 234.34C178.233 230.284 181.493 226.432 185 222.81L191.25 229Z" fill="#FFAFA6"/>
<path d="M187.54 217.43C183.99 218.15 177.27 229.35 177.27 229.35L188.74 240.35C188.74 240.35 197.15 233.3 197 228.59C196.84 223.69 191.6 216.57 187.54 217.43Z" fill="#263238"/>
<path d="M192.26 267.26L191.32 270.39C191.19 270.63 191.47 270.88 191.88 270.89L227.56 271.46C227.87 271.46 228.13 271.31 228.15 271.12L228.52 267.99C228.52 267.77 228.27 267.58 227.92 267.58L192.85 267C192.737 266.981 192.621 266.996 192.516 267.042C192.412 267.088 192.322 267.164 192.26 267.26Z" fill="#FAFAFA"/>
<path d="M196.91 271.26H196C195.81 271.26 195.67 271.16 195.68 271.04L196.2 267.04C196.2 266.92 196.37 266.83 196.56 266.83H197.5C197.69 266.83 197.82 266.93 197.81 267.06L197.3 271.06C197.26 271.17 197.09 271.26 196.91 271.26Z" fill="#407BFF"/>
<path d="M196.91 271.26H196C195.81 271.26 195.67 271.16 195.68 271.04L196.2 267.04C196.2 266.92 196.37 266.83 196.56 266.83H197.5C197.69 266.83 197.82 266.93 197.81 267.06L197.3 271.06C197.26 271.17 197.09 271.26 196.91 271.26Z" fill="#7CAAFF"/>
<path d="M224.91 271.71H224C223.81 271.71 223.68 271.62 223.69 271.49L224.2 267.49C224.2 267.37 224.38 267.28 224.56 267.28H225.5C225.69 267.28 225.84 267.38 225.81 267.5L225.31 271.5C225.25 271.62 225.1 271.71 224.91 271.71Z" fill="#407BFF"/>
<path d="M224.91 271.71H224C223.81 271.71 223.68 271.62 223.69 271.49L224.2 267.49C224.2 267.37 224.38 267.28 224.56 267.28H225.5C225.69 267.28 225.84 267.38 225.81 267.5L225.31 271.5C225.25 271.62 225.1 271.71 224.91 271.71Z" fill="#7CAAFF"/>
<path d="M210.91 271.48H210C209.81 271.48 209.67 271.38 209.69 271.26L210.19 267.26C210.215 267.188 210.265 267.127 210.331 267.089C210.397 267.05 210.475 267.036 210.55 267.05H211.5C211.69 267.05 211.82 267.15 211.81 267.27L211.3 271.27C211.26 271.39 211.1 271.48 210.91 271.48Z" fill="#407BFF"/>
<path d="M210.91 271.48H210C209.81 271.48 209.67 271.38 209.69 271.26L210.19 267.26C210.215 267.188 210.265 267.127 210.331 267.089C210.397 267.05 210.475 267.036 210.55 267.05H211.5C211.69 267.05 211.82 267.15 211.81 267.27L211.3 271.27C211.26 271.39 211.1 271.48 210.91 271.48Z" fill="#7CAAFF"/>
<path d="M177.34 276L182.55 283.62L173.92 282.73C173.92 282.73 171.83 277.67 174 274.91L177.34 276Z" fill="#FFAFA6"/>
<path d="M182.05 290.77L174.87 289.63L173.9 282.71L182.53 283.61L182.05 290.77Z" fill="#FFAFA6"/>
<path d="M333.4 206.14L332.16 206.74L331.01 207.25C330.25 207.57 329.49 207.87 328.72 208.17C327.18 208.75 325.64 209.28 324.07 209.76C320.884 210.73 317.623 211.429 314.32 211.85C310.876 212.27 307.394 212.27 303.95 211.85C302.138 211.634 300.35 211.249 298.61 210.7C298.17 210.58 297.72 210.41 297.28 210.26L296.63 210.02L295.88 209.7C295.385 209.496 294.903 209.259 294.44 208.99C293.98 208.74 293.53 208.49 293.13 208.22C291.594 207.206 290.166 206.037 288.87 204.73C287.667 203.542 286.531 202.287 285.47 200.97C283.477 198.453 281.653 195.808 280.01 193.05C276.801 187.708 274.077 182.088 271.87 176.26L277.22 173.66C278.8 176.08 280.43 178.66 282.14 180.95C283.85 183.24 285.54 185.73 287.35 187.95C289.076 190.188 290.933 192.321 292.91 194.34C294.599 196.18 296.55 197.76 298.7 199.03C300.699 199.95 302.869 200.44 305.07 200.47C307.624 200.593 310.183 200.428 312.7 199.98C315.36 199.528 317.987 198.893 320.56 198.08C321.893 197.68 323.193 197.24 324.46 196.76C325.1 196.52 325.74 196.26 326.36 196.01L327.29 195.63L328.1 195.28L333.4 206.14Z" fill="#FFAFA6"/>
<path d="M277.67 176.49L277.15 168.44L270.07 175.84C270.07 175.84 271.91 181.43 275.67 182.09L276.27 181.41C276.851 180.744 277.278 179.957 277.52 179.107C277.762 178.256 277.813 177.363 277.67 176.49Z" fill="#FFAFA6"/>
<path d="M272.22 163.63L266.09 168.49L270.06 175.84L277.15 168.44L272.22 163.63Z" fill="#FFAFA6"/>
<path d="M377.15 194.68C379.07 196.93 380.68 199.1 382.37 201.38C384.06 203.66 385.56 205.98 387.05 208.38C390.13 213.239 392.717 218.395 394.77 223.77L395.49 225.92L395.67 226.45L395.75 226.72L395.87 227.13C396.025 227.693 396.135 228.269 396.2 228.85C396.401 230.712 396.31 232.595 395.93 234.43C395.311 237.411 394.348 240.311 393.06 243.07C390.709 248.202 387.82 253.069 384.44 257.59L379.23 254.59C380.16 252.18 381.12 249.68 381.97 247.22C382.82 244.76 383.65 242.3 384.32 239.92C384.981 237.656 385.43 235.336 385.66 232.99C385.742 232.168 385.698 231.338 385.53 230.53C385.516 230.437 385.482 230.348 385.43 230.27V230.2L385.35 229.99L385.17 229.58L384.48 227.93C382.33 223.392 379.829 219.029 377 214.88C375.58 212.79 374.08 210.64 372.57 208.53C371.06 206.42 369.44 204.36 367.94 202.4L377.15 194.68Z" fill="#FFAFA6"/>
<path d="M378.43 255L374.05 261.77L384.14 260C384.14 260 386 254.41 383.37 251.66L382.48 251.85C381.612 252.038 380.797 252.418 380.096 252.964C379.395 253.509 378.825 254.205 378.43 255Z" fill="#FFAFA6"/>
<path d="M375.16 268.54L382.98 268.3L384.16 260.02L374.07 261.74L375.16 268.54Z" fill="#FFAFA6"/>
<path d="M356.84 170.36C357.08 176.9 355.2 184.96 359.37 188.54C359.37 188.54 357.96 194.54 347.19 195.28C335.35 196.09 341.35 189.78 341.35 189.78C347.78 187.78 347.46 182.99 346.2 178.55L356.84 170.36Z" fill="#E2A6A1"/>
<path d="M362.28 190.37C363.07 188.44 363.82 185.52 361.87 184.98C359.72 184.4 348.92 183.27 341.02 186.4C341.506 187.274 341.802 188.24 341.888 189.236C341.974 190.232 341.849 191.236 341.52 192.18L362.28 190.37Z" fill="black"/>
<path d="M371.32 451.22L363.78 453.73L357.89 436.31L365.42 433.8L371.32 451.22Z" fill="#FFAFA6"/>
<path d="M420.82 423.35L413.98 427.39L401.81 413.21L408.66 409.18L420.82 423.35Z" fill="#FFAFA6"/>
<path d="M413.05 426.86L420.73 422.33C420.866 422.253 421.025 422.225 421.179 422.251C421.334 422.276 421.475 422.354 421.58 422.47L426.28 427.9C426.382 428.023 426.459 428.166 426.506 428.319C426.552 428.472 426.567 428.633 426.551 428.793C426.534 428.952 426.485 429.107 426.408 429.247C426.33 429.387 426.226 429.511 426.1 429.61L425.95 429.72C423.24 431.26 421.85 431.87 418.46 433.89C416.38 435.11 412.21 437.89 409.35 439.55C406.49 441.21 404.54 438.55 405.58 437.6C410.21 433.32 411.32 430.52 412.17 427.98C412.316 427.511 412.629 427.112 413.05 426.86Z" fill="#263238"/>
<path d="M363.57 452.84L371.8 450.08C371.948 450.031 372.109 450.037 372.253 450.095C372.398 450.154 372.517 450.262 372.59 450.4L376.05 456.65C376.126 456.787 376.174 456.938 376.191 457.093C376.209 457.249 376.195 457.407 376.151 457.557C376.108 457.708 376.035 457.848 375.937 457.971C375.839 458.093 375.717 458.195 375.58 458.27C375.511 458.31 375.437 458.34 375.36 458.36C372.36 459.31 368.06 460.56 364.36 461.8C359.99 463.26 356.28 466.02 350.94 466.8C347.72 467.26 346.47 464.13 347.82 463.67C353.82 461.42 357.82 458.91 362 454.03C362.405 453.498 362.948 453.086 363.57 452.84Z" fill="#263238"/>
<path d="M373.12 189.17C380.69 189.42 392.22 207.83 392.22 207.83L379.15 220.83C374.659 216.27 370.546 211.354 366.85 206.13C361.08 197.8 365.38 188.92 373.12 189.17Z" fill="#00D4A4"/>
<path opacity="0.2" d="M373.65 207.85L369.72 199.17L368 207.81C370.28 210.94 372.68 213.81 374.66 216.07C375.155 213.291 374.803 210.427 373.65 207.85Z" fill="black"/>
<path d="M327.61 228C328.27 236.84 329.56 247.81 331.78 261.36L374.15 258.46C374.25 251.92 369.22 220.39 374.57 189.23C369.85 188.647 365.096 188.373 360.34 188.41C354.321 188.47 348.311 188.881 342.34 189.64C338.228 190.325 334.176 191.328 330.22 192.64C330.22 192.64 326.86 196.81 327.03 215.29C327.08 219 327.25 223.23 327.61 228Z" fill="#00D4A4"/>
<path opacity="0.2" d="M327.61 228C329.85 223.15 333.87 213.4 332.83 208.14L327.03 215.33C327.08 219 327.25 223.23 327.61 228Z" fill="black"/>
<path d="M338.63 205.64C336.26 212.82 321.09 219.7 321.09 219.7L308.57 199.89C314.816 196.813 321.41 194.5 328.21 193C339.17 190.86 341.31 197.56 338.63 205.64Z" fill="#00D4A4"/>
<path d="M357.89 436.32L360.92 445.3L368.46 442.79L365.43 433.81L357.89 436.32Z" fill="#E2A6A1"/>
<path d="M408.66 409.18L401.82 413.22L408.09 420.52L414.93 416.48L408.66 409.18Z" fill="#E2A6A1"/>
<path d="M360.42 161.18C359.42 169.02 359.2 173.64 354.96 177.55C353.602 178.839 351.916 179.732 350.086 180.131C348.256 180.53 346.352 180.42 344.58 179.813C342.809 179.206 341.237 178.125 340.037 176.687C338.836 175.25 338.052 173.511 337.77 171.66C336.56 164.54 338.43 152.89 346.35 150.03C348.041 149.349 349.883 149.127 351.688 149.388C353.493 149.649 355.196 150.383 356.625 151.516C358.055 152.648 359.159 154.139 359.825 155.836C360.491 157.534 360.697 159.377 360.42 161.18Z" fill="#FFAFA6"/>
<path d="M347.76 177C349.85 179.4 356.91 178.38 358.39 177.15C359.87 175.92 373.66 167.76 370.45 160.82C367.24 153.88 349.03 149.82 346.74 155.91C344.45 162 345.61 174.45 347.76 177Z" fill="#241352"/>
<path d="M350.08 157.83C341.88 157.27 325.56 145.17 337.75 139.06C349.94 132.95 349.64 144.66 354.55 147.64C359.46 150.62 361.85 144.74 367.66 147.01C373.2 149.18 375.72 161.69 366.41 160.5C357.1 159.31 350.08 157.83 350.08 157.83Z" fill="#241352"/>
<path d="M349.66 163.14C349.08 165.041 347.91 166.708 346.32 167.9C344.23 169.47 342.71 167.97 342.92 165.63C343.1 163.54 344.44 160.19 346.73 159.54C349.02 158.89 350.28 160.85 349.66 163.14Z" fill="#FFAFA6"/>
<path d="M346.84 260.36C346.84 260.36 357.64 320.44 363.25 342.83C369.4 367.37 404 420.75 404 420.75L416.51 413.36C416.51 413.36 390.86 367.91 387.04 343.51C382.87 316.98 374.14 258.51 374.14 258.51L346.84 260.36Z" fill="#7CAAFF"/>
<path d="M399.49 417.24C399.43 417.24 403.43 421.41 403.43 421.41L417.52 413.07L414.92 408.85L399.49 417.24Z" fill="#241352"/>
<path opacity="0.2" d="M353.17 281.63C363.59 283 363.67 321.9 363 342C359.58 328.08 354.38 301.19 350.81 282.09C351.521 281.672 352.354 281.51 353.17 281.63Z" fill="black"/>
<path d="M331.81 261.4C331.81 261.4 332.49 320.83 334.08 345.01C335.68 370.16 357.58 444.47 357.58 444.47L370.34 440.21C370.34 440.21 358.42 370.08 358.27 345.34C358.13 318.34 359.63 259.55 359.63 259.55L331.81 261.4Z" fill="#7CAAFF"/>
<path d="M353.66 440.15C353.59 440.15 355.94 445.27 355.94 445.27L371.45 440.05L371.32 433.87L353.66 440.15Z" fill="#241352"/>
<path d="M251.536 154.381L250.541 155.249L255.156 160.539L256.15 159.671L251.536 154.381Z" fill="#00D4A4"/>
<path d="M257.325 138.007L256.084 138.456L262.806 157.037L264.048 156.588L257.325 138.007Z" fill="#00D4A4"/>
<path d="M271.921 143.171L271.216 154.659L272.534 154.74L273.238 143.252L271.921 143.171Z" fill="#00D4A4"/>
<path d="M285.122 142.274L278.344 156.024L279.528 156.608L286.306 142.858L285.122 142.274Z" fill="#00D4A4"/>
<path d="M288.859 156.805L284.896 158.448L285.402 159.667L289.365 158.025L288.859 156.805Z" fill="#00D4A4"/>
<path d="M434.24 145.67C428.57 140.22 426.42 131.74 431.83 125.2C436.92 119.04 446.77 117.74 453.13 122.65C468.49 134.5 452.48 156.37 435.91 151.84C432.84 151 433.61 146.63 436.64 146.46C441.49 146.18 446.64 146 450.54 142.6C452.47 140.832 453.637 138.383 453.794 135.77C453.951 133.157 453.085 130.586 451.38 128.6C442.38 117.49 426.66 133.85 436.15 143.78C436.375 144.038 436.493 144.372 436.481 144.715C436.469 145.057 436.327 145.382 436.084 145.624C435.841 145.865 435.515 146.005 435.173 146.016C434.831 146.026 434.497 145.906 434.24 145.68V145.67Z" fill="#7CAAFF"/>
<path d="M53.7098 261C52.4298 263.38 50.8398 265.36 50.6298 268.14C50.1898 273.67 54.2798 275.27 58.7898 276.07C63.2998 276.87 67.2698 278.25 69.7198 282.54C73.5398 289.24 69.7798 299.77 61.3698 299.73C58.6398 299.73 58.5298 296.27 59.9998 294.81C61.9998 292.76 65.0898 291.08 64.6098 287.63C63.9598 283.02 59.2098 282.92 55.6998 282.13C53.8415 281.78 52.0764 281.047 50.5166 279.978C48.9568 278.909 47.6366 277.527 46.6398 275.92C43.1298 270.11 44.6398 260.54 52.0698 258.92C52.3347 258.885 52.6042 258.919 52.8518 259.02C53.0994 259.12 53.3166 259.283 53.482 259.493C53.6475 259.703 53.7555 259.952 53.7954 260.217C53.8354 260.481 53.8059 260.751 53.7098 261Z" fill="#7E2E83"/>
<path d="M454.16 271.63C454.82 267.3 459.31 258.15 464.04 256.89C466.56 256.22 468.43 257.89 470.39 259.22C473.94 261.67 477.45 264.17 480.96 266.68C481.64 267.094 482.134 267.756 482.337 268.526C482.54 269.296 482.437 270.114 482.05 270.81L472.72 285.16C472.309 285.844 471.648 286.341 470.876 286.545C470.105 286.749 469.284 286.643 468.59 286.25C464.71 283.5 460.51 280.97 457.01 277.75C454.61 275.53 457.67 271.9 460.41 273.35C464.41 275.45 467.97 278.44 471.64 281.03L467.51 282.12C470.623 277.327 473.73 272.54 476.83 267.76C477.19 269.14 477.56 270.51 477.92 271.89C475.81 270.39 473.69 268.89 471.59 267.38C470.4 266.53 466.41 262.79 465.08 262.94C463.9 263.08 461.41 267.3 460.68 268.17C459.3 269.974 457.678 271.579 455.86 272.94C454.93 273.57 454.02 272.53 454.16 271.63V271.63Z" fill="#FFD300"/>
<path d="M182.675 106.455C174.595 102.705 166.675 98.7352 158.675 94.6652C158.248 94.4913 157.874 94.2108 157.586 93.8506C157.299 93.4903 157.109 93.0623 157.035 92.6076C156.961 92.1529 157.005 91.6868 157.162 91.2538C157.32 90.8209 157.586 90.4357 157.935 90.1352C163.755 84.1352 169.485 78.1352 175.735 72.5252C176.029 72.2949 176.372 72.1343 176.737 72.0555C177.102 71.9768 177.48 71.9819 177.843 72.0704C178.206 72.159 178.544 72.3287 178.832 72.5668C179.12 72.8049 179.35 73.1053 179.505 73.4452C183.385 81.9052 189.275 93.4452 187.665 103.055C187.255 105.495 183.525 106.605 182.525 103.885C180.965 99.6252 180.975 94.8852 179.975 90.4052C178.891 85.2372 177.234 80.2062 175.035 75.4052L179.255 75.8452C173.555 82.2952 167.395 88.2252 161.255 94.2252C161.255 92.8252 161.175 91.4351 161.145 90.0351C168.915 94.3951 176.625 98.8351 184.225 103.495C185.825 104.495 184.375 107.245 182.645 106.435L182.675 106.455Z" fill="#FF7180"/>
<path d="M296.89 46.72C302.972 53.3095 308.451 60.4313 313.26 68C314.71 70.36 311.14 73.06 309.32 70.91C303.637 63.9651 298.587 56.5254 294.23 48.68C294.008 48.3255 293.927 47.9004 294.003 47.489C294.079 47.0776 294.307 46.7097 294.642 46.4583C294.976 46.2068 295.393 46.09 295.809 46.1311C296.225 46.1722 296.611 46.3681 296.89 46.68V46.72Z" fill="#FF7180"/>
<defs>
<radialGradient id="paint0_radial" cx="0" cy="0" r="1" gradientUnits="userSpaceOnUse" gradientTransform="translate(270 475.38) scale(143.18)">
<stop stop-opacity="0.6"/>
<stop offset="1" stop-opacity="0"/>
</radialGradient>
</defs>
</svg>
