<svg width="540" height="540" viewBox="0 0 540 540" fill="none" xmlns="http://www.w3.org/2000/svg">
<rect y="285" width="540" height="230" fill="#3C3B40"/>
<path d="M198.879 431.09C199.27 430.075 199.401 428.933 199.401 427.791C199.401 426.648 199.14 425.506 198.879 424.491L203.71 418.018C204.624 416.749 204.363 414.972 203.057 413.957C201.751 413.069 199.923 413.322 198.879 414.592L195.092 419.668C193.394 418.526 191.435 417.891 189.215 417.891C186.995 417.891 184.906 418.526 183.339 419.795L179.552 414.718C178.638 413.449 176.679 413.195 175.373 414.084C174.068 414.972 173.806 416.876 174.721 418.145L179.552 424.618C179.16 425.633 179.03 426.775 179.03 427.918C179.03 429.06 179.291 430.202 179.552 431.217L174.59 437.563C173.676 438.832 173.937 440.609 175.243 441.624C175.765 442.005 176.418 442.132 176.94 442.132C177.855 442.132 178.769 441.751 179.291 440.99L183.078 435.913C184.776 437.055 186.865 437.817 188.954 437.817C191.174 437.817 193.263 437.182 194.83 435.913L198.617 440.99C199.14 441.751 200.054 442.132 200.968 442.132C201.621 442.132 202.143 442.005 202.665 441.624C203.971 440.736 204.232 438.832 203.318 437.563L198.879 431.09ZM192.48 432.36C191.566 432.994 190.391 433.375 189.215 433.375C188.04 433.375 186.865 432.994 185.951 432.36C184.514 431.344 183.47 429.694 183.47 427.791C183.47 425.887 184.384 424.237 185.951 423.222C186.865 422.587 188.04 422.206 189.215 422.206C190.391 422.206 191.566 422.587 192.48 423.222C193.916 424.237 194.961 425.887 194.961 427.791C194.961 429.694 193.916 431.344 192.48 432.36Z" fill="white"/>
<path d="M192.219 427.791C192.219 428.806 191.696 429.694 190.913 430.202C190.391 430.583 189.868 430.71 189.215 430.71C188.562 430.71 188.04 430.456 187.518 430.202C186.734 429.694 186.212 428.806 186.212 427.791C186.212 426.775 186.734 426.014 187.518 425.379C188.04 424.998 188.562 424.872 189.215 424.872C189.868 424.872 190.391 425.125 190.913 425.379C191.696 426.014 192.219 426.902 192.219 427.791Z" fill="white"/>
<path d="M219.903 437.055C218.597 436.548 217.683 435.913 216.899 435.025C216.116 434.136 215.724 432.994 215.724 431.725V431.09H219.903V431.598C219.903 432.36 220.295 433.121 221.078 433.502C221.862 434.009 222.906 434.263 224.212 434.263C225.648 434.263 226.693 434.136 227.346 433.756C227.999 433.375 228.26 432.867 228.26 432.233C228.26 431.725 227.999 431.217 227.607 430.837C227.215 430.456 226.693 430.202 226.04 429.948C225.387 429.694 224.604 429.441 223.429 429.187C221.862 428.806 220.556 428.298 219.642 427.918C218.728 427.537 217.813 426.902 217.161 426.141C216.508 425.379 216.116 424.364 216.116 423.095C216.116 421.318 216.899 420.049 218.336 419.16C219.772 418.272 221.731 417.764 224.081 417.764C226.301 417.764 228.26 418.272 229.697 419.16C231.133 420.049 231.917 421.572 231.917 423.349V423.729H227.738V423.602C227.738 422.841 227.346 422.333 226.693 421.953C226.04 421.572 225.126 421.318 223.951 421.318C222.776 421.318 221.862 421.445 221.209 421.826C220.556 422.079 220.295 422.587 220.295 423.095C220.295 423.476 220.425 423.856 220.817 424.237C221.209 424.491 221.731 424.745 222.253 424.999C222.776 425.252 223.69 425.379 224.734 425.76C226.301 426.141 227.607 426.521 228.652 427.029C229.697 427.41 230.48 428.044 231.264 428.806C232.047 429.567 232.308 430.583 232.308 431.852C232.308 433.883 231.525 435.405 230.088 436.421C228.521 437.436 226.563 437.817 223.951 437.817C222.514 437.69 221.078 437.563 219.903 437.055Z" fill="white"/>
<path d="M235.703 418.272H245.105C247.325 418.272 249.023 418.78 250.067 419.922C251.243 421.064 251.765 422.587 251.765 424.491C251.765 426.522 251.243 428.044 250.067 429.187C248.892 430.329 247.194 430.837 244.844 430.837H239.882V437.436H235.703V418.272ZM244.713 427.41C245.627 427.41 246.28 427.156 246.803 426.648C247.325 426.141 247.586 425.379 247.586 424.491C247.586 423.602 247.325 422.841 246.803 422.46C246.28 421.953 245.627 421.699 244.713 421.699H239.882V427.41H244.713Z" fill="white"/>
<path d="M254.899 418.272H259.078V437.436H254.899V418.272Z" fill="white"/>
<path d="M262.865 418.272H271.092C274.095 418.272 276.445 419.034 278.012 420.683C279.71 422.333 280.494 424.618 280.494 427.918C280.494 431.09 279.71 433.502 278.012 435.152C276.315 436.802 274.095 437.563 271.092 437.563H262.865V418.272ZM270.961 434.009C272.659 434.009 273.964 433.502 274.748 432.486C275.662 431.471 276.054 430.075 276.054 428.298V427.41C276.054 425.633 275.662 424.11 274.748 423.222C273.834 422.206 272.659 421.699 270.961 421.699H266.913V434.009H270.961Z" fill="white"/>
<path d="M283.628 418.272H299.167V421.699H287.807V425.887H297.862V429.314H287.807V434.009H299.298V437.436H283.628V418.272Z" fill="white"/>
<path d="M302.824 418.272H313.27C315.49 418.272 317.188 418.78 318.233 419.795C319.408 420.81 319.93 422.333 319.93 424.237C319.93 426.902 318.755 428.679 316.535 429.567L320.583 437.309H316.013L312.487 430.202H307.002V437.309H302.824V418.272ZM312.879 426.902C313.793 426.902 314.446 426.648 314.968 426.141C315.49 425.633 315.752 424.999 315.752 424.237C315.752 423.476 315.49 422.841 314.968 422.333C314.446 421.826 313.793 421.699 312.879 421.699H307.002V426.902H312.879Z" fill="white"/>
<path d="M336.253 418.272H341.476L349.181 437.436H344.61L343.174 433.756H334.163L332.727 437.436H328.548L336.253 418.272ZM341.998 430.329L340.17 425.506C340.04 425.125 339.779 424.491 339.517 423.602C339.256 422.714 338.995 422.08 338.995 421.826H338.864C338.734 422.08 338.603 422.714 338.342 423.602C338.081 424.491 337.82 425.125 337.689 425.506L335.861 430.329H341.998Z" fill="white"/>
<path d="M351.27 418.272H365.504V421.699H355.318V426.395H364.329V429.821H355.318V437.436H351.14V418.272H351.27Z" fill="white"/>
<g clip-path="url(#clip0)">
<path d="M156.556 380.548C156.005 380.548 155.464 380.392 154.994 380.099C154.524 379.806 154.142 379.387 153.892 378.887C153.642 378.388 153.533 377.829 153.577 377.27C153.621 376.712 153.816 376.177 154.141 375.724L161.494 365.463L154.137 355.201C153.67 354.55 153.477 353.737 153.6 352.941C153.724 352.145 154.154 351.432 154.795 350.958C155.437 350.484 156.238 350.288 157.022 350.413C157.806 350.538 158.509 350.975 158.976 351.626L166.583 362.243C167.257 363.178 167.62 364.306 167.62 365.465C167.62 366.623 167.257 367.752 166.583 368.687L158.976 379.299C158.698 379.687 158.334 380.002 157.914 380.219C157.493 380.436 157.028 380.549 156.556 380.548Z" fill="white"/>
<path d="M180.969 380.548C180.496 380.55 180.029 380.437 179.608 380.219C179.187 380.001 178.822 379.684 178.545 379.296L170.958 368.687C170.285 367.752 169.921 366.624 169.921 365.465C169.921 364.307 170.285 363.178 170.958 362.243L178.566 351.626C179.033 350.975 179.736 350.539 180.519 350.413C181.303 350.288 182.104 350.484 182.746 350.958C183.388 351.432 183.817 352.146 183.941 352.941C184.064 353.737 183.871 354.55 183.404 355.201L176.027 365.463L183.384 375.725C183.708 376.177 183.904 376.712 183.947 377.271C183.991 377.829 183.882 378.389 183.632 378.888C183.382 379.387 183.001 379.806 182.531 380.1C182.061 380.393 181.52 380.548 180.969 380.548Z" fill="white"/>
<path d="M199.586 375.144C198.41 374.728 197.368 373.994 196.571 373.022C195.81 372.06 195.411 370.856 195.443 369.623L195.472 368.98H199.714L199.685 369.447C199.679 369.86 199.78 370.266 199.978 370.626C200.176 370.986 200.464 371.287 200.813 371.498C201.561 372.008 202.61 372.258 203.956 372.258C205.379 372.258 206.425 372.07 207.046 371.686C207.329 371.545 207.568 371.326 207.736 371.055C207.904 370.783 207.994 370.47 207.996 370.149C208.001 369.881 207.948 369.614 207.841 369.369C207.734 369.124 207.575 368.905 207.375 368.729C206.922 368.323 206.393 368.015 205.82 367.823C205.194 367.597 204.33 367.33 203.236 367.017C201.952 366.66 200.69 366.23 199.455 365.726C198.503 365.32 197.657 364.693 196.986 363.897C196.262 362.994 195.891 361.852 195.945 360.689C195.911 359.858 196.097 359.032 196.484 358.297C196.87 357.563 197.443 356.947 198.142 356.513C199.602 355.555 201.543 355.076 203.968 355.076C206.259 355.076 208.129 355.569 209.58 356.555C211.031 357.54 211.758 359.02 211.761 360.994V361.345H207.577V361.082C207.581 360.725 207.491 360.374 207.316 360.065C207.14 359.755 206.887 359.499 206.581 359.324C205.759 358.854 204.823 358.631 203.882 358.68C202.928 358.632 201.976 358.801 201.096 359.177C200.819 359.285 200.58 359.473 200.408 359.718C200.236 359.964 200.139 360.255 200.13 360.556C200.132 360.781 200.185 361.003 200.286 361.203C200.386 361.404 200.531 361.578 200.71 361.713C201.14 362.06 201.627 362.327 202.15 362.502C202.73 362.707 203.544 362.957 204.618 363.25C205.936 363.595 207.231 364.02 208.498 364.523C209.495 364.936 210.388 365.571 211.111 366.382C211.866 367.277 212.257 368.429 212.205 369.606C212.205 371.753 211.451 373.334 209.942 374.351C208.434 375.367 206.37 375.875 203.75 375.875C202.33 375.888 200.92 375.641 199.586 375.144Z" fill="white"/>
<path d="M373.213 375.144C372.037 374.728 370.995 373.994 370.198 373.022C369.437 372.06 369.038 370.856 369.07 369.623L369.099 368.98H373.341L373.312 369.447C373.306 369.86 373.407 370.266 373.605 370.626C373.803 370.986 374.091 371.287 374.439 371.498C375.188 372.008 376.237 372.258 377.583 372.258C379.006 372.258 380.051 372.07 380.673 371.686C380.956 371.545 381.195 371.326 381.363 371.055C381.531 370.783 381.621 370.47 381.623 370.149C381.628 369.881 381.575 369.614 381.468 369.369C381.361 369.124 381.202 368.905 381.002 368.729C380.549 368.323 380.02 368.015 379.447 367.823C378.821 367.597 377.957 367.33 376.863 367.017C375.579 366.66 374.317 366.23 373.082 365.726C372.13 365.32 371.284 364.693 370.613 363.897C369.889 362.994 369.518 361.852 369.572 360.689C369.538 359.858 369.724 359.032 370.11 358.297C370.497 357.563 371.069 356.947 371.769 356.513C373.231 355.555 375.173 355.076 377.595 355.076C379.885 355.076 381.756 355.569 383.207 356.555C384.658 357.54 385.385 359.02 385.388 360.994V361.345H381.203V361.082C381.208 360.725 381.118 360.374 380.943 360.065C380.767 359.755 380.514 359.499 380.208 359.324C379.386 358.854 378.45 358.631 377.509 358.68C376.555 358.632 375.603 358.801 374.723 359.177C374.446 359.285 374.207 359.473 374.035 359.718C373.863 359.964 373.766 360.255 373.756 360.556C373.759 360.781 373.812 361.003 373.913 361.203C374.013 361.404 374.158 361.578 374.337 361.713C374.767 362.06 375.254 362.327 375.777 362.502C376.357 362.707 377.171 362.957 378.245 363.25C379.562 363.595 380.858 364.02 382.125 364.523C383.122 364.936 384.015 365.571 384.738 366.382C385.492 367.277 385.884 368.429 385.832 369.606C385.832 371.753 385.078 373.334 383.569 374.351C382.061 375.367 380.003 375.875 377.398 375.875C375.971 375.891 374.553 375.643 373.213 375.144Z" fill="white"/>
<path d="M215.414 355.414H224.857C227.07 355.414 228.735 355.987 229.851 357.131C230.968 358.275 231.525 359.89 231.522 361.976C231.522 364.069 230.94 365.696 229.777 366.854C228.614 368.012 226.878 368.593 224.569 368.595H219.598V375.512H215.414V355.414ZM224.466 364.995C224.848 365.021 225.231 364.964 225.589 364.827C225.948 364.69 226.273 364.477 226.544 364.202C227.057 363.582 227.315 362.784 227.264 361.976C227.313 361.181 227.054 360.399 226.544 359.796C226.27 359.525 225.944 359.317 225.586 359.183C225.228 359.049 224.846 358.993 224.466 359.019H219.598V364.995H224.466Z" fill="white"/>
<path d="M234.661 355.414H238.845V375.512H234.661V355.414Z" fill="white"/>
<path d="M242.685 355.414H250.88C253.898 355.414 256.229 356.25 257.875 357.92C259.521 359.591 260.344 362.105 260.344 365.463C260.344 368.821 259.521 371.335 257.875 373.006C256.229 374.676 253.898 375.512 250.88 375.512H242.685V355.414ZM250.88 371.907C252.573 371.907 253.857 371.385 254.732 370.341C255.606 369.297 256.044 367.817 256.044 365.902V365.045C256.044 363.133 255.606 361.653 254.732 360.606C253.857 359.559 252.573 359.037 250.88 359.04H246.869V371.928L250.88 371.907Z" fill="white"/>
<path d="M263.532 355.414H279.085V359.019H267.7V363.442H277.801V367.046H267.7V371.907H279.245V375.512H263.532V355.414Z" fill="white"/>
<path d="M282.767 355.414H293.271C295.482 355.414 297.146 355.971 298.262 357.085C299.378 358.199 299.936 359.738 299.936 361.704C299.936 364.519 298.782 366.394 296.472 367.33L300.512 375.503H295.987L292.494 367.986H286.951V375.503H282.767V355.414ZM292.893 364.469C293.266 364.492 293.641 364.439 293.994 364.312C294.348 364.186 294.672 363.989 294.95 363.734C295.199 363.464 295.392 363.146 295.516 362.799C295.641 362.451 295.694 362.082 295.674 361.713C295.696 361.348 295.643 360.982 295.518 360.639C295.393 360.296 295.2 359.983 294.95 359.72C294.38 359.223 293.642 358.971 292.893 359.019H286.951V364.469H292.893Z" fill="white"/>
<path d="M311.621 355.414H315.805V371.82H326.503V375.512H311.621V355.414Z" fill="white"/>
<path d="M335.123 355.414H340.377L348.112 375.512H343.537L342.117 371.673H333.119L331.708 375.512H327.379L335.123 355.414ZM340.809 368.128L338.933 363.032C338.779 362.623 338.558 361.939 338.27 360.982L337.694 359.077H337.55C337.451 359.392 337.258 360.027 336.97 360.982C336.682 361.937 336.461 362.62 336.308 363.032L334.431 368.128H340.809Z" fill="white"/>
<path d="M350.086 355.414H361.43C362.407 355.402 363.374 355.618 364.256 356.045C365.067 356.434 365.756 357.042 366.248 357.803C366.751 358.634 367.002 359.597 366.969 360.572C366.936 361.546 366.621 362.489 366.063 363.283C365.476 364.07 364.664 364.654 363.738 364.954V365.07C364.819 365.266 365.791 365.861 366.466 366.741C367.168 367.634 367.541 368.748 367.519 369.89C367.519 371.708 366.946 373.1 365.799 374.067C364.561 375.065 363.01 375.579 361.43 375.516H350.086V355.414ZM360.245 363.442C360.896 363.483 361.537 363.268 362.035 362.84C362.249 362.646 362.419 362.406 362.532 362.137C362.645 361.869 362.698 361.578 362.689 361.287C362.724 360.981 362.69 360.671 362.591 360.379C362.493 360.088 362.331 359.823 362.117 359.604C361.904 359.385 361.645 359.217 361.36 359.113C361.074 359.008 360.769 358.971 360.467 359.002H354.3V363.425L360.245 363.442ZM360.739 371.907C361.393 371.935 362.033 371.705 362.524 371.264C362.764 371.025 362.951 370.737 363.071 370.418C363.191 370.1 363.241 369.759 363.22 369.418C363.232 369.092 363.177 368.767 363.057 368.464C362.937 368.161 362.756 367.887 362.524 367.66C361.963 367.177 361.238 366.935 360.504 366.987H354.3V371.907H360.739Z" fill="white"/>
</g>
<rect opacity="0.08" x="0.5" y="25.5" width="539" height="229" fill="white" stroke="#3C3B40"/>
<path d="M198.879 170.743C199.27 169.708 199.401 168.545 199.401 167.382C199.401 166.218 199.14 165.055 198.879 164.021L203.71 157.428C204.624 156.136 204.363 154.326 203.057 153.292C201.751 152.387 199.923 152.646 198.879 153.938L195.092 159.109C193.394 157.945 191.435 157.299 189.215 157.299C186.995 157.299 184.906 157.945 183.339 159.238L179.552 154.067C178.638 152.775 176.679 152.516 175.373 153.421C174.068 154.326 173.806 156.265 174.721 157.558L179.552 164.15C179.16 165.184 179.03 166.348 179.03 167.511C179.03 168.674 179.291 169.838 179.552 170.872L174.59 177.335C173.676 178.628 173.937 180.437 175.243 181.472C175.765 181.859 176.418 181.989 176.94 181.989C177.855 181.989 178.769 181.601 179.291 180.825L183.078 175.655C184.776 176.818 186.865 177.594 188.954 177.594C191.174 177.594 193.263 176.947 194.83 175.655L198.617 180.825C199.14 181.601 200.054 181.989 200.968 181.989C201.621 181.989 202.143 181.859 202.665 181.472C203.971 180.567 204.232 178.628 203.318 177.335L198.879 170.743ZM192.48 172.035C191.566 172.682 190.391 173.069 189.215 173.069C188.04 173.069 186.865 172.682 185.951 172.035C184.514 171.001 183.47 169.321 183.47 167.382C183.47 165.443 184.384 163.762 185.951 162.728C186.865 162.082 188.04 161.694 189.215 161.694C190.391 161.694 191.566 162.082 192.48 162.728C193.916 163.762 194.961 165.443 194.961 167.382C194.961 169.321 193.916 171.001 192.48 172.035Z" fill="#F0595D"/>
<path d="M192.219 167.382C192.219 168.416 191.696 169.321 190.913 169.838C190.391 170.225 189.868 170.355 189.215 170.355C188.562 170.355 188.04 170.096 187.518 169.838C186.734 169.321 186.212 168.416 186.212 167.382C186.212 166.348 186.734 165.572 187.518 164.926C188.04 164.538 188.562 164.409 189.215 164.409C189.868 164.409 190.391 164.667 190.913 164.926C191.696 165.572 192.219 166.477 192.219 167.382Z" fill="#F0595D"/>
<path d="M219.903 176.818C218.597 176.301 217.683 175.655 216.899 174.75C216.116 173.845 215.724 172.682 215.724 171.389V170.743H219.903V171.26C219.903 172.035 220.295 172.811 221.078 173.199C221.862 173.716 222.906 173.974 224.212 173.974C225.648 173.974 226.693 173.845 227.346 173.457C227.999 173.069 228.26 172.552 228.26 171.906C228.26 171.389 227.999 170.872 227.607 170.484C227.215 170.096 226.693 169.838 226.04 169.579C225.387 169.321 224.604 169.062 223.429 168.804C221.862 168.416 220.556 167.899 219.642 167.511C218.728 167.123 217.813 166.477 217.161 165.701C216.508 164.926 216.116 163.892 216.116 162.599C216.116 160.789 216.899 159.497 218.336 158.592C219.772 157.687 221.731 157.17 224.081 157.17C226.301 157.17 228.26 157.687 229.697 158.592C231.133 159.497 231.917 161.048 231.917 162.857V163.245H227.738V163.116C227.738 162.34 227.346 161.823 226.693 161.436C226.04 161.048 225.126 160.789 223.951 160.789C222.776 160.789 221.862 160.918 221.209 161.306C220.556 161.565 220.295 162.082 220.295 162.599C220.295 162.987 220.425 163.374 220.817 163.762C221.209 164.021 221.731 164.279 222.253 164.538C222.776 164.796 223.69 164.926 224.734 165.313C226.301 165.701 227.607 166.089 228.652 166.606C229.697 166.994 230.48 167.64 231.264 168.416C232.047 169.191 232.308 170.226 232.308 171.518C232.308 173.586 231.525 175.138 230.088 176.172C228.521 177.206 226.563 177.594 223.951 177.594C222.514 177.464 221.078 177.335 219.903 176.818Z" fill="#3C3B40"/>
<path d="M235.703 157.687H245.105C247.325 157.687 249.023 158.204 250.067 159.367C251.243 160.531 251.765 162.082 251.765 164.021C251.765 166.089 251.243 167.64 250.067 168.804C248.892 169.967 247.194 170.484 244.844 170.484H239.882V177.206H235.703V157.687ZM244.713 166.994C245.627 166.994 246.28 166.735 246.803 166.218C247.325 165.701 247.586 164.926 247.586 164.021C247.586 163.116 247.325 162.34 246.803 161.953C246.28 161.436 245.627 161.177 244.713 161.177H239.882V166.994H244.713Z" fill="#3C3B40"/>
<path d="M254.899 157.687H259.078V177.206H254.899V157.687Z" fill="#3C3B40"/>
<path d="M262.865 157.687H271.092C274.095 157.687 276.445 158.462 278.012 160.143C279.71 161.823 280.494 164.15 280.494 167.511C280.494 170.743 279.71 173.199 278.012 174.879C276.315 176.56 274.095 177.335 271.092 177.335H262.865V157.687ZM270.961 173.716C272.659 173.716 273.964 173.199 274.748 172.165C275.662 171.13 276.054 169.708 276.054 167.899V166.994C276.054 165.184 275.662 163.633 274.748 162.728C273.834 161.694 272.659 161.177 270.961 161.177H266.913V173.716H270.961Z" fill="#3C3B40"/>
<path d="M283.627 157.687H299.167V161.177H287.806V165.443H297.861V168.933H287.806V173.716H299.298V177.206H283.627V157.687Z" fill="#3C3B40"/>
<path d="M302.824 157.687H313.27C315.49 157.687 317.188 158.204 318.233 159.238C319.408 160.272 319.93 161.823 319.93 163.762C319.93 166.477 318.755 168.287 316.535 169.191L320.583 177.077H316.013L312.487 169.838H307.002V177.077H302.824V157.687ZM312.879 166.477C313.793 166.477 314.446 166.218 314.968 165.701C315.49 165.184 315.752 164.538 315.752 163.762C315.752 162.987 315.49 162.34 314.968 161.823C314.446 161.306 313.793 161.177 312.879 161.177H307.002V166.477H312.879Z" fill="#3C3B40"/>
<path d="M336.253 157.687H341.476L349.181 177.206H344.61L343.174 173.457H334.163L332.727 177.206H328.548L336.253 157.687ZM341.998 169.967L340.17 165.055C340.04 164.667 339.779 164.021 339.517 163.116C339.256 162.211 338.995 161.565 338.995 161.306H338.864C338.734 161.565 338.603 162.211 338.342 163.116C338.081 164.021 337.82 164.667 337.689 165.055L335.861 169.967H341.998Z" fill="#3C3B40"/>
<path d="M351.27 157.687H365.504V161.177H355.318V165.96H364.329V169.45H355.318V177.206H351.14V157.687H351.27Z" fill="#3C3B40"/>
<g clip-path="url(#clip1)">
<path d="M156.557 120.548C156.005 120.548 155.464 120.392 154.994 120.099C154.524 119.806 154.143 119.387 153.893 118.888C153.643 118.388 153.534 117.829 153.578 117.27C153.622 116.712 153.817 116.177 154.142 115.724L161.494 105.463L154.137 95.2011C153.67 94.5498 153.477 93.7369 153.601 92.9411C153.724 92.1453 154.154 91.4319 154.796 90.9578C155.437 90.4838 156.238 90.2878 157.022 90.4132C157.806 90.5385 158.509 90.9748 158.976 91.6261L166.584 102.243C167.257 103.178 167.62 104.306 167.62 105.465C167.62 106.623 167.257 107.752 166.584 108.687L158.976 119.299C158.699 119.687 158.335 120.002 157.914 120.219C157.494 120.436 157.029 120.549 156.557 120.548Z" fill="#00D4A4"/>
<path d="M180.969 120.548C180.496 120.55 180.029 120.437 179.608 120.219C179.187 120.001 178.822 119.684 178.545 119.296L170.958 108.687C170.285 107.752 169.921 106.624 169.921 105.465C169.921 104.307 170.285 103.178 170.958 102.243L178.566 91.6264C179.033 90.9751 179.736 90.5388 180.519 90.4135C181.303 90.2881 182.104 90.4841 182.746 90.9582C183.388 91.4322 183.817 92.1456 183.941 92.9414C184.064 93.7372 183.871 94.5501 183.404 95.2015L176.027 105.463L183.384 115.725C183.708 116.177 183.904 116.712 183.947 117.271C183.991 117.829 183.882 118.389 183.632 118.888C183.382 119.387 183.001 119.806 182.531 120.1C182.061 120.393 181.52 120.548 180.969 120.548Z" fill="#00D4A4"/>
<path d="M199.586 115.144C198.41 114.728 197.367 113.994 196.57 113.022C195.81 112.06 195.41 110.856 195.443 109.623L195.472 108.98H199.713L199.685 109.447C199.679 109.86 199.78 110.266 199.978 110.626C200.175 110.986 200.463 111.287 200.812 111.498C201.561 112.008 202.61 112.258 203.955 112.258C205.379 112.258 206.424 112.07 207.045 111.686C207.329 111.545 207.568 111.326 207.736 111.055C207.904 110.783 207.994 110.47 207.996 110.149C208.001 109.881 207.948 109.614 207.841 109.369C207.733 109.124 207.574 108.905 207.374 108.729C206.922 108.323 206.393 108.015 205.819 107.823C205.194 107.597 204.33 107.33 203.235 107.017C201.952 106.66 200.689 106.23 199.454 105.726C198.502 105.32 197.657 104.693 196.986 103.897C196.261 102.994 195.891 101.852 195.945 100.689C195.911 99.8576 196.097 99.0318 196.483 98.2975C196.869 97.5632 197.442 96.947 198.142 96.5129C199.601 95.5551 201.543 95.0762 203.968 95.0762C206.258 95.0762 208.129 95.569 209.58 96.5546C211.031 97.5403 211.758 99.0201 211.76 100.994V101.345H207.576V101.082C207.58 100.725 207.49 100.374 207.315 100.065C207.14 99.7553 206.886 99.4994 206.58 99.3236C205.759 98.8539 204.823 98.6309 203.881 98.6805C202.928 98.6316 201.976 98.8015 201.096 99.1775C200.819 99.2851 200.579 99.4732 200.407 99.7184C200.235 99.9636 200.139 100.255 200.129 100.556C200.131 100.781 200.185 101.003 200.285 101.203C200.386 101.404 200.531 101.578 200.709 101.713C201.139 102.06 201.627 102.327 202.149 102.502C202.729 102.707 203.544 102.957 204.618 103.25C205.935 103.595 207.231 104.02 208.498 104.523C209.495 104.936 210.388 105.571 211.11 106.382C211.865 107.277 212.256 108.429 212.205 109.606C212.205 111.753 211.45 113.334 209.942 114.351C208.433 115.367 206.369 115.875 203.75 115.875C202.33 115.888 200.919 115.641 199.586 115.144Z" fill="#3C3B40"/>
<path d="M373.213 115.144C372.037 114.728 370.995 113.994 370.198 113.022C369.437 112.06 369.038 110.856 369.07 109.623L369.099 108.98H373.341L373.312 109.447C373.306 109.86 373.407 110.266 373.605 110.626C373.803 110.986 374.091 111.287 374.439 111.498C375.188 112.008 376.237 112.258 377.583 112.258C379.006 112.258 380.051 112.07 380.673 111.686C380.956 111.545 381.195 111.326 381.363 111.055C381.531 110.783 381.621 110.47 381.623 110.149C381.628 109.881 381.575 109.614 381.468 109.369C381.361 109.124 381.202 108.905 381.002 108.729C380.549 108.323 380.02 108.015 379.447 107.823C378.821 107.597 377.957 107.33 376.863 107.017C375.579 106.66 374.317 106.23 373.082 105.726C372.13 105.32 371.284 104.693 370.613 103.897C369.889 102.994 369.518 101.852 369.572 100.689C369.538 99.8576 369.724 99.0318 370.11 98.2975C370.497 97.5632 371.069 96.947 371.769 96.5129C373.231 95.5551 375.173 95.0762 377.595 95.0762C379.885 95.0762 381.756 95.569 383.207 96.5546C384.658 97.5403 385.385 99.0201 385.388 100.994V101.345H381.203V101.082C381.208 100.725 381.118 100.374 380.943 100.065C380.767 99.7553 380.514 99.4994 380.208 99.3236C379.386 98.8539 378.45 98.6309 377.509 98.6805C376.555 98.6316 375.603 98.8015 374.723 99.1775C374.446 99.2851 374.207 99.4732 374.035 99.7184C373.863 99.9636 373.766 100.255 373.756 100.556C373.759 100.781 373.812 101.003 373.913 101.203C374.013 101.404 374.158 101.578 374.337 101.713C374.767 102.06 375.254 102.327 375.777 102.502C376.357 102.707 377.171 102.957 378.245 103.25C379.562 103.595 380.858 104.02 382.125 104.523C383.122 104.936 384.015 105.571 384.738 106.382C385.492 107.277 385.884 108.429 385.832 109.606C385.832 111.753 385.078 113.334 383.569 114.351C382.061 115.367 380.003 115.875 377.398 115.875C375.971 115.891 374.553 115.643 373.213 115.144Z" fill="#3C3B40"/>
<path d="M215.414 95.4144H224.857C227.07 95.4144 228.735 95.9866 229.851 97.131C230.968 98.2753 231.525 99.8902 231.522 101.976C231.522 104.069 230.94 105.696 229.777 106.854C228.614 108.012 226.878 108.593 224.569 108.595H219.598V115.512H215.414V95.4144ZM224.466 104.995C224.848 105.021 225.231 104.964 225.589 104.827C225.948 104.69 226.273 104.477 226.544 104.202C227.057 103.582 227.315 102.784 227.264 101.976C227.313 101.181 227.054 100.399 226.544 99.7955C226.27 99.5254 225.944 99.3166 225.586 99.1828C225.228 99.0489 224.846 98.9931 224.466 99.0187H219.598V104.995H224.466Z" fill="#3C3B40"/>
<path d="M234.661 95.4144H238.845V115.512H234.661V95.4144Z" fill="#3C3B40"/>
<path d="M242.685 95.4144H250.88C253.898 95.4144 256.229 96.2497 257.875 97.9203C259.521 99.5909 260.344 102.105 260.344 105.463C260.344 108.821 259.521 111.335 257.875 113.006C256.229 114.676 253.898 115.512 250.88 115.512H242.685V95.4144ZM250.88 111.907C252.573 111.907 253.857 111.385 254.732 110.341C255.606 109.297 256.044 107.817 256.044 105.902V105.045C256.044 103.133 255.606 101.653 254.732 100.606C253.857 99.5589 252.573 99.0368 250.88 99.0396H246.869V111.928L250.88 111.907Z" fill="#3C3B40"/>
<path d="M263.532 95.4144H279.085V99.0187H267.7V103.442H277.801V107.046H267.7V111.907H279.245V115.512H263.532V95.4144Z" fill="#3C3B40"/>
<path d="M282.767 95.4144H293.271C295.482 95.4144 297.145 95.9713 298.262 97.085C299.378 98.1987 299.936 99.7385 299.936 101.704C299.936 104.519 298.782 106.394 296.472 107.33L300.512 115.503H295.987L292.494 107.986H286.951V115.503H282.767V95.4144ZM292.893 104.469C293.266 104.492 293.641 104.439 293.994 104.312C294.348 104.186 294.672 103.989 294.95 103.734C295.199 103.464 295.392 103.146 295.516 102.799C295.641 102.451 295.694 102.082 295.674 101.713C295.696 101.348 295.643 100.982 295.518 100.639C295.393 100.296 295.2 99.9834 294.95 99.7204C294.38 99.2231 293.642 98.9714 292.893 99.0187H286.951V104.469H292.893Z" fill="#3C3B40"/>
<path d="M311.621 95.4144H315.805V111.82H326.503V115.512H311.621V95.4144Z" fill="#3C3B40"/>
<path d="M335.123 95.4144H340.377L348.112 115.512H343.537L342.117 111.673H333.119L331.708 115.512H327.379L335.123 95.4144ZM340.809 108.128L338.933 103.032C338.779 102.623 338.558 101.939 338.27 100.982L337.694 99.0772H337.55C337.451 99.3918 337.258 100.027 336.97 100.982C336.682 101.937 336.461 102.62 336.308 103.032L334.431 108.128H340.809Z" fill="#3C3B40"/>
<path d="M350.086 95.4145H361.43C362.407 95.4025 363.374 95.6182 364.256 96.0451C365.067 96.4341 365.756 97.0425 366.248 97.8034C366.751 98.634 367.002 99.5969 366.969 100.572C366.936 101.546 366.621 102.489 366.063 103.283C365.476 104.07 364.664 104.654 363.738 104.954V105.07C364.819 105.266 365.791 105.861 366.466 106.741C367.168 107.634 367.541 108.748 367.519 109.89C367.519 111.708 366.946 113.1 365.799 114.067C364.561 115.065 363.01 115.579 361.43 115.516H350.086V95.4145ZM360.245 103.442C360.896 103.483 361.537 103.268 362.035 102.84C362.249 102.646 362.419 102.406 362.532 102.137C362.645 101.869 362.698 101.578 362.689 101.287C362.724 100.981 362.69 100.671 362.591 100.379C362.493 100.088 362.331 99.823 362.117 99.6038C361.904 99.3846 361.645 99.2167 361.36 99.1126C361.074 99.0084 360.769 98.9707 360.467 99.0021H354.3V103.425L360.245 103.442ZM360.739 111.907C361.393 111.935 362.033 111.705 362.524 111.264C362.764 111.025 362.951 110.737 363.071 110.418C363.191 110.1 363.241 109.759 363.22 109.418C363.232 109.092 363.177 108.767 363.057 108.464C362.937 108.161 362.756 107.887 362.524 107.66C361.963 107.177 361.238 106.935 360.504 106.987H354.3V111.907H360.739Z" fill="#3C3B40"/>
</g>
<defs>
<clipPath id="clip0">
<rect x="153.571" y="350.378" width="232.429" height="30.175" fill="white"/>
</clipPath>
<clipPath id="clip1">
<rect x="153.571" y="90.3776" width="232.429" height="30.175" fill="white"/>
</clipPath>
</defs>
</svg>
