<?xml version="1.0" encoding="utf-8"?>
<!-- Generator: Adobe Illustrator 24.1.2, SVG Export Plug-In . SVG Version: 6.00 Build 0)  -->
<svg version="1.1" id="Layer_1" xmlns="http://www.w3.org/2000/svg" xmlns:xlink="http://www.w3.org/1999/xlink" x="0px" y="0px"
	 viewBox="0 0 540 540" style="enable-background:new 0 0 540 540;" xml:space="preserve">
<style type="text/css">
	.st0{opacity:0.9;}
	.st1{fill:#F4F0EB;}
	.st2{fill:#7CAAFF;}
	.st3{fill:#2F006A;}
	.st4{fill:#444444;}
	.st5{fill:#FFAFA6;}
	.st6{fill:#241352;}
	.st7{fill:#D89795;}
	.st8{fill:#FFFFFF;}
	.st9{fill:#00D4A4;}
	.st10{fill:#10AB88;}
	.st11{fill:#5A2D03;}
	.st12{fill:#532800;}
	.st13{fill:#F97853;}
	.st14{fill:#EA5143;}
	.st15{fill:#C5C4C6;}
	.st16{fill:#676767;}
	.st17{fill:#7E2E83;}
	.st18{fill:#EFE6F5;}
	.st19{fill:#FF7180;}
	.st20{fill:#FF947E;}
</style>
<g class="st0">
	<path class="st1" d="M239,147.4c-17.7-64.5-97.8-85.2-143.6-37.1c-0.7,0.7-1.3,1.4-2,2.1c-65.8,71.5-34.7,247.7,102.5,292.4
		c137.2,44.6,280-36.9,288-109.8c8-72.9-55.3-95.8-153.5-75.4C274.9,231.1,250,187.5,239,147.4z"/>
	<path class="st2" d="M330.8,475.8h47c-0.1-3.2-0.3-6.4-0.4-9.3c-0.9-16-1.5-78.8-1.5-78.8l-38.2,1.7l-3.2,0.1l-5.7,0.2
		c0,0,0.5,61.5,1.4,75.9C330.3,468.9,330.5,472.2,330.8,475.8z"/>
	<path class="st2" d="M317,475.8c0.2-4.1,0.4-7.8,0.6-11.3c0.9-64.5,1.3-73.7,1.3-73.7l-6.1-0.3l-3.2-0.1l-37.8-1.7
		c0,0-0.4,6.5-1,67.8c-0.3,5.6-0.6,12.2-1,19.5H317z"/>
	<path d="M382.7,387.7c-9.5,2.7-19.2,4.6-28.7,6c-3.3,0.4-6.6,0.9-10,1.2c-4.5,0.4-9,0.6-13.5,0.9c-7.4,0.2-14.9,0.1-22.3-0.5
		c-14.3-1.1-28.7-3.5-43-7.5c-0.1-13.4,0.1-2.3,1.1-48.6c0-2,0.1-4.2,0.1-6.2c0-0.4,0-0.9,0-1.3s0-1,0-1.4c0-1.5,0.1-2.9,0.1-4.4
		c0.1-3,0.1-5.9,0.2-8.9c0-1.7,0.1-3.5,0.1-5.2c0-0.3,0-0.7,0-1.1c0-1.2,0.1-2.2,0.1-3.4c0-0.3,0-0.6,0-1.1c0-1.1,0.1-2,0.1-3.1
		c0-0.9,0.1-1.7,0.1-2.6c1.1-31.2,2.8-55.9,5-59.3c4-5.9,17.3-13.7,28.1-20c3.9-2.2,8.5-4.6,11.1-6.3c3.9,3.1,6.6,5.9,12.3,5.7
		c6.3-0.2,7.9-4.1,10.4-7.3c1.5,1,5.2,4.1,7.2,5.2c1.7,1,3.5,2,5.4,3.1c2.9,1.7,6,3.4,9.1,5.2c4.6,2.7,9.1,5.5,12.8,8.1
		c3.7,2.7,6.6,5.1,8.1,7.4c2.1,3.2,3.5,23.6,4.4,50.7c0,1,0.1,1.9,0.1,2.9c0,0.1,0,0.2,0,0.3c0,1,0.1,2,0.1,3c0.1,3,0.2,6.1,0.2,9.3
		c0,0.6,0,1.4,0,2c0,0.5,0,1,0,1.5c0,1.3,0.1,2.6,0.1,4c0,0.2,0,0.5,0,0.7c0.1,3.4,0.1,7,0.2,10.5c0,1.1,0,2,0,3.1
		C383,379.1,382.8,373.4,382.7,387.7z"/>
	<path class="st3" d="M356,409.7c-20.3-0.1-37.7-9.3-48.6-17c-11.9-8.3-19-16.8-19.2-16.9c-0.3-0.4-0.3-1.1,0.1-1.4
		c0.4-0.3,1.1-0.3,1.4,0.1c0.1,0.1,7.2,8.3,18.8,16.6c10.7,7.6,27.6,16.6,47.4,16.7c0.5,0,1,0.4,1,1S356.5,409.7,356,409.7z"/>
	<path class="st3" d="M343.4,397.7c-17.3-3.4-32.5-16.6-33.3-17.2c-0.4-0.3-0.4-1-0.1-1.4c0.3-0.4,1-0.4,1.4-0.1
		c0.2,0.1,18.2,15.7,36.5,17.4c0.5,0,1,0.5,0.9,1.1c0,0.5-0.5,1-1.1,0.9C346.3,398.3,344.8,397.9,343.4,397.7z"/>
	<path class="st4" d="M308.7,247.5c-0.4,0-0.9-0.3-1-0.7c-0.1-0.5,0.2-1.1,0.7-1.2c24.7-4.7,32.2-20.7,32.3-20.8
		c0.2-0.5,0.7-0.7,1.3-0.5s0.7,0.7,0.5,1.3c-0.3,0.6-7.9,17-33.7,21.9C308.9,247.5,308.8,247.5,308.7,247.5z"/>
	<path class="st4" d="M278.5,290.4c0,0.1-0.1,0.2-0.1,0.3c-0.3,0.6-0.7,1.2-1.2,1.8c0,0,0,0.1-0.1,0.1c-1.3,2-2.6,4.2-3.9,6.5
		c-2,3.6-4.2,7.6-6.3,11.6c0-1.2,0.1-2.2,0.1-3.4c0-0.3,0-0.6,0-1.1c3.4-6.3,6.7-12.2,9.6-16.7c0.3-0.4,0.9-0.5,1.4-0.3
		C278.4,289.5,278.6,290,278.5,290.4z"/>
	<path class="st5" d="M396.8,250.1c0,0,31.7-10.2,41-30.9c2.7-6-19.6-67.1-19.6-67.1l-10.8,0.5c0,0,3.1,21.2,4.9,33.2
		c1.5,9.8,4,21.6,4.8,25.6c0.2,0.9,0.3,1.3,0.3,1.3c-0.5,0.1-1.1,0.2-1.6,0.3c-14.8,3-33.7,12.6-33.7,12.6L396.8,250.1z"/>
	<path class="st6" d="M425.4,218.6c0.4,0.3,1.1,0.2,1.4-0.2c0.3-0.4,0.2-1.1-0.2-1.4c-2.4-1.7-5.8-3.6-9.4-5.6
		c0.2,0.9,0.3,1.3,0.3,1.3c-0.5,0.1-1.1,0.2-1.6,0.3C419.6,214.9,423.1,216.8,425.4,218.6z"/>
	<path d="M348.3,222.2c0,0-9.5,22.5,14.8,35c16.9,8.7,55.3-13.9,55.3-13.9l-13.7-29.1C404.7,214.2,369.5,228.7,348.3,222.2z"/>
	<path class="st5" d="M412.6,117.9c-1,0.6-0.7,4.8-0.3,8.7c-0.1,0-0.3,0-0.4,0.1c-1.2-5.1-3.4-14-5.4-12.3
		c-1.3,1.1,0.4,8.7,1.6,13.3c-0.2,0.1-0.4,0.1-0.7,0.2c-1.5-5.4-4.6-15.8-6.6-13.8c-1.4,1.4,1.3,10.5,2.8,15.2
		c-0.2,0.1-0.4,0.1-0.6,0.2c-1.4-4.5-4.5-13.1-6.5-11.1c-1.9,1.8,3.5,14.8,3.5,14.8l1.4,5.1c0,0-1.7,0.7-4.3-2.2
		c-2.6-3-5.8-3.5-3.5,0.7c2.5,4.8,6.1,8.3,7.7,11.8c1.6,3.4,6.6,4.6,6.6,4.6l10.2-0.5c0,0,1.9-17.1-1.8-25.3
		C415.4,122.5,414.4,116.7,412.6,117.9z"/>
	<path class="st6" d="M294.1,161.2c0,17.2,10.6,29.1,27.8,29.1s29.2-12.7,29.2-30c0-4.7-0.7-9.2-2.2-13.2c-0.1-0.2-0.2-0.4-0.3-0.6
		c-0.2-0.4-0.3-0.9-0.5-1.3c-0.3-0.6-0.6-1.3-1-1.9c-4.5-8-12.5-13.2-23.3-13.2C303,130.1,294.1,144,294.1,161.2z"/>
	<path class="st5" d="M297.9,168.6c0,0-4.8-6.4-8.3-1.1c-3.5,5.2,1.5,20.9,10.2,17L297.9,168.6z"/>
	<path class="st6" d="M297.8,179.7c-0.3,0-0.6-0.2-0.7-0.5c-1.4-4.8-6.3-6.7-6.4-6.7c-0.4-0.1-0.5-0.5-0.4-1c0.1-0.4,0.5-0.5,1-0.4
		c0.2,0.1,5.8,2.2,7.3,7.8c0.1,0.4-0.1,0.8-0.5,0.9C298,179.7,297.9,179.7,297.8,179.7z"/>
	<path class="st6" d="M292.8,177.4c-0.1,0-0.3,0-0.4-0.1c-0.3-0.2-0.4-0.6-0.2-1.1c0-0.1,1-1.4,2.8-2.2c0.3-0.2,0.9,0,1,0.3
		c0.2,0.3,0,0.9-0.3,1c-1.4,0.6-2.1,1.7-2.1,1.7C293.3,177.3,293.1,177.4,292.8,177.4z"/>
	<path class="st5" d="M347.2,168.6c0,0,4.8-6.4,8.3-1.1c3.5,5.2-1.5,20.9-10.2,17L347.2,168.6z"/>
	<path class="st6" d="M347.2,179.7c0.3,0,0.6-0.2,0.7-0.5c1.4-4.8,6.3-6.7,6.4-6.7c0.4-0.1,0.5-0.5,0.4-1c-0.1-0.4-0.5-0.5-1-0.4
		c-0.2,0.1-5.8,2.2-7.3,7.8c-0.1,0.4,0.1,0.8,0.5,0.9H347.2z"/>
	<path class="st6" d="M352.3,177.4c0.1,0,0.3,0,0.4-0.1c0.3-0.2,0.4-0.6,0.2-1.1c0-0.1-1-1.4-2.8-2.2c-0.3-0.2-0.9,0-1,0.3
		c-0.2,0.3,0,0.9,0.3,1c1.4,0.6,2.1,1.7,2.1,1.7C351.8,177.3,352,177.4,352.3,177.4z"/>
	<path class="st5" d="M334.3,197.8v15.5c0,0-4.6,7.9-10.9,8.5c-6.2,0.5-11.8-6.8-11.8-6.8v-16.1L334.3,197.8z"/>
	<path class="st7" d="M334.3,197.8v6.8c-4.2,4.6-11.7,5.8-22.7,4.2v-10L334.3,197.8z"/>
	<path class="st5" d="M350.7,158c-0.3,6-0.9,13.6-2,19.6c-0.3,1.5-0.6,2.9-1,4.2c-3.2,11.4-11.4,31-34.2,22.8
		c-10.1-3.6-14.8-14.9-16.8-26.2c-1.4-7.8-1.6-15.6-1.5-21.2c0.1-5.7,3.2-10.9,8.2-13.8c13.5-7.6,27.7-4.8,37-1.2
		C346.8,144.6,351,151.1,350.7,158z"/>
	<path class="st8" d="M312.9,187c1.2,4.3,4.7,8.5,9.5,8.6c4.8-0.1,8.2-4.3,9.5-8.6H312.9z"/>
	<path class="st6" d="M350.3,168.5h-3.4c0.3-3.4,0.9-9.4-1.9-10.3c-8.8-2.7,2.6-9-1.4-12.2c-4-3.2-13.9-1.8-20.8-2
		c-7-0.2-18.2-0.1-20.8,0.5c-2.7,0.7-1.2,5.2-0.2,8.7c1,3.5-3.4,7.5-4,11.1c-0.2,1.1-0.2,2.6,0,4.3H295c-0.3-4.4-0.4-8.6-0.3-11.9
		c0.1-5.8,3.3-11.2,8.4-14.1c13.7-7.8,28.2-4.9,37.7-1.2c6.6,2.5,10.9,9.1,10.6,16.2C351,160.9,350.6,164.7,350.3,168.5z"/>
	<path class="st5" d="M275.9,289.1c0,0-8.8,17-19.2,30.5c-3.1,4-6.2,7.6-9.4,10.5c-5.1,4.6-10.1,7-14.1,4.9
		c-15-7.6-48.4-67.6-48.4-67.6l8.2-9.7c0,0,14.9,17.1,25.7,27.4c10.1,9.4,17.8,16.6,17.8,16.6c1.4-2.1,2.9-4.4,4.4-6.8
		c1.6-2.6,3.3-5.4,5-8.1c12.5-20.5,26.4-45.2,26.4-45.2L275.9,289.1z"/>
	<path d="M272.4,241.4l-30,47.2l10.1,41.5l24.8-40.4C277.4,289.6,280.4,261.9,272.4,241.4z"/>
	<path class="st9" d="M339,275.6c-0.4,0-0.8-0.1-1.1-0.3c-0.3-0.2-0.6-0.5-0.8-0.9c-0.2-0.4-0.3-0.8-0.2-1.2c0-0.4,0.2-0.8,0.4-1.1
		l5.2-7.4l-5.4-7.3c-0.3-0.5-0.5-1-0.4-1.6c0.1-0.6,0.4-1.1,0.8-1.4c0.5-0.3,1-0.5,1.6-0.4c0.6,0.1,1.1,0.4,1.4,0.8l5.6,7.5
		c0.5,0.7,0.8,1.5,0.8,2.3c0,0.8-0.2,1.6-0.7,2.3l-5.4,7.7c-0.2,0.3-0.5,0.5-0.8,0.7C339.7,275.6,339.3,275.6,339,275.6z"/>
	<path class="st9" d="M356.6,275.4c-0.3,0-0.7-0.1-1-0.2c-0.3-0.2-0.6-0.4-0.8-0.7l-5.6-7.5c-0.5-0.7-0.8-1.5-0.8-2.3
		c0-0.8,0.2-1.6,0.7-2.3l5.4-7.7c0.3-0.5,0.8-0.8,1.4-0.9c0.6-0.1,1.1,0,1.6,0.4c0.5,0.3,0.8,0.8,0.9,1.4c0.1,0.6,0,1.2-0.4,1.6
		l-5.2,7.4l5.4,7.3c0.2,0.3,0.4,0.7,0.4,1.1c0,0.4,0,0.8-0.2,1.2c-0.2,0.4-0.4,0.7-0.8,0.9S357,275.4,356.6,275.4z"/>
	<ellipse class="st2" cx="173" cy="398.7" rx="20.5" ry="10"/>
	<path class="st2" d="M176.3,474.7h42.2c-0.1-3.7-0.3-7.4-0.4-10.7c-0.8-18.4-1.3-90.3-1.3-90.3l-34.3,2l-2.9,0.1l-5.1,0.2
		c0,0,0.5,70.6,1.2,87C175.9,466.8,176.1,470.6,176.3,474.7z"/>
	<path class="st2" d="M170.8,474.7c0.2-4.7,0.4-9,0.6-13c0.8-74,1.2-84.5,1.2-84.5l-5.5-0.4l-2.9-0.1l-33.9-2c0,0-0.4,7.5-0.9,77.7
		c-0.3,6.4-0.6,14-0.9,22.3H170.8z"/>
	<path class="st9" d="M223.3,378.2c-25,16.4-70.9,15.1-99.7,0c2.8-17.1,6.4-34.3,5.6-57.1c-0.1-2.5-0.2-5-0.3-7.5
		c-0.1-2.1-0.2-4.3-0.3-6.4c-2.5-38-9-69-5.8-73.1c1.4-1.7,3.7-3.6,6.5-5.6c1.2-0.7,2.4-1.5,3.6-2.4c3-1.8,6.3-3.6,9.6-5.5
		c7.9-4.3,15.9-8.1,20-10.8c4,1.7,7.2,2.7,10.6,2.7c0.1,0,0.2,0,0.3,0s0.2,0,0.3,0c3.4,0,6.6-1,10.6-2.7c3.7,2.5,10.8,6,18,9.7
		c5.2,2.8,10.6,5.8,14.8,8.6c2.8,1.9,4.9,3.7,6.3,5.5c1.6,2,1,10.7-0.4,23.6c-1.3,12.7-3.3,29.5-4.5,47.9
		c-0.3,5.1-0.6,10.4-0.7,15.7C216.9,343.9,220.5,361.1,223.3,378.2z"/>
	<path class="st10" d="M208,359.3c-20.1-0.1-37.3-9.2-48.2-16.9c-11.8-8.3-18.8-16.7-18.9-16.8c-0.3-0.4-0.3-1.1,0.1-1.4
		c0.4-0.3,1.1-0.3,1.4,0.1c0.1,0.1,7.1,8.3,18.6,16.5c10.6,7.5,27.4,16.5,47,16.5c0.5,0,1,0.4,1,1C209,358.9,208.6,359.3,208,359.3z
		"/>
	<path class="st10" d="M194.6,347.5c-17.1-3.3-32.3-16.5-33-17.1c-0.4-0.3-0.4-1-0.1-1.4c0.3-0.4,1-0.4,1.4-0.1
		c0.2,0.1,18.1,15.6,36.3,17.2c0.5,0,1,0.5,0.9,1.1c0,0.5-0.5,1-1.1,0.9C197.5,348.1,196.1,347.9,194.6,347.5z"/>
	<path class="st5" d="M202.3,219.7c-4.9,11.1-16.8,22.6-32.4,19.9c-15.1-2.6-22.3-10.6-27.4-18.8c7.9-4.3,15.9-8.1,20-10.8
		c4,1.7,7.2,2.7,10.6,2.7c0.1,0,0.2,0,0.3,0s0.2,0,0.3,0c3.4,0,6.6-1,10.6-2.7C188.1,212.4,195.1,215.9,202.3,219.7z"/>
	<path class="st11" d="M198.6,132.7c0,0,11.8,18.3,10.5,37.2c-1.3,19,1.7,41-15.3,40c-17-1-47.4,6.8-57-8
		C127.2,187.1,198.6,132.7,198.6,132.7z"/>
	<path class="st12" d="M203,166.3c0,0,3.1,27.6-10.1,35.1c-13.1,7.6-22.6-0.9-22.6-0.9S198,162.1,203,166.3z"/>
	<path class="st13" d="M148.6,166.2c0,0-4.7-6.2-8.2-1.1c-3.5,5.1,1.5,20.4,10,16.7L148.6,166.2z"/>
	<path class="st14" d="M148.6,177.1c-0.3,0-0.6-0.2-0.6-0.5c-1.3-4.7-6.2-6.6-6.3-6.6c-0.3-0.1-0.5-0.5-0.4-1c0.1-0.3,0.5-0.5,1-0.4
		c0.2,0.1,5.6,2.1,7.2,7.6c0.1,0.4-0.1,0.7-0.5,0.9C148.7,177.1,148.6,177.1,148.6,177.1z"/>
	<path class="st14" d="M143.7,174.6c-0.1,0-0.3,0-0.4-0.1c-0.3-0.2-0.4-0.6-0.2-1c0-0.1,0.9-1.4,2.7-2.1c0.3-0.2,0.7,0,1,0.3
		c0.2,0.3,0,0.7-0.3,1c-1.4,0.6-2,1.6-2,1.6C144.1,174.5,143.9,174.6,143.7,174.6z"/>
	<path class="st5" d="M197.1,166.2c0,0,4.7-6.2,8.2-1.1c3.5,5.1-1.5,20.4-10,16.7L197.1,166.2z"/>
	<path class="st6" d="M197.1,177.1c0.3,0,0.6-0.2,0.6-0.5c1.3-4.7,6.2-6.6,6.3-6.6c0.3-0.1,0.5-0.5,0.4-1c-0.1-0.3-0.5-0.5-1-0.4
		c-0.2,0.1-5.6,2.1-7.2,7.6c-0.1,0.4,0.1,0.7,0.5,0.9C197,177.1,197,177.1,197.1,177.1z"/>
	<path class="st6" d="M202,174.6c0.1,0,0.3,0,0.4-0.1c0.3-0.2,0.4-0.6,0.2-1c0-0.1-0.9-1.4-2.7-2.1c-0.3-0.2-0.7,0-1,0.3
		s0,0.7,0.3,1c1.4,0.6,2,1.6,2,1.6C201.6,174.5,201.8,174.6,202,174.6z"/>
	<path class="st5" d="M184.4,194.7v15.2c0,0-4.5,7.7-10.7,8.2c-6.1,0.5-11.6-6.6-11.6-6.6v-15.7L184.4,194.7z"/>
	<path class="st7" d="M184.4,194.7v6.7c-4.1,4.6-11.4,6.2-22.3,4.6v-10.3L184.4,194.7z"/>
	<path class="st5" d="M200.4,155.7c-0.3,5.9-0.9,13.3-1.9,19.2c-0.3,1.5-0.6,2.9-1,4.1c-3.2,11.2-11.2,30.4-33.6,22.4
		c-9.8-3.5-14.4-14.6-16.5-25.8c-1.4-7.6-1.6-15.3-1.5-20.8c0.1-5.6,3.2-10.7,8-13.5c13.3-7.5,27.2-4.7,36.4-1.2
		C196.7,142.6,200.7,148.8,200.4,155.7z"/>
	<path class="st8" d="M163.9,185c0.5,2.8,2.4,7.8,8.5,7.8c6.1,0,7.8-4.6,8.5-7.8H163.9z"/>
	<path class="st11" d="M203.3,154.5c-0.2,0.6-0.9,1.1-1.7,1.3c0.1,1.6-0.1,3.5-0.2,5.3c-0.9,10.5-3.5,12.3-4.2,9.7
		c-0.4-1.7-0.3-11.6-0.2-14.8c-2-0.1-3.9-0.4-3.9-0.4l-2.5-10.2l-0.9,10.1c-3.6,1.3-12.1-0.7-12.1-0.7l-2.9-10l-1.7,9.6
		c-5.5,2.7-12.3,0.9-12.3,0.9l-1.6-10.4l-3.6,10.4c0,0-11.7,4.2-11.8,0c-0.1-2.5,1.7-9.3,3.2-14.6c1.6-5.8,5.5-10.7,10.6-13.4
		c14.4-7.7,29.6-3.6,34.9-0.5C203.8,133.4,203.3,154.5,203.3,154.5z"/>
	<path class="st11" d="M150.5,133.4c0,0-9.5,11.3-12.7,31.7c-3.1,20.3-7.5,35.3,4.7,42.1c13.3,7.3,12.1-7.6,11.9-11.7
		c-0.2-4.1-11.4-15.1-4-46.3C152.9,139.2,150.5,133.4,150.5,133.4z"/>
	<path class="st12" d="M148.2,175.5c0,0.2,0,1,0.1,2.2c0,0.7,0.1,1.7,0.1,2.8c0.4,6.8,1.8,18.7,5.7,22.8c1.5,1.6,4.5,2.5,8,2.8v-5.4
		c-3.7-1.7-6.5-4.6-8.8-8.1c-1.4-3-3.7-7.7-4.9-15L148.2,175.5z"/>
	<path class="st9" d="M235.1,309.5c-4.8,13.7-26.2,12.7-50.7,5.2h-0.1c-0.1,0-0.1,0-0.2-0.1l-3.3-1.1c-0.4-0.1-1-0.3-1.4-0.4
		c-2.7-0.9-5.2-1.8-7.9-2.9c-8.8-3.3-17.5-7.3-25.8-11.5l0.1-0.1l2.5-6.5l0.9-2.2c0,0,45.4,4.9,68.2,0.2c0.4-0.1,0.7-0.2,1.2-0.2
		c-0.1-0.5-0.1-1.1-0.2-1.5c-12.1-41.1,1.2-49,5.6-54.7C223.4,233.7,244.2,283.7,235.1,309.5z"/>
	<path class="st10" d="M227.7,296.8c-0.1,0.1-0.3,0.1-0.4,0.1c-0.3,0-0.7-0.2-0.9-0.5c-1.7-3.5-7.6-5.7-9.4-6.2
		c0.4-0.1,0.7-0.2,1.2-0.2c-0.1-0.5-0.2-1-0.2-1.5c2.2,0.7,8.2,3.1,10.3,7.2C228.4,296.1,228.2,296.6,227.7,296.8z"/>
	<path class="st10" d="M164.3,295.1c-9.2,0-16.8-0.5-17.4-0.5c-0.5,0-1-0.5-0.9-1.1c0-0.5,0.5-1,1.1-0.9c0.3,0,34.3,2.5,47.7-3
		c0.5-0.2,1.1,0,1.3,0.5c0.2,0.5,0,1.1-0.5,1.3C188,294.5,175,295.1,164.3,295.1z"/>
	<path class="st10" d="M180.7,313.6c7.8-2.1,14.8-4.2,18.8-5.6c5.7-1.8,10.4-7.5,12.4-12.4c0.2-0.5,0.7-0.8,1.3-0.5
		c0.5,0.2,0.7,0.8,0.5,1.3c-2.2,5.2-7.4,11.4-13.6,13.5c-3,1-7.5,2.2-12.7,3.7C185.2,314.4,182.9,314.4,180.7,313.6z"/>
	<path class="st9" d="M201.6,307c-70.1,23.5-91.6,8.1-91.6,8.1c-4.7-42.7,12.6-81,12.6-81c5.1,8.5,10.9,23.2,10.9,23.2L135,290
		l-0.1,0.9l-0.1,0.4l-0.3,2.2c0.1,0,0.3,0.1,0.4,0.1c21.2,4.5,59.9-0.5,59.9-0.5L201.6,307z"/>
	<path class="st10" d="M135.1,293.8c-3.7,3.2-7.4,6.8-10.6,11c-0.3,0.4-1,0.5-1.4,0.2c-0.4-0.3-0.5-1-0.2-1.4
		c3.6-4.7,7.7-8.8,12-12.2l-0.3,2.2C134.8,293.7,134.9,293.7,135.1,293.8z"/>
	<path class="st5" d="M195.1,293.3c0,0,7.7-17.7,19.6-16l3.5,12.7c-6.4,2.8-7.4,13.8-16.6,17L195.1,293.3z"/>
	<path class="st5" d="M149,290.1c0,0-4.9-11.5-17.8-14.9c-12.8-3.3-21.1,2.8-21.9,5c-0.9,2.2,4.8,0.1,4.8,0.1s-3.7,1.1-5.9,4.6
		c-2.1,3.5,5.2-0.3,5.2-0.3s-5.2,2.4-5.9,4.5c-0.6,2.1,6.3-1.5,7.6-1.4c0,0-6.2,2.5-6.2,4.7c0,2.2,7.2-1.4,12.4-1.1
		c5.2,0.3,13.4,2.5,13.4,2.5c4.3,0.9,8.5,1.4,12.2,1.6L149,290.1z"/>
	<path class="st8" d="M186,275.6c-0.4,0-0.8-0.1-1.1-0.3c-0.3-0.2-0.6-0.5-0.8-0.9c-0.2-0.4-0.3-0.8-0.2-1.2c0-0.4,0.2-0.8,0.4-1.1
		l5.2-7.4l-5.4-7.3c-0.3-0.5-0.5-1-0.4-1.6c0.1-0.6,0.4-1.1,0.8-1.4c0.5-0.3,1-0.5,1.6-0.4c0.6,0.1,1.1,0.4,1.4,0.8l5.6,7.5
		c0.5,0.7,0.8,1.5,0.8,2.3c0,0.8-0.2,1.6-0.7,2.3l-5.4,7.7c-0.2,0.3-0.5,0.5-0.8,0.7C186.7,275.6,186.3,275.6,186,275.6z"/>
	<path class="st8" d="M203.6,275.4c-0.3,0-0.7-0.1-1-0.2c-0.3-0.2-0.6-0.4-0.8-0.7l-5.6-7.5c-0.5-0.7-0.8-1.5-0.8-2.3
		c0-0.8,0.2-1.6,0.7-2.3l5.4-7.7c0.3-0.5,0.8-0.8,1.4-0.9c0.6-0.1,1.1,0,1.6,0.4c0.5,0.3,0.8,0.8,0.9,1.4c0.1,0.6,0,1.2-0.4,1.6
		l-5.2,7.4l5.4,7.3c0.2,0.3,0.4,0.7,0.4,1.1c0,0.4,0,0.8-0.2,1.2c-0.2,0.4-0.4,0.7-0.8,0.9C204.4,275.3,204,275.4,203.6,275.4z"/>
	<path class="st15" d="M350.8,446.9H201c-3.6,0-6.5-2.9-6.5-6.5V362c0-3.6,2.9-6.5,6.5-6.5h149.8c3.6,0,6.5,2.9,6.5,6.5v78.4
		C357.3,444,354.4,446.9,350.8,446.9z"/>
	<path class="st16" d="M288.5,446.8h-25.2v28.7h25.2V446.8z"/>
	<path class="st8" d="M275.6,414.8c6.9,0,12.5-5.6,12.5-12.5c0-6.9-5.6-12.5-12.5-12.5c-6.9,0-12.5,5.6-12.5,12.5
		C263.1,409.2,268.7,414.8,275.6,414.8z"/>
	<path class="st15" d="M308,475.5h-65v-2.2c0-4.4,3.6-8,8-8h49c4.4,0,8,3.6,8,8V475.5z"/>
	<path class="st2" d="M20.7,316.5c-4.3-4.1-6-10.6-1.8-15.5c3.9-4.7,11.4-5.7,16.2-1.9c11.7,9-0.5,25.6-13,22.1
		c-2.3-0.6-1.7-3.9,0.6-4.1c3.7-0.2,7.6-0.4,10.6-2.9c3.1-2.8,3.2-7.4,0.6-10.7c-6.9-8.5-18.7,4-11.6,11.5
		C23,316,21.6,317.4,20.7,316.5z"/>
	<path class="st2" d="M482.2,141.4c3,2.9,4.2,7.5,1.3,11.1c-2.8,3.3-8.1,4-11.6,1.4c-8.4-6.4,0.4-18.3,9.4-15.8
		c1.7,0.5,1.3,2.8-0.4,2.9c-2.7,0.2-5.4,0.3-7.5,2.1c-2.3,2-2.3,5.3-0.5,7.6c4.9,6.1,13.4-2.8,8.3-8.3
		C480.5,141.8,481.5,140.7,482.2,141.4z"/>
	<path class="st17" d="M101.4,405.4c-0.3-1.7-0.2-3.3-1.1-4.8c-1.8-2.9-4.5-2.2-7.1-0.9c-2.7,1.3-5.1,2.1-7.9,0.9
		c-4.4-1.9-6.5-8.6-2.3-11.9c1.4-1,2.8,0.6,2.6,1.9c-0.3,1.8-1.2,3.8,0.4,5.3c2.1,2.1,4.5,0.4,6.5-0.6c2.2-1,4.6-1.2,6.9-0.3
		c4,1.6,6.8,7,3.7,10.6C102.5,406.4,101.4,406.1,101.4,405.4z"/>
	<path class="st18" d="M32.6,145.9c-1.1,4.2-2.4,8.4-3.7,12.5c-0.3,1-1.3,1.3-2.1,0.7c-3.4-2.3-6.7-4.5-9.9-7.1
		c-0.6-0.5-0.5-1.5,0.1-1.9c3.8-2.6,8.8-6.3,13.5-6.3c1.2,0,2,1.7,0.8,2.4c-1.9,1.1-4.2,1.5-6.2,2.4c-2.4,1-4.7,2.1-6.8,3.6
		c-0.1-0.6-0.1-1.4-0.2-2c3.6,2.2,6.9,4.7,10.3,7.1c-0.6,0.1-1.4,0.3-2,0.4c1.5-4.1,2.9-8.2,4.5-12.2
		C31.3,144.6,32.8,145,32.6,145.9z"/>
	<path class="st19" d="M467.1,433.1c-7.2-3.3-14.2-6.8-21.1-10.4c-1.7-0.8-1.9-2.7-0.6-4c5.1-5.3,10.2-10.7,15.7-15.5
		c1.1-0.9,2.8-0.4,3.3,0.8c3.4,7.4,8.6,17.6,7.2,26.1c-0.4,2.1-3.7,3.1-4.5,0.7c-1.4-3.8-1.4-8-2.2-11.9c-1-4.5-2.4-9-4.3-13.2
		c1.3,0.1,2.5,0.3,3.8,0.4c-5.1,5.7-10.5,10.9-15.9,16.2c0-1.2-0.1-2.5-0.1-3.7c6.9,3.9,13.6,7.7,20.3,11.9
		C469.8,431.3,468.6,433.7,467.1,433.1z"/>
	<path class="st20" d="M72.6,71.7c7.6-4,15.9-7.8,24-10.4c2.6-0.8,4.3,3.2,1.8,4.4c-7.8,3.7-16.4,6.6-24.7,8.9
		C72.1,75.2,71,72.6,72.6,71.7z"/>
	<path class="st19" d="M280.6,80.6c4.8,4.6,6.6,11.7,2,17.2c-4.3,5.2-12.6,6.3-17.9,2.1c-12.9-10,0.5-28.4,14.5-24.6
		c2.6,0.7,1.9,4.4-0.6,4.5c-4.1,0.2-8.4,0.4-11.7,3.2c-3.5,3.1-3.6,8.3-0.7,11.8c7.6,9.3,20.8-4.4,12.8-12.8
		C278,81.2,279.5,79.6,280.6,80.6z"/>
	<path class="st16" d="M523.5,474.7h-495v4h495V474.7z"/>
</g>
</svg>
