<?xml version="1.0" encoding="utf-8"?>
<!-- Generator: Adobe Illustrator 24.1.2, SVG Export Plug-In . SVG Version: 6.00 Build 0)  -->
<svg version="1.1" id="Layer_1" xmlns="http://www.w3.org/2000/svg" xmlns:xlink="http://www.w3.org/1999/xlink" x="0px" y="0px"
	 viewBox="0 0 1440 420" style="enable-background:new 0 0 1440 420;" xml:space="preserve">
<style type="text/css">
	.st0{opacity:0.9;}
	.st1{opacity:0.1;fill:#440099;enable-background:new    ;}
	.st2{fill:#C5C4C6;}
	.st3{opacity:0.41;fill:#FFFFFF;enable-background:new    ;}
	.st4{fill:#241352;}
	.st5{fill:#7CAAFF;}
	.st6{fill:#7E2E83;}
	.st7{fill:#FAC480;}
	.st8{fill:#FF7180;}
	.st9{fill:#FFAFA6;}
	.st10{fill:#00D4A4;}
	.st11{fill-rule:evenodd;clip-rule:evenodd;fill:#FFFFFF;}
	.st12{fill:#FFFFFF;}
	.st13{opacity:0.13;}
	.st14{opacity:0.13;fill:#241352;enable-background:new    ;}
	.st15{fill:#FF947E;}
	.st16{fill:#EFE6F5;}
	.st17{fill:#FBF1FC;}
	.st18{fill:#E5E1EA;}
	.st19{fill:#F2F2F2;}
	.st20{fill:none;stroke:#757575;stroke-width:1.5084;stroke-miterlimit:10;}
</style>
<g class="st0">
	<circle class="st1" cx="135" cy="272" r="95"/>
	<circle class="st1" cx="1305" cy="272" r="95"/>
	<path class="st2" d="M167.2,358.7l0.2-4.3l62.7-3.8l20.9-56.1l68.8,3.7L296.3,359L167.2,358.7z"/>
	<path class="st3" d="M281.9,325c-0.2,2.8-2.6,5-5.4,4.8c-2.8-0.2-5-2.6-4.8-5.4c0.2-2.8,2.6-5,5.4-4.8
		C279.9,319.8,282,322.2,281.9,325z"/>
	<path class="st3" d="M283.9,325.1c-0.2,3.9-3.6,6.9-7.5,6.7c-3.9-0.2-6.9-3.6-6.7-7.5c0.2-3.9,3.6-6.9,7.5-6.7
		C281.1,317.8,284.1,321.1,283.9,325.1z"/>
	<path class="st4" d="M112.1,129.6c-3.9-1.2-8-1.7-12-0.8c-4,0.8-7.7,3.2-9.7,6.7c-2.3,4-2.1,8.9-1.8,13.6
		c0.7,11.6,1.4,23.1,2.1,34.7c0.2,3.2,0.4,6.5-0.9,9.5c-1.2,3-4.4,5.4-7.5,4.8c-1.6-0.3-3-1.4-4.5-2c-1.5-0.6-3.5-0.6-4.5,0.7
		c-0.6,0.8-0.6,1.8-0.5,2.8c0.5,4.3,3.1,8.3,6.9,10.3c-2.2-1.1-5,1.2-5,3.6c0,2.5,1.9,4.6,4.2,5.5c2.3,0.9,4.8,0.9,7.3,0.8
		c-2,0-3.6,2.2-3.4,4.2c0.2,2,1.8,3.7,3.7,4.5s4,0.8,6,0.6c4.3-0.4,8.6-1.8,11.9-4.4c5.9-4.7,8.3-12.6,8.4-20.1
		c0.1-7.5-1.8-14.9-2.8-22.3c-2.4-17.3-0.4-34.8,1.5-52.1c-0.5-0.1-1-0.3-1.4-0.4"/>
	<path class="st5" d="M188.1,79.5c-4.7-4.5-6.5-11.5-2-16.9c4.2-5.1,12.4-6.2,17.6-2.1c12.7,9.8-0.5,27.9-14.2,24.1
		c-2.5-0.7-1.9-4.3,0.6-4.5c4-0.2,8.3-0.4,11.5-3.2c3.4-3,3.5-8.1,0.7-11.6c-7.5-9.2-20.4,4.3-12.6,12.5
		C190.6,79,189.1,80.5,188.1,79.5z"/>
	<path class="st6" d="M38.4,136.7c-1.8,1.9-3.7,3.3-4.6,5.8c-1.8,5,1.6,7.5,5.6,9.4c4.1,1.9,7.3,4.1,8.5,8.7c1.9,7.2-4.2,16-12,13.9
		c-2.5-0.7-1.8-3.9,0-4.9c2.4-1.4,5.6-2.2,6-5.5c0.5-4.4-3.8-5.7-6.9-7.3c-3.3-1.7-5.8-4.4-6.9-8c-1.8-6.3,1.9-14.8,9.2-14.4
		C38.5,134.4,39.2,135.9,38.4,136.7z"/>
	<path class="st7" d="M49.5,60.9c0.6-4.1,4.9-12.9,9.5-14.1c2.4-0.6,4.2,0.9,6.1,2.2c3.4,2.3,6.8,4.8,10.1,7.2c1.2,0.9,2,2.6,1,4
		c-3,4.6-6,9.2-8.9,13.8c-0.8,1.2-2.6,2-4,1c-3.7-2.6-7.7-5.1-11.1-8.1c-2.3-2.1,0.6-5.6,3.3-4.2c3.8,2,7.3,4.9,10.8,7.4
		c-1.3,0.3-2.6,0.7-4,1c3-4.6,6-9.2,8.9-13.8c0.3,1.3,0.7,2.6,1,4c-2-1.4-4.1-2.9-6.1-4.3c-1.1-0.8-5-4.4-6.2-4.3
		c-1.1,0.1-3.5,4.2-4.2,5c-1.4,1.7-2.8,3.3-4.6,4.6C50.3,62.8,49.4,61.8,49.5,60.9z"/>
	<path class="st7" d="M271.7,198.8c0.6-4.1,4.9-12.9,9.5-14.1c2.4-0.6,4.2,0.9,6.1,2.2c3.4,2.3,6.8,4.8,10.1,7.2c1.2,0.9,2,2.6,1,4
		c-3,4.6-6,9.2-8.9,13.8c-0.8,1.2-2.6,2-4,1c-3.7-2.6-7.7-5.1-11.1-8.1c-2.3-2.1,0.6-5.6,3.3-4.2c3.8,2,7.3,4.9,10.8,7.4
		c-1.3,0.3-2.6,0.7-4,1c3-4.6,6-9.2,8.9-13.8c0.3,1.3,0.7,2.6,1,4c-2-1.4-4.1-2.9-6.1-4.3c-1.1-0.8-5-4.4-6.2-4.3
		c-1.1,0.1-3.5,4.2-4.2,5c-1.4,1.7-2.8,3.3-4.6,4.6C272.4,200.7,271.6,199.7,271.7,198.8z"/>
	<path class="st8" d="M115.3,63.6c5.6,6.3,11.3,13.2,15.7,20.4c1.4,2.3-2,4.9-3.8,2.8c-5.5-6.4-10.3-14-14.5-21.3
		C111.8,64,114,62.3,115.3,63.6z"/>
	<path class="st4" d="M321.2,242.8c0.1-0.1,0.3-0.3,0.4-0.4c1.9-1.7,5-2,6.8,0c1.9,2,1.8,4.8,0,6.8c-0.1,0.1-0.3,0.3-0.4,0.4
		c-1.7,1.9-5.2,1.9-6.9,0C319.5,247.9,319.1,244.6,321.2,242.8z"/>
	<path class="st4" d="M76.5,113.7c-0.1,0.1-0.3,0.3-0.4,0.4c-1.9,1.7-5,2-6.8,0c-1.9-2-1.8-4.8,0-6.8c0.1-0.1,0.3-0.3,0.4-0.4
		c1.7-1.9,5.2-1.9,6.9,0C78.2,108.7,78.5,111.9,76.5,113.7z"/>
	<path class="st9" d="M146.4,212.6l84.3,31.6l-8-34l21.9-5.6c0,0,23.6,66.6,7.2,68.3c-28.7,3.1-72.1-8.2-72.1-8.2L146.4,212.6z"/>
	<path class="st10" d="M175.6,288.9l-0.2,66.7c-22,27-98.4-7.9-98.4-7.9l-0.9-27.3l-1.8-65c1.8-25.9,25.8-38.6,25.8-38.6
		c9.9-4.9,25.1-7.8,38.7-7.1c14.2,0.7,17.8,7.5,23.6,20.5C167.3,240.8,175.6,250.7,175.6,288.9z"/>
	<path class="st9" d="M103.6,147l1,13.3c0,0-11.3,1.5-8.1,11.9c3.2,10.3,11,5.8,11,5.8s1.9,26.5,29.1,18.1
		c21.6-6.7,20.3-34.7,17.5-58.5c-1.1-9.2-9.8-15.6-18.9-13.8l-16.3,3.2C109.4,128.8,102.8,137.4,103.6,147z"/>
	<path class="st9" d="M104.6,171.4l7.3,39c1.6,8.8,10.3,14.4,19,12.3c8.1-1.9,13.2-9.8,11.8-18l-4-22.4L104.6,171.4z"/>
	<path class="st4" d="M143.4,193.4c0.1,0.1-1,1.3-3.2,2.6s-5.7,2.5-9.6,2.6c-4,0.1-7.5-1-9.7-2.2c-2.3-1.2-3.4-2.3-3.3-2.5
		c0.1-0.2,1.5,0.6,3.7,1.5c2.3,0.9,5.6,1.7,9.3,1.7c3.7-0.1,6.9-1.1,9.2-2.1C142,194,143.3,193.2,143.4,193.4z"/>
	<path class="st11" d="M126.3,178c0,3.7,2.9,6.8,6.7,6.9c3.7,0.2,6.9-2.6,7.2-6.3L126.3,178z"/>
	<path class="st4" d="M103.7,173.5c0,0.2-0.7,0.5-1.8,0.2c-0.3-0.1-0.6-0.3-0.9-0.5c-0.3-0.3-0.6-0.6-0.7-1
		c-0.2-0.4-0.2-0.9-0.1-1.5c0.1-0.5,0.6-1.1,1.2-1.3c0.4-0.2,0.8-0.2,1.3-0.1c0.4,0.1,0.9,0.4,1.1,0.8l-1.3,0.7
		c-0.9-2.2-1.3-3.9-1-4c0.3-0.1,1.3,1.3,2.3,3.4l-1.3,0.7c0,0-0.2-0.1-0.5,0c-0.2,0.1-0.2,0.1-0.3,0.3c-0.1,0.2-0.1,0.4,0,0.6
		c0.1,0.4,0.4,0.8,0.7,1C103.1,173.1,103.7,173.2,103.7,173.5z"/>
	<path class="st4" d="M104.6,160.3c7.6-7.4,9.8-19.7,11.9-30.1c7,5.1,16.7,6.4,24.8,3.2c2.5,3,5.5,5.6,8.8,7.7
		c0.9,0.6,2,1.2,3.1,0.9c1.3-0.4,1.8-1.8,2.1-3.1c1-4.1,1-8.6-0.4-12.6c-1.4-4-4.5-7.5-8.4-9c-4.2-1.6-9-0.9-13.4,0.2
		c-6.6,1.7-13,4.4-18.9,7.8c-5.8,3.4-11.4,7.9-13.8,14.1c-2.5,6.3-2.4,18.4,3.5,21.6"/>
	<path class="st10" d="M149.3,212.3c-7.3-2.9,49.1,18,49.1,18l-5.7,38.6l-21.5-7L149.3,212.3z"/>
	<path class="st9" d="M224.2,212.3c0,0-14.7-20.6-12.1-20.6c2.6,0,4,3.9,9.1,6.5c0,0-8.1-25.7-5.6-25.2s8.5,17.1,8.9,17
		c0.4,0-5.2-18.5-3.1-18.8c2.1-0.2,7.2,17,7.2,17s-3.5-16.4-1.3-16.7s5.5,14.7,5.5,14.7s-2.6-12.7-0.6-13
		c1.2-0.2,12.3,31.2,12.3,31.2C244.3,204.5,224.2,212.3,224.2,212.3z"/>
	<path class="st4" d="M110.3,285.6c-0.1,0-0.1-1.1,0-3.1c0.1-2,0.3-4.8,0.7-8.3c0.6-7,1.6-16.7,2.8-27.4c0.3-2.6,0.4-5.2,0-7.6
		c-0.3-2.4-1.3-4.6-2.6-6.3c-1.3-1.8-3-3.1-4.8-4.1c-1.7-1-3.5-1.6-5.2-2.1c-3.4-0.8-6.2-0.8-8.2-0.7s-3,0.2-3.1,0.1
		c0-0.1,1-0.4,3-0.7c2-0.2,4.9-0.5,8.4,0.2c3.5,0.7,7.7,2.5,10.8,6.4c1.5,1.9,2.6,4.4,3,7s0.3,5.3,0,8c-1.2,10.7-2.3,20.4-3.2,27.3
		c-0.5,3.5-0.8,6.3-1.2,8.3C110.6,284.6,110.4,285.6,110.3,285.6z"/>
	<path class="st4" d="M112.3,283.2c0,0.4-10.2,1.9-22.8,3.2c-12.6,1.3-22.9,2.1-22.9,1.6c0-0.4,10.2-1.9,22.8-3.2
		C102,283.5,112.3,282.7,112.3,283.2z"/>
	<path class="st6" d="M179.1,113.7v44.2h29.5l0.9,16.7l17.3-17.7h65l-5.7-46.5L179.1,113.7z"/>
	<path class="st12" d="M189.1,126.8c14.5,0.6,29.1,0.2,43.6,0.2s29.2,0.8,43.6-0.1c0.6,0,0.6-0.8,0-0.9c-14.4-0.9-29.2-0.1-43.6-0.1
		c-14.5,0-29.1-0.3-43.6,0.2C188.8,126.3,188.8,126.8,189.1,126.8z"/>
	<path class="st12" d="M189.1,135.3c14.5,0.6,29.1,0.2,43.6,0.2s29.2,0.8,43.6-0.1c0.6,0,0.6-0.8,0-0.9c-14.4-0.9-29.2-0.1-43.6-0.1
		c-14.5,0-29.1-0.3-43.6,0.2C188.8,134.8,188.8,135.3,189.1,135.3z"/>
	<path class="st12" d="M189.1,144.3c8.9,0.4,17.9,0.2,26.8,0.2c8.9,0,17.9,0.5,26.8-0.1c0.6,0,0.6-0.8,0-0.9
		c-8.9-0.6-17.9-0.1-26.8-0.1c-8.9,0-17.9-0.2-26.8,0.2C188.8,143.8,188.8,144.2,189.1,144.3z"/>
	<g class="st13">
		<g class="st13">
			<g class="st13">
				<path class="st14" d="M114.5,163.3c0-2.1,2.8-3.9,6.2-3.8c3.4,0,6.2,1.8,6.2,3.9c0,2.1-2.8,3.9-6.2,3.8
					C117.3,167.2,114.5,165.5,114.5,163.3z"/>
			</g>
		</g>
	</g>
	<g class="st13">
		<g class="st13">
			<g class="st13">
				<path class="st14" d="M140.1,165.1c0-2.1,2.8-3.9,6.2-3.8c3.4,0,6.2,1.8,6.2,3.9c0,2.1-2.8,3.9-6.2,3.8
					C142.8,169,140.1,167.3,140.1,165.1z"/>
			</g>
		</g>
	</g>
	<path class="st7" d="M103.1,142.3c-0.1,0.1-0.3,0-0.6-0.4c-0.3-0.4-0.5-1.1-0.3-1.9c0.1-0.8,0.5-1.7,0.9-2.6
		c0.4-0.9,0.9-1.8,1.4-2.8c2.1-4,4.1-7,4.4-6.8c0.4,0.2-1,3.6-3.1,7.5c-0.5,1-1,1.9-1.5,2.7s-0.9,1.5-1.1,2.2
		C102.7,141.4,103.2,142.1,103.1,142.3z"/>
	<path class="st5" d="M168.9,269.9l5,66.5l-69.3,9.3l4.7-76.8L168.9,269.9z"/>
	<path class="st5" d="M163.4,224.8v52.7l-8.1-3v-60.1l8.1,2.5"/>
	<path class="st5" d="M99.2,217.4c0,0,31.3,4,22,55.2l-7.8,0.8c0,0,8.8-48-20.6-51.5L99.2,217.4z"/>
	<path class="st9" d="M108.4,276.8c0,0-10.7,63,4.4,61.4c49.6-5.1,79.1-5.8,79.1-5.8l8.2,17.1c0.2,2.9-93.9,29.8-109,20.9
		c-10.7-6.3-27.7-23.2-20-73.8l1.8-17L108.4,276.8z"/>
	<path class="st10" d="M80.9,235c0,0-11.6,11.1-14.1,53.1l44.7-5C111.5,283.2,119,211.6,80.9,235z"/>
	<path class="st9" d="M186.7,332.4c0,0,24.3-7.6,23.4-5.1c-0.8,2.5-5,2.6-9.1,6.6c0,0,27.1,0.3,25.8,2.5c-1.3,2.2-19,2.8-19.1,3.2
		c-0.1,0.4,19.3,0.9,18.9,2.9c-0.4,2.1-18.5,1.6-18.5,1.6s16.7,1.8,16.4,4c-0.3,2.2-15.8,0.6-15.8,0.6s12.9,1.5,12.6,3.5
		c-0.2,1.2-37.8,1.5-37.9,2.4C183.4,355.1,186.7,332.4,186.7,332.4z"/>
	<path class="st4" d="M155.7,270.2c0.2,0,0.2,1.2,0.3,3c0.1,0.9,0.2,1.9,0.8,2.8c0.5,0.9,1.5,1.7,2.6,1.7c1.1,0,2.1-0.7,2.8-1.6
		c0.7-0.8,1-1.9,1.2-2.7c0.4-1.8,0.5-3,0.8-2.9c0.2,0,0.5,1.2,0.3,3.1c-0.1,1-0.3,2.2-1.1,3.4c-0.4,0.6-0.9,1.1-1.6,1.6
		c-0.7,0.4-1.5,0.7-2.4,0.7c-0.9,0-1.8-0.3-2.4-0.8s-1.1-1.1-1.4-1.7c-0.7-1.3-0.7-2.6-0.7-3.5C155.1,271.3,155.5,270.2,155.7,270.2
		z"/>
	<path class="st4" d="M160.6,271.3c0.1-0.1,0.2-0.1,0.4,0c0.2,0.1,0.4,0.5,0.5,0.9c0.1,0.4,0,1.1-0.6,1.6c-0.3,0.2-0.7,0.4-1.1,0.4
		c-0.4,0-0.8-0.1-1.1-0.3c-0.3-0.2-0.6-0.5-0.7-0.9c-0.2-0.4-0.2-0.8-0.1-1.1c0.2-0.7,0.8-1,1.2-1.2c0.4-0.1,0.8,0,1,0.1
		c0.2,0.1,0.2,0.3,0.2,0.4c-0.1,0.2-0.5,0.2-0.8,0.5c-0.2,0.1-0.3,0.4-0.3,0.5c0,0.1,0.1,0.2,0.3,0.4c0.2,0.1,0.4,0.1,0.5,0.1
		s0.3-0.2,0.4-0.4C160.7,271.8,160.5,271.5,160.6,271.3z"/>
	<path class="st4" d="M114.2,269.1c0.2,0.1,0.1,0.8,0.5,1.7c0.4,0.9,1.4,2.1,2.8,2.2c1.4,0,2.5-1.1,2.9-1.9c0.5-0.9,0.4-1.6,0.7-1.7
		c0.2-0.1,0.7,0.7,0.4,2.1c-0.2,0.7-0.6,1.4-1.2,2c-0.7,0.6-1.7,1.1-2.8,1.1c-1.1-0.1-2.1-0.6-2.7-1.3c-0.6-0.7-0.9-1.5-1-2.1
		C113.4,269.8,114,269,114.2,269.1z"/>
	<path class="st4" d="M119.2,267.3c-0.1,0.2-0.6,0.1-1.1,0.3c-0.3,0.1-0.5,0.3-0.6,0.5c-0.1,0.1-0.1,0.2-0.1,0.3s0.1,0.3,0.1,0.4
		c0.2,0.3,0.4,0.3,0.5,0.3s0.3-0.2,0.3-0.4c0.1-0.2,0-0.4,0-0.6c0-0.1-0.1-0.3-0.1-0.4c0-0.1,0.2-0.2,0.5-0.1c0.3,0.1,0.7,0.5,0.7,1
		c0,0.3,0,0.6-0.1,0.9c-0.1,0.3-0.4,0.7-0.8,0.9c-0.4,0.2-0.9,0.2-1.3,0c-0.4-0.2-0.8-0.5-1-0.8c-0.2-0.4-0.4-0.8-0.4-1.2
		s0.2-0.9,0.4-1.2c0.5-0.6,1.1-0.8,1.6-0.8C119,266.6,119.3,267.1,119.2,267.3z"/>
	<path class="st4" d="M120.9,300.2c-0.4,0.1-1.1-1.2-1.1-2.9c-0.1-1.7,0.5-3.1,0.9-3c0.4,0.1,0.6,1.4,0.6,3
		C121.4,298.8,121.3,300.1,120.9,300.2z"/>
	<path class="st4" d="M126.3,310.7c-0.3,0.3-1.5-0.4-2.6-1.8c-1-1.4-1.3-2.8-0.9-3c0.4-0.2,1.3,0.8,2.2,2.1
		C125.9,309.2,126.6,310.4,126.3,310.7z"/>
	<path class="st4" d="M136.7,316.1c-0.1,0.4-1.5,0.6-3.1,0c-1.6-0.5-2.7-1.5-2.5-1.9c0.2-0.4,1.5-0.1,3,0.4S136.8,315.6,136.7,316.1
		z"/>
	<path class="st4" d="M148.4,314.6c0.2,0.4-0.9,1.3-2.6,1.8s-3.1,0.3-3.1-0.2c0-0.4,1.2-0.9,2.7-1.3
		C146.9,314.4,148.2,314.2,148.4,314.6z"/>
	<path class="st4" d="M157,306.6c0.4,0.2,0,1.6-1,3c-1.1,1.4-2.3,2-2.6,1.7c-0.3-0.3,0.4-1.4,1.4-2.7
		C155.7,307.3,156.6,306.4,157,306.6z"/>
	<path class="st4" d="M159.7,295.1c0.4,0,0.9,1.3,0.8,3c-0.1,1.7-0.8,3-1.2,2.9c-0.4-0.1-0.4-1.4-0.3-3
		C159,296.5,159.2,295.2,159.7,295.1z"/>
	<path class="st4" d="M149.7,293.2c0-0.4,1.3-0.8,3-0.9c1.6-0.1,3,0.2,3,0.7c0,0.4-1.3,0.8-3,0.9S149.7,293.7,149.7,293.2z"/>
	<path class="st4" d="M137.7,293.7c0-0.4,1.3-0.8,3-0.9c1.6-0.1,3,0.2,3,0.7c0,0.4-1.3,0.8-3,0.9
		C139.1,294.4,137.7,294.1,137.7,293.7z"/>
	<path class="st4" d="M125.8,294.1c0-0.4,1.3-0.8,3-0.9c1.6-0.1,3,0.2,3,0.7c0,0.4-1.3,0.8-3,0.9
		C127.2,294.8,125.8,294.5,125.8,294.1z"/>
	<path class="st5" d="M194.7,192c3.3,3.2,4.6,8.2,1.4,12.1c-3,3.6-8.8,4.4-12.6,1.5c-9.1-7,0.4-19.9,10.2-17.2
		c1.8,0.5,1.4,3.1-0.4,3.2c-2.9,0.2-5.9,0.3-8.2,2.3c-2.5,2.2-2.5,5.8-0.5,8.3c5.3,6.6,14.6-3.1,9-9
		C192.9,192.4,194,191.3,194.7,192z"/>
	<path class="st8" d="M163.5,288.1c-1.2,4.6-2.6,9.1-4,13.6c-0.3,1.1-1.4,1.4-2.3,0.8c-3.7-2.5-7.3-4.9-10.8-7.7
		c-0.7-0.5-0.5-1.6,0.1-2.1c4.1-2.8,9.6-6.9,14.7-6.9c1.3,0,2.2,1.8,0.9,2.6c-2.1,1.2-4.6,1.6-6.8,2.6c-2.6,1.1-5.1,2.3-7.4,3.9
		c-0.1-0.7-0.1-1.5-0.2-2.2c3.9,2.4,7.5,5.1,11.2,7.7c-0.7,0.1-1.5,0.3-2.2,0.4c1.6-4.5,3.2-8.9,4.9-13.3
		C162.2,286.6,163.8,287.1,163.5,288.1z"/>
	<path class="st15" d="M303.4,280c1.1-5.9,2.6-12.1,4.8-17.7c0.8-2.1,3.7-1,3.2,1.1c-1.3,5.8-3.5,11.6-5.8,17.1
		C305.1,281.6,303.1,281.4,303.4,280z"/>
	<path class="st6" d="M279.4,282.6c-0.3-1.8-0.2-3.6-1.2-5.2c-2-3.2-4.9-2.4-7.7-1c-2.9,1.4-5.5,2.3-8.6,1
		c-4.8-2.1-7.1-9.4-2.5-12.9c1.5-1.1,3,0.7,2.8,2.1c-0.3,2-1.3,4.1,0.4,5.8c2.3,2.3,4.9,0.4,7.1-0.7c2.4-1.1,5-1.3,7.5-0.3
		c4.3,1.7,7.4,7.6,4,11.5C280.6,283.7,279.5,283.4,279.4,282.6z"/>
	<path class="st7" d="M208.9,269.5c-5.8-1.6-11.9-3.5-17.3-6.1c-2-0.9-0.7-3.8,1.3-3.1c5.7,1.8,11.3,4.3,16.6,7.1
		C210.6,267.8,210.3,269.8,208.9,269.5z"/>
	<path class="st16" d="M213.9,286.1c-1.2,4.6-2.6,9.1-4,13.6c-0.3,1.1-1.4,1.4-2.3,0.8c-3.7-2.5-7.3-4.9-10.8-7.7
		c-0.7-0.5-0.5-1.6,0.1-2.1c4.1-2.8,9.6-6.9,14.7-6.9c1.3,0,2.2,1.8,0.9,2.6c-2.1,1.2-4.6,1.6-6.8,2.6c-2.6,1.1-5.1,2.3-7.4,3.9
		c-0.1-0.7-0.1-1.5-0.2-2.2c3.9,2.4,7.5,5.1,11.2,7.7c-0.7,0.1-1.5,0.3-2.2,0.4c1.6-4.5,3.2-8.9,4.9-13.3
		C212.5,284.7,214.1,285.2,213.9,286.1z"/>
	<path class="st6" d="M229.8,321.2c-6,0.4-12.3,0.6-18.4,0c-2.2-0.2-1.9-3.2,0.2-3.3c5.9-0.2,12.1,0.3,18,1.1
		C230.9,319.1,231.2,321.1,229.8,321.2z"/>
	<path class="st8" d="M72.9,341.5c-7.8-3.6-15.4-7.4-23-11.3c-1.8-0.9-2.1-2.9-0.7-4.3c5.6-5.8,11.1-11.6,17.1-16.9
		c1.2-1,3-0.4,3.6,0.9c3.7,8.1,9.4,19.2,7.8,28.4c-0.4,2.3-4,3.4-4.9,0.8c-1.5-4.1-1.5-8.7-2.4-12.9c-1.1-4.9-2.6-9.8-4.7-14.4
		c1.4,0.1,2.7,0.3,4.1,0.4c-5.5,6.2-11.4,11.9-17.3,17.6c0-1.3-0.1-2.7-0.1-4c7.5,4.2,14.8,8.4,22.1,12.9
		C75.9,339.6,74.5,342.2,72.9,341.5z"/>
	<path class="st15" d="M1158.4,136.1c-7.9-3.4-16-7.6-23.1-12.3c-2.2-1.5-0.2-5.3,2.3-4.1c7.8,3.7,15.4,8.7,22.4,13.7
		C1161.5,134.4,1160.1,136.9,1158.4,136.1z"/>
	<path class="st4" d="M1141.8,89.9c0.1-0.1,0.3-0.3,0.4-0.4c1.9-1.7,5.1-2,6.9,0c1.9,2.1,1.8,4.9,0,6.9c-0.1,0.1-0.3,0.3-0.4,0.4
		c-1.7,1.9-5.3,1.9-7,0C1140.1,95,1139.7,91.7,1141.8,89.9z"/>
	<path class="st9" d="M1293.1,210.1l-85.8,32.2l8.2-34.6l-22.3-5.7c0,0-24,67.7-7.3,69.5c29.2,3.2,73.3-8.4,73.3-8.4L1293.1,210.1z"
		/>
	<path class="st10" d="M1263.4,287.8l0.2,67.8c22.3,27.5,100.1-8,100.1-8l0.9-27.7l1.8-66.1c-1.8-26.3-26.2-39.2-26.2-39.2
		c-10.1-5-25.5-7.9-39.4-7.2c-14.5,0.7-18.1,7.7-24,20.9C1271.9,238.9,1263.4,248.9,1263.4,287.8z"/>
	<path class="st9" d="M1331.8,275.5c0,0,10.9,64.1-4.5,62.5c-50.4-5.2-80.5-5.9-80.5-5.9l-8.4,17.4c-0.2,3,95.5,30.3,110.9,21.3
		c10.9-6.4,28.2-23.6,20.3-75.1l-1.9-17.3L1331.8,275.5z"/>
	<path class="st10" d="M1359.5,233c0,0,11.8,11.3,14.4,54l-45.5-5C1328.4,282,1320.8,209.2,1359.5,233z"/>
	<path class="st9" d="M1336.7,143.4l-1,13.6c0,0,11.5,1.6,8.2,12.1c-3.3,10.5-11.2,5.9-11.2,5.9s-2,27-29.6,18.4
		c-22-6.8-20.6-35.3-17.8-59.5c1.1-9.4,10-15.9,19.3-14.1l16.6,3.2C1330.8,124.9,1337.4,133.6,1336.7,143.4z"/>
	<path class="st9" d="M1335.7,168.2l-7.4,39.7c-1.7,8.9-10.5,14.7-19.3,12.6c-8.2-2-13.5-10-12-18.3l4-22.7L1335.7,168.2z"/>
	<path class="st4" d="M1296.1,190.6c0.1-0.2,1.5,0.7,3.7,1.7c2.3,1,5.6,2,9.3,2.1c3.8,0.1,7.1-0.8,9.4-1.7c2.3-0.9,3.7-1.7,3.8-1.5
		c0.1,0.2-1,1.3-3.4,2.5c-2.3,1.2-5.9,2.3-9.9,2.3c-4-0.1-7.6-1.4-9.8-2.7C1297.1,192,1296,190.7,1296.1,190.6z"/>
	<path class="st11" d="M1299.6,175.1c0.8,3.6,4.2,6.1,7.9,5.5c3.7-0.6,6.2-4,5.8-7.6L1299.6,175.1z"/>
	<path class="st4" d="M1336.5,170.3c0-0.2,0.7-0.4,1.4-0.9c0.4-0.3,0.7-0.6,0.8-1c0.1-0.2,0-0.4,0-0.6c-0.1-0.2-0.1-0.2-0.3-0.3
		c-0.3-0.1-0.5,0-0.5,0l-1.3-0.7c1.1-2.1,2-3.6,2.4-3.5c0.3,0.1-0.1,1.9-1,4.1l-1.3-0.7c0.2-0.4,0.7-0.7,1.1-0.8
		c0.4-0.1,0.9-0.1,1.3,0.1c0.6,0.2,1.1,0.8,1.2,1.3c0.2,0.6,0.1,1.1-0.1,1.5c-0.2,0.4-0.4,0.8-0.7,1.1c-0.3,0.3-0.6,0.4-0.9,0.5
		C1337.2,170.9,1336.5,170.5,1336.5,170.3z"/>
	<path class="st4" d="M1335.7,157c-7.7-7.5-10-20-12.1-30.6c-7.1,5.2-17,6.5-25.2,3.3c-2.6,3-5.6,5.7-9,7.8c-1,0.6-2.1,1.2-3.2,0.9
		c-1.3-0.4-1.9-1.9-2.2-3.2c-1-4.2-1-8.7,0.4-12.8c1.5-4.1,4.5-7.6,8.6-9.2c4.3-1.7,9.2-0.9,13.6,0.2c6.7,1.7,13.2,4.4,19.3,8
		c5.9,3.5,11.6,8,14.1,14.4c2.5,6.4,2.5,18.7-3.5,21.9"/>
	<path class="st10" d="M1290.1,209.8c7.5-3-50,18.4-50,18.4l5.8,39.3l21.8-7.2L1290.1,209.8z"/>
	<path class="st9" d="M1252.1,332.1c0,0-24.7-7.7-23.8-5.2c0.8,2.5,5,2.6,9.2,6.7c0,0-27.6,0.3-26.3,2.6c1.3,2.3,19.3,2.8,19.4,3.2
		s-19.6,0.9-19.2,3s18.8,1.6,18.8,1.6s-17,1.8-16.7,4.1c0.3,2.3,16,0.6,16,0.6s-13.1,1.5-12.8,3.6c0.2,1.2,38.4,1.5,38.5,2.5
		C1255.4,355.2,1252.1,332.1,1252.1,332.1z"/>
	<path class="st9" d="M1213.9,209.8c0,0,15-20.9,12.3-20.9c-2.7,0-4.1,4-9.3,6.7c0,0,8.3-26.2,5.7-25.6c-2.6,0.5-8.7,17.4-9.1,17.3
		c-0.4,0,5.3-18.9,3.1-19.1c-2.1-0.2-7.3,17.3-7.3,17.3s3.6-16.7,1.3-17c-2.3-0.4-5.6,15-5.6,15s2.7-12.9,0.6-13.2
		c-1.2-0.2-12.6,31.8-12.6,31.8C1193.5,202,1213.9,209.8,1213.9,209.8z"/>
	<path class="st17" d="M1352.1,267.5c0.1,0,0.2,0.3,0.2,0.8s0,1.2,0.2,2c0.1,0.8,0.5,1.6,1.3,2.1c0.8,0.5,1.6,0.3,2.4-0.6
		c0.4-0.5,0.9-1,1.5-1.5c0.6-0.5,1.4-0.7,2.1-0.8c1.4-0.1,2.7,0.5,3.4,1.4c0.7,0.8,0.8,1.7,0.8,2.2c0,0.6-0.2,0.8-0.3,0.8
		c-0.1,0-0.2-0.3-0.3-0.7c-0.2-0.4-0.5-1-1-1.5c-0.6-0.5-1.4-0.8-2.4-0.7c-0.5,0.1-0.9,0.3-1.3,0.6c-0.4,0.3-0.8,0.8-1.3,1.4
		c-0.5,0.5-1.2,1.1-2,1.3c-0.9,0.2-1.8-0.1-2.4-0.5c-1.2-0.9-1.6-2.3-1.6-3.2c0-1,0.2-1.7,0.3-2.2
		C1351.9,267.7,1352,267.4,1352.1,267.5z"/>
	<path class="st17" d="M1338.7,255.8c-0.1,0.1-0.3,0-0.8-0.3c-0.4-0.2-1.1-0.6-1.8-0.9c-0.8-0.3-1.7-0.4-2.5,0
		c-0.8,0.4-1.1,1.1-0.7,2.4c0.2,0.6,0.4,1.3,0.5,2.1c0.1,0.8-0.1,1.6-0.4,2.2c-0.6,1.3-1.9,2-2.9,2.2c-1,0.1-1.9-0.2-2.3-0.5
		c-0.5-0.3-0.6-0.6-0.6-0.7c0.1-0.1,0.3,0,0.8,0.1s1.1,0.2,1.9-0.1c0.7-0.2,1.4-0.8,1.8-1.7c0.2-0.4,0.3-0.9,0.2-1.4
		s-0.3-1.1-0.5-1.8c-0.2-0.7-0.4-1.6-0.1-2.4c0.3-0.9,1-1.5,1.7-1.7c1.4-0.6,2.8-0.2,3.6,0.3c0.9,0.5,1.4,1.1,1.7,1.4
		C1338.6,255.5,1338.7,255.7,1338.7,255.8z"/>
	<path class="st17" d="M1339.6,226.8c-0.1,0.1-0.3,0-0.8-0.3c-0.4-0.2-1.1-0.6-1.8-0.9c-0.8-0.3-1.7-0.4-2.5,0
		c-0.8,0.4-1.1,1.1-0.7,2.4c0.2,0.6,0.4,1.3,0.5,2.1c0.1,0.8-0.1,1.6-0.4,2.2c-0.6,1.3-1.9,2-2.9,2.2c-1,0.1-1.9-0.2-2.3-0.5
		c-0.5-0.3-0.6-0.6-0.6-0.7c0.1-0.1,0.3,0,0.8,0.1c0.5,0.1,1.1,0.2,1.9-0.1c0.7-0.2,1.4-0.8,1.8-1.7c0.2-0.4,0.3-0.9,0.2-1.4
		c-0.1-0.5-0.3-1.1-0.5-1.8c-0.2-0.7-0.4-1.6-0.1-2.4c0.3-0.9,1-1.5,1.7-1.7c1.4-0.6,2.8-0.2,3.6,0.3c0.9,0.5,1.4,1.1,1.7,1.4
		C1339.5,226.5,1339.6,226.8,1339.6,226.8z"/>
	<path class="st17" d="M1310.8,264.6c-0.1-0.1,0.1-0.3,0.3-0.8c0.3-0.4,0.7-1,1.1-1.7c0.4-0.7,0.5-1.6,0.2-2.5
		c-0.4-0.9-1-1.2-2.3-0.9c-0.6,0.1-1.3,0.3-2.1,0.3s-1.6-0.2-2.2-0.6c-1.2-0.7-1.9-2-1.9-3.1c0-1.1,0.3-1.8,0.7-2.3
		c0.3-0.4,0.6-0.6,0.7-0.5c0.1,0.1,0,0.3-0.2,0.8c-0.1,0.4-0.2,1.1-0.1,1.9c0.1,0.7,0.7,1.5,1.5,2c0.4,0.2,0.9,0.3,1.4,0.3
		s1.1-0.2,1.8-0.3c0.7-0.1,1.6-0.2,2.4,0.2c0.8,0.4,1.4,1.1,1.6,1.8c0.5,1.4,0,2.8-0.6,3.6c-0.6,0.8-1.2,1.3-1.6,1.6
		C1311.2,264.6,1310.9,264.7,1310.8,264.6z"/>
	<path class="st17" d="M1291.2,294.9c0.1-0.1,0.4,0,0.8,0.2c0.5,0.2,1.1,0.5,1.9,0.8c0.8,0.2,1.7,0.3,2.5-0.2c0.8-0.5,1-1.2,0.5-2.4
		c-0.2-0.6-0.5-1.3-0.7-2c-0.1-0.8,0-1.6,0.2-2.2c0.5-1.3,1.7-2.2,2.7-2.4c1-0.2,1.9,0,2.4,0.3s0.7,0.5,0.6,0.6s-0.3,0-0.8,0
		c-0.5-0.1-1.1-0.1-1.8,0.2c-0.7,0.3-1.4,0.9-1.7,1.8c-0.1,0.5-0.2,1-0.1,1.4c0.1,0.5,0.4,1.1,0.6,1.8c0.2,0.7,0.5,1.5,0.2,2.4
		c-0.2,0.9-0.9,1.5-1.6,1.8c-1.3,0.7-2.7,0.4-3.6,0c-0.9-0.4-1.5-0.9-1.8-1.3C1291.3,295.2,1291.2,295,1291.2,294.9z"/>
	<path class="st17" d="M1268.2,247.1c0.1-0.1,0.4,0,0.8,0.2c0.5,0.2,1.1,0.5,1.9,0.8c0.8,0.2,1.7,0.3,2.5-0.2c0.8-0.5,1-1.2,0.5-2.4
		c-0.2-0.6-0.5-1.3-0.7-2c-0.1-0.8,0-1.6,0.2-2.2c0.5-1.3,1.7-2.2,2.7-2.4c1-0.2,1.9,0,2.4,0.3s0.7,0.5,0.6,0.6
		c-0.1,0.1-0.3,0-0.8,0c-0.5-0.1-1.1-0.1-1.8,0.2s-1.4,0.9-1.7,1.8c-0.1,0.5-0.2,1-0.1,1.4c0.1,0.5,0.4,1.1,0.6,1.8
		c0.2,0.7,0.5,1.5,0.2,2.4c-0.2,0.9-0.9,1.5-1.6,1.8c-1.3,0.7-2.7,0.4-3.6,0c-0.9-0.4-1.5-0.9-1.8-1.3
		C1268.2,247.4,1268.1,247.2,1268.2,247.1z"/>
	<path class="st17" d="M1252.4,239.8c0.1,0.1-0.1,0.3-0.5,0.7c-0.3,0.4-0.9,0.8-1.4,1.5s-0.8,1.5-0.7,2.4c0.2,0.9,0.8,1.4,2.1,1.3
		c0.6,0,1.4-0.1,2.1,0.1c0.8,0.1,1.5,0.5,2,1c1.1,0.9,1.5,2.4,1.3,3.4c-0.1,1-0.6,1.7-1.1,2.1c-0.4,0.4-0.7,0.4-0.8,0.4
		c-0.1-0.1,0.1-0.3,0.3-0.7c0.2-0.4,0.4-1,0.4-1.8s-0.4-1.6-1.1-2.2c-0.4-0.3-0.8-0.5-1.3-0.6c-0.5-0.1-1.1,0-1.9,0
		c-0.7,0-1.6-0.1-2.4-0.6c-0.8-0.5-1.1-1.4-1.2-2.1c-0.2-1.5,0.6-2.7,1.2-3.4c0.7-0.7,1.4-1.1,1.9-1.3
		C1252.1,239.8,1252.3,239.7,1252.4,239.8z"/>
	<path class="st17" d="M1316.1,319.6c0.1-0.1,0.4,0,0.8,0.2c0.5,0.2,1.1,0.5,1.9,0.8c0.8,0.2,1.7,0.3,2.5-0.2c0.8-0.5,1-1.2,0.5-2.4
		c-0.2-0.6-0.5-1.3-0.7-2c-0.1-0.8,0-1.6,0.2-2.2c0.5-1.3,1.7-2.2,2.7-2.4c1-0.2,1.9,0,2.4,0.3c0.5,0.3,0.7,0.5,0.6,0.6
		c-0.1,0.1-0.3,0-0.8,0c-0.5-0.1-1.1-0.1-1.8,0.2c-0.7,0.3-1.4,0.9-1.7,1.8c-0.1,0.5-0.2,1-0.1,1.4c0.1,0.5,0.4,1.1,0.6,1.8
		c0.2,0.7,0.5,1.5,0.2,2.4c-0.2,0.9-0.9,1.5-1.6,1.8c-1.3,0.7-2.7,0.4-3.6,0c-0.9-0.4-1.5-0.9-1.8-1.3
		C1316.2,320,1316,319.7,1316.1,319.6z"/>
	<path class="st17" d="M1281.9,273.6c-0.1-0.1,0-0.4,0.2-0.8c0.2-0.5,0.6-1.1,0.9-1.8c0.3-0.8,0.4-1.7-0.1-2.5s-1.2-1.1-2.4-0.6
		c-0.6,0.2-1.3,0.5-2.1,0.6c-0.8,0.1-1.6,0-2.2-0.3c-1.3-0.6-2.1-1.8-2.3-2.8c-0.2-1,0.1-1.9,0.4-2.3c0.3-0.5,0.6-0.6,0.6-0.6
		c0.1,0.1,0,0.3-0.1,0.8c-0.1,0.5-0.1,1.1,0.1,1.9c0.2,0.7,0.8,1.4,1.7,1.8c0.4,0.2,0.9,0.2,1.4,0.1s1.1-0.3,1.8-0.5
		c0.7-0.2,1.6-0.4,2.4-0.1c0.9,0.3,1.5,1,1.8,1.6c0.6,1.4,0.3,2.8-0.2,3.6c-0.5,0.9-1,1.4-1.4,1.8
		C1282.3,273.5,1282,273.7,1281.9,273.6z"/>
	<path class="st17" d="M1275.8,298.3c-0.1-0.1,0-0.4,0.2-0.8c0.2-0.5,0.6-1.1,0.9-1.8c0.3-0.8,0.4-1.7-0.1-2.5
		c-0.5-0.8-1.2-1.1-2.4-0.6c-0.6,0.2-1.3,0.5-2.1,0.6c-0.8,0.1-1.6,0-2.2-0.3c-1.3-0.6-2.1-1.8-2.3-2.8c-0.2-1,0.1-1.9,0.4-2.3
		c0.3-0.5,0.6-0.6,0.6-0.6c0.1,0.1,0,0.3-0.1,0.8c-0.1,0.5-0.1,1.1,0.1,1.9c0.2,0.7,0.8,1.4,1.7,1.8c0.4,0.2,0.9,0.2,1.4,0.1
		c0.5-0.1,1.1-0.3,1.8-0.5c0.7-0.2,1.6-0.4,2.4-0.1c0.9,0.3,1.5,1,1.8,1.6c0.6,1.4,0.3,2.8-0.2,3.6c-0.5,0.9-1,1.4-1.4,1.8
		C1276.2,298.3,1275.9,298.4,1275.8,298.3z"/>
	<path class="st17" d="M1325.2,287.8c-0.1,0-0.2-0.3-0.4-0.8c-0.1-0.5-0.3-1.2-0.6-1.9c-0.3-0.8-0.9-1.5-1.8-1.8
		c-0.9-0.3-1.6,0-2.2,1.2c-0.3,0.6-0.6,1.2-1.1,1.8c-0.5,0.6-1.2,1-1.9,1.2c-1.4,0.4-2.8,0.1-3.6-0.6c-0.8-0.7-1.2-1.4-1.3-2
		c-0.1-0.5,0-0.9,0.1-0.9s0.2,0.2,0.5,0.6c0.3,0.4,0.7,0.9,1.3,1.3c0.7,0.4,1.6,0.5,2.5,0.1c0.4-0.2,0.9-0.5,1.2-0.9
		c0.3-0.4,0.6-1,1-1.6s0.9-1.4,1.7-1.7c0.8-0.4,1.7-0.3,2.4,0c1.4,0.6,2.1,1.9,2.3,2.8c0.2,1,0.2,1.7,0.2,2.2
		C1325.4,287.5,1325.3,287.8,1325.2,287.8z"/>
	<path class="st17" d="M1280.6,318.3c-0.1,0-0.2-0.3-0.4-0.8c-0.1-0.5-0.3-1.2-0.6-1.9c-0.3-0.8-0.9-1.5-1.8-1.8
		c-0.9-0.3-1.6,0-2.2,1.2c-0.3,0.6-0.6,1.2-1.1,1.8c-0.5,0.6-1.2,1-1.9,1.2c-1.4,0.5-2.8,0.1-3.6-0.6c-0.8-0.7-1.2-1.4-1.3-2
		c-0.1-0.5,0-0.9,0.1-0.9c0.1,0,0.2,0.2,0.5,0.6c0.3,0.4,0.7,0.9,1.3,1.3c0.7,0.4,1.6,0.5,2.5,0.1c0.4-0.2,0.9-0.5,1.2-0.9
		c0.3-0.4,0.6-1,1-1.6c0.4-0.6,0.9-1.4,1.7-1.7c0.8-0.4,1.7-0.3,2.4,0c1.4,0.6,2.1,1.9,2.3,2.8c0.2,1,0.2,1.7,0.2,2.2
		C1280.8,318,1280.7,318.3,1280.6,318.3z"/>
	<path class="st17" d="M1281.9,225.9c-0.1,0-0.2-0.3-0.4-0.8c-0.1-0.5-0.3-1.2-0.6-1.9c-0.3-0.8-0.9-1.5-1.8-1.8
		c-0.9-0.3-1.6,0-2.2,1.2c-0.3,0.6-0.6,1.2-1.1,1.8c-0.5,0.6-1.2,1-1.9,1.2c-1.4,0.5-2.8,0.1-3.6-0.6c-0.8-0.7-1.2-1.4-1.3-2
		c-0.1-0.5,0-0.9,0.1-0.9s0.2,0.2,0.5,0.6c0.3,0.4,0.7,0.9,1.3,1.3c0.7,0.4,1.6,0.5,2.5,0.1c0.4-0.2,0.9-0.5,1.2-0.9
		c0.3-0.4,0.6-1,1-1.6c0.4-0.6,0.9-1.4,1.7-1.7c0.8-0.4,1.7-0.3,2.4,0c1.4,0.6,2.1,1.9,2.3,2.8c0.2,1,0.2,1.7,0.2,2.2
		C1282.1,225.6,1282,225.9,1281.9,225.9z"/>
	<path class="st17" d="M1296.5,330.6c-0.1-0.1,0.2-0.3,0.5-0.6c0.4-0.3,1-0.7,1.5-1.3c0.6-0.6,1-1.4,1-2.3c-0.1-0.9-0.6-1.5-1.9-1.6
		c-0.6-0.1-1.4-0.1-2.1-0.3c-0.8-0.2-1.4-0.7-1.9-1.2c-1-1.1-1.2-2.5-0.9-3.5c0.3-1,0.9-1.7,1.3-2c0.5-0.3,0.8-0.4,0.8-0.3
		c0.1,0.1-0.1,0.3-0.4,0.7c-0.3,0.4-0.6,1-0.7,1.7c-0.1,0.7,0.2,1.6,0.8,2.3c0.3,0.3,0.8,0.6,1.2,0.7c0.5,0.1,1.1,0.2,1.9,0.3
		c0.7,0.1,1.6,0.3,2.3,0.9c0.7,0.6,0.9,1.5,0.9,2.2c0,1.5-0.9,2.6-1.7,3.2c-0.8,0.6-1.5,0.9-2,1
		C1296.8,330.7,1296.5,330.7,1296.5,330.6z"/>
	<path class="st17" d="M1349.4,239.8c0.1,0.1,0,0.3-0.2,0.8c-0.2,0.5-0.5,1.1-0.7,1.9s-0.2,1.7,0.3,2.5s1.3,0.9,2.5,0.4
		c0.6-0.2,1.2-0.6,2-0.8c0.8-0.2,1.6-0.1,2.2,0.1c1.4,0.5,2.3,1.6,2.5,2.6c0.3,1,0.1,1.9-0.1,2.4c-0.2,0.5-0.5,0.7-0.6,0.6
		c-0.1-0.1,0-0.3,0-0.8s0-1.1-0.3-1.8s-1-1.3-1.9-1.6c-0.5-0.1-1-0.1-1.4,0c-0.5,0.1-1.1,0.4-1.7,0.7c-0.7,0.3-1.5,0.6-2.4,0.4
		s-1.6-0.8-1.9-1.5c-0.8-1.3-0.6-2.7-0.2-3.6c0.4-0.9,0.9-1.5,1.2-1.9C1349.1,239.9,1349.3,239.8,1349.4,239.8z"/>
	<path class="st17" d="M1298.3,230.7c0.1,0.1,0,0.3-0.2,0.8c-0.2,0.5-0.5,1.1-0.7,1.9c-0.2,0.8-0.2,1.7,0.3,2.5
		c0.5,0.8,1.3,0.9,2.5,0.4c0.6-0.2,1.2-0.6,2-0.8c0.8-0.2,1.6-0.1,2.2,0.1c1.4,0.5,2.3,1.6,2.5,2.6c0.3,1,0.1,1.9-0.1,2.4
		c-0.2,0.5-0.5,0.7-0.6,0.6c-0.1-0.1,0-0.3,0-0.8s0-1.1-0.3-1.8c-0.3-0.7-1-1.3-1.9-1.6c-0.5-0.1-1-0.1-1.4,0
		c-0.5,0.1-1.1,0.4-1.7,0.7c-0.7,0.3-1.5,0.6-2.4,0.4c-0.9-0.2-1.6-0.8-1.9-1.5c-0.8-1.3-0.6-2.7-0.2-3.6s0.9-1.5,1.2-1.9
		C1298,230.8,1298.2,230.6,1298.3,230.7z"/>
	<path class="st4" d="M1329.8,284.5c-0.1,0-0.3-1.1-0.6-3.1c-0.3-2-0.7-4.9-1.2-8.4c-0.9-7.1-2.1-16.9-3.3-27.8
		c-0.3-2.7-0.4-5.5,0-8.2c0.4-2.7,1.5-5.2,3.1-7.1c3.1-3.9,7.4-5.8,11-6.5c3.6-0.7,6.6-0.5,8.6-0.2s3.1,0.6,3.1,0.7
		c0,0.1-1.1,0-3.1-0.1c-2-0.1-4.9-0.1-8.3,0.7c-1.7,0.4-3.5,1.1-5.3,2.1c-1.8,1-3.5,2.4-4.8,4.2c-1.4,1.8-2.3,4-2.7,6.4
		c-0.4,2.4-0.2,5.1,0,7.8c1.2,10.9,2.2,20.7,2.8,27.9c0.3,3.6,0.5,6.5,0.7,8.5C1330,283.4,1329.9,284.4,1329.8,284.5z"/>
	<path class="st4" d="M1327.8,282c0-0.4,10.5,0.3,23.3,1.7c12.8,1.4,23.2,2.8,23.2,3.2s-10.5-0.3-23.3-1.7
		C1338.1,283.9,1327.8,282.4,1327.8,282z"/>
	<path class="st6" d="M1216.8,300.4c-0.4-2.6-0.3-5.1-1.8-7.4c-2.9-4.6-7-3.4-11-1.4c-4.1,2-7.9,3.3-12.3,1.4
		c-6.9-3-10.1-13.4-3.6-18.3c2.1-1.6,4.2,1,4,3c-0.4,2.8-1.8,5.9,0.6,8.3c3.2,3.2,7,0.5,10.2-0.9c3.5-1.6,7.1-1.9,10.7-0.5
		c6.1,2.5,10.6,10.8,5.7,16.4C1218.6,301.8,1216.9,301.5,1216.8,300.4z"/>
	<path class="st8" d="M1168.6,172.8c4.8,4.6,6.6,11.7,2,17.2c-4.3,5.2-12.6,6.3-17.9,2.1c-12.9-10,0.5-28.4,14.5-24.6
		c2.6,0.7,1.9,4.4-0.6,4.5c-4.1,0.2-8.4,0.4-11.7,3.2c-3.5,3.1-3.6,8.3-0.7,11.8c7.6,9.3,20.8-4.4,12.8-12.8
		C1166,173.4,1167.5,171.8,1168.6,172.8z"/>
	<path class="st5" d="M1383.4,158.9c4.8,4.6,6.6,11.7,2,17.2c-4.3,5.2-12.6,6.3-17.9,2.1c-12.9-10,0.5-28.4,14.5-24.6
		c2.6,0.7,1.9,4.4-0.6,4.5c-4.1,0.2-8.4,0.4-11.7,3.2c-3.5,3.1-3.6,8.3-0.7,11.8c7.6,9.3,20.8-4.4,12.8-12.8
		C1380.8,159.5,1382.4,157.9,1383.4,158.9z"/>
	<path class="st8" d="M1429.9,342.8c-3.3,12.2-6.9,24.2-10.7,36.3c-0.9,2.9-3.6,3.8-6.1,2.1c-9.8-6.7-19.6-13.2-28.9-20.6
		c-1.8-1.4-1.4-4.3,0.4-5.5c10.9-7.5,25.6-18.5,39.3-18.6c3.5,0,6,4.9,2.4,7c-5.6,3.2-12.2,4.4-18.2,6.8
		c-6.9,2.9-13.7,6.2-19.7,10.5c-0.1-2-0.3-4-0.4-6c10.4,6.4,20.1,13.5,30,20.7c-1.9,0.4-3.9,0.8-5.8,1.2
		c4.2-11.9,8.5-23.7,13.2-35.5C1426.4,338.8,1430.6,340.2,1429.9,342.8z"/>
	<path class="st7" d="M1153.9,229.2c-8.5,1.2-17.5,2-26.1,1.7c-3.2-0.1-3-4.5,0-4.8c8.4-0.9,17.3-0.7,25.7-0.1
		C1155.2,226.1,1155.9,228.9,1153.9,229.2z"/>
	<path class="st7" d="M1411.9,223.6c-6.4,5.7-13.5,11.3-20.9,15.8c-2.7,1.7-5-2.1-2.6-4c6.5-5.4,14.1-10.1,21.4-14.2
		C1411.2,220.4,1413.4,222.3,1411.9,223.6z"/>
	<path class="st4" d="M1263.4,282.4c-0.2,0-0.5-1.9-0.5-5c-0.1-3.1,0.1-7.3,0.5-11.9s0.7-8.7,0.9-11.9c0.2-3,0.4-4.9,0.6-4.9
		c0.2,0,0.5,1.9,0.5,4.9c0.1,3.1-0.1,7.3-0.5,11.9s-0.7,8.7-0.9,11.9C1263.8,280.6,1263.6,282.4,1263.4,282.4z"/>
	<path class="st4" d="M1214.5,212.1l-22.5-6.3l-1.4,4l22.8,7.1L1214.5,212.1z"/>
	<path class="st18" d="M1200.1,211.1c0,1.5,1.3,2.8,2.8,2.8s2.8-1.3,2.8-2.8s-1.3-2.8-2.8-2.8S1200.1,209.6,1200.1,211.1z"/>
	<path class="st7" d="M1304.9,58.8v45h30l0.9,17l17.7-18h66.1l-5.8-47.3L1304.9,58.8z"/>
	<path class="st12" d="M1315.1,72.2c14.8,0.6,29.6,0.2,44.4,0.2c14.7,0,29.7,0.9,44.4-0.1c0.6,0,0.6-0.8,0-0.9
		c-14.7-0.9-29.7-0.1-44.4-0.1c-14.8,0-29.6-0.3-44.4,0.2C1314.8,71.7,1314.8,72.2,1315.1,72.2z"/>
	<path class="st12" d="M1315.1,80.8c14.8,0.6,29.6,0.2,44.4,0.2c14.7,0,29.7,0.9,44.4-0.1c0.6,0,0.6-0.8,0-0.9
		c-14.7-0.9-29.7-0.1-44.4-0.1c-14.8,0-29.6-0.3-44.4,0.2C1314.8,80.3,1314.8,80.8,1315.1,80.8z"/>
	<path class="st12" d="M1315.1,89.9c9.1,0.4,18.2,0.2,27.3,0.2c9,0,18.3,0.6,27.3-0.1c0.6,0,0.6-0.8,0-0.9c-9-0.6-18.2-0.1-27.3-0.1
		c-9.1,0-18.2-0.2-27.3,0.2C1314.8,89.4,1314.8,89.9,1315.1,89.9z"/>
	<path class="st5" d="M1252,110.4c0,15.1-12.2,27.3-27.3,27.3s-27.3-12.2-27.3-27.3s12.2-27.3,27.3-27.3v27.3H1252z"/>
	<path class="st8" d="M1255.6,106.8h-27.3V79.6C1243.3,79.6,1255.6,91.8,1255.6,106.8z"/>
	<path class="st19" d="M1176.8,371.3l-47.7-12.8c-4.4-1.2-7-5.7-5.8-10.1l12.8-47.7c1.2-4.4,5.7-7,10.1-5.8l47.7,12.8
		c4.4,1.2,7,5.7,5.8,10.1l-12.8,47.7C1185.8,369.8,1181.2,372.5,1176.8,371.3z"/>
	<path class="st8" d="M1192.7,315.1l-49.1-13.2l-6.3,23.6l49.1,13.2L1192.7,315.1z"/>
	<path class="st5" d="M1160.4,339.5l-25.1-6.8l-4.9,18.3l25.1,6.7L1160.4,339.5z"/>
	<path class="st12" d="M1157.6,323.6l-0.1-1.8v-0.1l-4.1-1.1h-0.1l-1,1.6c0,0.1-0.1,0.1-0.2,0.1l-1.2-0.3c-0.1,0-0.1-0.1-0.1-0.2
		l5.8-9c0-0.1,0.1-0.1,0.2-0.1l1.4,0.4c0.1,0,0.1,0.1,0.1,0.2l0.6,10.7v0.1c0,0.1-0.1,0.1-0.2,0.1l-1.2-0.3
		C1157.7,323.8,1157.6,323.7,1157.6,323.6z M1154.1,319.6l3.4,0.9c0,0,0,0,0.1,0l-0.2-5.8c0,0,0,0-0.1,0L1154.1,319.6
		C1154,319.6,1154,319.6,1154.1,319.6z"/>
	<path class="st12" d="M1160.8,324.4l2.6-9.9c0-0.1,0.1-0.1,0.2-0.1l3.5,0.9c1,0.3,1.7,0.7,2.2,1.4c0.5,0.7,0.6,1.5,0.3,2.4
		l-1.2,4.3c-0.2,0.9-0.7,1.5-1.5,1.9c-0.7,0.4-1.6,0.4-2.6,0.1l-3.5-0.9C1160.8,324.6,1160.8,324.5,1160.8,324.4z M1162.5,323.8
		l2.3,0.6c0.6,0.2,1.1,0.1,1.5-0.2c0.4-0.3,0.7-0.7,0.9-1.2l1.1-3.9c0.2-0.6,0.1-1.1-0.1-1.5c-0.2-0.4-0.6-0.7-1.2-0.9l-2.3-0.6
		h-0.1L1162.5,323.8C1162.5,323.7,1162.5,323.8,1162.5,323.8z"/>
	<path class="st12" d="M1171,327.1c-0.5-0.4-0.8-0.8-1-1.3s-0.2-1,0-1.6l0.1-0.4c0-0.1,0.1-0.1,0.2-0.1l1.1,0.3
		c0.1,0,0.1,0.1,0.1,0.2l-0.1,0.3c-0.1,0.5,0,1,0.3,1.4c0.3,0.4,0.9,0.7,1.6,0.9c0.7,0.2,1.2,0.2,1.6,0c0.4-0.2,0.7-0.5,0.8-1
		c0.1-0.3,0.1-0.6-0.1-0.8c-0.1-0.3-0.3-0.5-0.6-0.8c-0.3-0.3-0.7-0.6-1.3-1c-0.6-0.5-1.1-0.9-1.5-1.2c-0.4-0.3-0.6-0.7-0.8-1.2
		c-0.2-0.4-0.2-0.9,0-1.5c0.2-0.8,0.7-1.4,1.4-1.7c0.7-0.3,1.6-0.3,2.6-0.1c0.7,0.2,1.3,0.5,1.8,0.9s0.8,0.8,1,1.4
		c0.2,0.5,0.2,1.1,0,1.6l-0.1,0.3c0,0.1-0.1,0.1-0.2,0.1l-1.1-0.3c-0.1,0-0.1-0.1-0.1-0.2l0.1-0.2c0.1-0.5,0-1-0.3-1.4
		c-0.3-0.4-0.8-0.8-1.5-0.9c-0.6-0.2-1.1-0.2-1.5,0c-0.4,0.2-0.7,0.5-0.8,0.9c-0.1,0.3-0.1,0.6,0,0.8c0.1,0.2,0.3,0.5,0.6,0.7
		c0.3,0.2,0.7,0.6,1.3,1c0.6,0.5,1.1,0.9,1.5,1.2c0.4,0.3,0.6,0.7,0.8,1.2c0.2,0.4,0.2,0.9,0,1.5c-0.2,0.9-0.7,1.4-1.5,1.8
		c-0.8,0.3-1.7,0.3-2.8,0.1C1172.1,327.7,1171.4,327.5,1171,327.1z"/>
	<path class="st20" d="M1176.3,361.4l-15.8-4.3"/>
	<path class="st20" d="M1179.3,358.3l-17.8-4.8"/>
	<path class="st20" d="M1178.3,354.1l-15.9-4.3"/>
	<path class="st20" d="M1174.9,349.3l-11.5-3.1"/>
	<path class="st20" d="M1183.9,347.8l-19.5-5.3"/>
</g>
</svg>
