<svg width="534" height="306" viewBox="0 0 534 306" fill="none" xmlns="http://www.w3.org/2000/svg">
<g opacity="0.3">
<path d="M423.635 260.068H88.4027C85.9216 260.068 83.8999 258.047 83.8999 255.566V51.7196C83.8999 49.2393 85.9216 47.2183 88.4027 47.2183H423.635C426.116 47.2183 428.137 49.2393 428.137 51.7196V255.566C428.046 258.047 426.116 260.068 423.635 260.068Z" stroke="black" stroke-width="2" stroke-miterlimit="10"/>
<path d="M83.8999 69.7251H428.045" stroke="black" stroke-width="2" stroke-miterlimit="10"/>
<path d="M106.598 58.7015C106.598 60.4469 105.22 61.8249 103.474 61.8249C101.728 61.8249 100.349 60.4469 100.349 58.7015C100.349 56.9561 101.728 55.5781 103.474 55.5781C105.22 55.5781 106.598 56.9561 106.598 58.7015Z" stroke="black" stroke-width="2" stroke-miterlimit="10"/>
<path d="M118.82 58.7015C118.82 60.4469 117.441 61.8249 115.695 61.8249C113.949 61.8249 112.571 60.4469 112.571 58.7015C112.571 56.9561 113.949 55.5781 115.695 55.5781C117.441 55.5781 118.82 56.9561 118.82 58.7015Z" stroke="black" stroke-width="2" stroke-miterlimit="10"/>
<path d="M131.042 58.7015C131.042 60.4469 129.664 61.8249 127.918 61.8249C126.172 61.8249 124.793 60.4469 124.793 58.7015C124.793 56.9561 126.172 55.5781 127.918 55.5781C129.664 55.5781 131.042 56.9561 131.042 58.7015Z" stroke="black" stroke-width="2" stroke-miterlimit="10"/>
</g>
<path d="M91.2513 191.813H23.4331C21.3195 191.813 19.5735 190.067 19.5735 187.954V149.739C19.5735 147.626 21.3195 145.88 23.4331 145.88H91.2513C93.3649 145.88 95.1109 147.626 95.1109 149.739V187.954C95.019 190.067 93.3649 191.813 91.2513 191.813Z" fill="#FF7180"/>
<path d="M490.626 178.125H397.996C395.698 178.125 393.861 176.288 393.861 173.991V109.043C393.861 106.746 395.698 104.909 397.996 104.909H490.626C492.923 104.909 494.761 106.746 494.761 109.043V173.991C494.761 176.288 492.923 178.125 490.626 178.125Z" fill="#00D4A4"/>
<path d="M490.626 173.216H397.996C395.698 173.216 393.861 171.379 393.861 169.082V104.134C393.861 101.837 395.698 100 397.996 100H490.626C492.923 100 494.761 101.837 494.761 104.134V169.082C494.761 171.379 492.923 173.216 490.626 173.216Z" fill="#5156E0"/>
<path d="M342.951 103.99H278.9C277.798 103.99 276.97 103.072 276.97 102.061V86.0766C276.97 84.9742 277.889 84.1475 278.9 84.1475H342.951C344.054 84.1475 344.881 85.0661 344.881 86.0766V101.969C344.881 103.163 344.054 103.99 342.951 103.99Z" fill="#7E2E83"/>
<path d="M286.436 91.2212H332.107" stroke="white" stroke-width="0.8371" stroke-miterlimit="10"/>
<path d="M286.436 95.998H305.274" stroke="white" stroke-width="0.8371" stroke-miterlimit="10"/>
<path d="M284.506 101.785V109.502L294.247 101.785H284.506Z" fill="#7E2E83"/>
<path d="M100.717 27.7428H27.7522C26.2819 27.7428 24.9954 26.5486 24.9954 24.9869C24.9954 23.5171 26.19 22.231 27.7522 22.231H100.808C102.279 22.231 103.565 23.4252 103.565 24.9869C103.473 26.5486 102.279 27.7428 100.717 27.7428Z" fill="#B146C2"/>
<path d="M518.286 239.399H461.036C459.565 239.399 458.279 238.204 458.279 236.643C458.279 235.173 459.473 233.887 461.036 233.887H518.286C519.756 233.887 521.043 235.081 521.043 236.643C521.043 238.204 519.848 239.399 518.286 239.399Z" fill="#FCEEEF"/>
<path d="M270.17 18.0972H263.738C262.084 18.0972 260.705 16.7192 260.705 15.0657V9.09451C260.705 7.44095 262.084 6.06299 263.738 6.06299H270.17C271.825 6.06299 273.203 7.44095 273.203 9.09451V15.0657C273.203 16.7192 271.825 18.0972 270.17 18.0972Z" fill="#F6BDBC"/>
<path d="M25.3629 242.246H16.9086C14.7031 242.246 12.8652 240.501 12.8652 238.204V230.304C12.8652 228.099 14.6112 226.262 16.9086 226.262H25.3629C27.5684 226.262 29.4063 228.007 29.4063 230.304V238.204C29.3144 240.409 27.5684 242.246 25.3629 242.246Z" fill="#FCEEEF"/>
<path d="M464.712 66.5098H458.738C457.176 66.5098 455.89 65.2237 455.89 63.662V58.0582C455.89 56.4966 457.176 55.2104 458.738 55.2104H464.712C466.274 55.2104 467.56 56.4966 467.56 58.0582V63.662C467.56 65.2237 466.274 66.5098 464.712 66.5098Z" fill="#FCEEEF"/>
<path d="M402.131 160.212C402.407 153.414 397.352 147.626 390.644 146.891C383.384 146.064 376.86 151.393 376.217 158.65C375.757 163.886 376.309 172.889 376.952 182.443L403.418 179.136L402.131 160.212Z" fill="#FFD300"/>
<path d="M403.417 179.136L376.86 182.351C377.687 195.028 378.79 202.194 378.146 209.451C377.503 217.627 383.936 224.517 392.022 224.517C399.558 224.517 405.715 218.546 405.99 211.013L403.417 179.136Z" fill="#FFAFA6"/>
<path d="M334.68 174.175L395.698 204.674C402.499 208.44 404.336 215.881 400.844 221.485C397.261 227.181 389.633 228.742 384.212 224.792L329.075 185.107L334.68 174.175Z" fill="#FFAFA6"/>
<path d="M325.215 188.689C331.464 190.802 338.264 187.403 340.378 181.156C342.491 174.91 339.091 168.112 332.842 165.999C326.594 163.886 319.793 167.285 317.68 173.532C315.566 179.778 318.874 186.576 325.215 188.689Z" fill="#FFAFA6"/>
<path d="M326.318 166.366C326.318 166.366 325.675 161.681 331.832 163.243C337.897 164.805 343.319 169.49 340.378 181.157L326.318 166.366Z" fill="#FFAFA6"/>
<path d="M335.599 143.768L322.734 140.736C321.999 140.553 321.356 141.104 321.264 141.839L316.301 175.277C316.21 176.012 316.669 176.839 317.404 177.023L330.269 180.054C331.005 180.238 331.648 179.687 331.74 178.952L336.702 145.513C336.794 144.686 336.335 143.952 335.599 143.768Z" fill="#37305E"/>
<path d="M336.886 144.043L324.021 141.012C323.286 140.828 322.642 141.379 322.55 142.114L317.588 175.553C317.496 176.288 317.956 177.114 318.691 177.298L331.556 180.33C332.291 180.513 332.934 179.962 333.026 179.227L337.989 145.789C338.081 144.962 337.529 144.135 336.886 144.043Z" fill="#261C42"/>
<path d="M336.151 147.259L324.848 144.595L320.804 171.878L332.107 174.542L336.151 147.259Z" fill="#E7E7E7"/>
<path d="M324.848 144.595L332.107 174.542L336.151 147.259L324.848 144.595Z" fill="white"/>
<path d="M335.14 164.529C335.14 164.529 332.659 163.335 329.902 162.968C328.707 162.784 327.513 163.519 327.053 164.621C326.594 165.632 326.869 166.826 327.696 167.653L332.291 172.062C332.291 172.062 331.556 178.585 334.589 181.616L337.345 171.235L335.14 164.529Z" fill="#FCA0A0"/>
<path d="M411.504 202.102L383.385 207.828C383.385 207.828 375.849 223.298 363.443 292.444C363.26 293.47 363.076 294.581 362.892 295.607C376.309 295.778 389.725 296.12 403.234 296.547L421.153 215.008L411.504 202.102Z" fill="#785AFC"/>
<path d="M444.78 257.462C443.863 224.093 425.599 206 425.599 206L391 207.024L400.178 296.464C415.045 296.891 430.004 297.488 444.872 298C445.056 282.126 445.056 267.618 444.78 257.462Z" fill="#785AFC"/>
<path d="M384.396 238.755L395.055 247.574L399.5 296.5" stroke="#121E35" stroke-width="1.0009" stroke-miterlimit="10" stroke-linecap="round" stroke-linejoin="round"/>
<path d="M393.125 144.135L383.293 148.269C381.73 148.912 380.72 150.566 380.811 152.219L383.476 208.165L428.137 207.613L430.802 149.739C430.894 146.615 428.413 142.941 425.38 142.757L407.185 142.39L393.125 144.135Z" fill="#FFD300"/>
<path d="M382.19 164.529C382.19 164.529 377.595 170.316 382.19 181.707" stroke="#121E35" stroke-width="1.0009" stroke-miterlimit="10" stroke-linecap="round" stroke-linejoin="round"/>
<path d="M448.17 168.571L424.645 181.34C430.067 192.823 436.132 205.041 438.246 211.931C440.635 219.74 449.181 223.874 456.716 220.842C463.7 218.086 467.284 210.278 464.711 203.204L448.17 168.571Z" fill="#FFAFA6"/>
<path d="M439.992 151.484C437.694 145.054 430.894 141.563 424.37 143.308C417.294 145.238 417.477 161.681 419.591 168.663C421.153 173.716 420.602 172.797 424.737 181.432L448.262 168.663L439.992 151.484Z" fill="#FFD300"/>
<path d="M424.462 181.34L419.315 168.571" stroke="#121E35" stroke-width="1.0009" stroke-miterlimit="10" stroke-linecap="round" stroke-linejoin="round"/>
<path d="M390.552 197.141L453.133 198.519C459.749 198.886 464.803 204.673 464.16 211.288C463.517 217.994 457.36 222.679 450.651 221.668L391.196 211.38L390.552 197.141Z" fill="#FFAFA6"/>
<path d="M391.563 215.146C398.088 214.228 402.682 208.256 401.855 201.734C400.936 195.212 394.963 190.619 388.439 191.445C381.914 192.364 377.319 198.335 378.147 204.858C379.065 211.472 385.039 216.065 391.563 215.146Z" fill="#FFAFA6"/>
<path d="M382.741 194.66C382.741 194.66 380.168 190.71 386.233 189.424C392.39 188.138 399.374 189.975 401.855 201.734L382.741 194.66Z" fill="#FFAFA6"/>
<path d="M429.679 124.198C429.785 116.335 423.495 109.874 415.629 109.767C407.764 109.661 401.301 115.949 401.194 123.812C401.087 131.675 407.377 138.136 415.243 138.242C423.109 138.349 429.572 132.061 429.679 124.198Z" fill="#162140"/>
<path d="M371.254 88.9248C371.254 88.9248 394.228 75.4207 409.942 89.476C419.499 98.0193 415.915 112.075 403.05 120.802C390.828 129.069 386.233 90.3946 386.233 90.3946L371.254 88.9248Z" fill="#162140"/>
<path d="M383.844 85.3423C383.844 85.3423 361.514 86.5365 363.076 103.44C364.087 114.647 381.639 114.28 381.639 114.28L383.844 85.3423Z" fill="#162140"/>
<path d="M379.893 116.025C380.812 119.148 379.158 122.455 376.033 123.374C372.909 124.293 369.6 122.639 368.682 119.516C367.763 116.392 369.417 113.085 372.541 112.166C375.666 111.156 378.974 112.901 379.893 116.025Z" fill="#FFAFA6"/>
<path d="M387.336 132.836L391.563 146.891C393.033 151.852 395.698 153.873 400.477 152.311C404.612 151.025 409.023 147.351 408.288 143.125L400.477 121.353L387.336 132.836Z" fill="#FFAFA6"/>
<path d="M393.585 143.584L388.531 145.605C388.531 145.605 380.536 158.374 395.331 159.109C413.158 160.028 414.812 149.831 417.753 142.941L408.656 141.931L393.585 143.584Z" fill="#FFAFA6"/>
<path d="M389.633 140.185C389.633 140.185 402.039 138.348 402.039 121.904L386.876 131.366L389.633 140.185Z" fill="#D89795"/>
<path d="M392.206 134.03C383.844 136.051 375.298 131.09 373.46 124.292L369.141 108.216C366.752 99.6728 371.622 90.8538 380.076 88.1897C388.715 85.5257 399.466 89.8433 402.131 98.4785L405.439 111.431C408.012 121.536 402.131 130.998 392.206 134.03Z" fill="#FFAFA6"/>
<path d="M391.104 96.2741C391.196 106.563 400.936 112.075 400.936 112.075L407.92 97.9276C407.92 97.9276 391.104 87.8225 391.104 96.2741Z" fill="#121E35"/>
<path d="M393.952 98.1114C393.952 98.1114 373.46 96.2741 366.935 106.012C366.935 106.012 366.384 85.9853 388.347 84.8829C410.31 83.6887 403.877 99.2137 403.877 99.2137L393.952 98.1114Z" fill="#162140"/>
<path d="M380.995 124.017L390.185 121.904C390.185 121.904 389.45 126.313 384.579 126.405C381.179 126.405 380.995 124.017 380.995 124.017Z" fill="white"/>
<path d="M409.758 109.87C409.942 112.901 407.737 115.474 404.704 115.657C401.672 115.841 399.099 113.636 398.915 110.605C398.731 107.573 400.936 105.001 403.969 104.817C407.001 104.634 409.575 106.93 409.758 109.87Z" fill="#FFAFA6"/>
<path d="M402.59 111.983C402.59 111.983 402.315 108.033 406.082 108.4L402.59 111.983Z" fill="#FFAFA6"/>
<path d="M101 258.716V296.078L138.037 296.913V270.167L146.125 268.913L151.455 296.078L185 298L171.95 242L101 258.716Z" fill="#7CAAFF"/>
<path d="M70.9425 192.915L57.5259 283.034L72.0452 284.596L95.9379 192.088L70.9425 192.915Z" fill="#F29891"/>
<path d="M57.526 283.034C57.526 283.034 33.5415 288.546 34.5523 294.977H63.7748C63.7748 294.977 74.8022 294.15 72.0454 284.596L57.526 283.034Z" fill="#F29891"/>
<path d="M106.506 153.414C106.506 153.414 76.7319 150.933 60.2827 195.396L96.9487 208.624L106.506 153.414Z" fill="black"/>
<path d="M211.634 120.985L198.584 163.702L213.839 180.605C213.839 180.605 223.304 142.941 223.58 121.169L211.634 120.985Z" fill="#FFAFA6"/>
<path d="M211.174 122.271C211.174 122.271 222.845 123.741 224.499 120.894C227.347 115.933 225.877 102.337 225.877 102.337C225.877 102.337 205.385 102.796 205.66 102.98C205.844 103.164 211.174 122.271 211.174 122.271Z" fill="#FFAFA6"/>
<path d="M211.174 122.272C210.99 121.261 203.087 112.626 200.238 109.319C199.595 108.492 199.779 107.298 200.698 106.655C201.341 106.287 202.352 105.92 203.271 106.655L210.806 112.35L211.174 122.272Z" fill="#FFAFA6"/>
<path d="M206.947 111.156L203.914 94.9876C203.73 93.8853 204.466 92.8748 205.476 92.5992C206.395 92.4154 207.314 92.9666 207.59 93.8853L210.806 105.552L206.947 111.156Z" fill="#FFAFA6"/>
<path d="M210.806 103.256L210.623 90.9458C210.623 89.8435 211.45 88.9248 212.552 88.8329C213.471 88.7411 214.298 89.3841 214.39 90.3028L216.32 103.807L210.806 103.256Z" fill="#FFAFA6"/>
<path d="M216.596 104.634L217.515 92.0483C217.607 90.8541 218.617 89.9355 219.812 90.0273C220.915 90.0273 221.742 90.946 221.742 92.0483L221.65 103.623L216.596 104.634Z" fill="#FFAFA6"/>
<path d="M225.785 102.337L227.255 94.2532C227.255 93.3345 226.612 92.5996 225.693 92.5996C224.866 92.5996 224.039 93.1508 223.855 93.9776L221.466 103.531L225.785 102.337Z" fill="#FFAFA6"/>
<path d="M207.314 109.686C207.314 109.686 213.288 106.563 217.239 114.463" stroke="#282828" stroke-width="1.0284" stroke-miterlimit="10" stroke-linecap="round" stroke-linejoin="round"/>
<path d="M214.758 171.235C214.758 171.235 216.504 188.138 206.947 189.7C197.39 191.17 176.254 178.033 176.254 178.033L166.513 144.962L203.179 165.264L214.758 171.235Z" fill="#FFAFA6"/>
<path d="M140.875 147.259C140.875 147.259 161.183 133.755 192.795 154.884L174.232 184.188L155.761 182.443L140.875 147.259Z" fill="black"/>
<path d="M92.9055 202.561L97.5921 261.722L179.378 250.055L166.697 163.978L140.875 147.259L106.506 153.414L92.9055 202.561Z" fill="black"/>
<path d="M93.273 207.246L91.1594 187.312" stroke="#444444" stroke-width="1.0009" stroke-miterlimit="10" stroke-linecap="round" stroke-linejoin="round"/>
<path d="M169.638 183.821L166.513 166.642" stroke="#444444" stroke-width="1.0009" stroke-miterlimit="10" stroke-linecap="round" stroke-linejoin="round"/>
<path d="M112.847 148.912L109.079 125.854L130.398 122.363L134.166 145.421L140.966 147.259C140.966 147.259 141.058 157.088 125.344 159.844C109.63 162.6 106.506 153.413 106.506 153.413L112.847 148.912Z" fill="#FFAFA6"/>
<path d="M131.501 129.621C131.501 129.621 131.134 138.715 123.414 141.012C114.501 143.676 110.273 133.387 110.273 133.387C110.273 133.387 115.144 137.613 121.485 136.51C128.56 135.316 131.501 129.621 131.501 129.621Z" fill="#D89795"/>
<path d="M106.046 88.5573C106.046 88.5573 109.814 79.1871 122.587 80.7488C131.593 81.8512 134.534 89.2003 136.188 92.5074C136.831 93.7935 137.107 95.1715 136.923 96.6413L135.177 112.35L120.29 92.3237L107.976 94.5285L106.046 88.5573Z" fill="#241352"/>
<path d="M135.177 112.258C135.177 112.258 136.555 109.502 139.955 110.421C143.447 111.34 142.712 119.607 137.842 121.077C137.842 121.077 136.096 121.628 134.534 120.526C134.534 120.618 135.177 114.555 135.177 112.258Z" fill="#FCA0A0"/>
<path d="M139.588 113.361C139.588 113.361 136.739 112.717 135.177 117.035" stroke="#131313" stroke-width="0.6129" stroke-miterlimit="10" stroke-linecap="round" stroke-linejoin="round"/>
<path d="M101.084 115.657C101.084 115.657 99.2461 113.269 96.0298 114.831C92.8135 116.392 95.1108 124.384 100.257 124.844C100.257 124.844 102.095 125.027 103.381 123.65C103.289 123.741 101.543 117.862 101.084 115.657Z" fill="#FCA0A0"/>
<path d="M96.9487 117.586C96.9487 117.586 99.6137 116.392 102.003 120.25" stroke="#131313" stroke-width="0.6129" stroke-miterlimit="10" stroke-linecap="round" stroke-linejoin="round"/>
<path d="M134.717 104.542C135.177 109.41 135.728 119.699 133.339 126.038C131.133 132.009 127.55 134.949 121.485 135.684C115.42 136.51 109.814 135.132 105.495 128.151C101.084 121.169 99.9812 108.124 99.9812 108.124C99.9812 108.124 98.2352 90.762 115.42 89.0165C133.523 87.1793 134.717 104.542 134.717 104.542Z" fill="#FFAFA6"/>
<path d="M101.084 115.657L96.4892 100.683C96.2135 99.489 96.2135 98.2029 96.673 97.0086C97.6838 93.9771 100.9 87.3629 106.046 88.5571L107.976 94.4364C107.976 94.4364 101.727 96.3656 99.9812 105.001L101.084 115.657Z" fill="#241352"/>
<path d="M104.025 93.6096C104.025 93.6096 115.512 105.001 135.82 101.785C135.82 101.785 132.42 87.2709 122.863 87.0872C113.306 86.9953 105.863 91.956 105.863 91.956L104.025 93.6096Z" fill="#241352"/>
<path d="M107.976 94.4366C107.976 94.4366 105.954 101.418 99.8894 107.114C99.8894 107.114 97.1326 93.4261 107.976 94.4366Z" fill="#121E35"/>
<path d="M114.317 123.833L125.344 121.353C125.344 121.353 126.263 125.671 120.841 126.681C115.42 127.692 114.317 123.833 114.317 123.833Z" fill="white"/>
<path d="M119.593 210.143C118.937 210.235 118.268 210.144 117.66 209.878C117.052 209.612 116.528 209.183 116.148 208.637C115.767 208.091 115.544 207.451 115.503 206.786C115.462 206.122 115.605 205.459 115.916 204.871L122.948 191.551L112.487 180.709C111.822 180.021 111.457 179.097 111.471 178.139C111.485 177.181 111.878 176.269 112.562 175.603C113.246 174.936 114.165 174.571 115.119 174.586C116.072 174.602 116.981 174.997 117.645 175.685L128.464 186.902C129.421 187.889 130.041 189.156 130.235 190.52C130.428 191.884 130.184 193.274 129.539 194.489L122.262 208.265C121.997 208.768 121.617 209.201 121.153 209.527C120.689 209.853 120.154 210.065 119.593 210.143Z" fill="white"/>
<path d="M148.626 206.029C148.064 206.11 147.49 206.056 146.953 205.87C146.415 205.685 145.929 205.374 145.534 204.962L134.741 193.752C133.784 192.765 133.164 191.497 132.97 190.133C132.777 188.769 133.021 187.38 133.666 186.165L140.942 172.384C141.389 171.538 142.152 170.906 143.064 170.626C143.975 170.347 144.96 170.442 145.802 170.892C146.645 171.342 147.275 172.11 147.554 173.026C147.834 173.942 147.74 174.932 147.293 175.777L140.232 189.102L150.693 199.943C151.155 200.421 151.476 201.018 151.622 201.668C151.767 202.318 151.731 202.995 151.517 203.625C151.303 204.255 150.92 204.813 150.409 205.237C149.899 205.661 149.282 205.935 148.626 206.029Z" fill="white"/>
<path d="M508 294H24V298H508V294Z" fill="black"/>
<path d="M224.499 271H200.33C193.99 271 188.844 276.144 188.844 282.483C188.844 288.821 193.99 293.966 200.33 293.966H228.818L224.499 271Z" fill="#FFAFA6"/>
<path d="M191.509 275.133L206.487 250.514L228.818 253.545L225.51 282.482L191.509 275.133Z" fill="#FFAFA6"/>
<path d="M218.525 271H200.33" stroke="#121E35" stroke-width="1.0009" stroke-miterlimit="10" stroke-linecap="round" stroke-linejoin="round"/>
<path d="M300.128 270.999H324.296C330.637 270.999 335.783 276.143 335.783 282.482C335.783 288.821 330.637 293.965 324.296 293.965H295.901L300.128 270.999Z" fill="#FFAFA6"/>
<path d="M332.843 274.765L314.004 245.736L295.901 253.545L299.209 282.482L332.843 274.765Z" fill="#FFAFA6"/>
<path d="M301.506 270.999H324.296" stroke="#121E35" stroke-width="1.0009" stroke-miterlimit="10" stroke-linecap="round" stroke-linejoin="round"/>
<path d="M260.338 207.521C260.338 207.521 236.261 207.521 218.617 224.975V273.755C218.617 273.755 303.344 275.041 303.344 273.755C303.344 272.469 303.344 221.76 303.344 221.76C303.344 221.76 285.976 207.521 260.338 207.521Z" fill="#734AEA"/>
<path d="M222.109 221.668C222.109 221.668 209.06 232.232 195.276 255.474C195.276 255.474 198.217 268.886 223.947 270.999L222.109 221.668Z" fill="#734AEA"/>
<path d="M303.344 221.668C303.344 221.668 316.393 232.232 330.177 255.474C330.177 255.474 327.237 268.886 301.506 270.999L303.344 221.668Z" fill="#734AEA"/>
<path d="M299.485 293.966H222.385C220.271 293.966 218.525 292.22 218.525 290.107V241.511C218.525 239.398 220.271 237.653 222.385 237.653H299.485C301.598 237.653 303.344 239.398 303.344 241.511V290.107C303.252 292.22 301.598 293.966 299.485 293.966Z" fill="#C5C4C6"/>
<path d="M260.889 270.999C263.782 270.999 266.127 268.655 266.127 265.763C266.127 262.871 263.782 260.527 260.889 260.527C257.996 260.527 255.651 262.871 255.651 265.763C255.651 268.655 257.996 270.999 260.889 270.999Z" fill="white"/>
<path d="M269.067 197.232H252.435V215.881H269.067V197.232Z" fill="#FFAFA6"/>
<path d="M251.608 196.222C251.608 196.222 253.078 205.5 260.062 205.684C269.251 205.867 269.068 196.681 269.068 196.681C269.068 196.681 267.781 199.437 260.705 199.437C252.802 199.345 251.608 196.222 251.608 196.222Z" fill="#D89795"/>
<path d="M260.705 189.699C273.495 189.699 283.863 179.088 283.863 165.998C283.863 152.909 273.495 142.297 260.705 142.297C247.916 142.297 237.548 152.909 237.548 165.998C237.548 179.088 247.916 189.699 260.705 189.699Z" fill="#121E35"/>
<path d="M280.738 174.634C280.738 174.634 282.392 171.969 285.792 173.256C289.193 174.542 287.63 182.901 282.484 183.912C282.484 183.912 280.646 184.279 279.176 183.085C279.268 183.085 280.554 176.93 280.738 174.634Z" fill="#FCA0A0"/>
<path d="M285.149 176.195C285.149 176.195 282.3 175.277 280.187 179.502" stroke="#131313" stroke-width="0.681" stroke-miterlimit="10" stroke-linecap="round" stroke-linejoin="round"/>
<path d="M241.315 174.634C241.315 174.634 239.661 171.969 236.261 173.256C232.861 174.542 234.423 182.901 239.569 183.912C239.569 183.912 241.407 184.279 242.878 183.085C242.786 183.085 241.499 176.93 241.315 174.634Z" fill="#FCA0A0"/>
<path d="M236.904 176.195C236.904 176.195 239.753 175.277 241.867 179.502" stroke="#131313" stroke-width="0.681" stroke-miterlimit="10" stroke-linecap="round" stroke-linejoin="round"/>
<path d="M281.014 167.468C281.014 172.796 280.462 184.004 276.97 190.618C273.754 196.865 268.332 200.172 261.256 200.356C254.181 200.539 248.943 197.967 244.715 189.883C240.488 181.799 240.672 167.468 240.672 167.468C240.672 167.468 240.672 148.36 260.521 148.36C281.657 148.452 281.014 167.468 281.014 167.468Z" fill="#FFAFA6"/>
<path d="M241.315 174.634C241.315 174.634 245.542 165.356 241.775 158.649C241.775 158.649 238.375 169.398 241.315 174.634Z" fill="#121E35"/>
<path d="M280.646 174.634C280.646 174.634 276.419 165.356 280.187 158.649C280.187 158.649 283.587 169.398 280.646 174.634Z" fill="#121E35"/>
<path d="M271.089 149.555C271.089 149.555 269.159 160.854 280.83 165.998C280.738 165.907 280.279 152.77 271.089 149.555Z" fill="#121E35"/>
<path d="M273.662 150.933C273.662 150.933 271.916 162.232 256.57 159.66C244.624 157.73 241.04 166.825 241.04 166.825C241.04 166.825 238.926 149.922 258.132 146.431C258.224 146.431 268.057 146.431 273.662 150.933Z" fill="#121E35"/>
<path d="M254.456 187.311C254.456 187.311 255.559 188.781 260.521 188.781C265.024 188.781 267.046 187.311 267.046 187.311" stroke="#121E35" stroke-width="1.0009" stroke-miterlimit="10" stroke-linecap="round" stroke-linejoin="round"/>
<path d="M260.338 207.521C260.338 207.521 250.137 206.97 236.904 212.849C236.904 212.849 236.629 224.332 259.511 224.332C282.392 224.332 284.414 211.747 284.414 211.747C284.414 211.747 269.895 206.511 260.338 207.521Z" fill="#FFAFA6"/>
<path d="M269.068 150.29C277.391 150.29 284.138 143.545 284.138 135.224C284.138 126.903 277.391 120.158 269.068 120.158C260.744 120.158 253.997 126.903 253.997 135.224C253.997 143.545 260.744 150.29 269.068 150.29Z" fill="#121E35"/>
<path d="M159.07 103.715C154.751 99.5807 153.097 93.1502 157.232 88.1895C161.091 83.5044 168.627 82.4939 173.405 86.2603C185.076 95.263 172.946 111.89 160.356 108.4C158.059 107.757 158.61 104.449 160.908 104.266C164.583 104.082 168.535 103.898 171.475 101.326C174.6 98.5702 174.692 93.8851 172.119 90.6698C165.227 82.2183 153.372 94.62 160.54 102.153C161.367 103.255 159.989 104.633 159.07 103.715Z" fill="#7CAAFF"/>
<path d="M483.09 135.04C483.642 131.274 487.593 123.19 491.82 122.088C494.026 121.536 495.68 122.914 497.426 124.109C500.55 126.221 503.675 128.518 506.707 130.723C507.81 131.55 508.545 133.111 507.626 134.397C504.869 138.623 502.112 142.849 499.448 147.075C498.712 148.177 497.058 148.912 495.772 147.993C492.372 145.605 488.696 143.308 485.571 140.552C483.458 138.623 486.123 135.408 488.604 136.694C492.096 138.531 495.312 141.195 498.529 143.492C497.334 143.768 496.139 144.135 494.853 144.411C497.61 140.185 500.366 135.959 503.031 131.733C503.307 132.928 503.675 134.122 503.95 135.408C502.112 134.122 500.183 132.744 498.345 131.458C497.334 130.723 493.75 127.416 492.647 127.508C491.636 127.599 489.431 131.366 488.788 132.101C487.501 133.662 486.215 135.132 484.561 136.327C483.825 136.786 482.998 135.867 483.09 135.04Z" fill="#FAC480"/>
<path d="M316.669 119.699C319.702 122.639 320.896 127.232 317.956 130.815C315.199 134.122 309.869 134.857 306.377 132.193C298.014 125.762 306.744 113.912 315.75 116.392C317.404 116.852 317.037 119.24 315.383 119.332C312.718 119.516 309.961 119.607 307.847 121.445C305.55 123.466 305.55 126.773 307.388 129.069C312.258 135.133 320.804 126.222 315.658 120.802C315.015 120.067 316.026 119.056 316.669 119.699Z" fill="#7CAAFF"/>
<path d="M289.836 230.58C293.603 225.251 298.014 219.923 302.701 215.422C304.447 213.768 306.836 216.157 305.366 217.994C301.414 223.047 296.544 227.732 291.766 232.141C290.755 232.968 288.917 231.866 289.836 230.58Z" fill="#FF947E"/>
<path d="M226.704 230.58C226.429 228.926 226.52 227.272 225.601 225.803C223.764 222.863 221.099 223.598 218.526 224.884C215.861 226.17 213.471 226.997 210.623 225.803C206.212 223.873 204.098 217.167 208.325 213.952C209.704 212.942 211.082 214.595 210.898 215.881C210.623 217.719 209.704 219.648 211.266 221.209C213.379 223.322 215.769 221.577 217.79 220.566C219.996 219.556 222.385 219.372 224.683 220.291C228.634 221.852 231.483 227.272 228.358 230.855C227.807 231.59 226.796 231.314 226.704 230.58Z" fill="#7E2E83"/>
<path d="M341.756 218.913C340.653 223.138 339.367 227.272 338.08 231.406C337.805 232.417 336.794 232.692 335.967 232.141C332.567 229.845 329.259 227.64 326.042 225.068C325.399 224.608 325.583 223.598 326.134 223.138C329.902 220.566 334.956 216.8 339.643 216.8C340.837 216.8 341.664 218.453 340.47 219.188C338.54 220.291 336.243 220.658 334.221 221.577C331.832 222.587 329.534 223.69 327.421 225.159C327.329 224.516 327.329 223.781 327.237 223.138C330.821 225.343 334.129 227.824 337.529 230.212C336.886 230.304 336.151 230.488 335.507 230.579C336.978 226.446 338.448 222.404 340.01 218.361C340.47 217.627 341.94 218.086 341.756 218.913Z" fill="#EFE6F5"/>
<path d="M454.144 277.155C446.976 273.848 439.992 270.357 433.008 266.774C431.354 265.947 431.078 264.11 432.365 262.824C437.511 257.496 442.565 252.168 448.079 247.299C449.181 246.38 450.835 246.931 451.387 248.126C454.787 255.567 460.025 265.763 458.555 274.215C458.187 276.328 454.879 277.338 454.052 274.95C452.673 271.183 452.673 266.958 451.846 263.099C450.835 258.598 449.457 254.097 447.527 249.871C448.814 249.963 450.008 250.147 451.295 250.238C446.241 255.934 440.819 261.17 435.397 266.407C435.397 265.212 435.305 263.926 435.305 262.732C442.197 266.59 448.906 270.449 455.614 274.582C456.9 275.409 455.614 277.798 454.144 277.155Z" fill="#FF7180"/>
</svg>
