<svg width="209" height="27" viewBox="0 0 209 27" fill="none" xmlns="http://www.w3.org/2000/svg">
<g clip-path="url(#clip0)">
<path d="M2.6853 26.9962C2.18922 26.9957 1.70292 26.8567 1.28019 26.5944C0.857452 26.3322 0.514753 25.957 0.28999 25.5103C0.0652274 25.0635 -0.0328419 24.5627 0.00662232 24.0632C0.0460865 23.5637 0.221551 23.085 0.513609 22.6799L7.12489 13.498L0.509905 4.31617C0.0899478 3.73339 -0.0836144 3.00597 0.0273967 2.29393C0.138408 1.58188 0.524901 0.943552 1.10185 0.519352C1.6788 0.0951525 2.39895 -0.0801628 3.10388 0.0319697C3.8088 0.144102 4.44075 0.534499 4.8607 1.11728L11.7014 10.6168C12.3071 11.4536 12.6337 12.4633 12.6337 13.4999C12.6337 14.5365 12.3071 15.5463 11.7014 16.383L4.8607 25.8788C4.61142 26.2256 4.28426 26.5076 3.9061 26.7019C3.52794 26.8961 3.10955 26.997 2.6853 26.9962V26.9962Z" fill="#00D4A4"/>
<path d="M24.6362 26.9963C24.211 26.9972 23.7917 26.8961 23.4128 26.7012C23.0339 26.5062 22.7063 26.2231 22.4571 25.8752L15.6349 16.3831C15.0291 15.5464 14.7026 14.5366 14.7026 13.5C14.7026 12.4634 15.0291 11.4536 15.6349 10.6169L22.4756 1.11737C22.8955 0.534595 23.5275 0.144197 24.2324 0.032065C24.9373 -0.0800674 25.6575 0.0952479 26.2344 0.519447C26.8114 0.943647 27.1979 1.58198 27.3089 2.29402C27.4199 3.00606 27.2463 3.73349 26.8264 4.31626L20.1929 13.4981L26.8079 22.68C27.0999 23.0851 27.2754 23.5638 27.3149 24.0633C27.3543 24.5628 27.2563 25.0636 27.0315 25.5103C26.8067 25.9571 26.464 26.3323 26.0413 26.5945C25.6186 26.8568 25.1323 26.9958 24.6362 26.9963Z" fill="#00D4A4"/>
<path d="M41.3771 22.1605C40.3194 21.7879 39.382 21.1317 38.6652 20.2621C37.9817 19.4012 37.6225 18.3234 37.6515 17.2202L37.6774 16.6447H41.4918L41.4659 17.0633C41.4604 17.4321 41.5513 17.7958 41.7292 18.118C41.9072 18.4401 42.166 18.7091 42.4796 18.8981C43.1529 19.3541 44.0963 19.5783 45.3061 19.5783C46.5862 19.5783 47.5259 19.4101 48.0846 19.0663C48.3394 18.9399 48.5544 18.7443 48.7054 18.5014C48.8563 18.2585 48.9373 17.9779 48.9392 17.6911C48.9438 17.4509 48.8962 17.2126 48.7997 16.993C48.7032 16.7735 48.5601 16.578 48.3805 16.4205C47.9735 16.0574 47.4977 15.7815 46.9821 15.6095C46.4197 15.4077 45.6428 15.1686 44.6587 14.8883C43.5044 14.5695 42.3692 14.184 41.2587 13.7336C40.4027 13.37 39.6426 12.8095 39.0389 12.0967C38.3877 11.2891 38.0545 10.2672 38.1029 9.22672C38.0725 8.48248 38.2396 7.74357 38.587 7.08651C38.9344 6.42946 39.4493 5.87815 40.0785 5.48969C41.3907 4.63267 43.1369 4.20415 45.3172 4.20415C47.3767 4.20415 49.0588 4.64513 50.3635 5.52706C51.6683 6.409 52.3219 7.73314 52.3244 9.49951V9.81343H48.5618V9.578C48.5657 9.2588 48.4847 8.94441 48.3272 8.66766C48.1697 8.3909 47.9415 8.16194 47.6665 8.0047C46.9278 7.58442 46.0862 7.38484 45.2395 7.42921C44.3822 7.38545 43.5261 7.53746 42.7349 7.87392C42.4858 7.97017 42.2705 8.13855 42.1158 8.35793C41.9612 8.57732 41.8741 8.83794 41.8654 9.10713C41.8673 9.30865 41.9154 9.507 42.0059 9.6866C42.0964 9.86621 42.2269 10.0222 42.3871 10.1423C42.7739 10.4533 43.2124 10.6924 43.682 10.8486C44.2036 11.0317 44.9362 11.2559 45.9018 11.5175C47.0862 11.8265 48.2513 12.2071 49.3905 12.6573C50.2871 13.0268 51.09 13.5951 51.7398 14.3203C52.4185 15.1209 52.7703 16.1523 52.7239 17.2053C52.7239 19.1261 52.0457 20.5412 50.6891 21.4505C49.3326 22.3599 47.4766 22.8145 45.1211 22.8145C43.8443 22.8265 42.5758 22.605 41.3771 22.1605V22.1605Z" fill="#3C3B40"/>
<path d="M197.503 22.1606C196.445 21.7879 195.507 21.1317 194.791 20.2621C194.107 19.4012 193.748 18.3234 193.777 17.2202L193.803 16.6447H197.617L197.591 17.0633C197.586 17.4321 197.677 17.7958 197.855 18.118C198.033 18.4401 198.291 18.7092 198.605 18.8981C199.278 19.3541 200.222 19.5783 201.432 19.5783C202.712 19.5783 203.651 19.4101 204.21 19.0663C204.465 18.9399 204.68 18.7443 204.831 18.5014C204.982 18.2585 205.063 17.9779 205.065 17.6911C205.069 17.4509 205.022 17.2126 204.925 16.9931C204.829 16.7735 204.686 16.578 204.506 16.4205C204.099 16.0574 203.623 15.7815 203.108 15.6095C202.545 15.4077 201.768 15.1686 200.784 14.8883C199.63 14.5696 198.495 14.184 197.384 13.7336C196.528 13.37 195.768 12.8095 195.164 12.0967C194.513 11.2891 194.18 10.2672 194.228 9.22672C194.198 8.48248 194.365 7.74357 194.712 7.08652C195.06 6.42946 195.575 5.87815 196.204 5.48969C197.519 4.63267 199.265 4.20415 201.443 4.20415C203.502 4.20415 205.184 4.64513 206.489 5.52706C207.794 6.409 208.447 7.73315 208.45 9.49951V9.81343H204.687V9.578C204.691 9.25881 204.61 8.94441 204.453 8.66766C204.295 8.3909 204.067 8.16194 203.792 8.0047C203.053 7.58442 202.212 7.38484 201.365 7.42921C200.508 7.38546 199.652 7.53746 198.86 7.87392C198.611 7.97017 198.396 8.13855 198.241 8.35793C198.087 8.57732 198 8.83794 197.991 9.10713C197.993 9.30865 198.041 9.507 198.131 9.6866C198.222 9.86621 198.352 10.0222 198.513 10.1423C198.899 10.4533 199.338 10.6924 199.807 10.8486C200.329 11.0317 201.062 11.2559 202.027 11.5175C203.212 11.8265 204.377 12.2071 205.516 12.6573C206.413 13.0268 207.215 13.5951 207.865 14.3203C208.544 15.1209 208.896 16.1523 208.849 17.2053C208.849 19.1261 208.171 20.5412 206.815 21.4505C205.458 22.3599 203.608 22.8145 201.265 22.8145C199.982 22.8288 198.707 22.6072 197.503 22.1606Z" fill="#3C3B40"/>
<path d="M55.6094 4.50685H64.1001C66.0905 4.50685 67.5876 5.01882 68.5915 6.04276C69.5953 7.06671 70.096 8.51169 70.0935 10.3777C70.0935 12.2512 69.5706 13.7062 68.5249 14.7426C67.4791 15.779 65.9178 16.2984 63.8411 16.3009H59.3719V22.4894H55.6094V4.50685ZM63.7486 13.0796C64.0922 13.1028 64.4366 13.0514 64.7589 12.9289C65.0812 12.8065 65.3737 12.6157 65.6169 12.3696C66.0787 11.8146 66.3106 11.1011 66.2644 10.3777C66.3085 9.66709 66.0762 8.96715 65.6169 8.42699C65.3712 8.18525 65.0779 7.99844 64.756 7.87869C64.4341 7.75894 64.0909 7.70893 63.7486 7.73191H59.3719V13.0796H63.7486Z" fill="#3C3B40"/>
<path d="M72.9165 4.50685H76.679V22.4894H72.9165V4.50685Z" fill="#3C3B40"/>
<path d="M80.1309 4.50685H87.5006C90.2137 4.50685 92.3101 5.25426 93.79 6.74907C95.2698 8.24388 96.0098 10.4936 96.0098 13.4981C96.0098 16.5027 95.2698 18.7524 93.79 20.2472C92.3101 21.742 90.2137 22.4894 87.5006 22.4894H80.1309V4.50685ZM87.5006 19.2644C89.0224 19.2644 90.1766 18.7972 90.9634 17.863C91.7502 16.9287 92.1436 15.6046 92.1436 13.8905V13.1244C92.1436 11.4129 91.7502 10.0887 90.9634 9.15197C90.1766 8.21522 89.0224 7.74809 87.5006 7.75059H83.8934V19.283L87.5006 19.2644Z" fill="#3C3B40"/>
<path d="M98.877 4.50685H112.862V7.73191H102.625V11.6894H111.707V14.9145H102.625V19.2644H113.006V22.4894H98.877V4.50685Z" fill="#3C3B40"/>
<path d="M116.173 4.50685H125.618C127.606 4.50685 129.102 5.00512 130.106 6.00166C131.11 6.9982 131.611 8.37592 131.611 10.1348C131.611 12.6536 130.573 14.3315 128.496 15.1686L132.129 22.4819H128.06L124.919 15.7553H119.935V22.4819H116.173V4.50685ZM125.278 12.6087C125.614 12.6291 125.951 12.5815 126.268 12.4685C126.586 12.3556 126.878 12.1796 127.128 11.951C127.352 11.7097 127.525 11.425 127.637 11.1141C127.749 10.8032 127.797 10.4726 127.779 10.1423C127.798 9.81581 127.75 9.48879 127.638 9.18194C127.526 8.87509 127.352 8.59511 127.128 8.35972C126.616 7.91482 125.952 7.68953 125.278 7.73191H119.935V12.6087H125.278Z" fill="#3C3B40"/>
<path d="M142.119 4.50685H145.881V19.1859H155.5V22.4894H142.119V4.50685Z" fill="#3C3B40"/>
<path d="M163.251 4.50685H167.975L174.931 22.4894H170.817L169.54 19.0551H161.449L160.18 22.4894H156.288L163.251 4.50685ZM168.364 15.8824L166.677 11.3232C166.539 10.957 166.34 10.3453 166.081 9.4883L165.563 7.78422H165.434C165.345 8.06574 165.171 8.63377 164.912 9.4883C164.653 10.3428 164.454 10.9545 164.316 11.3232L162.629 15.8824H168.364Z" fill="#3C3B40"/>
<path d="M176.707 4.50686H186.906C187.785 4.49612 188.655 4.68917 189.448 5.07115C190.177 5.41915 190.797 5.96356 191.239 6.64443C191.692 7.38761 191.917 8.24917 191.888 9.12128C191.858 9.9934 191.574 10.8373 191.072 11.5474C190.545 12.252 189.815 12.7742 188.982 13.0422V13.1469C189.954 13.3218 190.828 13.8543 191.435 14.6417C192.066 15.4405 192.401 16.4373 192.382 17.4594C192.382 19.0862 191.866 20.3319 190.836 21.1964C189.722 22.0897 188.328 22.5498 186.906 22.4932H176.707V4.50686ZM185.841 11.6894C186.426 11.7265 187.003 11.5337 187.45 11.1513C187.643 10.9771 187.796 10.7623 187.897 10.5222C187.999 10.282 188.047 10.0222 188.039 9.76111C188.07 9.48729 188.04 9.20985 187.951 8.94926C187.862 8.68867 187.716 8.45155 187.525 8.25539C187.333 8.05923 187.1 7.90902 186.843 7.81584C186.586 7.72265 186.312 7.68886 186.041 7.71696H180.495V11.6745L185.841 11.6894ZM186.285 19.2644C186.874 19.2894 187.449 19.0832 187.891 18.6889C188.106 18.4753 188.274 18.2171 188.382 17.932C188.49 17.6469 188.536 17.3417 188.516 17.0371C188.527 16.7452 188.477 16.4541 188.37 16.183C188.262 15.9119 188.099 15.6668 187.891 15.4638C187.386 15.0314 186.734 14.8155 186.074 14.8621H180.495V19.2644H186.285Z" fill="#3C3B40"/>
</g>
<defs>
<clipPath id="clip0">
<rect width="209" height="27" fill="white"/>
</clipPath>
</defs>
</svg>
