<svg width="1440" height="420" viewBox="0 0 1440 420" fill="none" xmlns="http://www.w3.org/2000/svg">
<g opacity="0.9">
<circle opacity="0.1" cx="135" cy="272" r="95" fill="#440099"/>
<circle opacity="0.1" cx="1267" cy="272" r="95" fill="#440099"/>
<path d="M167.2 358.7L167.4 354.4L230.1 350.6L251 294.5L319.8 298.2L296.3 359L167.2 358.7Z" fill="#C5C4C6"/>
<path opacity="0.41" d="M281.9 325C281.7 327.8 279.3 330 276.5 329.8C273.7 329.6 271.5 327.2 271.7 324.4C271.9 321.6 274.3 319.4 277.1 319.6C279.9 319.8 282 322.2 281.9 325Z" fill="white"/>
<path opacity="0.41" d="M283.9 325.1C283.7 329 280.3 332 276.4 331.8C272.5 331.6 269.5 328.2 269.7 324.3C269.9 320.4 273.3 317.4 277.2 317.6C281.1 317.8 284.1 321.1 283.9 325.1Z" fill="white"/>
<path d="M112.1 129.6C108.2 128.4 104.1 127.9 100.1 128.8C96.0998 129.6 92.3998 132 90.3998 135.5C88.0998 139.5 88.2998 144.4 88.5998 149.1C89.2998 160.7 89.9998 172.2 90.6998 183.8C90.8998 187 91.0998 190.3 89.7998 193.3C88.5998 196.3 85.3998 198.7 82.2998 198.1C80.6998 197.8 79.2998 196.7 77.7998 196.1C76.2998 195.5 74.2998 195.5 73.2998 196.8C72.6998 197.6 72.6998 198.6 72.7998 199.6C73.2998 203.9 75.8998 207.9 79.6998 209.9C77.4998 208.8 74.6998 211.1 74.6998 213.5C74.6998 216 76.5998 218.1 78.8998 219C81.1998 219.9 83.6998 219.9 86.1998 219.8C84.1998 219.8 82.5998 222 82.7998 224C82.9998 226 84.5998 227.7 86.4998 228.5C88.3998 229.3 90.4998 229.3 92.4998 229.1C96.7998 228.7 101.1 227.3 104.4 224.7C110.3 220 112.7 212.1 112.8 204.6C112.9 197.1 111 189.7 110 182.3C107.6 165 109.6 147.5 111.5 130.2C111 130.1 110.5 129.9 110.1 129.8" fill="#241352"/>
<path d="M188.1 79.5C183.4 75 181.6 68 186.1 62.6C190.3 57.5 198.5 56.4 203.7 60.5C216.4 70.3 203.2 88.4 189.5 84.6C187 83.9 187.6 80.3 190.1 80.1C194.1 79.9 198.4 79.7 201.6 76.9C205 73.9 205.1 68.8 202.3 65.3C194.8 56.1 181.9 69.6 189.7 77.8C190.6 79 189.1 80.5 188.1 79.5Z" fill="#7CAAFF"/>
<path d="M38.3999 136.7C36.5999 138.6 34.6999 140 33.7999 142.5C31.9999 147.5 35.3999 150 39.3999 151.9C43.4999 153.8 46.6999 156 47.8999 160.6C49.7999 167.8 43.6999 176.6 35.8999 174.5C33.3999 173.8 34.0999 170.6 35.8999 169.6C38.2999 168.2 41.4999 167.4 41.8999 164.1C42.3999 159.7 38.0999 158.4 34.9999 156.8C31.6999 155.1 29.1999 152.4 28.0999 148.8C26.2999 142.5 29.9999 134 37.2999 134.4C38.4999 134.4 39.1999 135.9 38.3999 136.7Z" fill="#7E2E83"/>
<path d="M49.4998 60.9C50.0998 56.8 54.3998 48 58.9998 46.8C61.3998 46.2 63.1998 47.7 65.0998 49C68.4998 51.3 71.8998 53.8 75.1998 56.2C76.3998 57.1 77.1998 58.8 76.1998 60.2C73.1998 64.8 70.1998 69.4 67.2998 74C66.4998 75.2 64.6998 76 63.2998 75C59.5998 72.4 55.5998 69.9 52.1998 66.9C49.8998 64.8 52.7998 61.3 55.4998 62.7C59.2998 64.7 62.7998 67.6 66.2998 70.1C64.9998 70.4 63.6998 70.8 62.2998 71.1C65.2998 66.5 68.2998 61.9 71.1998 57.3C71.4998 58.6 71.8998 59.9 72.1998 61.3C70.1998 59.9 68.0998 58.4 66.0998 57C64.9998 56.2 61.0998 52.6 59.8998 52.7C58.7998 52.8 56.3998 56.9 55.6998 57.7C54.2998 59.4 52.8998 61 51.0998 62.3C50.2998 62.8 49.3998 61.8 49.4998 60.9Z" fill="#FAC480"/>
<path d="M271.7 198.8C272.3 194.7 276.6 185.9 281.2 184.7C283.6 184.1 285.4 185.6 287.3 186.9C290.7 189.2 294.1 191.7 297.4 194.1C298.6 195 299.4 196.7 298.4 198.1C295.4 202.7 292.4 207.3 289.5 211.9C288.7 213.1 286.9 213.9 285.5 212.9C281.8 210.3 277.8 207.8 274.4 204.8C272.1 202.7 275 199.2 277.7 200.6C281.5 202.6 285 205.5 288.5 208C287.2 208.3 285.9 208.7 284.5 209C287.5 204.4 290.5 199.8 293.4 195.2C293.7 196.5 294.1 197.8 294.4 199.2C292.4 197.8 290.3 196.3 288.3 194.9C287.2 194.1 283.3 190.5 282.1 190.6C281 190.7 278.6 194.8 277.9 195.6C276.5 197.3 275.1 198.9 273.3 200.2C272.4 200.7 271.6 199.7 271.7 198.8Z" fill="#FAC480"/>
<path d="M115.3 63.6C120.9 69.9 126.6 76.8 131 84C132.4 86.3 129 88.9 127.2 86.8C121.7 80.4 116.9 72.8 112.7 65.5C111.8 64 114 62.3 115.3 63.6Z" fill="#FF7180"/>
<path d="M321.2 242.8C321.3 242.7 321.5 242.5 321.6 242.4C323.5 240.7 326.6 240.4 328.4 242.4C330.3 244.4 330.2 247.2 328.4 249.2C328.3 249.3 328.1 249.5 328 249.6C326.3 251.5 322.8 251.5 321.1 249.6C319.5 247.9 319.1 244.6 321.2 242.8Z" fill="#241352"/>
<path d="M76.4999 113.7C76.3999 113.8 76.1999 114 76.0999 114.1C74.1999 115.8 71.0999 116.1 69.2999 114.1C67.3999 112.1 67.4999 109.3 69.2999 107.3C69.3999 107.2 69.5999 107 69.6999 106.9C71.3999 105 74.8999 105 76.5999 106.9C78.1999 108.7 78.4999 111.9 76.4999 113.7Z" fill="#241352"/>
<path d="M146.4 212.6L230.7 244.2L222.7 210.2L244.6 204.6C244.6 204.6 268.2 271.2 251.8 272.9C223.1 276 179.7 264.7 179.7 264.7L146.4 212.6Z" fill="#FFAFA6"/>
<path d="M175.6 288.9L175.4 355.6C153.4 382.6 77 347.7 77 347.7L76.1 320.4L74.3 255.4C76.1 229.5 100.1 216.8 100.1 216.8C110 211.9 125.2 209 138.8 209.7C153 210.4 156.6 217.2 162.4 230.2C167.3 240.8 175.6 250.7 175.6 288.9Z" fill="#00D4A4"/>
<path d="M103.6 147L104.6 160.3C104.6 160.3 93.2999 161.8 96.4999 172.2C99.6999 182.5 107.5 178 107.5 178C107.5 178 109.4 204.5 136.6 196.1C158.2 189.4 156.9 161.4 154.1 137.6C153 128.4 144.3 122 135.2 123.8L118.9 127C109.4 128.8 102.8 137.4 103.6 147Z" fill="#FFAFA6"/>
<path d="M104.6 171.4L111.9 210.4C113.5 219.2 122.2 224.8 130.9 222.7C139 220.8 144.1 212.9 142.7 204.7L138.7 182.3L104.6 171.4Z" fill="#FFAFA6"/>
<path d="M143.4 193.4C143.5 193.5 142.4 194.7 140.2 196C138 197.3 134.5 198.5 130.6 198.6C126.6 198.7 123.1 197.6 120.9 196.4C118.6 195.2 117.5 194.1 117.6 193.9C117.7 193.7 119.1 194.5 121.3 195.4C123.6 196.3 126.9 197.1 130.6 197.1C134.3 197 137.5 196 139.8 195C142 194 143.3 193.2 143.4 193.4Z" fill="#241352"/>
<path fill-rule="evenodd" clip-rule="evenodd" d="M126.283 178C126.299 181.699 129.221 184.769 132.955 184.928C136.689 185.088 139.862 182.278 140.193 178.595L126.283 178Z" fill="white"/>
<path d="M103.7 173.5C103.7 173.7 103 174 101.9 173.7C101.6 173.6 101.3 173.4 101 173.2C100.7 172.9 100.4 172.6 100.3 172.2C100.1 171.8 100.1 171.3 100.2 170.7C100.3 170.2 100.8 169.6 101.4 169.4C101.8 169.2 102.2 169.2 102.7 169.3C103.1 169.4 103.6 169.7 103.8 170.1L102.5 170.8C101.6 168.6 101.2 166.9 101.5 166.8C101.8 166.7 102.8 168.1 103.8 170.2L102.5 170.9C102.5 170.9 102.3 170.8 102 170.9C101.8 171 101.8 171 101.7 171.2C101.6 171.4 101.6 171.6 101.7 171.8C101.8 172.2 102.1 172.6 102.4 172.8C103.1 173.1 103.7 173.2 103.7 173.5Z" fill="#241352"/>
<path d="M104.6 160.3C112.2 152.9 114.4 140.6 116.5 130.2C123.5 135.3 133.2 136.6 141.3 133.4C143.8 136.4 146.8 139 150.1 141.1C151 141.7 152.1 142.3 153.2 142C154.5 141.6 155 140.2 155.3 138.9C156.3 134.8 156.3 130.3 154.9 126.3C153.5 122.3 150.4 118.8 146.5 117.3C142.3 115.7 137.5 116.4 133.1 117.5C126.5 119.2 120.1 121.9 114.2 125.3C108.4 128.7 102.8 133.2 100.4 139.4C97.8999 145.7 97.9999 157.8 103.9 161" fill="#241352"/>
<path d="M149.3 212.3C142 209.4 198.4 230.3 198.4 230.3L192.7 268.9L171.2 261.9L149.3 212.3Z" fill="#00D4A4"/>
<path d="M224.2 212.3C224.2 212.3 209.5 191.7 212.1 191.7C214.7 191.7 216.1 195.6 221.2 198.2C221.2 198.2 213.1 172.5 215.6 173C218.1 173.5 224.1 190.1 224.5 190C224.9 190 219.3 171.5 221.4 171.2C223.5 171 228.6 188.2 228.6 188.2C228.6 188.2 225.1 171.8 227.3 171.5C229.5 171.2 232.8 186.2 232.8 186.2C232.8 186.2 230.2 173.5 232.2 173.2C233.4 173 244.5 204.4 244.5 204.4C244.3 204.5 224.2 212.3 224.2 212.3Z" fill="#FFAFA6"/>
<path d="M110.3 285.6C110.2 285.6 110.2 284.5 110.3 282.5C110.4 280.5 110.6 277.7 111 274.2C111.6 267.2 112.6 257.5 113.8 246.8C114.1 244.2 114.2 241.6 113.8 239.2C113.5 236.8 112.5 234.6 111.2 232.9C109.9 231.1 108.2 229.8 106.4 228.8C104.7 227.8 102.9 227.2 101.2 226.7C97.7999 225.9 94.9999 225.9 92.9999 226C90.9999 226.1 89.9999 226.2 89.8999 226.1C89.8999 226 90.8999 225.7 92.8999 225.4C94.8999 225.2 97.7999 224.9 101.3 225.6C104.8 226.3 109 228.1 112.1 232C113.6 233.9 114.7 236.4 115.1 239C115.5 241.6 115.4 244.3 115.1 247C113.9 257.7 112.8 267.4 111.9 274.3C111.4 277.8 111.1 280.6 110.7 282.6C110.6 284.6 110.4 285.6 110.3 285.6Z" fill="#241352"/>
<path d="M112.3 283.2C112.3 283.6 102.1 285.1 89.4999 286.4C76.8999 287.7 66.5999 288.5 66.5999 288C66.5999 287.6 76.7999 286.1 89.3999 284.8C102 283.5 112.3 282.7 112.3 283.2Z" fill="#241352"/>
<path d="M179.1 113.7V157.9H208.6L209.5 174.6L226.8 156.9H291.8L286.1 110.4L179.1 113.7Z" fill="#7E2E83"/>
<path d="M189.1 126.8C203.6 127.4 218.2 127 232.7 127C247.2 127 261.9 127.8 276.3 126.9C276.9 126.9 276.9 126.1 276.3 126C261.9 125.1 247.1 125.9 232.7 125.9C218.2 125.9 203.6 125.6 189.1 126.1C188.8 126.3 188.8 126.8 189.1 126.8Z" fill="white"/>
<path d="M189.1 135.3C203.6 135.9 218.2 135.5 232.7 135.5C247.2 135.5 261.9 136.3 276.3 135.4C276.9 135.4 276.9 134.6 276.3 134.5C261.9 133.6 247.1 134.4 232.7 134.4C218.2 134.4 203.6 134.1 189.1 134.6C188.8 134.8 188.8 135.3 189.1 135.3Z" fill="white"/>
<path d="M189.1 144.3C198 144.7 207 144.5 215.9 144.5C224.8 144.5 233.8 145 242.7 144.4C243.3 144.4 243.3 143.6 242.7 143.5C233.8 142.9 224.8 143.4 215.9 143.4C207 143.4 198 143.2 189.1 143.6C188.8 143.8 188.8 144.2 189.1 144.3Z" fill="white"/>
<g opacity="0.13">
<g opacity="0.13">
<g opacity="0.13">
<path opacity="0.13" d="M114.5 163.3C114.5 161.2 117.3 159.4 120.7 159.5C124.1 159.5 126.9 161.3 126.9 163.4C126.9 165.5 124.1 167.3 120.7 167.2C117.3 167.2 114.5 165.5 114.5 163.3Z" fill="#241352"/>
</g>
</g>
</g>
<g opacity="0.13">
<g opacity="0.13">
<g opacity="0.13">
<path opacity="0.13" d="M140.1 165.1C140.1 163 142.9 161.2 146.3 161.3C149.7 161.3 152.5 163.1 152.5 165.2C152.5 167.3 149.7 169.1 146.3 169C142.8 169 140.1 167.3 140.1 165.1Z" fill="#241352"/>
</g>
</g>
</g>
<path d="M103.1 142.3C103 142.4 102.8 142.3 102.5 141.9C102.2 141.5 102 140.8 102.2 140C102.3 139.2 102.7 138.3 103.1 137.4C103.5 136.5 104 135.6 104.5 134.6C106.6 130.6 108.6 127.6 108.9 127.8C109.3 128 107.9 131.4 105.8 135.3C105.3 136.3 104.8 137.2 104.3 138C103.8 138.8 103.4 139.5 103.2 140.2C102.7 141.4 103.2 142.1 103.1 142.3Z" fill="#FAC480"/>
<path d="M168.9 269.9L173.9 336.4L104.6 345.7L109.3 268.9L168.9 269.9Z" fill="#7CAAFF"/>
<path d="M163.4 224.8V277.5L155.3 274.5V214.4L163.4 216.9" fill="#7CAAFF"/>
<path d="M99.2 217.4C99.2 217.4 130.5 221.4 121.2 272.6L113.4 273.4C113.4 273.4 122.2 225.4 92.8 221.9L99.2 217.4Z" fill="#7CAAFF"/>
<path d="M108.4 276.8C108.4 276.8 97.7 339.8 112.8 338.2C162.4 333.1 191.9 332.4 191.9 332.4L200.1 349.5C200.3 352.4 106.2 379.3 91.1 370.4C80.4 364.1 63.4 347.2 71.1 296.6L72.9 279.6L108.4 276.8Z" fill="#FFAFA6"/>
<path d="M80.9 235C80.9 235 69.3 246.1 66.8 288.1L111.5 283.1C111.5 283.2 119 211.6 80.9 235Z" fill="#00D4A4"/>
<path d="M186.7 332.4C186.7 332.4 211 324.8 210.1 327.3C209.3 329.8 205.1 329.9 201 333.9C201 333.9 228.1 334.2 226.8 336.4C225.5 338.6 207.8 339.2 207.7 339.6C207.6 340 227 340.5 226.6 342.5C226.2 344.6 208.1 344.1 208.1 344.1C208.1 344.1 224.8 345.9 224.5 348.1C224.2 350.3 208.7 348.7 208.7 348.7C208.7 348.7 221.6 350.2 221.3 352.2C221.1 353.4 183.5 353.7 183.4 354.6C183.4 355.1 186.7 332.4 186.7 332.4Z" fill="#FFAFA6"/>
<path d="M155.7 270.2C155.9 270.2 155.9 271.4 156 273.2C156.1 274.1 156.2 275.1 156.8 276C157.3 276.9 158.3 277.7 159.4 277.7C160.5 277.7 161.5 277 162.2 276.1C162.9 275.3 163.2 274.2 163.4 273.4C163.8 271.6 163.9 270.4 164.2 270.5C164.4 270.5 164.7 271.7 164.5 273.6C164.4 274.6 164.2 275.8 163.4 277C163 277.6 162.5 278.1 161.8 278.6C161.1 279 160.3 279.3 159.4 279.3C158.5 279.3 157.6 279 157 278.5C156.4 278 155.9 277.4 155.6 276.8C154.9 275.5 154.9 274.2 154.9 273.3C155.1 271.3 155.5 270.2 155.7 270.2Z" fill="#241352"/>
<path d="M160.6 271.3C160.7 271.2 160.8 271.2 161 271.3C161.2 271.4 161.4 271.8 161.5 272.2C161.6 272.6 161.5 273.3 160.9 273.8C160.6 274 160.2 274.2 159.8 274.2C159.4 274.2 159 274.1 158.7 273.9C158.4 273.7 158.1 273.4 158 273C157.8 272.6 157.8 272.2 157.9 271.9C158.1 271.2 158.7 270.9 159.1 270.7C159.5 270.6 159.9 270.7 160.1 270.8C160.3 270.9 160.3 271.1 160.3 271.2C160.2 271.4 159.8 271.4 159.5 271.7C159.3 271.8 159.2 272.1 159.2 272.2C159.2 272.3 159.3 272.4 159.5 272.6C159.7 272.7 159.9 272.7 160 272.7C160.1 272.7 160.3 272.5 160.4 272.3C160.7 271.8 160.5 271.5 160.6 271.3Z" fill="#241352"/>
<path d="M114.2 269.1C114.4 269.2 114.3 269.9 114.7 270.8C115.1 271.7 116.1 272.9 117.5 273C118.9 273 120 271.9 120.4 271.1C120.9 270.2 120.8 269.5 121.1 269.4C121.3 269.3 121.8 270.1 121.5 271.5C121.3 272.2 120.9 272.9 120.3 273.5C119.6 274.1 118.6 274.6 117.5 274.6C116.4 274.5 115.4 274 114.8 273.3C114.2 272.6 113.9 271.8 113.8 271.2C113.4 269.8 114 269 114.2 269.1Z" fill="#241352"/>
<path d="M119.2 267.3C119.1 267.5 118.6 267.4 118.1 267.6C117.8 267.7 117.6 267.9 117.5 268.1C117.4 268.2 117.4 268.3 117.4 268.4C117.4 268.5 117.5 268.7 117.5 268.8C117.7 269.1 117.9 269.1 118 269.1C118.1 269.1 118.3 268.9 118.3 268.7C118.4 268.5 118.3 268.3 118.3 268.1C118.3 268 118.2 267.8 118.2 267.7C118.2 267.6 118.4 267.5 118.7 267.6C119 267.7 119.4 268.1 119.4 268.6C119.4 268.9 119.4 269.2 119.3 269.5C119.2 269.8 118.9 270.2 118.5 270.4C118.1 270.6 117.6 270.6 117.2 270.4C116.8 270.2 116.4 269.9 116.2 269.6C116 269.2 115.8 268.8 115.8 268.4C115.8 268 116 267.5 116.2 267.2C116.7 266.6 117.3 266.4 117.8 266.4C119 266.6 119.3 267.1 119.2 267.3Z" fill="#241352"/>
<path d="M120.9 300.2C120.5 300.3 119.8 299 119.8 297.3C119.7 295.6 120.3 294.2 120.7 294.3C121.1 294.4 121.3 295.7 121.3 297.3C121.4 298.8 121.3 300.1 120.9 300.2Z" fill="#241352"/>
<path d="M126.3 310.7C126 311 124.8 310.3 123.7 308.9C122.7 307.5 122.4 306.1 122.8 305.9C123.2 305.7 124.1 306.7 125 308C125.9 309.2 126.6 310.4 126.3 310.7Z" fill="#241352"/>
<path d="M136.7 316.1C136.6 316.5 135.2 316.7 133.6 316.1C132 315.6 130.9 314.6 131.1 314.2C131.3 313.8 132.6 314.1 134.1 314.6C135.6 315.1 136.8 315.6 136.7 316.1Z" fill="#241352"/>
<path d="M148.4 314.6C148.6 315 147.5 315.9 145.8 316.4C144.1 316.9 142.7 316.7 142.7 316.2C142.7 315.8 143.9 315.3 145.4 314.9C146.9 314.4 148.2 314.2 148.4 314.6Z" fill="#241352"/>
<path d="M157 306.6C157.4 306.8 157 308.2 156 309.6C154.9 311 153.7 311.6 153.4 311.3C153.1 311 153.8 309.9 154.8 308.6C155.7 307.3 156.6 306.4 157 306.6Z" fill="#241352"/>
<path d="M159.7 295.1C160.1 295.1 160.6 296.4 160.5 298.1C160.4 299.8 159.7 301.1 159.3 301C158.9 300.9 158.9 299.6 159 298C159 296.5 159.2 295.2 159.7 295.1Z" fill="#241352"/>
<path d="M149.7 293.2C149.7 292.8 151 292.4 152.7 292.3C154.3 292.2 155.7 292.5 155.7 293C155.7 293.4 154.4 293.8 152.7 293.9C151 294 149.7 293.7 149.7 293.2Z" fill="#241352"/>
<path d="M137.7 293.7C137.7 293.3 139 292.9 140.7 292.8C142.3 292.7 143.7 293 143.7 293.5C143.7 293.9 142.4 294.3 140.7 294.4C139.1 294.4 137.7 294.1 137.7 293.7Z" fill="#241352"/>
<path d="M125.8 294.1C125.8 293.7 127.1 293.3 128.8 293.2C130.4 293.1 131.8 293.4 131.8 293.9C131.8 294.3 130.5 294.7 128.8 294.8C127.2 294.8 125.8 294.5 125.8 294.1Z" fill="#241352"/>
<path d="M225.8 218.1C229.1 221.3 230.4 226.3 227.2 230.2C224.2 233.8 218.4 234.6 214.6 231.7C205.5 224.7 215 211.8 224.8 214.5C226.6 215 226.2 217.6 224.4 217.7C221.5 217.9 218.5 218 216.2 220C213.7 222.2 213.7 225.8 215.7 228.3C221 234.9 230.3 225.2 224.7 219.3C224 218.5 225.1 217.4 225.8 218.1Z" fill="#7CAAFF"/>
<path d="M163.5 288.1C162.3 292.7 160.9 297.2 159.5 301.7C159.2 302.8 158.1 303.1 157.2 302.5C153.5 300 149.9 297.6 146.4 294.8C145.7 294.3 145.9 293.2 146.5 292.7C150.6 289.9 156.1 285.8 161.2 285.8C162.5 285.8 163.4 287.6 162.1 288.4C160 289.6 157.5 290 155.3 291C152.7 292.1 150.2 293.3 147.9 294.9C147.8 294.2 147.8 293.4 147.7 292.7C151.6 295.1 155.2 297.8 158.9 300.4C158.2 300.5 157.4 300.7 156.7 300.8C158.3 296.3 159.9 291.9 161.6 287.5C162.2 286.6 163.8 287.1 163.5 288.1Z" fill="#FF7180"/>
<path d="M303.4 280C304.5 274.1 306 267.9 308.2 262.3C309 260.2 311.9 261.3 311.4 263.4C310.1 269.2 307.9 275 305.6 280.5C305.1 281.6 303.1 281.4 303.4 280Z" fill="#FF947E"/>
<path d="M279.4 282.6C279.1 280.8 279.2 279 278.2 277.4C276.2 274.2 273.3 275 270.5 276.4C267.6 277.8 265 278.7 261.9 277.4C257.1 275.3 254.8 268 259.4 264.5C260.9 263.4 262.4 265.2 262.2 266.6C261.9 268.6 260.9 270.7 262.6 272.4C264.9 274.7 267.5 272.8 269.7 271.7C272.1 270.6 274.7 270.4 277.2 271.4C281.5 273.1 284.6 279 281.2 282.9C280.6 283.7 279.5 283.4 279.4 282.6Z" fill="#7E2E83"/>
<path d="M208.9 269.5C203.1 267.9 197 266 191.6 263.4C189.6 262.5 190.9 259.6 192.9 260.3C198.6 262.1 204.2 264.6 209.5 267.4C210.6 267.8 210.3 269.8 208.9 269.5Z" fill="#FAC480"/>
<path d="M237.9 275.5C236.7 280.1 235.3 284.6 233.9 289.1C233.6 290.2 232.5 290.5 231.6 289.9C227.9 287.4 224.3 285 220.8 282.2C220.1 281.7 220.3 280.6 220.9 280.1C225 277.3 230.5 273.2 235.6 273.2C236.9 273.2 237.8 275 236.5 275.8C234.4 277 231.9 277.4 229.7 278.4C227.1 279.5 224.6 280.7 222.3 282.3C222.2 281.6 222.2 280.8 222.1 280.1C226 282.5 229.6 285.2 233.3 287.8C232.6 287.9 231.8 288.1 231.1 288.2C232.7 283.7 234.3 279.3 236 274.9C236.5 274.1 238.1 274.6 237.9 275.5Z" fill="#EFE6F5"/>
<path d="M229.8 321.2C223.8 321.6 217.5 321.8 211.4 321.2C209.2 321 209.5 318 211.6 317.9C217.5 317.7 223.7 318.2 229.6 319C230.9 319.1 231.2 321.1 229.8 321.2Z" fill="#7E2E83"/>
<path d="M72.9 341.5C65.1 337.9 57.5 334.1 49.9 330.2C48.1 329.3 47.8 327.3 49.2 325.9C54.8 320.1 60.3 314.3 66.3 309C67.5 308 69.3 308.6 69.9 309.9C73.6 318 79.3 329.1 77.7 338.3C77.3 340.6 73.7 341.7 72.8 339.1C71.3 335 71.3 330.4 70.4 326.2C69.3 321.3 67.8 316.4 65.7 311.8C67.1 311.9 68.4 312.1 69.8 312.2C64.3 318.4 58.4 324.1 52.5 329.8C52.5 328.5 52.4 327.1 52.4 325.8C59.9 330 67.2 334.2 74.5 338.7C75.9 339.6 74.5 342.2 72.9 341.5Z" fill="#FF7180"/>
<path d="M1090.4 190C1088.5 181.6 1087 172.6 1086.6 164.1C1086.5 161.4 1090.8 160.8 1091.3 163.5C1092.9 172 1093.4 181 1093.5 189.7C1093.6 191.4 1090.8 191.8 1090.4 190Z" fill="#FF947E"/>
<path d="M1046.3 218.8C1046.4 218.7 1046.6 218.5 1046.7 218.4C1048.6 216.7 1051.8 216.4 1053.6 218.4C1055.5 220.5 1055.4 223.3 1053.6 225.3C1053.5 225.4 1053.3 225.6 1053.2 225.7C1051.5 227.6 1047.9 227.6 1046.2 225.7C1044.6 223.9 1044.2 220.6 1046.3 218.8Z" fill="#241352"/>
<path d="M1255.1 210.1L1169.3 242.3L1177.5 207.7L1155.2 202C1155.2 202 1131.2 269.7 1147.9 271.5C1177.1 274.7 1221.2 263.1 1221.2 263.1L1255.1 210.1Z" fill="#FFAFA6"/>
<path d="M1225.4 287.8L1225.6 355.6C1247.9 383.1 1325.7 347.6 1325.7 347.6L1326.6 319.9L1328.4 253.8C1326.6 227.5 1302.2 214.6 1302.2 214.6C1292.1 209.6 1276.7 206.7 1262.8 207.4C1248.3 208.1 1244.7 215.1 1238.8 228.3C1233.9 238.9 1225.4 248.9 1225.4 287.8Z" fill="#00D4A4"/>
<path d="M1293.8 275.5C1293.8 275.5 1304.7 339.6 1289.3 338C1238.9 332.8 1208.8 332.1 1208.8 332.1L1200.4 349.5C1200.2 352.5 1295.9 379.8 1311.3 370.8C1322.2 364.4 1339.5 347.2 1331.6 295.7L1329.7 278.4L1293.8 275.5Z" fill="#FFAFA6"/>
<path d="M1321.5 233C1321.5 233 1333.3 244.3 1335.9 287L1290.4 282C1290.4 282 1282.8 209.2 1321.5 233Z" fill="#00D4A4"/>
<path d="M1298.7 143.4L1297.7 157C1297.7 157 1309.2 158.6 1305.9 169.1C1302.6 179.6 1294.7 175 1294.7 175C1294.7 175 1292.7 202 1265.1 193.4C1243.1 186.6 1244.5 158.1 1247.3 133.9C1248.4 124.5 1257.3 118 1266.6 119.8L1283.2 123C1292.8 124.9 1299.4 133.6 1298.7 143.4Z" fill="#FFAFA6"/>
<path d="M1297.7 168.2L1290.3 207.9C1288.6 216.8 1279.8 222.6 1271 220.5C1262.8 218.5 1257.5 210.5 1259 202.2L1263 179.5L1297.7 168.2Z" fill="#FFAFA6"/>
<path d="M1258.1 190.6C1258.2 190.4 1259.6 191.3 1261.8 192.3C1264.1 193.3 1267.4 194.3 1271.1 194.4C1274.9 194.5 1278.2 193.6 1280.5 192.7C1282.8 191.8 1284.2 191 1284.3 191.2C1284.4 191.4 1283.3 192.5 1280.9 193.7C1278.6 194.9 1275 196 1271 196C1267 195.9 1263.4 194.6 1261.2 193.3C1259.1 192 1258 190.7 1258.1 190.6Z" fill="#241352"/>
<path fill-rule="evenodd" clip-rule="evenodd" d="M1261.6 175.117C1262.35 178.739 1265.82 181.169 1269.51 180.586C1273.2 180.003 1275.76 176.621 1275.35 172.944L1261.6 175.117Z" fill="white"/>
<path d="M1298.5 170.3C1298.5 170.1 1299.2 169.9 1299.9 169.4C1300.3 169.1 1300.6 168.8 1300.7 168.4C1300.8 168.2 1300.7 168 1300.7 167.8C1300.6 167.6 1300.6 167.6 1300.4 167.5C1300.1 167.4 1299.9 167.5 1299.9 167.5L1298.6 166.8C1299.7 164.7 1300.6 163.2 1301 163.3C1301.3 163.4 1300.9 165.2 1300 167.4L1298.7 166.7C1298.9 166.3 1299.4 166 1299.8 165.9C1300.2 165.8 1300.7 165.8 1301.1 166C1301.7 166.2 1302.2 166.8 1302.3 167.3C1302.5 167.9 1302.4 168.4 1302.2 168.8C1302 169.2 1301.8 169.6 1301.5 169.9C1301.2 170.2 1300.9 170.3 1300.6 170.4C1299.2 170.9 1298.5 170.5 1298.5 170.3Z" fill="#241352"/>
<path d="M1297.7 157C1290 149.5 1287.7 137 1285.6 126.4C1278.5 131.6 1268.6 132.9 1260.4 129.7C1257.8 132.7 1254.8 135.4 1251.4 137.5C1250.4 138.1 1249.3 138.7 1248.2 138.4C1246.9 138 1246.3 136.5 1246 135.2C1245 131 1245 126.5 1246.4 122.4C1247.9 118.3 1250.9 114.8 1255 113.2C1259.3 111.5 1264.2 112.3 1268.6 113.4C1275.3 115.1 1281.8 117.8 1287.9 121.4C1293.8 124.9 1299.5 129.4 1302 135.8C1304.5 142.2 1304.5 154.5 1298.5 157.7" fill="#241352"/>
<path d="M1252.1 209.8C1259.6 206.8 1202.1 228.2 1202.1 228.2L1207.9 267.5L1229.7 260.3L1252.1 209.8Z" fill="#00D4A4"/>
<path d="M1214.1 332.1C1214.1 332.1 1189.4 324.4 1190.3 326.9C1191.1 329.4 1195.3 329.5 1199.5 333.6C1199.5 333.6 1171.9 333.9 1173.2 336.2C1174.5 338.5 1192.5 339 1192.6 339.4C1192.7 339.8 1173 340.3 1173.4 342.4C1173.8 344.5 1192.2 344 1192.2 344C1192.2 344 1175.2 345.8 1175.5 348.1C1175.8 350.4 1191.5 348.7 1191.5 348.7C1191.5 348.7 1178.4 350.2 1178.7 352.3C1178.9 353.5 1217.1 353.8 1217.2 354.8C1217.4 355.2 1214.1 332.1 1214.1 332.1Z" fill="#FFAFA6"/>
<path d="M1175.9 209.8C1175.9 209.8 1190.9 188.9 1188.2 188.9C1185.5 188.9 1184.1 192.9 1178.9 195.6C1178.9 195.6 1187.2 169.4 1184.6 170C1182 170.5 1175.9 187.4 1175.5 187.3C1175.1 187.3 1180.8 168.4 1178.6 168.2C1176.5 168 1171.3 185.5 1171.3 185.5C1171.3 185.5 1174.9 168.8 1172.6 168.5C1170.3 168.1 1167 183.5 1167 183.5C1167 183.5 1169.7 170.6 1167.6 170.3C1166.4 170.1 1155 202.1 1155 202.1C1155.5 202 1175.9 209.8 1175.9 209.8Z" fill="#FFAFA6"/>
<path d="M1314.1 267.5C1314.2 267.5 1314.3 267.8 1314.3 268.3C1314.3 268.8 1314.3 269.5 1314.5 270.3C1314.6 271.1 1315 271.9 1315.8 272.4C1316.6 272.9 1317.4 272.7 1318.2 271.8C1318.6 271.3 1319.1 270.8 1319.7 270.3C1320.3 269.8 1321.1 269.6 1321.8 269.5C1323.2 269.4 1324.5 270 1325.2 270.9C1325.9 271.7 1326 272.6 1326 273.1C1326 273.7 1325.8 273.9 1325.7 273.9C1325.6 273.9 1325.5 273.6 1325.4 273.2C1325.2 272.8 1324.9 272.2 1324.4 271.7C1323.8 271.2 1323 270.9 1322 271C1321.5 271.1 1321.1 271.3 1320.7 271.6C1320.3 271.9 1319.9 272.4 1319.4 273C1318.9 273.5 1318.2 274.1 1317.4 274.3C1316.5 274.5 1315.6 274.2 1315 273.8C1313.8 272.9 1313.4 271.5 1313.4 270.6C1313.4 269.6 1313.6 268.9 1313.7 268.4C1313.9 267.7 1314 267.4 1314.1 267.5Z" fill="#FBF1FC"/>
<path d="M1300.7 255.8C1300.6 255.9 1300.4 255.8 1299.9 255.5C1299.5 255.3 1298.8 254.9 1298.1 254.6C1297.3 254.3 1296.4 254.2 1295.6 254.6C1294.8 255 1294.5 255.7 1294.9 257C1295.1 257.6 1295.3 258.3 1295.4 259.1C1295.5 259.9 1295.3 260.7 1295 261.3C1294.4 262.6 1293.1 263.3 1292.1 263.5C1291.1 263.6 1290.2 263.3 1289.8 263C1289.3 262.7 1289.2 262.4 1289.2 262.3C1289.3 262.2 1289.5 262.3 1290 262.4C1290.5 262.5 1291.1 262.6 1291.9 262.3C1292.6 262.1 1293.3 261.5 1293.7 260.6C1293.9 260.2 1294 259.7 1293.9 259.2C1293.8 258.7 1293.6 258.1 1293.4 257.4C1293.2 256.7 1293 255.8 1293.3 255C1293.6 254.1 1294.3 253.5 1295 253.3C1296.4 252.7 1297.8 253.1 1298.6 253.6C1299.5 254.1 1300 254.7 1300.3 255C1300.6 255.5 1300.7 255.7 1300.7 255.8Z" fill="#FBF1FC"/>
<path d="M1301.6 226.8C1301.5 226.9 1301.3 226.8 1300.8 226.5C1300.4 226.3 1299.7 225.9 1299 225.6C1298.2 225.3 1297.3 225.2 1296.5 225.6C1295.7 226 1295.4 226.7 1295.8 228C1296 228.6 1296.2 229.3 1296.3 230.1C1296.4 230.9 1296.2 231.7 1295.9 232.3C1295.3 233.6 1294 234.3 1293 234.5C1292 234.6 1291.1 234.3 1290.7 234C1290.2 233.7 1290.1 233.4 1290.1 233.3C1290.2 233.2 1290.4 233.3 1290.9 233.4C1291.4 233.5 1292 233.6 1292.8 233.3C1293.5 233.1 1294.2 232.5 1294.6 231.6C1294.8 231.2 1294.9 230.7 1294.8 230.2C1294.7 229.7 1294.5 229.1 1294.3 228.4C1294.1 227.7 1293.9 226.8 1294.2 226C1294.5 225.1 1295.2 224.5 1295.9 224.3C1297.3 223.7 1298.7 224.1 1299.5 224.6C1300.4 225.1 1300.9 225.7 1301.2 226C1301.5 226.5 1301.6 226.8 1301.6 226.8Z" fill="#FBF1FC"/>
<path d="M1272.8 264.6C1272.7 264.5 1272.9 264.3 1273.1 263.8C1273.4 263.4 1273.8 262.8 1274.2 262.1C1274.6 261.4 1274.7 260.5 1274.4 259.6C1274 258.7 1273.4 258.4 1272.1 258.7C1271.5 258.8 1270.8 259 1270 259C1269.2 259 1268.4 258.8 1267.8 258.4C1266.6 257.7 1265.9 256.4 1265.9 255.3C1265.9 254.2 1266.2 253.5 1266.6 253C1266.9 252.6 1267.2 252.4 1267.3 252.5C1267.4 252.6 1267.3 252.8 1267.1 253.3C1267 253.7 1266.9 254.4 1267 255.2C1267.1 255.9 1267.7 256.7 1268.5 257.2C1268.9 257.4 1269.4 257.5 1269.9 257.5C1270.4 257.5 1271 257.3 1271.7 257.2C1272.4 257.1 1273.3 257 1274.1 257.4C1274.9 257.8 1275.5 258.5 1275.7 259.2C1276.2 260.6 1275.7 262 1275.1 262.8C1274.5 263.6 1273.9 264.1 1273.5 264.4C1273.2 264.6 1272.9 264.7 1272.8 264.6Z" fill="#FBF1FC"/>
<path d="M1253.2 294.9C1253.3 294.8 1253.6 294.9 1254 295.1C1254.5 295.3 1255.1 295.6 1255.9 295.9C1256.7 296.1 1257.6 296.2 1258.4 295.7C1259.2 295.2 1259.4 294.5 1258.9 293.3C1258.7 292.7 1258.4 292 1258.2 291.3C1258.1 290.5 1258.2 289.7 1258.4 289.1C1258.9 287.8 1260.1 286.9 1261.1 286.7C1262.1 286.5 1263 286.7 1263.5 287C1264 287.3 1264.2 287.5 1264.1 287.6C1264 287.7 1263.8 287.6 1263.3 287.6C1262.8 287.5 1262.2 287.5 1261.5 287.8C1260.8 288.1 1260.1 288.7 1259.8 289.6C1259.7 290.1 1259.6 290.6 1259.7 291C1259.8 291.5 1260.1 292.1 1260.3 292.8C1260.5 293.5 1260.8 294.3 1260.5 295.2C1260.3 296.1 1259.6 296.7 1258.9 297C1257.6 297.7 1256.2 297.4 1255.3 297C1254.4 296.6 1253.8 296.1 1253.5 295.7C1253.3 295.2 1253.2 295 1253.2 294.9Z" fill="#FBF1FC"/>
<path d="M1230.2 247.1C1230.3 247 1230.6 247.1 1231 247.3C1231.5 247.5 1232.1 247.8 1232.9 248.1C1233.7 248.3 1234.6 248.4 1235.4 247.9C1236.2 247.4 1236.4 246.7 1235.9 245.5C1235.7 244.9 1235.4 244.2 1235.2 243.5C1235.1 242.7 1235.2 241.9 1235.4 241.3C1235.9 240 1237.1 239.1 1238.1 238.9C1239.1 238.7 1240 238.9 1240.5 239.2C1241 239.5 1241.2 239.7 1241.1 239.8C1241 239.9 1240.8 239.8 1240.3 239.8C1239.8 239.7 1239.2 239.7 1238.5 240C1237.8 240.3 1237.1 240.9 1236.8 241.8C1236.7 242.3 1236.6 242.8 1236.7 243.2C1236.8 243.7 1237.1 244.3 1237.3 245C1237.5 245.7 1237.8 246.5 1237.5 247.4C1237.3 248.3 1236.6 248.9 1235.9 249.2C1234.6 249.9 1233.2 249.6 1232.3 249.2C1231.4 248.8 1230.8 248.3 1230.5 247.9C1230.2 247.4 1230.1 247.2 1230.2 247.1Z" fill="#FBF1FC"/>
<path d="M1214.4 239.8C1214.5 239.9 1214.3 240.1 1213.9 240.5C1213.6 240.9 1213 241.3 1212.5 242C1212 242.7 1211.7 243.5 1211.8 244.4C1212 245.3 1212.6 245.8 1213.9 245.7C1214.5 245.7 1215.3 245.6 1216 245.8C1216.8 245.9 1217.5 246.3 1218 246.8C1219.1 247.7 1219.5 249.2 1219.3 250.2C1219.2 251.2 1218.7 251.9 1218.2 252.3C1217.8 252.7 1217.5 252.7 1217.4 252.7C1217.3 252.6 1217.5 252.4 1217.7 252C1217.9 251.6 1218.1 251 1218.1 250.2C1218.1 249.4 1217.7 248.6 1217 248C1216.6 247.7 1216.2 247.5 1215.7 247.4C1215.2 247.3 1214.6 247.4 1213.8 247.4C1213.1 247.4 1212.2 247.3 1211.4 246.8C1210.6 246.3 1210.3 245.4 1210.2 244.7C1210 243.2 1210.8 242 1211.4 241.3C1212.1 240.6 1212.8 240.2 1213.3 240C1214.1 239.8 1214.3 239.7 1214.4 239.8Z" fill="#FBF1FC"/>
<path d="M1278.1 319.6C1278.2 319.5 1278.5 319.6 1278.9 319.8C1279.4 320 1280 320.3 1280.8 320.6C1281.6 320.8 1282.5 320.9 1283.3 320.4C1284.1 319.9 1284.3 319.2 1283.8 318C1283.6 317.4 1283.3 316.7 1283.1 316C1283 315.2 1283.1 314.4 1283.3 313.8C1283.8 312.5 1285 311.6 1286 311.4C1287 311.2 1287.9 311.4 1288.4 311.7C1288.9 312 1289.1 312.2 1289 312.3C1288.9 312.4 1288.7 312.3 1288.2 312.3C1287.7 312.2 1287.1 312.2 1286.4 312.5C1285.7 312.8 1285 313.4 1284.7 314.3C1284.6 314.8 1284.5 315.3 1284.6 315.7C1284.7 316.2 1285 316.8 1285.2 317.5C1285.4 318.2 1285.7 319 1285.4 319.9C1285.2 320.8 1284.5 321.4 1283.8 321.7C1282.5 322.4 1281.1 322.1 1280.2 321.7C1279.3 321.3 1278.7 320.8 1278.4 320.4C1278.2 320 1278 319.7 1278.1 319.6Z" fill="#FBF1FC"/>
<path d="M1243.9 273.6C1243.8 273.5 1243.9 273.2 1244.1 272.8C1244.3 272.3 1244.7 271.7 1245 271C1245.3 270.2 1245.4 269.3 1244.9 268.5C1244.4 267.7 1243.7 267.4 1242.5 267.9C1241.9 268.1 1241.2 268.4 1240.4 268.5C1239.6 268.6 1238.8 268.5 1238.2 268.2C1236.9 267.6 1236.1 266.4 1235.9 265.4C1235.7 264.4 1236 263.5 1236.3 263.1C1236.6 262.6 1236.9 262.5 1236.9 262.5C1237 262.6 1236.9 262.8 1236.8 263.3C1236.7 263.8 1236.7 264.4 1236.9 265.2C1237.1 265.9 1237.7 266.6 1238.6 267C1239 267.2 1239.5 267.2 1240 267.1C1240.5 267 1241.1 266.8 1241.8 266.6C1242.5 266.4 1243.4 266.2 1244.2 266.5C1245.1 266.8 1245.7 267.5 1246 268.1C1246.6 269.5 1246.3 270.9 1245.8 271.7C1245.3 272.6 1244.8 273.1 1244.4 273.5C1244.3 273.5 1244 273.7 1243.9 273.6Z" fill="#FBF1FC"/>
<path d="M1237.8 298.3C1237.7 298.2 1237.8 297.9 1238 297.5C1238.2 297 1238.6 296.4 1238.9 295.7C1239.2 294.9 1239.3 294 1238.8 293.2C1238.3 292.4 1237.6 292.1 1236.4 292.6C1235.8 292.8 1235.1 293.1 1234.3 293.2C1233.5 293.3 1232.7 293.2 1232.1 292.9C1230.8 292.3 1230 291.1 1229.8 290.1C1229.6 289.1 1229.9 288.2 1230.2 287.8C1230.5 287.3 1230.8 287.2 1230.8 287.2C1230.9 287.3 1230.8 287.5 1230.7 288C1230.6 288.5 1230.6 289.1 1230.8 289.9C1231 290.6 1231.6 291.3 1232.5 291.7C1232.9 291.9 1233.4 291.9 1233.9 291.8C1234.4 291.7 1235 291.5 1235.7 291.3C1236.4 291.1 1237.3 290.9 1238.1 291.2C1239 291.5 1239.6 292.2 1239.9 292.8C1240.5 294.2 1240.2 295.6 1239.7 296.4C1239.2 297.3 1238.7 297.8 1238.3 298.2C1238.2 298.3 1237.9 298.4 1237.8 298.3Z" fill="#FBF1FC"/>
<path d="M1287.2 287.8C1287.1 287.8 1287 287.5 1286.8 287C1286.7 286.5 1286.5 285.8 1286.2 285.1C1285.9 284.3 1285.3 283.6 1284.4 283.3C1283.5 283 1282.8 283.3 1282.2 284.5C1281.9 285.1 1281.6 285.7 1281.1 286.3C1280.6 286.9 1279.9 287.3 1279.2 287.5C1277.8 287.9 1276.4 287.6 1275.6 286.9C1274.8 286.2 1274.4 285.5 1274.3 284.9C1274.2 284.4 1274.3 284 1274.4 284C1274.5 284 1274.6 284.2 1274.9 284.6C1275.2 285 1275.6 285.5 1276.2 285.9C1276.9 286.3 1277.8 286.4 1278.7 286C1279.1 285.8 1279.6 285.5 1279.9 285.1C1280.2 284.7 1280.5 284.1 1280.9 283.5C1281.3 282.9 1281.8 282.1 1282.6 281.8C1283.4 281.4 1284.3 281.5 1285 281.8C1286.4 282.4 1287.1 283.7 1287.3 284.6C1287.5 285.6 1287.5 286.3 1287.5 286.8C1287.4 287.5 1287.3 287.8 1287.2 287.8Z" fill="#FBF1FC"/>
<path d="M1242.6 318.3C1242.5 318.3 1242.4 318 1242.2 317.5C1242.1 317 1241.9 316.3 1241.6 315.6C1241.3 314.8 1240.7 314.1 1239.8 313.8C1238.9 313.5 1238.2 313.8 1237.6 315C1237.3 315.6 1237 316.2 1236.5 316.8C1236 317.4 1235.3 317.8 1234.6 318C1233.2 318.5 1231.8 318.1 1231 317.4C1230.2 316.7 1229.8 316 1229.7 315.4C1229.6 314.9 1229.7 314.5 1229.8 314.5C1229.9 314.5 1230 314.7 1230.3 315.1C1230.6 315.5 1231 316 1231.6 316.4C1232.3 316.8 1233.2 316.9 1234.1 316.5C1234.5 316.3 1235 316 1235.3 315.6C1235.6 315.2 1235.9 314.6 1236.3 314C1236.7 313.4 1237.2 312.6 1238 312.3C1238.8 311.9 1239.7 312 1240.4 312.3C1241.8 312.9 1242.5 314.2 1242.7 315.1C1242.9 316.1 1242.9 316.8 1242.9 317.3C1242.8 318 1242.7 318.3 1242.6 318.3Z" fill="#FBF1FC"/>
<path d="M1243.9 225.9C1243.8 225.9 1243.7 225.6 1243.5 225.1C1243.4 224.6 1243.2 223.9 1242.9 223.2C1242.6 222.4 1242 221.7 1241.1 221.4C1240.2 221.1 1239.5 221.4 1238.9 222.6C1238.6 223.2 1238.3 223.8 1237.8 224.4C1237.3 225 1236.6 225.4 1235.9 225.6C1234.5 226.1 1233.1 225.7 1232.3 225C1231.5 224.3 1231.1 223.6 1231 223C1230.9 222.5 1231 222.1 1231.1 222.1C1231.2 222.1 1231.3 222.3 1231.6 222.7C1231.9 223.1 1232.3 223.6 1232.9 224C1233.6 224.4 1234.5 224.5 1235.4 224.1C1235.8 223.9 1236.3 223.6 1236.6 223.2C1236.9 222.8 1237.2 222.2 1237.6 221.6C1238 221 1238.5 220.2 1239.3 219.9C1240.1 219.5 1241 219.6 1241.7 219.9C1243.1 220.5 1243.8 221.8 1244 222.7C1244.2 223.7 1244.2 224.4 1244.2 224.9C1244.1 225.6 1244 225.9 1243.9 225.9Z" fill="#FBF1FC"/>
<path d="M1258.5 330.6C1258.4 330.5 1258.7 330.3 1259 330C1259.4 329.7 1260 329.3 1260.5 328.7C1261.1 328.1 1261.5 327.3 1261.5 326.4C1261.4 325.5 1260.9 324.9 1259.6 324.8C1259 324.7 1258.2 324.7 1257.5 324.5C1256.7 324.3 1256.1 323.8 1255.6 323.3C1254.6 322.2 1254.4 320.8 1254.7 319.8C1255 318.8 1255.6 318.1 1256 317.8C1256.5 317.5 1256.8 317.4 1256.8 317.5C1256.9 317.6 1256.7 317.8 1256.4 318.2C1256.1 318.6 1255.8 319.2 1255.7 319.9C1255.6 320.6 1255.9 321.5 1256.5 322.2C1256.8 322.5 1257.3 322.8 1257.7 322.9C1258.2 323 1258.8 323.1 1259.6 323.2C1260.3 323.3 1261.2 323.5 1261.9 324.1C1262.6 324.7 1262.8 325.6 1262.8 326.3C1262.8 327.8 1261.9 328.9 1261.1 329.5C1260.3 330.1 1259.6 330.4 1259.1 330.5C1258.8 330.7 1258.5 330.7 1258.5 330.6Z" fill="#FBF1FC"/>
<path d="M1311.4 239.8C1311.5 239.9 1311.4 240.1 1311.2 240.6C1311 241.1 1310.7 241.7 1310.5 242.5C1310.3 243.3 1310.3 244.2 1310.8 245C1311.3 245.8 1312.1 245.9 1313.3 245.4C1313.9 245.2 1314.5 244.8 1315.3 244.6C1316.1 244.4 1316.9 244.5 1317.5 244.7C1318.9 245.2 1319.8 246.3 1320 247.3C1320.3 248.3 1320.1 249.2 1319.9 249.7C1319.7 250.2 1319.4 250.4 1319.3 250.3C1319.2 250.2 1319.3 250 1319.3 249.5C1319.3 249 1319.3 248.4 1319 247.7C1318.7 247 1318 246.4 1317.1 246.1C1316.6 246 1316.1 246 1315.7 246.1C1315.2 246.2 1314.6 246.5 1314 246.8C1313.3 247.1 1312.5 247.4 1311.6 247.2C1310.7 247 1310 246.4 1309.7 245.7C1308.9 244.4 1309.1 243 1309.5 242.1C1309.9 241.2 1310.4 240.6 1310.7 240.2C1311.1 239.9 1311.3 239.8 1311.4 239.8Z" fill="#FBF1FC"/>
<path d="M1260.3 230.7C1260.4 230.8 1260.3 231 1260.1 231.5C1259.9 232 1259.6 232.6 1259.4 233.4C1259.2 234.2 1259.2 235.1 1259.7 235.9C1260.2 236.7 1261 236.8 1262.2 236.3C1262.8 236.1 1263.4 235.7 1264.2 235.5C1265 235.3 1265.8 235.4 1266.4 235.6C1267.8 236.1 1268.7 237.2 1268.9 238.2C1269.2 239.2 1269 240.1 1268.8 240.6C1268.6 241.1 1268.3 241.3 1268.2 241.2C1268.1 241.1 1268.2 240.9 1268.2 240.4C1268.2 239.9 1268.2 239.3 1267.9 238.6C1267.6 237.9 1266.9 237.3 1266 237C1265.5 236.9 1265 236.9 1264.6 237C1264.1 237.1 1263.5 237.4 1262.9 237.7C1262.2 238 1261.4 238.3 1260.5 238.1C1259.6 237.9 1258.9 237.3 1258.6 236.6C1257.8 235.3 1258 233.9 1258.4 233C1258.8 232.1 1259.3 231.5 1259.6 231.1C1260 230.8 1260.2 230.6 1260.3 230.7Z" fill="#FBF1FC"/>
<path d="M1291.8 284.5C1291.7 284.5 1291.5 283.4 1291.2 281.4C1290.9 279.4 1290.5 276.5 1290 273C1289.1 265.9 1287.9 256.1 1286.7 245.2C1286.4 242.5 1286.3 239.7 1286.7 237C1287.1 234.3 1288.2 231.8 1289.8 229.9C1292.9 226 1297.2 224.1 1300.8 223.4C1304.4 222.7 1307.4 222.9 1309.4 223.2C1311.4 223.5 1312.5 223.8 1312.5 223.9C1312.5 224 1311.4 223.9 1309.4 223.8C1307.4 223.7 1304.5 223.7 1301.1 224.5C1299.4 224.9 1297.6 225.6 1295.8 226.6C1294 227.6 1292.3 229 1291 230.8C1289.6 232.6 1288.7 234.8 1288.3 237.2C1287.9 239.6 1288.1 242.3 1288.3 245C1289.5 255.9 1290.5 265.7 1291.1 272.9C1291.4 276.5 1291.6 279.4 1291.8 281.4C1292 283.4 1291.9 284.4 1291.8 284.5Z" fill="#241352"/>
<path d="M1289.8 282C1289.8 281.6 1300.3 282.3 1313.1 283.7C1325.9 285.1 1336.3 286.5 1336.3 286.9C1336.3 287.3 1325.8 286.6 1313 285.2C1300.1 283.9 1289.8 282.4 1289.8 282Z" fill="#241352"/>
<path d="M1178.8 300.4C1178.4 297.8 1178.5 295.3 1177 293C1174.1 288.4 1170 289.6 1166 291.6C1161.9 293.6 1158.1 294.9 1153.7 293C1146.8 290 1143.6 279.6 1150.1 274.7C1152.2 273.1 1154.3 275.7 1154.1 277.7C1153.7 280.5 1152.3 283.6 1154.7 286C1157.9 289.2 1161.7 286.5 1164.9 285.1C1168.4 283.5 1172 283.2 1175.6 284.6C1181.7 287.1 1186.2 295.4 1181.3 301C1180.6 301.8 1178.9 301.5 1178.8 300.4Z" fill="#7E2E83"/>
<path d="M1131.8 201.5C1136.6 206.1 1138.4 213.2 1133.8 218.7C1129.5 223.9 1121.2 225 1115.9 220.8C1103 210.8 1116.4 192.4 1130.4 196.2C1133 196.9 1132.3 200.6 1129.8 200.7C1125.7 200.9 1121.4 201.1 1118.1 203.9C1114.6 207 1114.5 212.2 1117.4 215.7C1125 225 1138.2 211.3 1130.2 202.9C1129.2 202.1 1130.7 200.5 1131.8 201.5Z" fill="#FF7180"/>
<path d="M1332.5 192.4C1337.3 197 1339.1 204.1 1334.5 209.6C1330.2 214.8 1321.9 215.9 1316.6 211.7C1303.7 201.7 1317.1 183.3 1331.1 187.1C1333.7 187.8 1333 191.5 1330.5 191.6C1326.4 191.8 1322.1 192 1318.8 194.8C1315.3 197.9 1315.2 203.1 1318.1 206.6C1325.7 215.9 1338.9 202.2 1330.9 193.8C1329.9 193 1331.5 191.4 1332.5 192.4Z" fill="#7CAAFF"/>
<path d="M1401.7 307.5C1398.4 319.7 1394.8 331.7 1391 343.8C1390.1 346.7 1387.4 347.6 1384.9 345.9C1375.1 339.2 1365.3 332.7 1356 325.3C1354.2 323.9 1354.6 321 1356.4 319.8C1367.3 312.3 1382 301.3 1395.7 301.2C1399.2 301.2 1401.7 306.1 1398.1 308.2C1392.5 311.4 1385.9 312.6 1379.9 315C1373 317.9 1366.2 321.2 1360.2 325.5C1360.1 323.5 1359.9 321.5 1359.8 319.5C1370.2 325.9 1379.9 333 1389.8 340.2C1387.9 340.6 1385.9 341 1384 341.4C1388.2 329.5 1392.5 317.7 1397.2 305.9C1398.2 303.5 1402.4 304.9 1401.7 307.5Z" fill="#FF7180"/>
<path d="M1117.2 256.2C1108.7 257.4 1099.7 258.2 1091.1 257.9C1087.9 257.8 1088.1 253.4 1091.1 253.1C1099.5 252.2 1108.4 252.4 1116.8 253C1118.5 253.1 1119.2 255.9 1117.2 256.2Z" fill="#FAC480"/>
<path d="M1404.6 256.2C1396.1 257.4 1387.1 258.2 1378.5 257.9C1375.3 257.8 1375.5 253.4 1378.5 253.1C1386.9 252.2 1395.8 252.4 1404.2 253C1405.8 253.1 1406.5 255.9 1404.6 256.2Z" fill="#FAC480"/>
<path d="M1347.5 242.2C1347.6 242.1 1347.8 241.9 1347.9 241.8C1349.8 240.1 1353 239.8 1354.8 241.8C1356.7 243.9 1356.6 246.7 1354.8 248.7C1354.7 248.8 1354.5 249 1354.4 249.1C1352.7 251 1349.1 251 1347.4 249.1C1345.8 247.4 1345.4 244.1 1347.5 242.2Z" fill="#241352"/>
<path d="M1225.4 282.4C1225.2 282.4 1224.9 280.5 1224.9 277.4C1224.8 274.3 1225 270.1 1225.4 265.5C1225.8 260.9 1226.1 256.8 1226.3 253.6C1226.5 250.6 1226.7 248.7 1226.9 248.7C1227.1 248.7 1227.4 250.6 1227.4 253.6C1227.5 256.7 1227.3 260.9 1226.9 265.5C1226.5 270.1 1226.2 274.2 1226 277.4C1225.8 280.6 1225.6 282.4 1225.4 282.4Z" fill="#241352"/>
<path d="M1176.5 212.1L1154 205.8L1152.6 209.8L1175.4 216.9L1176.5 212.1Z" fill="#241352"/>
<path d="M1162.1 211.1C1162.1 212.6 1163.4 213.9 1164.9 213.9C1166.4 213.9 1167.7 212.6 1167.7 211.1C1167.7 209.6 1166.4 208.3 1164.9 208.3C1163.4 208.3 1162.1 209.6 1162.1 211.1Z" fill="#E5E1EA"/>
<path d="M1295.3 58.1V103.1H1325.3L1326.2 120.1L1343.9 102.1H1410L1404.2 54.8L1295.3 58.1Z" fill="#FAC480"/>
<path d="M1305.5 71.5C1320.3 72.1 1335.1 71.7 1349.9 71.7C1364.6 71.7 1379.6 72.6 1394.3 71.6C1394.9 71.6 1394.9 70.8 1394.3 70.7C1379.6 69.8 1364.6 70.6 1349.9 70.6C1335.1 70.6 1320.3 70.3 1305.5 70.8C1305.2 71 1305.2 71.5 1305.5 71.5Z" fill="white"/>
<path d="M1305.5 80.1C1320.3 80.7 1335.1 80.3 1349.9 80.3C1364.6 80.3 1379.6 81.2 1394.3 80.2C1394.9 80.2 1394.9 79.4 1394.3 79.3C1379.6 78.4 1364.6 79.2 1349.9 79.2C1335.1 79.2 1320.3 78.9 1305.5 79.4C1305.2 79.6 1305.2 80.1 1305.5 80.1Z" fill="white"/>
<path d="M1305.5 89.2C1314.6 89.6 1323.7 89.4 1332.8 89.4C1341.8 89.4 1351.1 90 1360.1 89.3C1360.7 89.3 1360.7 88.5 1360.1 88.4C1351.1 87.8 1341.9 88.3 1332.8 88.3C1323.7 88.3 1314.6 88.1 1305.5 88.5C1305.2 88.7 1305.2 89.2 1305.5 89.2Z" fill="white"/>
<path d="M1190.4 114C1190.4 129.1 1178.2 141.3 1163.1 141.3C1148 141.3 1135.8 129.1 1135.8 114C1135.8 98.9 1148 86.7 1163.1 86.7V114H1190.4Z" fill="#7CAAFF"/>
<path d="M1194 110.4H1166.7V83.2C1181.7 83.2 1194 95.4 1194 110.4Z" fill="#FF7180"/>
<path d="M1138.8 371.3L1091.1 358.5C1086.7 357.3 1084.1 352.8 1085.3 348.4L1098.1 300.7C1099.3 296.3 1103.8 293.7 1108.2 294.9L1155.9 307.7C1160.3 308.9 1162.9 313.4 1161.7 317.8L1148.9 365.5C1147.8 369.8 1143.2 372.5 1138.8 371.3Z" fill="#F2F2F2"/>
<path d="M1154.66 315.139L1105.6 301.952L1099.26 325.515L1148.32 338.702L1154.66 315.139Z" fill="#FF7180"/>
<path d="M1122.37 339.52L1097.26 332.77L1092.36 351.022L1117.47 357.771L1122.37 339.52Z" fill="#7CAAFF"/>
<path d="M1119.6 323.6L1119.5 321.8V321.7L1115.4 320.6H1115.3L1114.3 322.2C1114.3 322.3 1114.2 322.3 1114.1 322.3L1112.9 322C1112.8 322 1112.8 321.9 1112.8 321.8L1118.6 312.8C1118.6 312.7 1118.7 312.7 1118.8 312.7L1120.2 313.1C1120.3 313.1 1120.3 313.2 1120.3 313.3L1120.9 324V324.1C1120.9 324.2 1120.8 324.2 1120.7 324.2L1119.5 323.9C1119.7 323.8 1119.6 323.7 1119.6 323.6ZM1116.1 319.6L1119.5 320.5C1119.5 320.5 1119.5 320.5 1119.6 320.5L1119.4 314.7C1119.4 314.7 1119.4 314.7 1119.3 314.7L1116.1 319.6C1116 319.6 1116 319.6 1116.1 319.6Z" fill="white"/>
<path d="M1122.8 324.4L1125.4 314.5C1125.4 314.4 1125.5 314.4 1125.6 314.4L1129.1 315.3C1130.1 315.6 1130.8 316 1131.3 316.7C1131.8 317.4 1131.9 318.2 1131.6 319.1L1130.4 323.4C1130.2 324.3 1129.7 324.9 1128.9 325.3C1128.2 325.7 1127.3 325.7 1126.3 325.4L1122.8 324.5C1122.8 324.6 1122.8 324.5 1122.8 324.4ZM1124.5 323.8L1126.8 324.4C1127.4 324.6 1127.9 324.5 1128.3 324.2C1128.7 323.9 1129 323.5 1129.2 323L1130.3 319.1C1130.5 318.5 1130.4 318 1130.2 317.6C1130 317.2 1129.6 316.9 1129 316.7L1126.7 316.1H1126.6L1124.5 323.8C1124.5 323.7 1124.5 323.8 1124.5 323.8Z" fill="white"/>
<path d="M1133 327.1C1132.5 326.7 1132.2 326.3 1132 325.8C1131.8 325.3 1131.8 324.8 1132 324.2L1132.1 323.8C1132.1 323.7 1132.2 323.7 1132.3 323.7L1133.4 324C1133.5 324 1133.5 324.1 1133.5 324.2L1133.4 324.5C1133.3 325 1133.4 325.5 1133.7 325.9C1134 326.3 1134.6 326.6 1135.3 326.8C1136 327 1136.5 327 1136.9 326.8C1137.3 326.6 1137.6 326.3 1137.7 325.8C1137.8 325.5 1137.8 325.2 1137.6 325C1137.5 324.7 1137.3 324.5 1137 324.2C1136.7 323.9 1136.3 323.6 1135.7 323.2C1135.1 322.7 1134.6 322.3 1134.2 322C1133.8 321.7 1133.6 321.3 1133.4 320.8C1133.2 320.4 1133.2 319.9 1133.4 319.3C1133.6 318.5 1134.1 317.9 1134.8 317.6C1135.5 317.3 1136.4 317.3 1137.4 317.5C1138.1 317.7 1138.7 318 1139.2 318.4C1139.7 318.8 1140 319.2 1140.2 319.8C1140.4 320.3 1140.4 320.9 1140.2 321.4L1140.1 321.7C1140.1 321.8 1140 321.8 1139.9 321.8L1138.8 321.5C1138.7 321.5 1138.7 321.4 1138.7 321.3L1138.8 321.1C1138.9 320.6 1138.8 320.1 1138.5 319.7C1138.2 319.3 1137.7 318.9 1137 318.8C1136.4 318.6 1135.9 318.6 1135.5 318.8C1135.1 319 1134.8 319.3 1134.7 319.7C1134.6 320 1134.6 320.3 1134.7 320.5C1134.8 320.7 1135 321 1135.3 321.2C1135.6 321.4 1136 321.8 1136.6 322.2C1137.2 322.7 1137.7 323.1 1138.1 323.4C1138.5 323.7 1138.7 324.1 1138.9 324.6C1139.1 325 1139.1 325.5 1138.9 326.1C1138.7 327 1138.2 327.5 1137.4 327.9C1136.6 328.2 1135.7 328.2 1134.6 328C1134.1 327.7 1133.4 327.5 1133 327.1Z" fill="white"/>
<path d="M1138.3 361.4L1122.5 357.1" stroke="#757575" stroke-width="1.5084" stroke-miterlimit="10"/>
<path d="M1141.3 358.3L1123.5 353.5" stroke="#757575" stroke-width="1.5084" stroke-miterlimit="10"/>
<path d="M1140.3 354.1L1124.4 349.8" stroke="#757575" stroke-width="1.5084" stroke-miterlimit="10"/>
<path d="M1136.9 349.3L1125.4 346.2" stroke="#757575" stroke-width="1.5084" stroke-miterlimit="10"/>
<path d="M1145.9 347.8L1126.4 342.5" stroke="#757575" stroke-width="1.5084" stroke-miterlimit="10"/>
</g>
</svg>
