<svg width="540" height="540" viewBox="0 0 540 540" fill="none" xmlns="http://www.w3.org/2000/svg">
<path opacity="0.05" d="M89.1328 184.36C204.003 132.11 230.673 40.4201 322.633 54.4401C404.633 66.9401 495.843 125.26 495.253 192.51C494.823 241.67 422.013 243.67 412.843 324.05C406.843 376.33 444.913 417.6 414.843 455.61C373.143 508.37 228.483 492.61 125.843 436.85C40.1228 390.27 -34.0572 240.4 89.1328 184.36Z" fill="#440099"/>
<path d="M530.28 452H9V452.26H530.28V452Z" fill="#C9BEB1"/>
<g opacity="0.2">
<path opacity="0.2" d="M400.143 461.106C432.684 461.106 459.064 456.983 459.064 451.897C459.064 446.811 432.684 442.688 400.143 442.688C367.602 442.688 341.222 446.811 341.222 451.897C341.222 456.983 367.602 461.106 400.143 461.106Z" fill="url(#paint0_radial)"/>
</g>
<g opacity="0.2">
<path opacity="0.2" d="M262.335 458.662C303.562 458.662 336.984 455.633 336.984 451.897C336.984 448.162 303.562 445.133 262.335 445.133C221.107 445.133 187.685 448.162 187.685 451.897C187.685 455.633 221.107 458.662 262.335 458.662Z" fill="url(#paint1_radial)"/>
</g>
<g opacity="0.2">
<path opacity="0.2" d="M111.079 458.662C143.215 458.662 169.267 455.633 169.267 451.897C169.267 448.162 143.215 445.133 111.079 445.133C78.9429 445.133 52.8914 448.162 52.8914 451.897C52.8914 455.633 78.9429 458.662 111.079 458.662Z" fill="url(#paint2_radial)"/>
</g>
<path d="M391.749 444.889V451.49H369.582C369.582 451.49 368.034 446.845 375.776 445.541C383.436 444.237 387.022 443.585 387.022 443.585L391.749 444.889Z" fill="#002245"/>
<path d="M423.777 444.889V451.49H401.61C401.61 451.49 400.062 446.845 407.804 445.541C415.546 444.237 419.05 443.585 419.05 443.585L423.777 444.889Z" fill="#002245"/>
<path d="M366.893 385.397L380.829 444.726L391.912 446.274L385.474 385.886L366.893 385.397Z" fill="#FFAFA6"/>
<path d="M398.757 385.397L413.508 444.482L423.858 446.274L416.442 378.552L398.757 385.397Z" fill="#FFAFA6"/>
<path d="M442.602 340.004C442.602 340.004 438.12 347.338 443.58 349.702C449.04 352.065 452.219 342.204 452.219 342.204L442.602 340.004Z" fill="#FFAFA6"/>
<path d="M438.772 252.56C428.096 258.672 417.746 257.123 425.081 273.504C431.274 287.277 442.684 299.908 443.499 303.739C444.313 307.569 441.543 339.352 441.543 339.352L452.219 342.204L458.901 306.347C459.146 303.657 458.983 302.19 458.494 300.479L447.247 273.83L438.772 252.56Z" fill="#00D4A4"/>
<path d="M453.115 345.301L439.098 341.634L440.646 335.604L454.663 339.271L453.115 345.301Z" fill="#241352"/>
<path d="M397.943 259.569C388.978 250.604 390.934 236.668 376.591 248.404C364.53 258.265 351.898 276.275 348.23 278.068C344.563 279.861 312.291 285.729 312.291 285.729V297.138L349.779 294.123C352.468 293.715 353.935 293.063 355.484 292.167L378.954 273.749L397.943 259.569Z" fill="#00D4A4"/>
<path d="M311.965 287.033C311.965 287.033 303.489 284.588 302.593 290.7C301.696 296.812 312.372 297.22 312.372 297.22L311.965 287.033Z" fill="#FFAFA6"/>
<path d="M309.438 298.931V283.936H315.795L315.877 298.849L309.438 298.931Z" fill="#241352"/>
<path d="M392.238 241.966L423.369 244.981C430.785 245.714 441.298 250.686 439.913 258.02L420.272 290.7L424.591 311.4L377.569 306.836L385.718 286.544L375.939 253.375C376.02 246.04 384.903 241.314 392.238 241.966Z" fill="#00D4A4"/>
<path d="M404.081 249.998L397.519 323.375L399.305 323.535L405.867 250.158L404.081 249.998Z" fill="#241352"/>
<path fill-rule="evenodd" clip-rule="evenodd" d="M405.847 259.813C413.752 259.813 420.109 253.456 420.109 245.551C420.109 245.252 420.1 244.956 420.082 244.662L392.238 241.965C392.172 241.959 392.106 241.954 392.04 241.949C391.743 243.099 391.586 244.306 391.586 245.551C391.586 253.456 397.942 259.813 405.847 259.813Z" fill="#FFBEB7"/>
<path d="M399.666 232.761L398.134 248.415L413.138 249.883L414.67 234.23L399.666 232.761Z" fill="#FFB7AF"/>
<path fill-rule="evenodd" clip-rule="evenodd" d="M414.375 237.252C411.967 239.18 409.247 240.336 406.479 240.085C403.743 239.833 401.323 238.247 399.354 235.953L399.666 232.761L414.671 234.23L414.375 237.252Z" fill="#DCA1A0"/>
<path d="M393.705 217.028C392.89 224.933 398.269 236.913 406.174 237.728C414.079 238.543 421.658 227.785 422.473 219.88C423.288 211.975 417.42 204.885 409.515 204.07C401.528 203.255 394.52 209.041 393.705 217.028Z" fill="#FFAFA6"/>
<path d="M422.473 219.799C422.065 224.118 419.62 229.334 416.116 233.001C413.264 236.016 409.759 238.054 406.174 237.728C399.084 237.076 394.112 227.459 393.623 219.799C393.542 218.821 393.542 217.924 393.623 217.028C394.357 209.123 401.447 203.255 409.433 204.07C417.42 204.804 423.206 211.894 422.473 219.799Z" fill="#FFAFA6"/>
<path d="M402.017 231.616C402.471 233.246 403.83 234.835 405.685 234.876C407.539 234.835 408.857 233.246 409.352 231.616H402.017Z" fill="white"/>
<path d="M424.673 311.481L377.65 306.917L352.305 385.397L437.468 392.65L424.673 311.481Z" fill="#241352"/>
<path d="M314.252 416.186C326.361 386.953 312.479 353.438 283.246 341.329C254.013 329.22 220.498 343.102 208.389 372.335C196.28 401.568 210.162 435.083 239.395 447.192C268.628 459.301 302.143 445.419 314.252 416.186Z" fill="#00D4A4"/>
<path d="M261.29 146.837L165.575 242.552L261.29 338.268L357.006 242.552L261.29 146.837Z" fill="#FF7180"/>
<path d="M363.307 106.846H159.243V148.572H363.307V106.846Z" fill="#FFD300"/>
<path d="M124.338 199.468L119.2 214.85L133.887 219.755L139.025 204.373L124.338 199.468Z" fill="#FFB7AF"/>
<path fill-rule="evenodd" clip-rule="evenodd" d="M122.384 205.317L124.338 199.467L139.025 204.373L138.712 205.307C134.531 208.251 128.265 209.031 122.384 205.317Z" fill="#D89795"/>
<path d="M81.0074 392.569L81.0889 400.718L53.8695 401.126C53.8695 401.126 51.9136 395.421 61.367 393.628C70.8205 391.835 75.1397 390.939 75.1397 390.939L81.0074 392.569Z" fill="#241352"/>
<path d="M129.497 391.672L129.578 399.822L156.39 399.659C156.39 399.659 158.183 393.954 148.648 392.406C139.113 390.939 134.713 390.124 134.713 390.124L129.497 391.672Z" fill="#241352"/>
<path d="M155.494 137.896C155.494 137.896 165.11 136.429 163.154 129.909C161.199 123.39 150.441 127.872 150.441 127.872L155.494 137.896Z" fill="#FFAFA6"/>
<path d="M128.03 282.143L80.844 274.401L65.4414 333.648L66.2564 392.814L81.007 392.569C81.007 392.569 86.0597 374.233 86.4672 353.451C86.5487 348.643 85.4893 335.522 85.4893 335.522L100.973 302.354C101.544 301.213 102.685 300.479 103.907 300.398H103.989C105.293 300.398 106.434 301.131 107.004 302.272L140.825 332.263C140.825 332.263 133.409 339.597 131.208 356.711C129.089 373.499 129.497 391.999 129.497 391.999L144.247 391.754L161.28 325.498L128.03 282.143Z" fill="#7CAAFF"/>
<path d="M141.721 217.028L111.161 206.841C103.907 204.396 96.1654 208.797 94.3725 216.213L82.1482 268.696L128.275 284.099L149.545 234.468C152.479 227.459 148.893 219.391 141.721 217.028Z" fill="#00D4A4"/>
<path d="M90.2974 232.675C103.337 237.483 103.744 224.77 107.248 218.087C115.235 203.011 120.695 167.071 123.466 163.567C126.237 160.063 155.657 139.281 155.657 139.281L150.359 127.954L114.501 148.327C111.975 150.039 110.834 151.343 109.693 152.891C109.693 152.891 97.143 174.161 94.8611 182.067C91.3568 194.209 90.2974 232.675 90.2974 232.675Z" fill="#00D4A4"/>
<path d="M152.45 125L146.112 127.992L153.487 143.616L159.825 140.624L152.45 125Z" fill="#241352"/>
<path d="M181.899 158.107C181.899 158.107 177.579 149.387 183.936 147.268C190.374 145.068 192.9 156.559 192.9 156.559L181.899 158.107Z" fill="#FFAFA6"/>
<path d="M138.625 248.566C132.105 236.342 121.266 231.534 138.136 220.287C152.316 210.834 168.533 204.151 171.549 200.891C174.645 197.632 182.958 160.388 182.958 160.388L195.834 158.677L190.048 205.292C188.744 207.981 187.603 209.367 186.136 210.671L159.569 233.245L138.625 248.566Z" fill="#00D4A4"/>
<path d="M195.626 153.964L178.748 157.658L180.247 164.504L197.125 160.811L195.626 153.964Z" fill="#241352"/>
<path d="M141.721 217.028L111.16 206.841C103.907 204.396 96.1652 208.797 94.3723 216.213L80.1106 275.46L129.497 283.936L149.545 234.468C152.478 227.459 148.893 219.391 141.721 217.028Z" fill="#00D4A4"/>
<path d="M127.541 211.731C127.541 211.731 116.458 220.532 114.257 220.288C112.138 220.043 113.442 207.167 113.442 207.167L127.541 211.731Z" fill="#241352"/>
<path d="M127.541 211.731C127.541 211.731 131.127 225.422 133.001 226.563C134.875 227.704 141.558 216.539 141.558 216.539L127.541 211.731Z" fill="#241352"/>
<path d="M134.468 186.467C141.314 188.749 147.833 190.949 150.604 191.846C153.375 192.742 163.725 188.667 159.65 180.355C155.494 172.042 137.157 172.287 133.001 174.406C128.845 176.525 130.067 185.082 134.468 186.467Z" fill="#241352"/>
<path d="M149.87 192.498C147.344 199.996 137.728 208.634 130.23 206.108C127.785 205.293 125.911 203.419 124.525 200.974C121.673 195.921 121.103 188.505 122.732 183.452C125.259 175.955 133.327 171.961 140.824 174.406C142.862 175.058 144.655 176.199 146.122 177.503C150.033 181.333 151.745 187.12 149.87 192.498Z" fill="#FFAFA6"/>
<path d="M156.553 399.578H53.6248V404.956H156.553V399.578Z" fill="#393E5D"/>
<path d="M56.0697 401.125H53.7063V451.897H56.0697V401.125Z" fill="#393E5D"/>
<path d="M156.553 401.125H154.19V451.897H156.553V401.125Z" fill="#393E5D"/>
<path d="M410.9 203.337C408.7 196.899 411.471 183.778 425.325 182.8C441.869 181.659 440.891 192.661 448.959 198.203C453.523 201.3 472.185 194.454 484.409 210.264C494.841 223.711 481.068 247.915 458.738 239.439C437.468 231.371 449.285 217.354 437.468 214.013C430.296 211.894 416.768 220.695 410.9 203.337Z" fill="#241352"/>
<path d="M384.088 83.7015C385.881 82.1531 388.652 82.3976 390.119 84.272C391.667 86.0649 391.423 88.8357 389.549 90.3027C387.756 91.8511 367.789 102.853 367.789 102.853C367.789 102.853 382.295 85.2499 384.088 83.7015Z" fill="#FF7F8D"/>
<path d="M262.335 74.0036C262.498 71.6402 264.535 69.8473 266.898 70.0103C269.262 70.1733 271.055 72.2107 270.892 74.574C270.729 76.9374 264.942 99.0226 264.942 99.0226C264.942 99.0226 262.172 76.3669 262.335 74.0036Z" fill="#00D4A4"/>
<path d="M390.119 166.093C391.994 167.56 392.238 170.331 390.69 172.124C389.223 173.998 386.452 174.242 384.659 172.694C382.785 171.227 368.197 153.706 368.197 153.706C368.197 153.706 388.245 164.544 390.119 166.093Z" fill="#00D4A4"/>
<path d="M136.75 84.1908C134.957 82.6424 132.186 82.8869 130.719 84.7613C129.171 86.5542 129.415 89.325 131.29 90.7919C133.083 92.3403 153.049 103.342 153.049 103.342C153.049 103.342 138.543 85.7392 136.75 84.1908Z" fill="#00D4A4"/>
<path d="M129.497 163.893C127.622 165.36 127.378 168.13 128.926 169.923C130.393 171.798 133.164 172.042 134.957 170.494C136.831 169.027 151.419 151.505 151.419 151.505C151.419 151.505 131.371 162.426 129.497 163.893Z" fill="#00D4A4"/>
<path d="M422.473 219.799C422.065 224.118 419.62 229.334 416.116 233.001L415.79 228.111C415.79 228.111 421.169 223.059 418.724 219.31C416.442 215.887 413.59 220.206 413.59 220.206C413.59 220.206 403.321 220.369 393.705 219.799C393.623 218.821 393.623 217.924 393.705 217.028C394.438 209.123 401.528 203.255 409.515 204.07C417.42 204.804 423.206 211.894 422.473 219.799Z" fill="#241352"/>
<path d="M146.122 177.585C146.04 177.992 145.877 178.318 145.633 178.644C143.595 181.904 137.728 181.659 137.728 181.659L132.756 185.408C132.756 185.408 129.578 180.111 126.481 183.289C123.466 186.468 126.97 193.639 126.97 193.639L124.525 200.974C121.673 195.921 121.103 188.505 122.732 183.452C125.259 175.955 133.327 171.961 140.824 174.406C142.862 175.14 144.655 176.199 146.122 177.585Z" fill="#241352"/>
<path d="M379.932 184.43V216.213H358.662L358.01 228.274L345.541 215.48H298.763L302.919 182.066L379.932 184.43Z" fill="#440099"/>
<path d="M372.679 193.476C362.248 193.15 351.735 193.313 341.303 193.313C330.872 193.313 320.278 192.742 309.928 193.313C309.52 193.313 309.52 193.883 309.928 193.965C320.359 194.535 330.872 194.046 341.303 193.965C351.735 193.965 362.248 194.128 372.679 193.802C372.924 193.883 372.924 193.476 372.679 193.476Z" fill="white"/>
<path d="M372.679 199.587C362.248 199.261 351.735 199.424 341.303 199.424C330.872 199.424 320.278 198.854 309.928 199.424C309.52 199.424 309.52 199.995 309.928 200.076C320.359 200.647 330.872 200.158 341.303 200.076C351.735 200.076 362.248 200.239 372.679 199.913C372.924 199.995 372.924 199.587 372.679 199.587Z" fill="white"/>
<path d="M372.679 206.027C366.241 205.782 359.803 205.864 353.365 205.864C346.927 205.864 340.489 205.538 334.05 205.864C333.643 205.864 333.643 206.434 334.05 206.516C340.407 206.923 346.927 206.597 353.365 206.516C359.803 206.516 366.241 206.597 372.679 206.353C372.924 206.434 372.924 206.027 372.679 206.027Z" fill="white"/>
<path d="M316.366 113.366C312.535 109.698 311.068 103.994 314.736 99.593C318.159 95.4367 324.841 94.5403 329.079 97.8816C339.429 105.868 328.671 120.619 317.507 117.522C315.469 116.952 315.958 114.018 317.996 113.855C321.255 113.692 324.76 113.529 327.368 111.247C330.138 108.802 330.22 104.646 327.938 101.793C321.826 94.2958 311.313 105.298 317.67 111.98C318.485 112.877 317.262 114.181 316.366 113.366Z" fill="#7CAAFF"/>
<path d="M88.8308 78.7302C87.3638 80.2786 85.8154 81.4196 85.082 83.4569C83.615 87.5317 86.3859 89.5691 89.6457 91.1175C92.987 92.6659 95.5949 94.4588 96.5728 98.2076C98.1212 104.075 93.15 111.247 86.7934 109.535C84.756 108.965 85.3265 106.357 86.7934 105.542C88.7493 104.401 91.3571 103.749 91.6831 101.06C92.0906 97.4742 88.5863 96.4147 86.0599 95.1108C83.3706 93.7254 81.3332 91.525 80.4367 88.5912C78.9698 83.4569 81.9851 76.5298 87.9343 76.8558C88.8308 76.8558 89.4012 78.0783 88.8308 78.7302Z" fill="#440099"/>
<path d="M457.923 425.982C462.487 431.117 467.132 436.74 470.718 442.607C471.859 444.482 469.088 446.601 467.621 444.889C463.139 439.674 459.227 433.48 455.804 427.531C455.071 426.308 456.945 424.923 457.923 425.982Z" fill="#FF7180"/>
<path d="M204.962 115.892C198.605 112.958 192.412 109.861 186.218 106.683C184.751 105.95 184.506 104.32 185.647 103.179C190.211 98.452 194.693 93.7253 199.583 89.406C200.561 88.5911 202.028 89.0801 202.517 90.1395C205.532 96.7406 210.178 105.787 208.874 113.284C208.548 115.159 205.614 116.055 204.88 113.936C203.658 110.595 203.658 106.846 202.924 103.423C202.028 99.43 200.806 95.4367 199.094 91.6879C200.235 91.7694 201.295 91.9324 202.435 92.0139C197.953 97.0666 193.145 101.712 188.337 106.357C188.337 105.298 188.255 104.157 188.255 103.097C194.367 106.52 200.317 109.943 206.266 113.61C207.407 114.344 206.266 116.544 204.962 115.892Z" fill="#FF7180"/>
<path d="M200.887 345.872C200.642 344.405 200.724 342.938 199.909 341.634C198.279 339.026 195.916 339.678 193.634 340.819C191.271 341.96 189.152 342.694 186.625 341.634C182.713 339.923 180.839 333.974 184.588 331.121C185.81 330.225 187.033 331.692 186.87 332.833C186.625 334.463 185.81 336.174 187.196 337.56C189.07 339.434 191.189 337.886 192.982 336.989C194.938 336.093 197.057 335.93 199.094 336.745C202.598 338.13 205.125 342.938 202.354 346.117C201.865 346.687 200.968 346.524 200.887 345.872Z" fill="#7E2E83"/>
<defs>
<radialGradient id="paint0_radial" cx="0" cy="0" r="1" gradientUnits="userSpaceOnUse" gradientTransform="translate(400.162 451.898) scale(41.6839 141.686)">
<stop stop-opacity="0.6"/>
<stop offset="0.9996" stop-opacity="0"/>
</radialGradient>
<radialGradient id="paint1_radial" cx="0" cy="0" r="1" gradientUnits="userSpaceOnUse" gradientTransform="translate(262.315 451.898) scale(52.8488 103.813)">
<stop stop-opacity="0.6"/>
<stop offset="0.9996" stop-opacity="0"/>
</radialGradient>
<radialGradient id="paint2_radial" cx="0" cy="0" r="1" gradientUnits="userSpaceOnUse" gradientTransform="translate(111.07 451.898) scale(41.2164 103.813)">
<stop stop-opacity="0.6"/>
<stop offset="0.9996" stop-opacity="0"/>
</radialGradient>
</defs>
</svg>
