<svg width="122" height="122" viewBox="0 0 122 122" fill="none" xmlns="http://www.w3.org/2000/svg">
<circle cx="61.1251" cy="62.5001" r="45.1251" stroke="black" stroke-width="2"/>
<path d="M96.4605 118.901L89.0153 68.9582C88.8745 67.9722 88.0293 67.2478 87.0433 67.2478H34.8266C33.8406 67.2478 32.9955 67.9722 32.8547 68.9582L25.4095 118.901C25.2284 120.108 26.1741 121.195 27.3815 121.195C28.3674 121.195 29.1925 120.491 29.3534 119.505L31.9693 103.327H89.9208L92.5367 119.505C92.6976 120.471 93.5226 121.195 94.5086 121.195C95.6958 121.195 96.6416 120.108 96.4605 118.901ZM32.573 99.4632L36.8388 72.9625C36.9998 71.9966 37.8248 71.2722 38.8108 71.2722H83.0189C84.0049 71.2722 84.8299 71.9765 84.9909 72.9625L89.2769 99.4632H32.573Z" fill="#00D4A4"/>
<path d="M94.4883 122C93.0999 122 91.9328 121.014 91.7115 119.646L89.2163 104.152H32.6331L30.138 119.646C29.9167 121.014 28.7496 122 27.3612 122C26.5362 122 25.7715 121.638 25.2282 121.034C24.6849 120.41 24.4636 119.605 24.5843 118.78L32.0295 68.8375C32.2307 67.4692 33.4179 66.443 34.8063 66.443H87.023C88.3913 66.443 89.5987 67.4692 89.7999 68.8375L97.245 118.78C97.3658 119.585 97.1243 120.41 96.6011 121.034C96.078 121.658 95.2932 122 94.4883 122ZM31.2648 102.542H90.5846L93.3011 119.404C93.4017 119.988 93.8847 120.41 94.4883 120.41C94.8304 120.41 95.1725 120.249 95.3938 119.988C95.6152 119.726 95.7158 119.384 95.6755 119.022L88.2304 69.079C88.1499 68.4954 87.6267 68.0528 87.0432 68.0528H34.8264C34.2429 68.0528 33.7398 68.4954 33.6392 69.079L26.1941 119.022C26.1337 119.364 26.2343 119.706 26.4758 119.988C26.6971 120.249 27.0191 120.41 27.3813 120.41C27.9648 120.41 28.4679 119.988 28.5685 119.404L31.2648 102.542ZM90.2224 100.268H31.627L36.0539 72.8217C36.2752 71.4534 37.4423 70.4674 38.8307 70.4674H83.0389C84.4273 70.4674 85.5944 71.4534 85.8157 72.8217L90.2224 100.268ZM33.5185 98.6584H88.331L84.206 73.0833C84.1053 72.4997 83.6224 72.0772 83.0187 72.0772H38.8307C38.2472 72.0772 37.7441 72.4997 37.6435 73.0833L33.5185 98.6584Z" fill="black"/>
<path d="M102.436 52.6996C102.436 75.6387 83.8635 94.2315 60.9244 94.2315C37.9853 94.2315 19.4126 75.6387 19.4126 52.7197" fill="#00D4A4"/>
<path d="M60.9241 95.0375C37.5825 95.0375 18.6074 76.0423 18.6074 52.7208H20.2172C20.2172 75.1569 38.4679 93.4277 60.9241 93.4277C83.3803 93.4277 101.631 75.1569 101.631 52.7208H103.241C103.241 76.0423 84.2657 95.0375 60.9241 95.0375Z" fill="black"/>
<path d="M104.086 52.6996H17.7626C16.1327 52.6996 14.8047 51.3715 14.8047 49.7416C14.8047 48.1117 16.1327 46.7837 17.7626 46.7837H104.086C105.716 46.7837 107.044 48.1117 107.044 49.7416C107.044 51.3916 105.716 52.6996 104.086 52.6996Z" fill="white"/>
<path d="M104.086 53.5044H17.7628C15.6903 53.5044 14 51.8142 14 49.7416C14 47.669 15.6903 45.9788 17.7628 45.9788H104.086C106.159 45.9788 107.849 47.669 107.849 49.7416C107.849 51.8142 106.159 53.5044 104.086 53.5044ZM17.7628 47.6086C16.5756 47.6086 15.6098 48.5745 15.6098 49.7617C15.6098 50.9489 16.5756 51.9148 17.7628 51.9148H104.086C105.274 51.9148 106.239 50.9489 106.239 49.7617C106.239 48.5745 105.274 47.6086 104.086 47.6086H17.7628Z" fill="black"/>
<path d="M55.23 46.824H28.9506C27.0592 46.824 25.5098 45.2947 25.5098 43.3831C25.5098 41.4917 27.039 39.9423 28.9506 39.9423H55.2502C57.1416 39.9423 58.691 41.4715 58.691 43.3831C58.6709 45.2746 57.1416 46.824 55.23 46.824Z" fill="#00D4A4"/>
<path d="M55.2297 47.6288H28.9503C26.6162 47.6288 24.7046 45.7172 24.7046 43.3831C24.7046 41.0489 26.6162 39.1373 28.9503 39.1373H55.2499C57.584 39.1373 59.4956 41.0489 59.4956 43.3831C59.4956 45.7172 57.5639 47.6288 55.2297 47.6288ZM28.9503 40.7471C27.5016 40.7471 26.3144 41.9343 26.3144 43.3831C26.3144 44.8319 27.5016 46.0191 28.9503 46.0191H55.2499C56.6986 46.0191 57.8858 44.8319 57.8858 43.3831C57.8858 41.9343 56.6986 40.7471 55.2499 40.7471H28.9503Z" fill="black"/>
<path d="M92.8985 46.824H66.6191C64.7276 46.824 63.1782 45.2947 63.1782 43.3831C63.1782 41.4917 64.7075 39.9423 66.6191 39.9423H92.9186C94.8101 39.9423 96.3595 41.4715 96.3595 43.3831C96.3394 45.2746 94.8101 46.824 92.8985 46.824Z" fill="#00D4A4"/>
<path d="M92.8982 47.6288H66.6188C64.2846 47.6288 62.373 45.7172 62.373 43.3831C62.373 41.0489 64.2846 39.1373 66.6188 39.1373H92.9183C95.2525 39.1373 97.1641 41.0489 97.1641 43.3831C97.1641 45.7172 95.2525 47.6288 92.8982 47.6288ZM66.6188 40.7471C65.17 40.7471 63.9828 41.9343 63.9828 43.3831C63.9828 44.8319 65.17 46.0191 66.6188 46.0191H92.9183C94.3671 46.0191 95.5543 44.8319 95.5543 43.3831C95.5543 41.9343 94.3671 40.7471 92.9183 40.7471H66.6188Z" fill="black"/>
<path d="M42.0496 36.763C42.0496 36.763 34.4233 31.5312 34.4233 25.6355C34.4233 19.7397 43.6594 15.5745 43.6594 2.87744C43.6594 2.87744 53.157 18.4318 48.4685 24.1666C48.4685 24.1666 42.0496 26.1989 42.0496 36.763Z" fill="white"/>
<path d="M42.8548 38.2721L41.5871 37.4069C41.2651 37.1856 33.5986 31.8733 33.5986 25.6154C33.5986 22.9593 35.2084 20.7257 37.0797 18.1501C39.6554 14.5885 42.8347 10.1616 42.8347 2.87745V0L44.3237 2.43477C44.7261 3.0988 54.0628 18.5324 49.0725 24.6495L48.9115 24.8306L48.6902 24.9111C48.4487 24.9916 42.8347 26.9434 42.8347 36.7429V38.2721H42.8548ZM44.3036 5.6543C43.6194 11.8318 40.742 15.7958 38.3877 19.0757C36.6169 21.5306 35.2084 23.4824 35.2084 25.6154C35.2084 29.6398 39.2127 33.4428 41.2853 35.1532C41.8286 26.5007 46.7585 23.9654 47.9658 23.4824C50.7426 19.6995 47.0402 10.8055 44.3036 5.6543Z" fill="black"/>
<path d="M79.7185 36.763C79.7185 36.763 72.0923 31.5312 72.0923 25.6355C72.0923 19.7397 81.3283 15.5745 81.3283 2.87744C81.3283 2.87744 90.8259 18.4318 86.1375 24.1666C86.1375 24.1666 79.7185 26.1989 79.7185 36.763Z" fill="white"/>
<path d="M80.5232 38.2721L79.2555 37.4069C78.9336 37.1856 71.2671 31.8733 71.2671 25.6154C71.2671 22.9593 72.8769 20.7257 74.7482 18.1501C77.3238 14.5885 80.5031 10.1616 80.5031 2.87745V0L81.9921 2.43477C82.3946 3.0988 91.7312 18.5324 86.7409 24.6495L86.58 24.8306L86.3586 24.9111C86.1172 24.9916 80.5031 26.9434 80.5031 36.7429V38.2721H80.5232ZM81.972 5.6543C81.2879 11.8318 78.4104 15.7958 76.0561 19.0757C74.2854 21.5306 72.8769 23.4824 72.8769 25.6154C72.8769 29.6398 76.8811 33.4428 78.9537 35.1532C79.497 26.5007 84.4269 23.9654 85.6342 23.4824C88.4111 19.6995 84.7086 10.8055 81.972 5.6543Z" fill="black"/>
</svg>
