<svg width="93" height="123" viewBox="0 0 93 123" fill="none" xmlns="http://www.w3.org/2000/svg">
<circle cx="46.1251" cy="61.5001" r="45.1251" stroke="black" stroke-width="2"/>
<path d="M47.7958 111.399C47.7958 111.399 46.3918 110.937 44.9323 112.581C43.4728 114.244 43.362 115.685 42.8817 115.833C42.4013 115.981 41.6808 115.297 41.5146 115.168C41.3483 115.057 40.9788 116.701 42.7154 116.997C43.9532 117.2 44.7291 117.108 45.0801 117.052C45.1725 117.034 45.2648 117.126 45.2464 117.218C45.1355 117.625 44.8584 118.512 44.2303 118.863C43.3989 119.325 43.1403 119.491 43.1957 119.583C43.2511 119.676 44.5998 120.211 45.7267 119.583C46.4841 119.177 47.1307 118.659 47.4817 118.364C47.5741 118.272 47.7219 118.364 47.7034 118.493C47.5556 119.343 47.2785 121.32 47.8327 121.708C49.052 122.558 49.4215 121.911 49.2183 121.449C48.9966 120.95 49.5878 119.694 49.8834 119.14C49.9388 119.029 50.1051 119.047 50.142 119.158C50.3637 119.823 50.9733 121.375 51.971 122.059C52.5806 122.484 53.5043 122.243 53.024 121.856C52.5437 121.449 52.1557 119.86 52.5806 118.382C53.024 116.904 53.7445 114.355 52.5252 113.099L47.7958 111.399Z" fill="#00D4A4"/>
<path d="M52.7294 123C52.3229 123 51.898 122.871 51.584 122.649C50.9004 122.187 50.4016 121.43 50.0321 120.709C49.9582 120.931 49.9398 121.079 49.9398 121.153C50.1615 121.67 50.0321 122.243 49.6442 122.575C49.3301 122.834 48.6466 123.13 47.4458 122.298C47.0763 122.04 46.6883 121.504 46.8176 119.786C46.596 119.934 46.3558 120.081 46.0971 120.211C44.6746 120.987 42.9011 120.451 42.5871 119.97C42.4577 119.786 42.4208 119.564 42.4762 119.342C42.5871 118.917 42.9011 118.733 43.8618 118.197C43.9726 118.142 44.0835 118.012 44.1758 117.846C43.7509 117.846 43.2152 117.809 42.5871 117.717C41.1276 117.476 40.7581 116.479 40.6657 116.072C40.5549 115.555 40.6288 114.853 41.0537 114.558C41.3123 114.373 41.6633 114.373 41.922 114.558C41.9589 114.576 42.0328 114.631 42.1067 114.705C42.3099 114.872 42.4762 114.982 42.6055 115.056C42.661 114.945 42.7164 114.816 42.7718 114.687C43.0489 114.059 43.4923 113.117 44.379 112.1C46.1341 110.105 47.9446 110.678 48.0185 110.696H48.0369L52.9511 112.433L53.0804 112.562C54.6322 114.151 53.7824 117.033 53.3205 118.566C52.9511 119.841 53.3205 121.079 53.5238 121.264C54.041 121.689 54.0041 122.243 53.7455 122.575C53.5238 122.871 53.1358 123 52.7294 123ZM48.3325 121.134C48.3695 121.153 48.4064 121.19 48.4434 121.208C48.4249 120.765 48.5727 120.044 49.2378 118.788C49.404 118.474 49.7366 118.289 50.0876 118.326C50.4386 118.363 50.7342 118.585 50.845 118.917C51.1036 119.675 51.4177 120.321 51.7687 120.802C51.6024 119.989 51.6394 119.01 51.8796 118.16C52.2121 117.033 52.8956 114.742 52.1013 113.708L47.5566 112.1C47.4642 112.082 46.5221 111.879 45.4875 113.08C44.7301 113.929 44.3791 114.724 44.1204 115.315C43.9172 115.74 43.7509 116.146 43.4553 116.368C44.2497 116.442 44.7301 116.386 44.9333 116.35C45.2289 116.294 45.5244 116.386 45.7461 116.608C45.9494 116.83 46.0417 117.125 45.9678 117.421C45.857 117.846 45.6353 118.529 45.1919 119.047C45.2658 119.028 45.3397 118.991 45.3951 118.954C46.0971 118.566 46.7253 118.068 47.0393 117.809C47.3164 117.569 47.7229 117.532 48.0369 117.717C48.351 117.901 48.5357 118.271 48.4618 118.622C48.2032 120.081 48.2401 120.894 48.3325 121.134Z" fill="black"/>
<path d="M55.2961 86.4398H37.1914C31.0765 86.4398 26.1069 81.4703 26.1069 75.3553V39.3492C26.1069 33.2342 31.0765 28.2646 37.1914 28.2646H55.2961C61.4111 28.2646 66.3806 33.2342 66.3806 39.3492V75.3553C66.3806 81.4703 61.4296 86.4398 55.2961 86.4398Z" fill="white"/>
<path d="M55.2968 87.1819H37.1921C30.6707 87.1819 25.3687 81.8798 25.3687 75.3584V39.3523C25.3687 32.8309 30.6707 27.5288 37.1921 27.5288H55.2968C61.8182 27.5288 67.1203 32.8309 67.1203 39.3523V75.3584C67.1203 81.8798 61.8182 87.1819 55.2968 87.1819ZM37.1921 29.0067C31.4836 29.0067 26.8466 33.6438 26.8466 39.3523V75.3584C26.8466 81.0669 31.4836 85.704 37.1921 85.704H55.2968C61.0053 85.704 65.6424 81.0669 65.6424 75.3584V39.3523C65.6424 33.6438 61.0053 29.0067 55.2968 29.0067H37.1921Z" fill="black"/>
<path d="M58.641 28.264H33.8486V25.4005C33.8486 23.5531 35.345 22.0752 37.174 22.0752H55.2787C57.1261 22.0752 58.604 23.5716 58.604 25.4005V28.264H58.641Z" fill="#00D4A4"/>
<path d="M59.3794 29.0057H33.1091V25.4032C33.1091 23.1493 34.9381 21.3389 37.1734 21.3389H55.2781C57.532 21.3389 59.3425 23.1678 59.3425 25.4032V29.0057H59.3794ZM34.5871 27.5277H57.883V25.4032C57.883 23.9807 56.7191 22.8168 55.2966 22.8168H37.1919C35.7694 22.8168 34.6055 23.9807 34.6055 25.4032V27.5277H34.5871Z" fill="black"/>
<path d="M55.2972 92.6312H37.1925C35.3451 92.6312 33.8672 91.1348 33.8672 89.3059V86.4424H58.6411V89.3059C58.6411 91.1348 57.1446 92.6312 55.2972 92.6312Z" fill="#00D4A4"/>
<path d="M55.2984 93.3675H37.1937C34.9399 93.3675 33.1294 91.5385 33.1294 89.3031V85.7007H59.3812V89.3031C59.3812 91.5385 57.5522 93.3675 55.2984 93.3675ZM34.5889 87.1786V89.3031C34.5889 90.7257 35.7527 91.8895 37.1752 91.8895H55.2799C56.7024 91.8895 57.8663 90.7257 57.8663 89.3031V87.1786H34.5889Z" fill="black"/>
<path d="M42.7891 55.2585H50.2712V56.1453H53.227V39.7402H51.2318H50.2712H42.7891H42.1979H39.8333V56.1453H42.7891V55.2585ZM42.7891 52.3027V48.8665H50.2712V52.3027H42.7891ZM50.2896 42.6961V45.9106H42.8076V42.6961H50.2896Z" fill="black"/>
<path d="M49.2927 63.6842H54.1884V60.7283H47.7224V58.3267H44.7665V60.7283H38.2821V63.6842H43.1962C41.6814 66.5661 37.4692 70.3903 37.4692 70.3903L39.0211 73.0506C39.797 72.4779 40.6283 71.6465 41.4042 70.6859V72.1638H44.7665V74.9534H47.7224V72.1638H51.0847V70.6489C51.8791 71.6096 52.7104 72.4594 53.4864 73.0321L55.0382 70.3718C55.0382 70.4088 50.8076 66.5846 49.2927 63.6842ZM42.5496 69.2264C43.3994 68.081 44.1569 66.8987 44.7665 65.9195V69.2264H42.5496ZM47.7224 69.2264V65.8826C48.3321 66.8617 49.108 68.0626 49.9578 69.2264H47.7224Z" fill="black"/>
<path d="M46.2453 92.6299C46.2453 92.6299 44.0099 95.6781 44.7489 99.5023C45.5064 103.326 49.4414 103.585 49.9402 107.391C50.2542 109.737 49.1458 112.083 49.1458 112.083L50.8084 113.487C50.8084 113.487 53.0253 110.291 51.9723 106.412C50.9193 102.532 47.7787 102.107 47.1136 99.0774C46.4301 96.0661 48.3514 92.6484 48.3514 92.6484H46.2453V92.6299Z" fill="#00D4A4"/>
<path d="M50.9567 114.558L48.241 112.267L48.4812 111.75C48.4997 111.731 49.4973 109.551 49.2202 107.464C48.9985 105.801 48.0378 104.951 46.9109 103.935C45.7655 102.901 44.4538 101.755 44.0474 99.6308C43.2345 95.548 45.5623 92.315 45.6731 92.1857L45.8948 91.8901H49.6266L49.0169 92.9986C48.9985 93.0355 47.2619 96.2131 47.8531 98.9103C48.1302 100.13 48.9061 100.869 49.7929 101.737C50.8828 102.79 52.1021 103.972 52.7118 106.208C53.8387 110.364 51.5294 113.764 51.4371 113.911L50.9567 114.558ZM50.033 111.861L50.6057 112.341C51.1415 111.251 51.9359 109.053 51.2708 106.596C50.772 104.767 49.7559 103.769 48.7583 102.808C47.7792 101.866 46.7816 100.887 46.3936 99.2429C45.8948 97.0444 46.6338 94.7167 47.188 93.3865H46.6523C46.1534 94.1994 44.9342 96.5826 45.4884 99.3722C45.8024 101.016 46.8185 101.903 47.89 102.864C49.0724 103.917 50.4025 105.099 50.6796 107.298C50.9198 109.145 50.3656 110.974 50.033 111.861Z" fill="black"/>
<path d="M48.4978 109.663C48.4978 109.663 47.0014 110.051 46.6319 111.159C46.2625 112.268 52.9501 115.058 53.1349 113.783C53.375 112.176 53.061 111.732 51.8786 110.975C50.6778 110.199 48.4978 109.663 48.4978 109.663Z" fill="white"/>
<path d="M52.5066 114.836C50.7515 114.836 47.3892 113.303 46.3731 112.269C45.8189 111.696 45.8189 111.216 45.9297 110.92C46.4285 109.479 48.1282 108.999 48.3129 108.962L48.4977 108.906L48.6824 108.943C48.7748 108.962 50.9917 109.516 52.2849 110.329C53.6335 111.197 54.1877 111.899 53.8921 113.876C53.8367 114.282 53.5411 114.596 53.1162 114.744C52.9315 114.818 52.7282 114.836 52.5066 114.836ZM47.4077 111.234C48.0543 111.991 51.3796 113.395 52.4511 113.377C52.5805 112.324 52.3588 112.158 51.472 111.585C50.6591 111.068 49.1997 110.624 48.5161 110.421C48.1836 110.55 47.6478 110.828 47.4077 111.234Z" fill="black"/>
<path d="M48.6652 109.534C48.6652 109.534 49.3672 108.019 50.9006 108.499C52.4524 108.961 52.7849 110.199 52.711 111.049C52.6556 111.899 48.4435 110.735 48.6652 109.534Z" fill="white"/>
<path d="M52.0826 112.065C50.9741 112.065 49.4038 111.511 48.6279 110.883C47.9444 110.329 47.8889 109.756 47.9628 109.386L47.9813 109.294L48.0183 109.22C48.3508 108.5 49.4408 107.262 51.1404 107.779C53.0432 108.352 53.579 109.922 53.4866 111.105C53.4497 111.474 53.228 111.788 52.84 111.936C52.6183 112.028 52.3782 112.065 52.0826 112.065ZM49.4592 109.664C49.607 109.811 49.995 110.088 50.697 110.329C51.2512 110.513 51.7131 110.587 51.9902 110.606C51.9348 110.144 51.6761 109.497 50.697 109.22C50.0319 108.998 49.644 109.405 49.4592 109.664Z" fill="black"/>
<path d="M47.2796 0.740234H44.3237V22.0779H47.2796V0.740234Z" fill="#00D4A4"/>
<path d="M48.0373 22.8156H43.6035V0H48.0373V22.8156ZM45.063 21.3377H46.5409V1.47793H45.063V21.3377Z" fill="black"/>
</svg>
