<?xml version="1.0" encoding="utf-8"?>
<!-- Generator: Adobe Illustrator 24.1.2, SVG Export Plug-In . SVG Version: 6.00 Build 0)  -->
<svg version="1.1" id="Layer_1" xmlns="http://www.w3.org/2000/svg" xmlns:xlink="http://www.w3.org/1999/xlink" x="0px" y="0px"
	 viewBox="0 0 414 25" style="enable-background:new 0 0 414 25;" xml:space="preserve">
<style type="text/css">
	.st0{fill:#F4F0EB;}
</style>
<polygon class="st0" points="68.9,0 137.8,24.8 68.9,25 0,24.8 "/>
<polygon class="st0" points="68.9,0 137.8,24.8 68.9,25 0,24.8 "/>
<polygon class="st0" points="68.9,0 137.8,24.8 68.9,25 0,24.8 "/>
<polygon class="st0" points="68.9,0 137.8,24.8 68.9,25 0,24.8 "/>
<polygon class="st0" points="68.9,0 137.8,24.8 68.9,25 0,24.8 "/>
<polygon class="st0" points="345.1,0 414,24.8 345.1,25 276.2,24.8 "/>
<polygon class="st0" points="345.1,0 414,24.8 345.1,25 276.2,24.8 "/>
<polygon class="st0" points="345.1,0 414,24.8 345.1,25 276.2,24.8 "/>
<polygon class="st0" points="345.1,0 414,24.8 345.1,25 276.2,24.8 "/>
<polygon class="st0" points="345.1,0 414,24.8 345.1,25 276.2,24.8 "/>
<polygon class="st0" points="207,0 275.9,24.8 207,25 138.1,24.8 "/>
<polygon class="st0" points="207,0 275.9,24.8 207,25 138.1,24.8 "/>
<polygon class="st0" points="207,0 275.9,24.8 207,25 138.1,24.8 "/>
<polygon class="st0" points="207,0 275.9,24.8 207,25 138.1,24.8 "/>
<polygon class="st0" points="207,0 275.9,24.8 207,25 138.1,24.8 "/>
</svg>
