<?xml version="1.0" encoding="utf-8"?>
<!-- Generator: Adobe Illustrator 24.1.2, SVG Export Plug-In . SVG Version: 6.00 Build 0)  -->
<svg version="1.1" id="Layer_1" xmlns="http://www.w3.org/2000/svg" xmlns:xlink="http://www.w3.org/1999/xlink" x="0px" y="0px"
	 viewBox="0 0 1980 25" style="enable-background:new 0 0 1980 25;" xml:space="preserve">
<style type="text/css">
	.st0{fill:#FFFFFF;}
	.st1{fill:#F4F0EB;}
</style>
<rect class="st0" width="1980" height="24.9"/>
<polygon class="st1" points="180,25 0,25 90.1,0 "/>
<polygon class="st1" points="360,25 180,25 270.1,0 "/>
<polygon class="st1" points="540,25 360,25 450.1,0 "/>
<polygon class="st1" points="720,25 540,25 630.1,0 "/>
<polygon class="st1" points="900,25 720,25 810.1,0 "/>
<polygon class="st1" points="1080,25 900,25 990.1,0 "/>
<polygon class="st1" points="1260,25 1080,25 1170.1,0 "/>
<polygon class="st1" points="1440,25 1260,25 1350.1,0 "/>
<polygon class="st1" points="1620,25 1440,25 1530.1,0 "/>
<polygon class="st1" points="1800,25 1620,25 1710.1,0 "/>
<polygon class="st1" points="1980,25 1800,25 1890.1,0 "/>
</svg>
