<svg width="42" height="42" viewBox="0 0 42 42" fill="none" xmlns="http://www.w3.org/2000/svg">
<path d="M29.6595 15.7157C30.5597 15.0289 31.3699 14.2048 32 13.2434C31.1898 13.6096 30.2446 13.8843 29.2994 13.9759C30.2896 13.3807 31.0098 12.4651 31.3699 11.3205C30.4697 11.8699 29.4344 12.2819 28.3992 12.5108C27.499 11.5494 26.2838 11 24.9335 11C22.3229 11 20.2074 13.1518 20.2074 15.8072C20.2074 16.1735 20.2524 16.5398 20.3425 16.906C16.4266 16.6771 12.9159 14.7542 10.5753 11.8699C10.1703 12.5566 9.94521 13.3807 9.94521 14.2964C9.94521 15.9446 10.7554 17.4096 12.0607 18.2795C11.2955 18.2337 10.5303 18.0506 9.9002 17.6843V17.7301C9.9002 20.0651 11.5205 21.988 13.681 22.4458C13.3209 22.5373 12.8708 22.6289 12.4658 22.6289C12.1507 22.6289 11.8806 22.5831 11.5656 22.5373C12.1507 24.4602 13.9061 25.8337 15.9765 25.8795C14.3562 27.1614 12.3307 27.9398 10.1252 27.9398C9.72016 27.9398 9.36008 27.894 9 27.8482C11.0705 29.2217 13.546 30 16.2466 30C24.9335 30 29.6595 22.7205 29.6595 16.3566C29.6595 16.1277 29.6595 15.9446 29.6595 15.7157Z" fill="white"/>
</svg>
