<svg width="20" height="20" viewBox="0 0 20 20" fill="none" xmlns="http://www.w3.org/2000/svg">
<mask id="mask0" mask-type="alpha" maskUnits="userSpaceOnUse" x="0" y="0" width="20" height="20">
<circle cx="10" cy="10" r="10" fill="#C4C4C4"/>
</mask>
<g mask="url(#mask0)">
<path d="M32.8 0H-5.19995V1.538H32.8V0Z" fill="#B01820"/>
<path d="M32.8 18.4619H-5.19995V19.9999H32.8V18.4619Z" fill="#B01820"/>
<path d="M32.8 15.3848H-5.19995V16.9228H32.8V15.3848Z" fill="#B01820"/>
<path d="M32.8 12.3076H-5.19995V13.8456H32.8V12.3076Z" fill="#B01820"/>
<path d="M32.8 9.23047H-5.19995V10.7685H32.8V9.23047Z" fill="#B01820"/>
<path d="M32.8 6.1543H-5.19995V7.6923H32.8V6.1543Z" fill="#B01820"/>
<path d="M32.8 3.07715H-5.19995V4.61515H32.8V3.07715Z" fill="#B01820"/>
<path d="M32.8 16.9229H-5.19995V18.4609H32.8V16.9229Z" fill="white"/>
<path d="M32.8 13.8457H-5.19995V15.3837H32.8V13.8457Z" fill="white"/>
<path d="M32.8 10.7695H-5.19995V12.3075H32.8V10.7695Z" fill="white"/>
<path d="M32.8 7.69238H-5.19995V9.23038H32.8V7.69238Z" fill="white"/>
<path d="M32.8 4.61523H-5.19995V6.15323H32.8V4.61523Z" fill="white"/>
<path d="M32.8 1.53809H-5.19995V3.07609H32.8V1.53809Z" fill="white"/>
<path d="M10 0H-5.19995V10.769H10V0Z" fill="#002A70"/>
<path d="M1.13312 0.460938L0.995119 0.886937H0.547119L0.910119 1.14994L0.771119 1.57494L1.13312 1.31194L1.49512 1.57494L1.35712 1.14994L1.71912 0.886937H1.27212L1.13312 0.460938Z" fill="white"/>
<path d="M3.66705 0.460938L3.52805 0.886937H3.08105L3.44305 1.14994L3.30505 1.57494L3.66705 1.31194L4.02906 1.57494L3.89105 1.14994L4.25305 0.886937H3.80505L3.66705 0.460938Z" fill="white"/>
<path d="M6.20026 0.460938L6.06226 0.886937H5.61426L5.97626 1.14994L5.83826 1.57494L6.20026 1.31194L6.56226 1.57494L6.42426 1.14994L6.78626 0.886937H6.33826L6.20026 0.460938Z" fill="white"/>
<path d="M8.37097 1.57494L8.73297 1.31194L9.09497 1.57494L8.95697 1.14994L9.31897 0.886937H8.87197L8.73297 0.460938L8.59497 0.886937H8.14697L8.50897 1.14994L8.37097 1.57494Z" fill="white"/>
<path d="M1.13312 2.61523L0.995119 3.04123H0.547119L0.910119 3.30423L0.771119 3.72923L1.13312 3.46623L1.49512 3.72923L1.35712 3.30423L1.71912 3.04123H1.27212L1.13312 2.61523Z" fill="white"/>
<path d="M3.66705 2.61523L3.52805 3.04123H3.08105L3.44305 3.30423L3.30505 3.72923L3.66705 3.46623L4.02906 3.72923L3.89105 3.30423L4.25305 3.04123H3.80505L3.66705 2.61523Z" fill="white"/>
<path d="M6.20026 2.61523L6.06226 3.04123H5.61426L5.97626 3.30423L5.83826 3.72923L6.20026 3.46623L6.56226 3.72923L6.42426 3.30423L6.78626 3.04123H6.33826L6.20026 2.61523Z" fill="white"/>
<path d="M8.73297 2.61523L8.59497 3.04123H8.14697L8.50897 3.30423L8.37097 3.72923L8.73297 3.46623L9.09497 3.72923L8.95697 3.30423L9.31897 3.04123H8.87197L8.73297 2.61523Z" fill="white"/>
<path d="M1.13312 4.76855L0.995119 5.19355H0.547119L0.910119 5.45655L0.771119 5.88256L1.13312 5.61955L1.49512 5.88256L1.35712 5.45655L1.71912 5.19355H1.27212L1.13312 4.76855Z" fill="white"/>
<path d="M3.66705 4.76855L3.52805 5.19355H3.08105L3.44305 5.45655L3.30505 5.88256L3.66705 5.61955L4.02906 5.88256L3.89105 5.45655L4.25305 5.19355H3.80505L3.66705 4.76855Z" fill="white"/>
<path d="M6.20026 4.76855L6.06226 5.19355H5.61426L5.97626 5.45655L5.83826 5.88256L6.20026 5.61955L6.56226 5.88256L6.42426 5.45655L6.78626 5.19355H6.33826L6.20026 4.76855Z" fill="white"/>
<path d="M8.73297 4.76855L8.59497 5.19355H8.14697L8.50897 5.45655L8.37097 5.88256L8.73297 5.61955L9.09497 5.88256L8.95697 5.45655L9.31897 5.19355H8.87197L8.73297 4.76855Z" fill="white"/>
<path d="M1.13312 6.92188L0.995119 7.34788H0.547119L0.910119 7.61087L0.771119 8.03687L1.13312 7.77387L1.49512 8.03687L1.35712 7.61087L1.71912 7.34788H1.27212L1.13312 6.92188Z" fill="white"/>
<path d="M3.66705 6.92188L3.52805 7.34788H3.08105L3.44305 7.61087L3.30505 8.03687L3.66705 7.77387L4.02906 8.03687L3.89105 7.61087L4.25305 7.34788H3.80505L3.66705 6.92188Z" fill="white"/>
<path d="M6.20026 6.92188L6.06226 7.34788H5.61426L5.97626 7.61087L5.83826 8.03687L6.20026 7.77387L6.56226 8.03687L6.42426 7.61087L6.78626 7.34788H6.33826L6.20026 6.92188Z" fill="white"/>
<path d="M8.73297 6.92188L8.59497 7.34788H8.14697L8.50897 7.61087L8.37097 8.03687L8.73297 7.77387L9.09497 8.03687L8.95697 7.61087L9.31897 7.34788H8.87197L8.73297 6.92188Z" fill="white"/>
<path d="M1.27212 9.50217L1.13312 9.07617L0.995119 9.50217H0.547119L0.910119 9.76517L0.771119 10.1912L1.13312 9.92817L1.49512 10.1912L1.35712 9.76517L1.71912 9.50217H1.27212Z" fill="white"/>
<path d="M3.80505 9.50217L3.66705 9.07617L3.52805 9.50217H3.08105L3.44305 9.76517L3.30505 10.1912L3.66705 9.92817L4.02906 10.1912L3.89105 9.76517L4.25305 9.50217H3.80505Z" fill="white"/>
<path d="M6.33826 9.50217L6.20026 9.07617L6.06226 9.50217H5.61426L5.97626 9.76517L5.83826 10.1912L6.20026 9.92817L6.56226 10.1912L6.42426 9.76517L6.78626 9.50217H6.33826Z" fill="white"/>
<path d="M8.87197 9.50217L8.73297 9.07617L8.59497 9.50217H8.14697L8.50897 9.76517L8.37097 10.1912L8.73297 9.92817L9.09497 10.1912L8.95697 9.76517L9.31897 9.50217H8.87197Z" fill="white"/>
<path d="M-0.132994 1.53809L-0.271994 1.96409H-0.718994L-0.356994 2.22709L-0.494994 2.65209L-0.132994 2.38909L0.229006 2.65209L0.0910059 2.22709L0.453006 1.96409H0.0050059L-0.132994 1.53809Z" fill="white"/>
<path d="M2.39996 1.53809L2.26197 1.96409H1.81396L2.17596 2.22709L2.03796 2.65209L2.39996 2.38909L2.76197 2.65209L2.62397 2.22709L2.98597 1.96409H2.53796L2.39996 1.53809Z" fill="white"/>
<path d="M4.93317 1.53809L4.79517 1.96409H4.34717L4.70917 2.22709L4.57117 2.65209L4.93317 2.38909L5.29517 2.65209L5.15717 2.22709L5.51917 1.96409H5.07217L4.93317 1.53809Z" fill="white"/>
<path d="M7.4671 1.53809L7.3281 1.96409H6.8811L7.2431 2.22709L7.1051 2.65209L7.4671 2.38909L7.8291 2.65209L7.6901 2.22709L8.0531 1.96409H7.6051L7.4671 1.53809Z" fill="white"/>
<path d="M-0.132994 3.69238L-0.271994 4.11738H-0.718994L-0.356994 4.38038L-0.494994 4.80638L-0.132994 4.54338L0.229006 4.80638L0.0910059 4.38038L0.453006 4.11738H0.0050059L-0.132994 3.69238Z" fill="white"/>
<path d="M2.39996 3.69238L2.26197 4.11738H1.81396L2.17596 4.38038L2.03796 4.80638L2.39996 4.54338L2.76197 4.80638L2.62397 4.38038L2.98597 4.11738H2.53796L2.39996 3.69238Z" fill="white"/>
<path d="M4.93317 3.69238L4.79517 4.11738H4.34717L4.70917 4.38038L4.57117 4.80638L4.93317 4.54338L5.29517 4.80638L5.15717 4.38038L5.51917 4.11738H5.07217L4.93317 3.69238Z" fill="white"/>
<path d="M7.4671 3.69238L7.3281 4.11738H6.8811L7.2431 4.38038L7.1051 4.80638L7.4671 4.54338L7.8291 4.80638L7.6901 4.38038L8.0531 4.11738H7.6051L7.4671 3.69238Z" fill="white"/>
<path d="M-0.132994 5.84473L-0.271994 6.27073H-0.718994L-0.356994 6.53373L-0.494994 6.95973L-0.132994 6.69673L0.229006 6.95973L0.0910059 6.53373L0.453006 6.27073H0.0050059L-0.132994 5.84473Z" fill="white"/>
<path d="M2.39996 5.84473L2.26197 6.27073H1.81396L2.17596 6.53373L2.03796 6.95973L2.39996 6.69673L2.76197 6.95973L2.62397 6.53373L2.98597 6.27073H2.53796L2.39996 5.84473Z" fill="white"/>
<path d="M4.93317 5.84473L4.79517 6.27073H4.34717L4.70917 6.53373L4.57117 6.95973L4.93317 6.69673L5.29517 6.95973L5.15717 6.53373L5.51917 6.27073H5.07217L4.93317 5.84473Z" fill="white"/>
<path d="M7.4671 5.84473L7.3281 6.27073H6.8811L7.2431 6.53373L7.1051 6.95973L7.4671 6.69673L7.8291 6.95973L7.6901 6.53373L8.0531 6.27073H7.6051L7.4671 5.84473Z" fill="white"/>
<path d="M0.0050059 8.42502L-0.132994 7.99902L-0.271994 8.42502H-0.718994L-0.356994 8.68802L-0.494994 9.11402L-0.132994 8.85102L0.229006 9.11402L0.0910059 8.68802L0.453006 8.42502H0.0050059Z" fill="white"/>
<path d="M2.53796 8.42502L2.39996 7.99902L2.26197 8.42502H1.81396L2.17596 8.68802L2.03796 9.11402L2.39996 8.85102L2.76197 9.11402L2.62397 8.68802L2.98597 8.42502H2.53796Z" fill="white"/>
<path d="M5.07217 8.42502L4.93317 7.99902L4.79517 8.42502H4.34717L4.70917 8.68802L4.57117 9.11402L4.93317 8.85102L5.29517 9.11402L5.15717 8.68802L5.51917 8.42502H5.07217Z" fill="white"/>
<path d="M7.6051 8.42502L7.4671 7.99902L7.3281 8.42502H6.8811L7.2431 8.68802L7.1051 9.11402L7.4671 8.85102L7.8291 9.11402L7.6901 8.68802L8.0531 8.42502H7.6051Z" fill="white"/>
</g>
</svg>
