<svg width="123" height="122" viewBox="0 0 123 122" fill="none" xmlns="http://www.w3.org/2000/svg">
<circle cx="62.1251" cy="68.5001" r="45.1251" stroke="black" stroke-width="2"/>
<path d="M87.3672 39.5424L102.058 16.3498L103.349 16.2063L117.609 39.1478L87.3672 39.5424Z" fill="white"/>
<path d="M5.68164 56.0444L20.3721 32.8517L21.6815 32.6903L35.9235 55.6498L5.68164 56.0444Z" fill="white"/>
<path d="M71.9953 112.403H51.2959L59.3676 25.5513H63.9236L71.9953 112.403Z" fill="#00D4A4"/>
<path d="M72.7842 113.12H50.5063L58.7036 24.8339H64.569L64.6228 25.4796L72.7842 113.12ZM52.0848 111.685H71.2057L63.2596 26.2688H60.0309L52.0848 111.685Z" fill="black"/>
<path d="M102.214 13.3042L20.5337 30.0989L21.09 32.8046L102.77 16.0099L102.214 13.3042Z" fill="#00D4A4"/>
<path d="M20.5338 33.659L19.6729 29.5514L102.757 12.4753L103.6 16.5829L20.5338 33.659ZM21.3769 30.6635L21.6459 31.9729L101.914 15.4708L101.645 14.1614L21.3769 30.6635Z" fill="black"/>
<path d="M63.022 19.3044V9.4928H60.2597V19.3044H63.022Z" fill="#00D4A4"/>
<path d="M63.7437 20.0089H59.5464V8.76233H63.7437V20.0089ZM60.9814 18.5739H62.3087V10.1973H60.9814V18.5739Z" fill="black"/>
<path d="M58.1297 6.71741H65.179C65.9503 6.71741 66.5601 7.34521 66.5601 8.09856C66.5601 8.86986 65.9323 9.47972 65.179 9.47972H58.1297C57.3584 9.47972 56.7485 8.85192 56.7485 8.09856C56.7485 7.34521 57.3584 6.71741 58.1297 6.71741Z" fill="#00D4A4"/>
<path d="M65.1611 10.1973H58.1118C56.9459 10.1973 56.0132 9.24661 56.0132 8.09864C56.0132 6.95066 56.9638 6 58.1118 6H65.1611C66.327 6 67.2597 6.95066 67.2597 8.09864C67.2597 9.24661 66.327 10.1973 65.1611 10.1973ZM58.1298 7.43496C57.771 7.43496 57.4661 7.7399 57.4661 8.09864C57.4661 8.45738 57.771 8.76231 58.1298 8.76231H65.179C65.5378 8.76231 65.8427 8.45738 65.8427 8.09864C65.8427 7.7399 65.5378 7.43496 65.179 7.43496H58.1298Z" fill="black"/>
<path d="M61.6453 29.6051C65.2512 29.6051 68.1744 26.6819 68.1744 23.076C68.1744 19.47 65.2512 16.5469 61.6453 16.5469C58.0394 16.5469 55.1162 19.47 55.1162 23.076C55.1162 26.6819 58.0394 29.6051 61.6453 29.6051Z" fill="white"/>
<path d="M61.6455 30.3047C57.6455 30.3047 54.3989 27.0581 54.3989 23.0581C54.3989 19.0581 57.6455 15.8115 61.6455 15.8115C65.6455 15.8115 68.8921 19.0581 68.8921 23.0581C68.8921 27.0581 65.6455 30.3047 61.6455 30.3047ZM61.6455 17.2644C58.4527 17.2644 55.8339 19.8653 55.8339 23.076C55.8339 26.2868 58.4348 28.8876 61.6455 28.8876C64.8562 28.8876 67.4571 26.2868 67.4571 23.076C67.4571 19.8653 64.8383 17.2644 61.6455 17.2644Z" fill="black"/>
<path d="M46.4341 115.721C46.4341 110.214 53.2502 105.766 61.6447 105.766C70.0393 105.766 76.8553 110.232 76.8553 115.721" fill="white"/>
<path d="M77.573 115.721H76.1381C76.1381 110.627 69.6269 106.483 61.6449 106.483C53.6629 106.483 47.1518 110.627 47.1518 115.721H45.7168C45.7168 112.815 47.4208 110.089 50.506 108.08C53.5015 106.125 57.4476 105.048 61.6629 105.048C65.8781 105.048 69.8242 106.125 72.8197 108.08C75.8869 110.089 77.573 112.815 77.573 115.721Z" fill="black"/>
<path d="M78.919 115.882H44.3722C43.3677 115.882 42.5605 115.075 42.5605 114.071C42.5605 113.066 43.3677 112.259 44.3722 112.259H78.919C79.9235 112.259 80.7306 113.066 80.7306 114.071C80.7306 115.075 79.9235 115.882 78.919 115.882Z" fill="#00D4A4"/>
<path d="M78.9187 116.6H44.3719C42.9728 116.6 41.8428 115.47 41.8428 114.071C41.8428 112.672 42.9728 111.542 44.3719 111.542H78.9187C80.3178 111.542 81.4478 112.672 81.4478 114.071C81.4478 115.47 80.3178 116.6 78.9187 116.6ZM44.3719 112.977C43.762 112.977 43.2777 113.461 43.2777 114.071C43.2777 114.681 43.762 115.165 44.3719 115.165H78.9187C79.5286 115.165 80.0129 114.681 80.0129 114.071C80.0129 113.461 79.5286 112.977 78.9187 112.977H44.3719Z" fill="black"/>
<path d="M20.6917 31.0639L5.25977 54.7504L6.46212 55.5337L21.8941 31.8473L20.6917 31.0639Z" fill="black"/>
<path d="M20.9727 31.0765L19.7705 31.8599L35.2025 55.5435L36.4047 54.7601L20.9727 31.0765Z" fill="black"/>
<path d="M35.9235 58.1431C35.9235 66.5017 29.1613 73.264 20.8026 73.264C12.4439 73.264 5.68164 66.5017 5.68164 58.1431" fill="white"/>
<path d="M20.8023 73.9815C12.0669 73.9815 4.96387 66.8784 4.96387 58.1431H6.39883C6.39883 66.0892 12.8562 72.5465 20.8023 72.5465C28.7484 72.5465 35.2058 66.0892 35.2058 58.1431H36.6407C36.6407 66.8784 29.5377 73.9815 20.8023 73.9815Z" fill="black"/>
<path d="M3.52942 54.5198H38.0762C39.0807 54.5198 39.8879 55.3269 39.8879 56.3314C39.8879 57.3359 39.0807 58.1431 38.0762 58.1431H3.52942C2.52494 58.1431 1.71777 57.3359 1.71777 56.3314C1.71777 55.3449 2.54288 54.5198 3.52942 54.5198Z" fill="#00D4A4"/>
<path d="M38.0759 58.8606H3.52913C2.13004 58.8606 1 57.7306 1 56.3315C1 54.9324 2.13004 53.8024 3.52913 53.8024H38.0759C39.475 53.8024 40.605 54.9324 40.605 56.3315C40.605 57.7306 39.475 58.8606 38.0759 58.8606ZM3.52913 55.2373C2.91927 55.2373 2.43497 55.7216 2.43497 56.3315C2.43497 56.9414 2.91927 57.4257 3.52913 57.4257H38.0759C38.6858 57.4257 39.1701 56.9414 39.1701 56.3315C39.1701 55.7216 38.6858 55.2373 38.0759 55.2373H3.52913Z" fill="black"/>
<path d="M102.367 14.2783L86.9351 37.9647L88.1374 38.7481L103.569 15.0616L102.367 14.2783Z" fill="black"/>
<path d="M102.656 14.2844L101.454 15.0677L116.886 38.7514L118.088 37.968L102.656 14.2844Z" fill="black"/>
<path d="M117.609 41.3541C117.609 49.7128 110.847 56.4751 102.488 56.4751C94.1295 56.4751 87.3672 49.7128 87.3672 41.3541" fill="white"/>
<path d="M102.488 57.1926C93.7525 57.1926 86.6494 50.0895 86.6494 41.3541H88.0844C88.0844 49.3002 94.5417 55.7576 102.488 55.7576C110.434 55.7576 116.891 49.3002 116.891 41.3541H118.326C118.326 50.0895 111.223 57.1926 102.488 57.1926Z" fill="black"/>
<path d="M85.215 37.7308H119.762C120.766 37.7308 121.573 38.538 121.573 39.5425C121.573 40.547 120.766 41.3541 119.762 41.3541H85.215C84.2105 41.3541 83.4033 40.547 83.4033 39.5425C83.4033 38.538 84.2105 37.7308 85.215 37.7308Z" fill="#00D4A4"/>
<path d="M119.761 42.0714H85.2147C83.8156 42.0714 82.6855 40.9414 82.6855 39.5423C82.6855 38.1432 83.8156 37.0132 85.2147 37.0132H119.761C121.161 37.0132 122.291 38.1432 122.291 39.5423C122.291 40.9414 121.143 42.0714 119.761 42.0714ZM85.2147 38.4481C84.6048 38.4481 84.1205 38.9324 84.1205 39.5423C84.1205 40.1522 84.6048 40.6365 85.2147 40.6365H119.761C120.371 40.6365 120.856 40.1522 120.856 39.5423C120.856 38.9324 120.371 38.4481 119.761 38.4481H85.2147Z" fill="black"/>
<path d="M102.488 17.5874C104.102 17.5874 105.411 16.2783 105.411 14.6636C105.411 13.0489 104.102 11.7399 102.488 11.7399C100.873 11.7399 99.564 13.0489 99.564 14.6636C99.564 16.2783 100.873 17.5874 102.488 17.5874Z" fill="white"/>
<path d="M102.488 18.3227C100.784 18.3227 99.2772 17.1389 98.9184 15.4169C98.5059 13.4439 99.7794 11.5067 101.752 11.112C103.726 10.6995 105.663 11.973 106.057 13.9461C106.47 15.9192 105.196 17.8564 103.223 18.251C102.972 18.3048 102.721 18.3227 102.488 18.3227ZM102.488 12.4573C102.344 12.4573 102.183 12.4753 102.039 12.5111C101.466 12.6367 100.963 12.9596 100.64 13.4618C100.318 13.964 100.21 14.538 100.318 15.1299C100.443 15.7039 100.766 16.2062 101.268 16.529C101.77 16.8519 102.344 16.9595 102.936 16.8519C103.51 16.7263 104.013 16.4035 104.335 15.9012C104.658 15.399 104.766 14.825 104.658 14.2331C104.533 13.6591 104.21 13.1569 103.708 12.834C103.331 12.5829 102.918 12.4573 102.488 12.4573Z" fill="black"/>
<path d="M20.8026 34.3944C22.4174 34.3944 23.7264 33.0854 23.7264 31.4706C23.7264 29.8559 22.4174 28.5469 20.8026 28.5469C19.1879 28.5469 17.8789 29.8559 17.8789 31.4706C17.8789 33.0854 19.1879 34.3944 20.8026 34.3944Z" fill="white"/>
<path d="M20.8029 35.1118C19.0988 35.1118 17.5921 33.928 17.2334 32.206C16.8208 30.2329 18.0944 28.2957 20.0674 27.9011C22.0405 27.4886 23.9777 28.7621 24.3723 30.7352C24.7669 32.7082 23.5114 34.6454 21.5383 35.0401C21.2872 35.0939 21.054 35.1118 20.8029 35.1118ZM20.8029 29.2464C20.6594 29.2464 20.4979 29.2643 20.3544 29.3002C19.7804 29.4258 19.2782 29.7486 18.9553 30.2509C18.6325 30.7531 18.5248 31.3271 18.6325 31.919C18.758 32.493 19.0809 32.9952 19.5831 33.3181C20.0854 33.641 20.6594 33.7486 21.2513 33.641C21.8253 33.5154 22.3275 33.1925 22.6504 32.6903C22.9732 32.1881 23.0809 31.6141 22.9732 31.0222C22.8477 30.4482 22.5248 29.9459 22.0226 29.6231C21.6638 29.3719 21.2333 29.2464 20.8029 29.2464Z" fill="black"/>
<path d="M20.3723 65.2999C25.3255 65.2999 29.3409 61.2845 29.3409 56.3313C29.3409 51.3781 25.3255 47.3628 20.3723 47.3628C15.4192 47.3628 11.4038 51.3781 11.4038 56.3313C11.4038 61.2845 15.4192 65.2999 20.3723 65.2999Z" fill="#00D4A4"/>
<path d="M20.3721 66.0175C15.0268 66.0175 10.686 61.6768 10.686 56.3315C10.686 50.9863 15.0268 46.6455 20.3721 46.6455C25.7173 46.6455 30.0581 50.9863 30.0581 56.3315C30.0581 61.6768 25.7173 66.0175 20.3721 66.0175ZM20.3721 48.0805C15.816 48.0805 12.121 51.7755 12.121 56.3315C12.121 60.8875 15.816 64.5826 20.3721 64.5826C24.9281 64.5826 28.6231 60.8875 28.6231 56.3315C28.6231 51.7755 24.9281 48.0805 20.3721 48.0805Z" fill="black"/>
<path d="M24.7485 57.2999L20.8382 61.3358C20.5871 61.6048 20.1746 61.6048 19.9234 61.3358L16.0132 57.2999C14.8831 56.1161 14.9369 54.1789 16.2105 53.0847C17.3226 52.1341 18.9728 52.3134 19.9952 53.3538L20.3898 53.7663L20.7844 53.3538C21.8068 52.2955 23.457 52.1341 24.5691 53.0847C25.8247 54.1789 25.8965 56.1161 24.7485 57.2999Z" fill="white"/>
<path d="M102.488 48.5108C107.441 48.5108 111.456 44.4955 111.456 39.5423C111.456 34.5891 107.441 30.5737 102.488 30.5737C97.5344 30.5737 93.519 34.5891 93.519 39.5423C93.519 44.4955 97.5344 48.5108 102.488 48.5108Z" fill="#00D4A4"/>
<path d="M102.488 49.2284C97.1425 49.2284 92.8018 44.8876 92.8018 39.5423C92.8018 34.1971 97.1425 29.8563 102.488 29.8563C107.833 29.8563 112.174 34.1971 112.174 39.5423C112.174 44.8876 107.833 49.2284 102.488 49.2284ZM102.488 31.2913C97.9318 31.2913 94.2367 34.9863 94.2367 39.5423C94.2367 44.0984 97.9318 47.7934 102.488 47.7934C107.044 47.7934 110.739 44.0984 110.739 39.5423C110.739 34.9863 107.026 31.2913 102.488 31.2913Z" fill="black"/>
<path d="M105.268 41.9638C104.963 42.8607 104.066 43.4167 103.133 43.4347V44.4033C103.133 44.5827 102.99 44.7262 102.811 44.7262H102.165C101.986 44.7262 101.842 44.5827 101.842 44.4033V43.4347C101.214 43.4347 100.586 43.2194 100.084 42.8248C99.9227 42.6993 99.9048 42.4661 100.048 42.3226L100.748 41.641C100.855 41.5334 101.017 41.5154 101.142 41.6051C101.34 41.7486 101.591 41.8203 101.842 41.8203H103.187C103.51 41.8203 103.779 41.5513 103.779 41.2284C103.779 40.9594 103.6 40.7262 103.349 40.6544L101.268 40.0446C100.371 39.7755 99.6537 39.0222 99.564 38.0894C99.4384 36.78 100.479 35.6679 101.77 35.6679H101.824V34.6993C101.824 34.52 101.968 34.3765 102.147 34.3765H102.793C102.972 34.3765 103.116 34.52 103.116 34.6993V35.6679C103.743 35.6679 104.371 35.8832 104.873 36.2778C105.035 36.4034 105.053 36.6365 104.909 36.78L104.21 37.4616C104.102 37.5693 103.941 37.5872 103.815 37.4975C103.618 37.354 103.367 37.2823 103.116 37.2823H101.77C101.447 37.2823 101.178 37.5513 101.178 37.8742C101.178 38.1432 101.358 38.3764 101.609 38.4482L103.797 39.0939C104.981 39.4347 105.698 40.7083 105.268 41.9638Z" fill="white"/>
</svg>
